<?xml version="1.0" encoding="UTF-8" standalone="no"?>
<!DOCTYPE svg PUBLIC "-//W3C//DTD SVG 1.1//EN"
 "http://www.w3.org/Graphics/SVG/1.1/DTD/svg11.dtd">
<!-- Generated by graphviz version 2.40.1 (20161225.0304)
 -->
<!-- Title: dependencies Pages: 1 -->
<svg width="1262pt" height="284pt"
 viewBox="0.00 0.00 1262.00 284.00" xmlns="http://www.w3.org/2000/svg" xmlns:xlink="http://www.w3.org/1999/xlink">
<g id="graph0" class="graph" transform="scale(1 1) rotate(0) translate(4 280)">
<title>dependencies</title>
<polygon fill="#ffffff" stroke="transparent" points="-4,4 -4,-280 1258,-280 1258,4 -4,4"/>
<text text-anchor="start" x="606.0091" y="-42.4" font-family="sans-serif" font-weight="bold" font-size="14.00" fill="#000000">Legend</text>
<polygon fill="#ffffb3" stroke="transparent" points="393,-10 393,-30 413,-30 413,-10 393,-10"/>
<text text-anchor="start" x="416.629" y="-15.4" font-family="sans-serif" font-size="14.00" fill="#000000"> &#160;Declarations</text>
<polygon fill="#8dd3c7" stroke="transparent" points="506,-10 506,-30 526,-30 526,-10 506,-10"/>
<text text-anchor="start" x="529.7251" y="-15.4" font-family="sans-serif" font-size="14.00" fill="#000000"> &#160;Module</text>
<polygon fill="#80b1d3" stroke="transparent" points="592,-10 592,-30 612,-30 612,-10 592,-10"/>
<text text-anchor="start" x="615.7812" y="-15.4" font-family="sans-serif" font-size="14.00" fill="#000000"> &#160;Bootstrap</text>
<polygon fill="#fdb462" stroke="transparent" points="689,-10 689,-30 709,-30 709,-10 689,-10"/>
<text text-anchor="start" x="712.6732" y="-15.4" font-family="sans-serif" font-size="14.00" fill="#000000"> &#160;Providers</text>
<polygon fill="#fb8072" stroke="transparent" points="785,-10 785,-30 805,-30 805,-10 785,-10"/>
<text text-anchor="start" x="808.7258" y="-15.4" font-family="sans-serif" font-size="14.00" fill="#000000"> &#160;Exports</text>
<g id="clust1" class="cluster">
<title>cluster_CardModule</title>
<polygon fill="none" stroke="#000000" stroke-dasharray="1,5" points="8,-70 8,-268 1246,-268 1246,-70 8,-70"/>
</g>
<g id="clust2" class="cluster">
<title>cluster_CardModule_declarations</title>
<polygon fill="none" stroke="#000000" points="588,-78 588,-130 1238,-130 1238,-78 588,-78"/>
</g>
<g id="clust7" class="cluster">
<title>cluster_CardModule_imports</title>
<polygon fill="none" stroke="#000000" points="16,-78 16,-130 580,-130 580,-78 16,-78"/>
</g>
<g id="clust8" class="cluster">
<title>cluster_CardModule_exports</title>
<polygon fill="none" stroke="#000000" points="156,-208 156,-260 821,-260 821,-208 156,-208"/>
</g>
<!-- CardComponent -->
<g id="node1" class="node">
<title>CardComponent</title>
<polygon fill="#ffffb3" stroke="#000000" points="1230.0452,-122 1121.9548,-122 1121.9548,-86 1230.0452,-86 1230.0452,-122"/>
<text text-anchor="middle" x="1176" y="-99.8" font-family="Times,serif" font-size="14.00" fill="#000000">CardComponent</text>
</g>
<!-- CardModule -->
<g id="node5" class="node">
<title>CardModule</title>
<polygon fill="#8dd3c7" stroke="#000000" points="567.2619,-187 564.2619,-191 543.2619,-191 540.2619,-187 480.7381,-187 480.7381,-151 567.2619,-151 567.2619,-187"/>
<text text-anchor="middle" x="524" y="-164.8" font-family="Times,serif" font-size="14.00" fill="#000000">CardModule</text>
</g>
<!-- CardComponent&#45;&gt;CardModule -->
<g id="edge1" class="edge">
<title>CardComponent&#45;&gt;CardModule</title>
<path fill="none" stroke="#000000" d="M1176,-122.2843C1176,-143.3211 1176,-175 1176,-175 1176,-175 577.2845,-175 577.2845,-175"/>
<polygon fill="#000000" stroke="#000000" points="577.2845,-171.5001 567.2845,-175 577.2844,-178.5001 577.2845,-171.5001"/>
</g>
<!-- CardFooterComponent -->
<g id="node2" class="node">
<title>CardFooterComponent</title>
<polygon fill="#ffffb3" stroke="#000000" points="1103.5926,-122 958.4074,-122 958.4074,-86 1103.5926,-86 1103.5926,-122"/>
<text text-anchor="middle" x="1031" y="-99.8" font-family="Times,serif" font-size="14.00" fill="#000000">CardFooterComponent</text>
</g>
<!-- CardFooterComponent&#45;&gt;CardModule -->
<g id="edge2" class="edge">
<title>CardFooterComponent&#45;&gt;CardModule</title>
<path fill="none" stroke="#000000" d="M1031,-122.1061C1031,-141.3391 1031,-169 1031,-169 1031,-169 577.6653,-169 577.6653,-169"/>
<polygon fill="#000000" stroke="#000000" points="577.6654,-165.5001 567.6653,-169 577.6653,-172.5001 577.6654,-165.5001"/>
</g>
<!-- CardHeaderComponent -->
<g id="node3" class="node">
<title>CardHeaderComponent</title>
<polygon fill="#ffffb3" stroke="#000000" points="940.4552,-122 791.5448,-122 791.5448,-86 940.4552,-86 940.4552,-122"/>
<text text-anchor="middle" x="866" y="-99.8" font-family="Times,serif" font-size="14.00" fill="#000000">CardHeaderComponent</text>
</g>
<!-- CardHeaderComponent&#45;&gt;CardModule -->
<g id="edge3" class="edge">
<title>CardHeaderComponent&#45;&gt;CardModule</title>
<path fill="none" stroke="#000000" d="M802.2723,-122.0225C802.2723,-139.3734 802.2723,-163 802.2723,-163 802.2723,-163 577.48,-163 577.48,-163"/>
<polygon fill="#000000" stroke="#000000" points="577.4801,-159.5001 567.48,-163 577.48,-166.5001 577.4801,-159.5001"/>
</g>
<!-- KanbanItemCardComponent -->
<g id="node4" class="node">
<title>KanbanItemCardComponent</title>
<polygon fill="#ffffb3" stroke="#000000" points="773.7366,-122 596.2634,-122 596.2634,-86 773.7366,-86 773.7366,-122"/>
<text text-anchor="middle" x="685" y="-99.8" font-family="Times,serif" font-size="14.00" fill="#000000">KanbanItemCardComponent</text>
</g>
<!-- KanbanItemCardComponent&#45;&gt;CardModule -->
<g id="edge4" class="edge">
<title>KanbanItemCardComponent&#45;&gt;CardModule</title>
<path fill="none" stroke="#000000" d="M639.7141,-122.2396C639.7141,-137.5706 639.7141,-157 639.7141,-157 639.7141,-157 577.4169,-157 577.4169,-157"/>
<polygon fill="#000000" stroke="#000000" points="577.4169,-153.5001 567.4169,-157 577.4168,-160.5001 577.4169,-153.5001"/>
</g>
<!-- CardComponent  -->
<g id="node11" class="node">
<title>CardComponent </title>
<polygon fill="#fb8072" stroke="#000000" points="813.0442,-252 700.9558,-252 700.9558,-216 813.0442,-216 813.0442,-252"/>
<text text-anchor="middle" x="757" y="-229.8" font-family="Times,serif" font-size="14.00" fill="#000000">CardComponent </text>
</g>
<!-- CardModule&#45;&gt;CardComponent  -->
<g id="edge10" class="edge">
<title>CardModule&#45;&gt;CardComponent </title>
<path fill="none" stroke="#000000" stroke-dasharray="5,2" d="M567.4466,-181C629.8483,-181 737.4231,-181 737.4231,-181 737.4231,-181 737.4231,-205.7604 737.4231,-205.7604"/>
<polygon fill="#000000" stroke="#000000" points="733.9231,-205.7604 737.4231,-215.7604 740.9231,-205.7604 733.9231,-205.7604"/>
</g>
<!-- CardFooterComponent  -->
<g id="node12" class="node">
<title>CardFooterComponent </title>
<polygon fill="#fb8072" stroke="#000000" points="683.0932,-252 534.9068,-252 534.9068,-216 683.0932,-216 683.0932,-252"/>
<text text-anchor="middle" x="609" y="-229.8" font-family="Times,serif" font-size="14.00" fill="#000000">CardFooterComponent </text>
</g>
<!-- CardModule&#45;&gt;CardFooterComponent  -->
<g id="edge11" class="edge">
<title>CardModule&#45;&gt;CardFooterComponent </title>
<path fill="none" stroke="#000000" stroke-dasharray="5,2" d="M551.0423,-187.1061C551.0423,-187.1061 551.0423,-205.991 551.0423,-205.991"/>
<polygon fill="#000000" stroke="#000000" points="547.5423,-205.9909 551.0423,-215.991 554.5423,-205.991 547.5423,-205.9909"/>
</g>
<!-- CardHeaderComponent  -->
<g id="node13" class="node">
<title>CardHeaderComponent </title>
<polygon fill="#fb8072" stroke="#000000" points="516.4559,-252 363.5441,-252 363.5441,-216 516.4559,-216 516.4559,-252"/>
<text text-anchor="middle" x="440" y="-229.8" font-family="Times,serif" font-size="14.00" fill="#000000">CardHeaderComponent </text>
</g>
<!-- CardModule&#45;&gt;CardHeaderComponent  -->
<g id="edge12" class="edge">
<title>CardModule&#45;&gt;CardHeaderComponent </title>
<path fill="none" stroke="#000000" stroke-dasharray="5,2" d="M498.4234,-187.1061C498.4234,-187.1061 498.4234,-205.991 498.4234,-205.991"/>
<polygon fill="#000000" stroke="#000000" points="494.9235,-205.9909 498.4234,-215.991 501.9235,-205.991 494.9235,-205.9909"/>
</g>
<!-- KanbanItemCardComponent  -->
<g id="node14" class="node">
<title>KanbanItemCardComponent </title>
<polygon fill="#fb8072" stroke="#000000" points="345.7366,-252 164.2634,-252 164.2634,-216 345.7366,-216 345.7366,-252"/>
<text text-anchor="middle" x="255" y="-229.8" font-family="Times,serif" font-size="14.00" fill="#000000">KanbanItemCardComponent </text>
</g>
<!-- CardModule&#45;&gt;KanbanItemCardComponent  -->
<g id="edge13" class="edge">
<title>CardModule&#45;&gt;KanbanItemCardComponent </title>
<path fill="none" stroke="#000000" stroke-dasharray="5,2" d="M480.3529,-181C426.4437,-181 341.7765,-181 341.7765,-181 341.7765,-181 341.7765,-205.7604 341.7765,-205.7604"/>
<polygon fill="#000000" stroke="#000000" points="338.2766,-205.7604 341.7765,-215.7604 345.2766,-205.7604 338.2766,-205.7604"/>
</g>
<!-- BadgeModule -->
<g id="node6" class="node">
<title>BadgeModule</title>
<polygon fill="#8dd3c7" stroke="#000000" points="571.8161,-122 568.8161,-126 547.8161,-126 544.8161,-122 476.1839,-122 476.1839,-86 571.8161,-86 571.8161,-122"/>
<text text-anchor="middle" x="524" y="-99.8" font-family="Times,serif" font-size="14.00" fill="#000000">BadgeModule</text>
</g>
<!-- BadgeModule&#45;&gt;CardModule -->
<g id="edge5" class="edge">
<title>BadgeModule&#45;&gt;CardModule</title>
<path fill="none" stroke="#000000" d="M524,-122.1061C524,-122.1061 524,-140.991 524,-140.991"/>
<polygon fill="#000000" stroke="#000000" points="520.5001,-140.9909 524,-150.991 527.5001,-140.991 520.5001,-140.9909"/>
</g>
<!-- DividerModule -->
<g id="node7" class="node">
<title>DividerModule</title>
<polygon fill="#8dd3c7" stroke="#000000" points="458.3133,-122 455.3133,-126 434.3133,-126 431.3133,-122 355.6867,-122 355.6867,-86 458.3133,-86 458.3133,-122"/>
<text text-anchor="middle" x="407" y="-99.8" font-family="Times,serif" font-size="14.00" fill="#000000">DividerModule</text>
</g>
<!-- DividerModule&#45;&gt;CardModule -->
<g id="edge6" class="edge">
<title>DividerModule&#45;&gt;CardModule</title>
<path fill="none" stroke="#000000" d="M410.9644,-122.2396C410.9644,-137.5706 410.9644,-157 410.9644,-157 410.9644,-157 470.6208,-157 470.6208,-157"/>
<polygon fill="#000000" stroke="#000000" points="470.6208,-160.5001 480.6208,-157 470.6207,-153.5001 470.6208,-160.5001"/>
</g>
<!-- IconsModule -->
<g id="node8" class="node">
<title>IconsModule</title>
<polygon fill="#8dd3c7" stroke="#000000" points="337.8697,-122 334.8697,-126 313.8697,-126 310.8697,-122 248.1303,-122 248.1303,-86 337.8697,-86 337.8697,-122"/>
<text text-anchor="middle" x="293" y="-99.8" font-family="Times,serif" font-size="14.00" fill="#000000">IconsModule</text>
</g>
<!-- IconsModule&#45;&gt;CardModule -->
<g id="edge7" class="edge">
<title>IconsModule&#45;&gt;CardModule</title>
<path fill="none" stroke="#000000" d="M293,-122.0225C293,-139.3734 293,-163 293,-163 293,-163 470.5507,-163 470.5507,-163"/>
<polygon fill="#000000" stroke="#000000" points="470.5507,-166.5001 480.5507,-163 470.5506,-159.5001 470.5507,-166.5001"/>
</g>
<!-- InputsModule -->
<g id="node9" class="node">
<title>InputsModule</title>
<polygon fill="#8dd3c7" stroke="#000000" points="230.0467,-122 227.0467,-126 206.0467,-126 203.0467,-122 135.9533,-122 135.9533,-86 230.0467,-86 230.0467,-122"/>
<text text-anchor="middle" x="183" y="-99.8" font-family="Times,serif" font-size="14.00" fill="#000000">InputsModule</text>
</g>
<!-- InputsModule&#45;&gt;CardModule -->
<g id="edge8" class="edge">
<title>InputsModule&#45;&gt;CardModule</title>
<path fill="none" stroke="#000000" d="M197.3273,-122.1061C197.3273,-141.3391 197.3273,-169 197.3273,-169 197.3273,-169 470.6204,-169 470.6204,-169"/>
<polygon fill="#000000" stroke="#000000" points="470.6204,-172.5001 480.6204,-169 470.6204,-165.5001 470.6204,-172.5001"/>
</g>
<!-- StatusModule -->
<g id="node10" class="node">
<title>StatusModule</title>
<polygon fill="#8dd3c7" stroke="#000000" points="117.7731,-122 114.7731,-126 93.7731,-126 90.7731,-122 24.2269,-122 24.2269,-86 117.7731,-86 117.7731,-122"/>
<text text-anchor="middle" x="71" y="-99.8" font-family="Times,serif" font-size="14.00" fill="#000000">StatusModule</text>
</g>
<!-- StatusModule&#45;&gt;CardModule -->
<g id="edge9" class="edge">
<title>StatusModule&#45;&gt;CardModule</title>
<path fill="none" stroke="#000000" d="M71,-122.2843C71,-143.3211 71,-175 71,-175 71,-175 470.5645,-175 470.5645,-175"/>
<polygon fill="#000000" stroke="#000000" points="470.5645,-178.5001 480.5645,-175 470.5644,-171.5001 470.5645,-178.5001"/>
</g>
</g>
</svg>
