<?xml version="1.0" encoding="UTF-8" standalone="no"?>
<!DOCTYPE svg PUBLIC "-//W3C//DTD SVG 1.1//EN"
 "http://www.w3.org/Graphics/SVG/1.1/DTD/svg11.dtd">
<!-- Generated by graphviz version 2.40.1 (20161225.0304)
 -->
<!-- Title: dependencies Pages: 1 -->
<svg width="1662pt" height="284pt"
 viewBox="0.00 0.00 1662.00 284.00" xmlns="http://www.w3.org/2000/svg" xmlns:xlink="http://www.w3.org/1999/xlink">
<g id="graph0" class="graph" transform="scale(1 1) rotate(0) translate(4 280)">
<title>dependencies</title>
<polygon fill="#ffffff" stroke="transparent" points="-4,4 -4,-280 1658,-280 1658,4 -4,4"/>
<text text-anchor="start" x="806.0091" y="-42.4" font-family="sans-serif" font-weight="bold" font-size="14.00" fill="#000000">Legend</text>
<polygon fill="#ffffb3" stroke="transparent" points="593,-10 593,-30 613,-30 613,-10 593,-10"/>
<text text-anchor="start" x="616.629" y="-15.4" font-family="sans-serif" font-size="14.00" fill="#000000"> &#160;Declarations</text>
<polygon fill="#8dd3c7" stroke="transparent" points="706,-10 706,-30 726,-30 726,-10 706,-10"/>
<text text-anchor="start" x="729.7251" y="-15.4" font-family="sans-serif" font-size="14.00" fill="#000000"> &#160;Module</text>
<polygon fill="#80b1d3" stroke="transparent" points="792,-10 792,-30 812,-30 812,-10 792,-10"/>
<text text-anchor="start" x="815.7812" y="-15.4" font-family="sans-serif" font-size="14.00" fill="#000000"> &#160;Bootstrap</text>
<polygon fill="#fdb462" stroke="transparent" points="889,-10 889,-30 909,-30 909,-10 889,-10"/>
<text text-anchor="start" x="912.6732" y="-15.4" font-family="sans-serif" font-size="14.00" fill="#000000"> &#160;Providers</text>
<polygon fill="#fb8072" stroke="transparent" points="985,-10 985,-30 1005,-30 1005,-10 985,-10"/>
<text text-anchor="start" x="1008.7258" y="-15.4" font-family="sans-serif" font-size="14.00" fill="#000000"> &#160;Exports</text>
<g id="clust1" class="cluster">
<title>cluster_AppRootModule</title>
<polygon fill="none" stroke="#000000" stroke-dasharray="1,5" points="8,-70 8,-268 1646,-268 1646,-70 8,-70"/>
</g>
<g id="clust2" class="cluster">
<title>cluster_AppRootModule_declarations</title>
<polygon fill="none" stroke="#000000" points="1516,-78 1516,-130 1638,-130 1638,-78 1516,-78"/>
</g>
<g id="clust4" class="cluster">
<title>cluster_AppRootModule_imports</title>
<polygon fill="none" stroke="#000000" points="16,-78 16,-130 1508,-130 1508,-78 16,-78"/>
</g>
<g id="clust6" class="cluster">
<title>cluster_AppRootModule_bootstrap</title>
<polygon fill="none" stroke="#000000" points="752,-208 752,-260 876,-260 876,-208 752,-208"/>
</g>
<!-- AppComponent -->
<g id="node1" class="node">
<title>AppComponent</title>
<polygon fill="#ffffb3" stroke="#000000" points="1629.9399,-122 1524.0601,-122 1524.0601,-86 1629.9399,-86 1629.9399,-122"/>
<text text-anchor="middle" x="1577" y="-99.8" font-family="Times,serif" font-size="14.00" fill="#000000">AppComponent</text>
</g>
<!-- AppRootModule -->
<g id="node2" class="node">
<title>AppRootModule</title>
<polygon fill="#8dd3c7" stroke="#000000" points="869.3837,-187 866.3837,-191 845.3837,-191 842.3837,-187 758.6163,-187 758.6163,-151 869.3837,-151 869.3837,-187"/>
<text text-anchor="middle" x="814" y="-164.8" font-family="Times,serif" font-size="14.00" fill="#000000">AppRootModule</text>
</g>
<!-- AppComponent&#45;&gt;AppRootModule -->
<g id="edge1" class="edge">
<title>AppComponent&#45;&gt;AppRootModule</title>
<path fill="none" stroke="#000000" d="M1577,-122.0908C1577,-145.1328 1577,-182 1577,-182 1577,-182 879.4877,-182 879.4877,-182"/>
<polygon fill="#000000" stroke="#000000" points="879.4877,-178.5001 869.4877,-182 879.4876,-185.5001 879.4877,-178.5001"/>
</g>
<!-- AppComponent  -->
<g id="node15" class="node">
<title>AppComponent </title>
<polygon fill="#80b1d3" stroke="#000000" points="868.439,-252 759.561,-252 759.561,-216 868.439,-216 868.439,-252"/>
<text text-anchor="middle" x="814" y="-229.8" font-family="Times,serif" font-size="14.00" fill="#000000">AppComponent </text>
</g>
<!-- AppRootModule&#45;&gt;AppComponent  -->
<g id="edge15" class="edge">
<title>AppRootModule&#45;&gt;AppComponent </title>
<path fill="none" stroke="#000000" stroke-dasharray="1,5" d="M814,-187.1061C814,-187.1061 814,-205.991 814,-205.991"/>
<polygon fill="#000000" stroke="#000000" points="810.5001,-205.9909 814,-215.991 817.5001,-205.991 810.5001,-205.9909"/>
</g>
<!-- AppApolloModule -->
<g id="node3" class="node">
<title>AppApolloModule</title>
<polygon fill="#8dd3c7" stroke="#000000" points="1500.045,-122 1497.045,-126 1476.045,-126 1473.045,-122 1377.955,-122 1377.955,-86 1500.045,-86 1500.045,-122"/>
<text text-anchor="middle" x="1439" y="-99.8" font-family="Times,serif" font-size="14.00" fill="#000000">AppApolloModule</text>
</g>
<!-- AppApolloModule&#45;&gt;AppRootModule -->
<g id="edge2" class="edge">
<title>AppApolloModule&#45;&gt;AppRootModule</title>
<path fill="none" stroke="#000000" d="M1439,-122.0449C1439,-143.6623 1439,-177 1439,-177 1439,-177 879.4646,-177 879.4646,-177"/>
<polygon fill="#000000" stroke="#000000" points="879.4646,-173.5001 869.4646,-177 879.4645,-180.5001 879.4646,-173.5001"/>
</g>
<!-- AuthModule -->
<g id="node4" class="node">
<title>AuthModule</title>
<polygon fill="#8dd3c7" stroke="#000000" points="1359.5482,-122 1356.5482,-126 1335.5482,-126 1332.5482,-122 1272.4518,-122 1272.4518,-86 1359.5482,-86 1359.5482,-122"/>
<text text-anchor="middle" x="1316" y="-99.8" font-family="Times,serif" font-size="14.00" fill="#000000">AuthModule</text>
</g>
<!-- AuthModule&#45;&gt;AppRootModule -->
<g id="edge3" class="edge">
<title>AuthModule&#45;&gt;AppRootModule</title>
<path fill="none" stroke="#000000" d="M1316,-122.2228C1316,-142.3652 1316,-172 1316,-172 1316,-172 879.6408,-172 879.6408,-172"/>
<polygon fill="#000000" stroke="#000000" points="879.6409,-168.5001 869.6408,-172 879.6408,-175.5001 879.6409,-168.5001"/>
</g>
<!-- CardModule -->
<g id="node5" class="node">
<title>CardModule</title>
<polygon fill="#8dd3c7" stroke="#000000" points="1254.2619,-122 1251.2619,-126 1230.2619,-126 1227.2619,-122 1167.7381,-122 1167.7381,-86 1254.2619,-86 1254.2619,-122"/>
<text text-anchor="middle" x="1211" y="-99.8" font-family="Times,serif" font-size="14.00" fill="#000000">CardModule</text>
</g>
<!-- CardModule&#45;&gt;AppRootModule -->
<g id="edge4" class="edge">
<title>CardModule&#45;&gt;AppRootModule</title>
<path fill="none" stroke="#000000" d="M1211,-122.2222C1211,-140.8285 1211,-167 1211,-167 1211,-167 879.6192,-167 879.6192,-167"/>
<polygon fill="#000000" stroke="#000000" points="879.6192,-163.5001 869.6192,-167 879.6191,-170.5001 879.6192,-163.5001"/>
</g>
<!-- DialogModule -->
<g id="node6" class="node">
<title>DialogModule</title>
<polygon fill="#8dd3c7" stroke="#000000" points="1149.6528,-122 1146.6528,-126 1125.6528,-126 1122.6528,-122 1052.3472,-122 1052.3472,-86 1149.6528,-86 1149.6528,-122"/>
<text text-anchor="middle" x="1101" y="-99.8" font-family="Times,serif" font-size="14.00" fill="#000000">DialogModule</text>
</g>
<!-- DialogModule&#45;&gt;AppRootModule -->
<g id="edge5" class="edge">
<title>DialogModule&#45;&gt;AppRootModule</title>
<path fill="none" stroke="#000000" d="M1101,-122.0336C1101,-139.0597 1101,-162 1101,-162 1101,-162 879.6768,-162 879.6768,-162"/>
<polygon fill="#000000" stroke="#000000" points="879.6768,-158.5001 869.6768,-162 879.6768,-165.5001 879.6768,-158.5001"/>
</g>
<!-- EventModule -->
<g id="node7" class="node">
<title>EventModule</title>
<polygon fill="#8dd3c7" stroke="#000000" points="1034.2078,-122 1031.2078,-126 1010.2078,-126 1007.2078,-122 941.7922,-122 941.7922,-86 1034.2078,-86 1034.2078,-122"/>
<text text-anchor="middle" x="988" y="-99.8" font-family="Times,serif" font-size="14.00" fill="#000000">EventModule</text>
</g>
<!-- EventModule&#45;&gt;AppRootModule -->
<g id="edge6" class="edge">
<title>EventModule&#45;&gt;AppRootModule</title>
<path fill="none" stroke="#000000" d="M988,-122.2396C988,-137.5706 988,-157 988,-157 988,-157 879.5331,-157 879.5331,-157"/>
<polygon fill="#000000" stroke="#000000" points="879.5331,-153.5001 869.5331,-157 879.5331,-160.5001 879.5331,-153.5001"/>
</g>
<!-- IconsModule -->
<g id="node8" class="node">
<title>IconsModule</title>
<polygon fill="#8dd3c7" stroke="#000000" points="923.8697,-122 920.8697,-126 899.8697,-126 896.8697,-122 834.1303,-122 834.1303,-86 923.8697,-86 923.8697,-122"/>
<text text-anchor="middle" x="879" y="-99.8" font-family="Times,serif" font-size="14.00" fill="#000000">IconsModule</text>
</g>
<!-- IconsModule&#45;&gt;AppRootModule -->
<g id="edge7" class="edge">
<title>IconsModule&#45;&gt;AppRootModule</title>
<path fill="none" stroke="#000000" d="M851.7535,-122.1061C851.7535,-122.1061 851.7535,-140.991 851.7535,-140.991"/>
<polygon fill="#000000" stroke="#000000" points="848.2536,-140.9909 851.7535,-150.991 855.2536,-140.991 848.2536,-140.9909"/>
</g>
<!-- LocalStorageModule -->
<g id="node9" class="node">
<title>LocalStorageModule</title>
<polygon fill="#8dd3c7" stroke="#000000" points="816.1853,-122 813.1853,-126 792.1853,-126 789.1853,-122 681.8147,-122 681.8147,-86 816.1853,-86 816.1853,-122"/>
<text text-anchor="middle" x="749" y="-99.8" font-family="Times,serif" font-size="14.00" fill="#000000">LocalStorageModule</text>
</g>
<!-- LocalStorageModule&#45;&gt;AppRootModule -->
<g id="edge8" class="edge">
<title>LocalStorageModule&#45;&gt;AppRootModule</title>
<path fill="none" stroke="#000000" d="M787.3254,-122.1061C787.3254,-122.1061 787.3254,-140.991 787.3254,-140.991"/>
<polygon fill="#000000" stroke="#000000" points="783.8255,-140.9909 787.3254,-150.991 790.8255,-140.991 783.8255,-140.9909"/>
</g>
<!-- NotificationsModule -->
<g id="node10" class="node">
<title>NotificationsModule</title>
<polygon fill="#8dd3c7" stroke="#000000" points="664.1443,-122 661.1443,-126 640.1443,-126 637.1443,-122 531.8557,-122 531.8557,-86 664.1443,-86 664.1443,-122"/>
<text text-anchor="middle" x="598" y="-99.8" font-family="Times,serif" font-size="14.00" fill="#000000">NotificationsModule</text>
</g>
<!-- NotificationsModule&#45;&gt;AppRootModule -->
<g id="edge9" class="edge">
<title>NotificationsModule&#45;&gt;AppRootModule</title>
<path fill="none" stroke="#000000" d="M598,-122.2396C598,-137.5706 598,-157 598,-157 598,-157 748.3746,-157 748.3746,-157"/>
<polygon fill="#000000" stroke="#000000" points="748.3747,-160.5001 758.3746,-157 748.3746,-153.5001 748.3747,-160.5001"/>
</g>
<!-- PickATeamModule -->
<g id="node11" class="node">
<title>PickATeamModule</title>
<polygon fill="#8dd3c7" stroke="#000000" points="513.4173,-122 510.4173,-126 489.4173,-126 486.4173,-122 386.5827,-122 386.5827,-86 513.4173,-86 513.4173,-122"/>
<text text-anchor="middle" x="450" y="-99.8" font-family="Times,serif" font-size="14.00" fill="#000000">PickATeamModule</text>
</g>
<!-- PickATeamModule&#45;&gt;AppRootModule -->
<g id="edge10" class="edge">
<title>PickATeamModule&#45;&gt;AppRootModule</title>
<path fill="none" stroke="#000000" d="M450,-122.0336C450,-139.0597 450,-162 450,-162 450,-162 748.32,-162 748.32,-162"/>
<polygon fill="#000000" stroke="#000000" points="748.32,-165.5001 758.32,-162 748.32,-158.5001 748.32,-165.5001"/>
</g>
<!-- TemplateModule -->
<g id="node12" class="node">
<title>TemplateModule</title>
<polygon fill="#8dd3c7" stroke="#000000" points="369.4188,-122 366.4188,-126 345.4188,-126 342.4188,-122 256.5812,-122 256.5812,-86 369.4188,-86 369.4188,-122"/>
<text text-anchor="middle" x="313" y="-99.8" font-family="Times,serif" font-size="14.00" fill="#000000">TemplateModule</text>
</g>
<!-- TemplateModule&#45;&gt;AppRootModule -->
<g id="edge11" class="edge">
<title>TemplateModule&#45;&gt;AppRootModule</title>
<path fill="none" stroke="#000000" d="M331.7363,-122.2222C331.7363,-140.8285 331.7363,-167 331.7363,-167 331.7363,-167 748.2071,-167 748.2071,-167"/>
<polygon fill="#000000" stroke="#000000" points="748.2071,-170.5001 758.2071,-167 748.2071,-163.5001 748.2071,-170.5001"/>
</g>
<!-- TemplateModule&#45;&gt;AppRootModule -->
<g id="edge12" class="edge">
<title>TemplateModule&#45;&gt;AppRootModule</title>
<path fill="none" stroke="#000000" d="M294.2637,-122.2228C294.2637,-142.3652 294.2637,-172 294.2637,-172 294.2637,-172 748.3791,-172 748.3791,-172"/>
<polygon fill="#000000" stroke="#000000" points="748.3791,-175.5001 758.3791,-172 748.3791,-168.5001 748.3791,-175.5001"/>
</g>
<!-- TestPageModule -->
<g id="node13" class="node">
<title>TestPageModule</title>
<polygon fill="#8dd3c7" stroke="#000000" points="238.3641,-122 235.3641,-126 214.3641,-126 211.3641,-122 127.6359,-122 127.6359,-86 238.3641,-86 238.3641,-122"/>
<text text-anchor="middle" x="183" y="-99.8" font-family="Times,serif" font-size="14.00" fill="#000000">TestPageModule</text>
</g>
<!-- TestPageModule&#45;&gt;AppRootModule -->
<g id="edge13" class="edge">
<title>TestPageModule&#45;&gt;AppRootModule</title>
<path fill="none" stroke="#000000" d="M183,-122.0449C183,-143.6623 183,-177 183,-177 183,-177 748.556,-177 748.556,-177"/>
<polygon fill="#000000" stroke="#000000" points="748.556,-180.5001 758.556,-177 748.556,-173.5001 748.556,-180.5001"/>
</g>
<!-- UserModule -->
<g id="node14" class="node">
<title>UserModule</title>
<polygon fill="#8dd3c7" stroke="#000000" points="109.9762,-122 106.9762,-126 85.9762,-126 82.9762,-122 24.0238,-122 24.0238,-86 109.9762,-86 109.9762,-122"/>
<text text-anchor="middle" x="67" y="-99.8" font-family="Times,serif" font-size="14.00" fill="#000000">UserModule</text>
</g>
<!-- UserModule&#45;&gt;AppRootModule -->
<g id="edge14" class="edge">
<title>UserModule&#45;&gt;AppRootModule</title>
<path fill="none" stroke="#000000" d="M67,-122.0908C67,-145.1328 67,-182 67,-182 67,-182 748.4639,-182 748.4639,-182"/>
<polygon fill="#000000" stroke="#000000" points="748.4639,-185.5001 758.4639,-182 748.4638,-178.5001 748.4639,-185.5001"/>
</g>
</g>
</svg>
