<?xml version="1.0" encoding="UTF-8" standalone="no"?>
<!DOCTYPE svg PUBLIC "-//W3C//DTD SVG 1.1//EN"
 "http://www.w3.org/Graphics/SVG/1.1/DTD/svg11.dtd">
<!-- Generated by graphviz version 2.40.1 (20161225.0304)
 -->
<!-- Title: dependencies Pages: 1 -->
<svg width="1518pt" height="284pt"
 viewBox="0.00 0.00 1518.00 284.00" xmlns="http://www.w3.org/2000/svg" xmlns:xlink="http://www.w3.org/1999/xlink">
<g id="graph0" class="graph" transform="scale(1 1) rotate(0) translate(4 280)">
<title>dependencies</title>
<polygon fill="#ffffff" stroke="transparent" points="-4,4 -4,-280 1514,-280 1514,4 -4,4"/>
<text text-anchor="start" x="734.0091" y="-42.4" font-family="sans-serif" font-weight="bold" font-size="14.00" fill="#000000">Legend</text>
<polygon fill="#ffffb3" stroke="transparent" points="521,-10 521,-30 541,-30 541,-10 521,-10"/>
<text text-anchor="start" x="544.629" y="-15.4" font-family="sans-serif" font-size="14.00" fill="#000000"> &#160;Declarations</text>
<polygon fill="#8dd3c7" stroke="transparent" points="634,-10 634,-30 654,-30 654,-10 634,-10"/>
<text text-anchor="start" x="657.7251" y="-15.4" font-family="sans-serif" font-size="14.00" fill="#000000"> &#160;Module</text>
<polygon fill="#80b1d3" stroke="transparent" points="720,-10 720,-30 740,-30 740,-10 720,-10"/>
<text text-anchor="start" x="743.7812" y="-15.4" font-family="sans-serif" font-size="14.00" fill="#000000"> &#160;Bootstrap</text>
<polygon fill="#fdb462" stroke="transparent" points="817,-10 817,-30 837,-30 837,-10 817,-10"/>
<text text-anchor="start" x="840.6732" y="-15.4" font-family="sans-serif" font-size="14.00" fill="#000000"> &#160;Providers</text>
<polygon fill="#fb8072" stroke="transparent" points="913,-10 913,-30 933,-30 933,-10 913,-10"/>
<text text-anchor="start" x="936.7258" y="-15.4" font-family="sans-serif" font-size="14.00" fill="#000000"> &#160;Exports</text>
<g id="clust1" class="cluster">
<title>cluster_TestPageModule</title>
<polygon fill="none" stroke="#000000" stroke-dasharray="1,5" points="8,-70 8,-268 1502,-268 1502,-70 8,-70"/>
</g>
<g id="clust2" class="cluster">
<title>cluster_TestPageModule_declarations</title>
<polygon fill="none" stroke="#000000" points="1346,-78 1346,-130 1494,-130 1494,-78 1346,-78"/>
</g>
<g id="clust4" class="cluster">
<title>cluster_TestPageModule_imports</title>
<polygon fill="none" stroke="#000000" points="16,-78 16,-130 1338,-130 1338,-78 16,-78"/>
</g>
<g id="clust5" class="cluster">
<title>cluster_TestPageModule_exports</title>
<polygon fill="none" stroke="#000000" points="643,-208 643,-260 795,-260 795,-208 643,-208"/>
</g>
<!-- TestPageComponent -->
<g id="node1" class="node">
<title>TestPageComponent</title>
<polygon fill="#ffffb3" stroke="#000000" points="1486.1471,-122 1353.8529,-122 1353.8529,-86 1486.1471,-86 1486.1471,-122"/>
<text text-anchor="middle" x="1420" y="-99.8" font-family="Times,serif" font-size="14.00" fill="#000000">TestPageComponent</text>
</g>
<!-- TestPageModule -->
<g id="node2" class="node">
<title>TestPageModule</title>
<polygon fill="#8dd3c7" stroke="#000000" points="774.3641,-187 771.3641,-191 750.3641,-191 747.3641,-187 663.6359,-187 663.6359,-151 774.3641,-151 774.3641,-187"/>
<text text-anchor="middle" x="719" y="-164.8" font-family="Times,serif" font-size="14.00" fill="#000000">TestPageModule</text>
</g>
<!-- TestPageComponent&#45;&gt;TestPageModule -->
<g id="edge1" class="edge">
<title>TestPageComponent&#45;&gt;TestPageModule</title>
<path fill="none" stroke="#000000" d="M1420,-122.2479C1420,-145.0179 1420,-181 1420,-181 1420,-181 784.5922,-181 784.5922,-181"/>
<polygon fill="#000000" stroke="#000000" points="784.5923,-177.5001 774.5922,-181 784.5922,-184.5001 784.5923,-177.5001"/>
</g>
<!-- TestPageComponent  -->
<g id="node13" class="node">
<title>TestPageComponent </title>
<polygon fill="#fb8072" stroke="#000000" points="787.1467,-252 650.8533,-252 650.8533,-216 787.1467,-216 787.1467,-252"/>
<text text-anchor="middle" x="719" y="-229.8" font-family="Times,serif" font-size="14.00" fill="#000000">TestPageComponent </text>
</g>
<!-- TestPageModule&#45;&gt;TestPageComponent  -->
<g id="edge12" class="edge">
<title>TestPageModule&#45;&gt;TestPageComponent </title>
<path fill="none" stroke="#000000" stroke-dasharray="5,2" d="M719,-187.1061C719,-187.1061 719,-205.991 719,-205.991"/>
<polygon fill="#000000" stroke="#000000" points="715.5001,-205.9909 719,-215.991 722.5001,-205.991 715.5001,-205.9909"/>
</g>
<!-- CardModule -->
<g id="node3" class="node">
<title>CardModule</title>
<polygon fill="#8dd3c7" stroke="#000000" points="1330.2619,-122 1327.2619,-126 1306.2619,-126 1303.2619,-122 1243.7381,-122 1243.7381,-86 1330.2619,-86 1330.2619,-122"/>
<text text-anchor="middle" x="1287" y="-99.8" font-family="Times,serif" font-size="14.00" fill="#000000">CardModule</text>
</g>
<!-- CardModule&#45;&gt;TestPageModule -->
<g id="edge2" class="edge">
<title>CardModule&#45;&gt;TestPageModule</title>
<path fill="none" stroke="#000000" d="M1287,-122.2843C1287,-143.3211 1287,-175 1287,-175 1287,-175 784.4964,-175 784.4964,-175"/>
<polygon fill="#000000" stroke="#000000" points="784.4965,-171.5001 774.4964,-175 784.4964,-178.5001 784.4965,-171.5001"/>
</g>
<!-- ContextMenuModule -->
<g id="node4" class="node">
<title>ContextMenuModule</title>
<polygon fill="#8dd3c7" stroke="#000000" points="1225.0422,-122 1222.0422,-126 1201.0422,-126 1198.0422,-122 1088.9578,-122 1088.9578,-86 1225.0422,-86 1225.0422,-122"/>
<text text-anchor="middle" x="1157" y="-99.8" font-family="Times,serif" font-size="14.00" fill="#000000">ContextMenuModule</text>
</g>
<!-- ContextMenuModule&#45;&gt;TestPageModule -->
<g id="edge3" class="edge">
<title>ContextMenuModule&#45;&gt;TestPageModule</title>
<path fill="none" stroke="#000000" d="M1157,-122.1061C1157,-141.3391 1157,-169 1157,-169 1157,-169 784.473,-169 784.473,-169"/>
<polygon fill="#000000" stroke="#000000" points="784.473,-165.5001 774.473,-169 784.473,-172.5001 784.473,-165.5001"/>
</g>
<!-- DividerModule -->
<g id="node5" class="node">
<title>DividerModule</title>
<polygon fill="#8dd3c7" stroke="#000000" points="1071.3133,-122 1068.3133,-126 1047.3133,-126 1044.3133,-122 968.6867,-122 968.6867,-86 1071.3133,-86 1071.3133,-122"/>
<text text-anchor="middle" x="1020" y="-99.8" font-family="Times,serif" font-size="14.00" fill="#000000">DividerModule</text>
</g>
<!-- DividerModule&#45;&gt;TestPageModule -->
<g id="edge4" class="edge">
<title>DividerModule&#45;&gt;TestPageModule</title>
<path fill="none" stroke="#000000" d="M1020,-122.0225C1020,-139.3734 1020,-163 1020,-163 1020,-163 784.5588,-163 784.5588,-163"/>
<polygon fill="#000000" stroke="#000000" points="784.5589,-159.5001 774.5588,-163 784.5588,-166.5001 784.5589,-159.5001"/>
</g>
<!-- DynamicFormsModule -->
<g id="node6" class="node">
<title>DynamicFormsModule</title>
<polygon fill="#8dd3c7" stroke="#000000" points="951.1456,-122 948.1456,-126 927.1456,-126 924.1456,-122 804.8544,-122 804.8544,-86 951.1456,-86 951.1456,-122"/>
<text text-anchor="middle" x="878" y="-99.8" font-family="Times,serif" font-size="14.00" fill="#000000">DynamicFormsModule</text>
</g>
<!-- DynamicFormsModule&#45;&gt;TestPageModule -->
<g id="edge5" class="edge">
<title>DynamicFormsModule&#45;&gt;TestPageModule</title>
<path fill="none" stroke="#000000" d="M878,-122.2396C878,-137.5706 878,-157 878,-157 878,-157 784.6105,-157 784.6105,-157"/>
<polygon fill="#000000" stroke="#000000" points="784.6105,-153.5001 774.6105,-157 784.6104,-160.5001 784.6105,-153.5001"/>
</g>
<!-- EditableFieldModule -->
<g id="node7" class="node">
<title>EditableFieldModule</title>
<polygon fill="#8dd3c7" stroke="#000000" points="786.4818,-122 783.4818,-126 762.4818,-126 759.4818,-122 651.5182,-122 651.5182,-86 786.4818,-86 786.4818,-122"/>
<text text-anchor="middle" x="719" y="-99.8" font-family="Times,serif" font-size="14.00" fill="#000000">EditableFieldModule</text>
</g>
<!-- EditableFieldModule&#45;&gt;TestPageModule -->
<g id="edge6" class="edge">
<title>EditableFieldModule&#45;&gt;TestPageModule</title>
<path fill="none" stroke="#000000" d="M719,-122.1061C719,-122.1061 719,-140.991 719,-140.991"/>
<polygon fill="#000000" stroke="#000000" points="715.5001,-140.9909 719,-150.991 722.5001,-140.991 715.5001,-140.9909"/>
</g>
<!-- IconsModule -->
<g id="node8" class="node">
<title>IconsModule</title>
<polygon fill="#8dd3c7" stroke="#000000" points="633.8697,-122 630.8697,-126 609.8697,-126 606.8697,-122 544.1303,-122 544.1303,-86 633.8697,-86 633.8697,-122"/>
<text text-anchor="middle" x="589" y="-99.8" font-family="Times,serif" font-size="14.00" fill="#000000">IconsModule</text>
</g>
<!-- IconsModule&#45;&gt;TestPageModule -->
<g id="edge7" class="edge">
<title>IconsModule&#45;&gt;TestPageModule</title>
<path fill="none" stroke="#000000" d="M589,-122.2396C589,-137.5706 589,-157 589,-157 589,-157 653.4912,-157 653.4912,-157"/>
<polygon fill="#000000" stroke="#000000" points="653.4913,-160.5001 663.4912,-157 653.4912,-153.5001 653.4913,-160.5001"/>
</g>
<!-- InputsModule -->
<g id="node9" class="node">
<title>InputsModule</title>
<polygon fill="#8dd3c7" stroke="#000000" points="526.0467,-122 523.0467,-126 502.0467,-126 499.0467,-122 431.9533,-122 431.9533,-86 526.0467,-86 526.0467,-122"/>
<text text-anchor="middle" x="479" y="-99.8" font-family="Times,serif" font-size="14.00" fill="#000000">InputsModule</text>
</g>
<!-- InputsModule&#45;&gt;TestPageModule -->
<g id="edge8" class="edge">
<title>InputsModule&#45;&gt;TestPageModule</title>
<path fill="none" stroke="#000000" d="M479,-122.0225C479,-139.3734 479,-163 479,-163 479,-163 653.3359,-163 653.3359,-163"/>
<polygon fill="#000000" stroke="#000000" points="653.336,-166.5001 663.3359,-163 653.3359,-159.5001 653.336,-166.5001"/>
</g>
<!-- SearchBarModule -->
<g id="node10" class="node">
<title>SearchBarModule</title>
<polygon fill="#8dd3c7" stroke="#000000" points="413.8487,-122 410.8487,-126 389.8487,-126 386.8487,-122 296.1513,-122 296.1513,-86 413.8487,-86 413.8487,-122"/>
<text text-anchor="middle" x="355" y="-99.8" font-family="Times,serif" font-size="14.00" fill="#000000">SearchBarModule</text>
</g>
<!-- SearchBarModule&#45;&gt;TestPageModule -->
<g id="edge9" class="edge">
<title>SearchBarModule&#45;&gt;TestPageModule</title>
<path fill="none" stroke="#000000" d="M355,-122.1061C355,-141.3391 355,-169 355,-169 355,-169 653.32,-169 653.32,-169"/>
<polygon fill="#000000" stroke="#000000" points="653.32,-172.5001 663.32,-169 653.32,-165.5001 653.32,-172.5001"/>
</g>
<!-- SelectorsModule -->
<g id="node11" class="node">
<title>SelectorsModule</title>
<polygon fill="#8dd3c7" stroke="#000000" points="278.3627,-122 275.3627,-126 254.3627,-126 251.3627,-122 167.6373,-122 167.6373,-86 278.3627,-86 278.3627,-122"/>
<text text-anchor="middle" x="223" y="-99.8" font-family="Times,serif" font-size="14.00" fill="#000000">SelectorsModule</text>
</g>
<!-- SelectorsModule&#45;&gt;TestPageModule -->
<g id="edge10" class="edge">
<title>SelectorsModule&#45;&gt;TestPageModule</title>
<path fill="none" stroke="#000000" d="M223,-122.2843C223,-143.3211 223,-175 223,-175 223,-175 653.5463,-175 653.5463,-175"/>
<polygon fill="#000000" stroke="#000000" points="653.5463,-178.5001 663.5463,-175 653.5462,-171.5001 653.5463,-178.5001"/>
</g>
<!-- UserPictureModule -->
<g id="node12" class="node">
<title>UserPictureModule</title>
<polygon fill="#8dd3c7" stroke="#000000" points="149.6303,-122 146.6303,-126 125.6303,-126 122.6303,-122 24.3697,-122 24.3697,-86 149.6303,-86 149.6303,-122"/>
<text text-anchor="middle" x="87" y="-99.8" font-family="Times,serif" font-size="14.00" fill="#000000">UserPictureModule</text>
</g>
<!-- UserPictureModule&#45;&gt;TestPageModule -->
<g id="edge11" class="edge">
<title>UserPictureModule&#45;&gt;TestPageModule</title>
<path fill="none" stroke="#000000" d="M87,-122.2479C87,-145.0179 87,-181 87,-181 87,-181 653.4681,-181 653.4681,-181"/>
<polygon fill="#000000" stroke="#000000" points="653.4682,-184.5001 663.4681,-181 653.4681,-177.5001 653.4682,-184.5001"/>
</g>
</g>
</svg>
