<?xml version="1.0" encoding="UTF-8" standalone="no"?>
<!DOCTYPE svg PUBLIC "-//W3C//DTD SVG 1.1//EN"
 "http://www.w3.org/Graphics/SVG/1.1/DTD/svg11.dtd">
<!-- Generated by graphviz version 2.40.1 (20161225.0304)
 -->
<!-- Title: dependencies Pages: 1 -->
<svg width="1190pt" height="284pt"
 viewBox="0.00 0.00 1190.00 284.00" xmlns="http://www.w3.org/2000/svg" xmlns:xlink="http://www.w3.org/1999/xlink">
<g id="graph0" class="graph" transform="scale(1 1) rotate(0) translate(4 280)">
<title>dependencies</title>
<polygon fill="#ffffff" stroke="transparent" points="-4,4 -4,-280 1186,-280 1186,4 -4,4"/>
<text text-anchor="start" x="570.0091" y="-42.4" font-family="sans-serif" font-weight="bold" font-size="14.00" fill="#000000">Legend</text>
<polygon fill="#ffffb3" stroke="transparent" points="357,-10 357,-30 377,-30 377,-10 357,-10"/>
<text text-anchor="start" x="380.629" y="-15.4" font-family="sans-serif" font-size="14.00" fill="#000000"> &#160;Declarations</text>
<polygon fill="#8dd3c7" stroke="transparent" points="470,-10 470,-30 490,-30 490,-10 470,-10"/>
<text text-anchor="start" x="493.7251" y="-15.4" font-family="sans-serif" font-size="14.00" fill="#000000"> &#160;Module</text>
<polygon fill="#80b1d3" stroke="transparent" points="556,-10 556,-30 576,-30 576,-10 556,-10"/>
<text text-anchor="start" x="579.7812" y="-15.4" font-family="sans-serif" font-size="14.00" fill="#000000"> &#160;Bootstrap</text>
<polygon fill="#fdb462" stroke="transparent" points="653,-10 653,-30 673,-30 673,-10 653,-10"/>
<text text-anchor="start" x="676.6732" y="-15.4" font-family="sans-serif" font-size="14.00" fill="#000000"> &#160;Providers</text>
<polygon fill="#fb8072" stroke="transparent" points="749,-10 749,-30 769,-30 769,-10 749,-10"/>
<text text-anchor="start" x="772.7258" y="-15.4" font-family="sans-serif" font-size="14.00" fill="#000000"> &#160;Exports</text>
<g id="clust1" class="cluster">
<title>cluster_CarouselModule</title>
<polygon fill="none" stroke="#000000" stroke-dasharray="1,5" points="8,-70 8,-268 1174,-268 1174,-70 8,-70"/>
</g>
<g id="clust2" class="cluster">
<title>cluster_CarouselModule_declarations</title>
<polygon fill="none" stroke="#000000" points="466,-78 466,-130 1166,-130 1166,-78 466,-78"/>
</g>
<g id="clust7" class="cluster">
<title>cluster_CarouselModule_imports</title>
<polygon fill="none" stroke="#000000" points="16,-78 16,-130 458,-130 458,-78 16,-78"/>
</g>
<g id="clust8" class="cluster">
<title>cluster_CarouselModule_exports</title>
<polygon fill="none" stroke="#000000" points="110,-208 110,-260 825,-260 825,-208 110,-208"/>
</g>
<!-- CarouselCardComponent -->
<g id="node1" class="node">
<title>CarouselCardComponent</title>
<polygon fill="#ffffb3" stroke="#000000" points="1158.3061,-122 999.6939,-122 999.6939,-86 1158.3061,-86 1158.3061,-122"/>
<text text-anchor="middle" x="1079" y="-99.8" font-family="Times,serif" font-size="14.00" fill="#000000">CarouselCardComponent</text>
</g>
<!-- CarouselModule -->
<g id="node5" class="node">
<title>CarouselModule</title>
<polygon fill="#8dd3c7" stroke="#000000" points="537.8118,-187 534.8118,-191 513.8118,-191 510.8118,-187 428.1882,-187 428.1882,-151 537.8118,-151 537.8118,-187"/>
<text text-anchor="middle" x="483" y="-164.8" font-family="Times,serif" font-size="14.00" fill="#000000">CarouselModule</text>
</g>
<!-- CarouselCardComponent&#45;&gt;CarouselModule -->
<g id="edge1" class="edge">
<title>CarouselCardComponent&#45;&gt;CarouselModule</title>
<path fill="none" stroke="#000000" d="M1079,-122.1289C1079,-142.5724 1079,-173 1079,-173 1079,-173 547.7362,-173 547.7362,-173"/>
<polygon fill="#000000" stroke="#000000" points="547.7362,-169.5001 537.7362,-173 547.7362,-176.5001 547.7362,-169.5001"/>
</g>
<!-- CarouselComponent -->
<g id="node2" class="node">
<title>CarouselComponent</title>
<polygon fill="#ffffb3" stroke="#000000" points="981.594,-122 850.406,-122 850.406,-86 981.594,-86 981.594,-122"/>
<text text-anchor="middle" x="916" y="-99.8" font-family="Times,serif" font-size="14.00" fill="#000000">CarouselComponent</text>
</g>
<!-- CarouselComponent&#45;&gt;CarouselModule -->
<g id="edge2" class="edge">
<title>CarouselComponent&#45;&gt;CarouselModule</title>
<path fill="none" stroke="#000000" d="M916,-122.2667C916,-140.5552 916,-166 916,-166 916,-166 547.8397,-166 547.8397,-166"/>
<polygon fill="#000000" stroke="#000000" points="547.8398,-162.5001 537.8397,-166 547.8397,-169.5001 547.8398,-162.5001"/>
</g>
<!-- ImagePreviewerComponent -->
<g id="node3" class="node">
<title>ImagePreviewerComponent</title>
<polygon fill="#ffffb3" stroke="#000000" points="832.5576,-122 659.4424,-122 659.4424,-86 832.5576,-86 832.5576,-122"/>
<text text-anchor="middle" x="746" y="-99.8" font-family="Times,serif" font-size="14.00" fill="#000000">ImagePreviewerComponent</text>
</g>
<!-- ImagePreviewerComponent&#45;&gt;CarouselModule -->
<g id="edge3" class="edge">
<title>ImagePreviewerComponent&#45;&gt;CarouselModule</title>
<path fill="none" stroke="#000000" d="M711.9484,-122.0091C711.9484,-138.0494 711.9484,-159 711.9484,-159 711.9484,-159 547.8389,-159 547.8389,-159"/>
<polygon fill="#000000" stroke="#000000" points="547.8389,-155.5001 537.8389,-159 547.8388,-162.5001 547.8389,-155.5001"/>
</g>
<!-- ModalCarouselComponent -->
<g id="node4" class="node">
<title>ModalCarouselComponent</title>
<polygon fill="#ffffb3" stroke="#000000" points="641.6442,-122 474.3558,-122 474.3558,-86 641.6442,-86 641.6442,-122"/>
<text text-anchor="middle" x="558" y="-99.8" font-family="Times,serif" font-size="14.00" fill="#000000">ModalCarouselComponent</text>
</g>
<!-- ModalCarouselComponent&#45;&gt;CarouselModule -->
<g id="edge4" class="edge">
<title>ModalCarouselComponent&#45;&gt;CarouselModule</title>
<path fill="none" stroke="#000000" d="M505.9169,-122.1061C505.9169,-122.1061 505.9169,-140.991 505.9169,-140.991"/>
<polygon fill="#000000" stroke="#000000" points="502.417,-140.9909 505.9169,-150.991 509.417,-140.991 502.417,-140.9909"/>
</g>
<!-- CarouselCardComponent  -->
<g id="node10" class="node">
<title>CarouselCardComponent </title>
<polygon fill="#fb8072" stroke="#000000" points="816.8059,-252 655.1941,-252 655.1941,-216 816.8059,-216 816.8059,-252"/>
<text text-anchor="middle" x="736" y="-229.8" font-family="Times,serif" font-size="14.00" fill="#000000">CarouselCardComponent </text>
</g>
<!-- CarouselModule&#45;&gt;CarouselCardComponent  -->
<g id="edge9" class="edge">
<title>CarouselModule&#45;&gt;CarouselCardComponent </title>
<path fill="none" stroke="#000000" stroke-dasharray="5,2" d="M537.9298,-180C619.8298,-180 764.4257,-180 764.4257,-180 764.4257,-180 764.4257,-205.7181 764.4257,-205.7181"/>
<polygon fill="#000000" stroke="#000000" points="760.9258,-205.718 764.4257,-215.7181 767.9258,-205.7181 760.9258,-205.718"/>
</g>
<!-- CarouselComponent  -->
<g id="node11" class="node">
<title>CarouselComponent </title>
<polygon fill="#fb8072" stroke="#000000" points="637.0946,-252 502.9054,-252 502.9054,-216 637.0946,-216 637.0946,-252"/>
<text text-anchor="middle" x="570" y="-229.8" font-family="Times,serif" font-size="14.00" fill="#000000">CarouselComponent </text>
</g>
<!-- CarouselModule&#45;&gt;CarouselComponent  -->
<g id="edge10" class="edge">
<title>CarouselModule&#45;&gt;CarouselComponent </title>
<path fill="none" stroke="#000000" stroke-dasharray="5,2" d="M520.1794,-187.1061C520.1794,-187.1061 520.1794,-205.991 520.1794,-205.991"/>
<polygon fill="#000000" stroke="#000000" points="516.6794,-205.9909 520.1794,-215.991 523.6794,-205.991 516.6794,-205.9909"/>
</g>
<!-- ImagePreviewerComponent  -->
<g id="node12" class="node">
<title>ImagePreviewerComponent </title>
<polygon fill="#fb8072" stroke="#000000" points="484.0582,-252 307.9418,-252 307.9418,-216 484.0582,-216 484.0582,-252"/>
<text text-anchor="middle" x="396" y="-229.8" font-family="Times,serif" font-size="14.00" fill="#000000">ImagePreviewerComponent </text>
</g>
<!-- CarouselModule&#45;&gt;ImagePreviewerComponent  -->
<g id="edge11" class="edge">
<title>CarouselModule&#45;&gt;ImagePreviewerComponent </title>
<path fill="none" stroke="#000000" stroke-dasharray="5,2" d="M456.3116,-187.1061C456.3116,-187.1061 456.3116,-205.991 456.3116,-205.991"/>
<polygon fill="#000000" stroke="#000000" points="452.8116,-205.9909 456.3116,-215.991 459.8116,-205.991 452.8116,-205.9909"/>
</g>
<!-- ModalCarouselComponent  -->
<g id="node13" class="node">
<title>ModalCarouselComponent </title>
<polygon fill="#fb8072" stroke="#000000" points="289.6439,-252 118.3561,-252 118.3561,-216 289.6439,-216 289.6439,-252"/>
<text text-anchor="middle" x="204" y="-229.8" font-family="Times,serif" font-size="14.00" fill="#000000">ModalCarouselComponent </text>
</g>
<!-- CarouselModule&#45;&gt;ModalCarouselComponent  -->
<g id="edge12" class="edge">
<title>CarouselModule&#45;&gt;ModalCarouselComponent </title>
<path fill="none" stroke="#000000" stroke-dasharray="5,2" d="M428.283,-180C365.9583,-180 272.6534,-180 272.6534,-180 272.6534,-180 272.6534,-205.7181 272.6534,-205.7181"/>
<polygon fill="#000000" stroke="#000000" points="269.1535,-205.718 272.6534,-215.7181 276.1535,-205.7181 269.1535,-205.718"/>
</g>
<!-- FileModule -->
<g id="node6" class="node">
<title>FileModule</title>
<polygon fill="#8dd3c7" stroke="#000000" points="449.8289,-122 446.8289,-126 425.8289,-126 422.8289,-122 368.1711,-122 368.1711,-86 449.8289,-86 449.8289,-122"/>
<text text-anchor="middle" x="409" y="-99.8" font-family="Times,serif" font-size="14.00" fill="#000000">FileModule</text>
</g>
<!-- FileModule&#45;&gt;CarouselModule -->
<g id="edge5" class="edge">
<title>FileModule&#45;&gt;CarouselModule</title>
<path fill="none" stroke="#000000" d="M439.0042,-122.1061C439.0042,-122.1061 439.0042,-140.991 439.0042,-140.991"/>
<polygon fill="#000000" stroke="#000000" points="435.5043,-140.9909 439.0042,-150.991 442.5043,-140.991 435.5043,-140.9909"/>
</g>
<!-- ImageModule -->
<g id="node7" class="node">
<title>ImageModule</title>
<polygon fill="#8dd3c7" stroke="#000000" points="350.0314,-122 347.0314,-126 326.0314,-126 323.0314,-122 255.9686,-122 255.9686,-86 350.0314,-86 350.0314,-122"/>
<text text-anchor="middle" x="303" y="-99.8" font-family="Times,serif" font-size="14.00" fill="#000000">ImageModule</text>
</g>
<!-- ImageModule&#45;&gt;CarouselModule -->
<g id="edge6" class="edge">
<title>ImageModule&#45;&gt;CarouselModule</title>
<path fill="none" stroke="#000000" d="M328.9932,-122.0091C328.9932,-138.0494 328.9932,-159 328.9932,-159 328.9932,-159 418.2693,-159 418.2693,-159"/>
<polygon fill="#000000" stroke="#000000" points="418.2693,-162.5001 428.2693,-159 418.2693,-155.5001 418.2693,-162.5001"/>
</g>
<!-- RatingModule -->
<g id="node8" class="node">
<title>RatingModule</title>
<polygon fill="#8dd3c7" stroke="#000000" points="237.3823,-122 234.3823,-126 213.3823,-126 210.3823,-122 140.6177,-122 140.6177,-86 237.3823,-86 237.3823,-122"/>
<text text-anchor="middle" x="189" y="-99.8" font-family="Times,serif" font-size="14.00" fill="#000000">RatingModule</text>
</g>
<!-- RatingModule&#45;&gt;CarouselModule -->
<g id="edge7" class="edge">
<title>RatingModule&#45;&gt;CarouselModule</title>
<path fill="none" stroke="#000000" d="M189,-122.2667C189,-140.5552 189,-166 189,-166 189,-166 418.0457,-166 418.0457,-166"/>
<polygon fill="#000000" stroke="#000000" points="418.0458,-169.5001 428.0457,-166 418.0457,-162.5001 418.0458,-169.5001"/>
</g>
<!-- SharedModule -->
<g id="node9" class="node">
<title>SharedModule</title>
<polygon fill="#8dd3c7" stroke="#000000" points="122.4231,-122 119.4231,-126 98.4231,-126 95.4231,-122 23.5769,-122 23.5769,-86 122.4231,-86 122.4231,-122"/>
<text text-anchor="middle" x="73" y="-99.8" font-family="Times,serif" font-size="14.00" fill="#000000">SharedModule</text>
</g>
<!-- SharedModule&#45;&gt;CarouselModule -->
<g id="edge8" class="edge">
<title>SharedModule&#45;&gt;CarouselModule</title>
<path fill="none" stroke="#000000" d="M71.1085,-122.1289C71.1085,-142.5724 71.1085,-173 71.1085,-173 71.1085,-173 418.304,-173 418.304,-173"/>
<polygon fill="#000000" stroke="#000000" points="418.304,-176.5001 428.304,-173 418.304,-169.5001 418.304,-176.5001"/>
</g>
</g>
</svg>
