<?xml version="1.0" encoding="UTF-8" standalone="no"?>
<!DOCTYPE svg PUBLIC "-//W3C//DTD SVG 1.1//EN"
 "http://www.w3.org/Graphics/SVG/1.1/DTD/svg11.dtd">
<!-- Generated by graphviz version 2.40.1 (20161225.0304)
 -->
<!-- Title: dependencies Pages: 1 -->
<svg width="3434pt" height="284pt"
 viewBox="0.00 0.00 3434.00 284.00" xmlns="http://www.w3.org/2000/svg" xmlns:xlink="http://www.w3.org/1999/xlink">
<g id="graph0" class="graph" transform="scale(1 1) rotate(0) translate(4 280)">
<title>dependencies</title>
<polygon fill="#ffffff" stroke="transparent" points="-4,4 -4,-280 3430,-280 3430,4 -4,4"/>
<text text-anchor="start" x="1692.0091" y="-42.4" font-family="sans-serif" font-weight="bold" font-size="14.00" fill="#000000">Legend</text>
<polygon fill="#ffffb3" stroke="transparent" points="1479,-10 1479,-30 1499,-30 1499,-10 1479,-10"/>
<text text-anchor="start" x="1502.629" y="-15.4" font-family="sans-serif" font-size="14.00" fill="#000000"> &#160;Declarations</text>
<polygon fill="#8dd3c7" stroke="transparent" points="1592,-10 1592,-30 1612,-30 1612,-10 1592,-10"/>
<text text-anchor="start" x="1615.7251" y="-15.4" font-family="sans-serif" font-size="14.00" fill="#000000"> &#160;Module</text>
<polygon fill="#80b1d3" stroke="transparent" points="1678,-10 1678,-30 1698,-30 1698,-10 1678,-10"/>
<text text-anchor="start" x="1701.7812" y="-15.4" font-family="sans-serif" font-size="14.00" fill="#000000"> &#160;Bootstrap</text>
<polygon fill="#fdb462" stroke="transparent" points="1775,-10 1775,-30 1795,-30 1795,-10 1775,-10"/>
<text text-anchor="start" x="1798.6732" y="-15.4" font-family="sans-serif" font-size="14.00" fill="#000000"> &#160;Providers</text>
<polygon fill="#fb8072" stroke="transparent" points="1871,-10 1871,-30 1891,-30 1891,-10 1871,-10"/>
<text text-anchor="start" x="1894.7258" y="-15.4" font-family="sans-serif" font-size="14.00" fill="#000000"> &#160;Exports</text>
<g id="clust1" class="cluster">
<title>cluster_DynamicFormsModule</title>
<polygon fill="none" stroke="#000000" stroke-dasharray="1,5" points="8,-70 8,-268 3418,-268 3418,-70 8,-70"/>
</g>
<g id="clust2" class="cluster">
<title>cluster_DynamicFormsModule_declarations</title>
<polygon fill="none" stroke="#000000" points="1002,-78 1002,-130 3410,-130 3410,-78 1002,-78"/>
</g>
<g id="clust15" class="cluster">
<title>cluster_DynamicFormsModule_imports</title>
<polygon fill="none" stroke="#000000" points="16,-78 16,-130 994,-130 994,-78 16,-78"/>
</g>
<g id="clust16" class="cluster">
<title>cluster_DynamicFormsModule_exports</title>
<polygon fill="none" stroke="#000000" points="1155,-208 1155,-260 1569,-260 1569,-208 1155,-208"/>
</g>
<!-- DynamicEditableFormComponent -->
<g id="node1" class="node">
<title>DynamicEditableFormComponent</title>
<polygon fill="#ffffb3" stroke="#000000" points="3401.6371,-122 3192.3629,-122 3192.3629,-86 3401.6371,-86 3401.6371,-122"/>
<text text-anchor="middle" x="3297" y="-99.8" font-family="Times,serif" font-size="14.00" fill="#000000">DynamicEditableFormComponent</text>
</g>
<!-- DynamicFormsModule -->
<g id="node13" class="node">
<title>DynamicFormsModule</title>
<polygon fill="#8dd3c7" stroke="#000000" points="1423.1456,-187 1420.1456,-191 1399.1456,-191 1396.1456,-187 1276.8544,-187 1276.8544,-151 1423.1456,-151 1423.1456,-187"/>
<text text-anchor="middle" x="1350" y="-164.8" font-family="Times,serif" font-size="14.00" fill="#000000">DynamicFormsModule</text>
</g>
<!-- DynamicEditableFormComponent&#45;&gt;DynamicFormsModule -->
<g id="edge1" class="edge">
<title>DynamicEditableFormComponent&#45;&gt;DynamicFormsModule</title>
<path fill="none" stroke="#000000" d="M3297,-122.1532C3297,-145.7566 3297,-184 3297,-184 3297,-184 1433.3582,-184 1433.3582,-184"/>
<polygon fill="#000000" stroke="#000000" points="1433.3582,-180.5001 1423.3582,-184 1433.3581,-187.5001 1433.3582,-180.5001"/>
</g>
<!-- DynamicEditableTextComponent -->
<g id="node2" class="node">
<title>DynamicEditableTextComponent</title>
<polygon fill="#ffffb3" stroke="#000000" points="3174.4608,-122 2969.5392,-122 2969.5392,-86 3174.4608,-86 3174.4608,-122"/>
<text text-anchor="middle" x="3072" y="-99.8" font-family="Times,serif" font-size="14.00" fill="#000000">DynamicEditableTextComponent</text>
</g>
<!-- DynamicEditableTextComponent&#45;&gt;DynamicFormsModule -->
<g id="edge2" class="edge">
<title>DynamicEditableTextComponent&#45;&gt;DynamicFormsModule</title>
<path fill="none" stroke="#000000" d="M3072,-122.0109C3072,-144.4852 3072,-180 3072,-180 3072,-180 1433.1666,-180 1433.1666,-180"/>
<polygon fill="#000000" stroke="#000000" points="1433.1666,-176.5001 1423.1666,-180 1433.1665,-183.5001 1433.1666,-176.5001"/>
</g>
<!-- DynamicFormComponent -->
<g id="node3" class="node">
<title>DynamicFormComponent</title>
<polygon fill="#ffffb3" stroke="#000000" points="2951.4832,-122 2788.5168,-122 2788.5168,-86 2951.4832,-86 2951.4832,-122"/>
<text text-anchor="middle" x="2870" y="-99.8" font-family="Times,serif" font-size="14.00" fill="#000000">DynamicFormComponent</text>
</g>
<!-- DynamicFormComponent&#45;&gt;DynamicFormsModule -->
<g id="edge3" class="edge">
<title>DynamicFormComponent&#45;&gt;DynamicFormsModule</title>
<path fill="none" stroke="#000000" d="M2870,-122.0449C2870,-143.6623 2870,-177 2870,-177 2870,-177 1433.3128,-177 1433.3128,-177"/>
<polygon fill="#000000" stroke="#000000" points="1433.3128,-173.5001 1423.3128,-177 1433.3127,-180.5001 1433.3128,-173.5001"/>
</g>
<!-- DynamicFormFieldComponent -->
<g id="node4" class="node">
<title>DynamicFormFieldComponent</title>
<polygon fill="#ffffb3" stroke="#000000" points="2770.7617,-122 2579.2383,-122 2579.2383,-86 2770.7617,-86 2770.7617,-122"/>
<text text-anchor="middle" x="2675" y="-99.8" font-family="Times,serif" font-size="14.00" fill="#000000">DynamicFormFieldComponent</text>
</g>
<!-- DynamicFormFieldComponent&#45;&gt;DynamicFormsModule -->
<g id="edge4" class="edge">
<title>DynamicFormFieldComponent&#45;&gt;DynamicFormsModule</title>
<path fill="none" stroke="#000000" d="M2675,-122.1289C2675,-142.5724 2675,-173 2675,-173 2675,-173 1433.6003,-173 1433.6003,-173"/>
<polygon fill="#000000" stroke="#000000" points="1433.6004,-169.5001 1423.6003,-173 1433.6003,-176.5001 1433.6004,-169.5001"/>
</g>
<!-- DynamicInputTextComponent -->
<g id="node5" class="node">
<title>DynamicInputTextComponent</title>
<polygon fill="#ffffb3" stroke="#000000" points="2560.8585,-122 2373.1415,-122 2373.1415,-86 2560.8585,-86 2560.8585,-122"/>
<text text-anchor="middle" x="2467" y="-99.8" font-family="Times,serif" font-size="14.00" fill="#000000">DynamicInputTextComponent</text>
</g>
<!-- DynamicInputTextComponent&#45;&gt;DynamicFormsModule -->
<g id="edge5" class="edge">
<title>DynamicInputTextComponent&#45;&gt;DynamicFormsModule</title>
<path fill="none" stroke="#000000" d="M2467,-122.1061C2467,-141.3391 2467,-169 2467,-169 2467,-169 1433.2895,-169 1433.2895,-169"/>
<polygon fill="#000000" stroke="#000000" points="1433.2895,-165.5001 1423.2895,-169 1433.2895,-172.5001 1433.2895,-165.5001"/>
</g>
<!-- EditablePackagingComponent -->
<g id="node6" class="node">
<title>EditablePackagingComponent</title>
<polygon fill="#ffffb3" stroke="#000000" points="2355.3032,-122 2168.6968,-122 2168.6968,-86 2355.3032,-86 2355.3032,-122"/>
<text text-anchor="middle" x="2262" y="-99.8" font-family="Times,serif" font-size="14.00" fill="#000000">EditablePackagingComponent</text>
</g>
<!-- EditablePackagingComponent&#45;&gt;DynamicFormsModule -->
<g id="edge6" class="edge">
<title>EditablePackagingComponent&#45;&gt;DynamicFormsModule</title>
<path fill="none" stroke="#000000" d="M2262,-122.2667C2262,-140.5552 2262,-166 2262,-166 2262,-166 1433.4753,-166 1433.4753,-166"/>
<polygon fill="#000000" stroke="#000000" points="1433.4753,-162.5001 1423.4753,-166 1433.4752,-169.5001 1433.4753,-162.5001"/>
</g>
<!-- EditablePriceComponent -->
<g id="node7" class="node">
<title>EditablePriceComponent</title>
<polygon fill="#ffffb3" stroke="#000000" points="2150.2492,-122 1993.7508,-122 1993.7508,-86 2150.2492,-86 2150.2492,-122"/>
<text text-anchor="middle" x="2072" y="-99.8" font-family="Times,serif" font-size="14.00" fill="#000000">EditablePriceComponent</text>
</g>
<!-- EditablePriceComponent&#45;&gt;DynamicFormsModule -->
<g id="edge7" class="edge">
<title>EditablePriceComponent&#45;&gt;DynamicFormsModule</title>
<path fill="none" stroke="#000000" d="M2072,-122.0336C2072,-139.0597 2072,-162 2072,-162 2072,-162 1433.2025,-162 1433.2025,-162"/>
<polygon fill="#000000" stroke="#000000" points="1433.2025,-158.5001 1423.2025,-162 1433.2025,-165.5001 1433.2025,-158.5001"/>
</g>
<!-- EditablePriceMatrixComponent -->
<g id="node8" class="node">
<title>EditablePriceMatrixComponent</title>
<polygon fill="#ffffb3" stroke="#000000" points="1975.3501,-122 1780.6499,-122 1780.6499,-86 1975.3501,-86 1975.3501,-122"/>
<text text-anchor="middle" x="1878" y="-99.8" font-family="Times,serif" font-size="14.00" fill="#000000">EditablePriceMatrixComponent</text>
</g>
<!-- EditablePriceMatrixComponent&#45;&gt;DynamicFormsModule -->
<g id="edge8" class="edge">
<title>EditablePriceMatrixComponent&#45;&gt;DynamicFormsModule</title>
<path fill="none" stroke="#000000" d="M1878,-122.0091C1878,-138.0494 1878,-159 1878,-159 1878,-159 1433.4161,-159 1433.4161,-159"/>
<polygon fill="#000000" stroke="#000000" points="1433.4162,-155.5001 1423.4161,-159 1433.4161,-162.5001 1433.4162,-155.5001"/>
</g>
<!-- EditablePriceMatrixRowComponent -->
<g id="node9" class="node">
<title>EditablePriceMatrixRowComponent</title>
<polygon fill="#ffffb3" stroke="#000000" points="1762.7934,-122 1541.2066,-122 1541.2066,-86 1762.7934,-86 1762.7934,-122"/>
<text text-anchor="middle" x="1652" y="-99.8" font-family="Times,serif" font-size="14.00" fill="#000000">EditablePriceMatrixRowComponent</text>
</g>
<!-- EditablePriceMatrixRowComponent&#45;&gt;DynamicFormsModule -->
<g id="edge9" class="edge">
<title>EditablePriceMatrixRowComponent&#45;&gt;DynamicFormsModule</title>
<path fill="none" stroke="#000000" d="M1550.9609,-122.1243C1550.9609,-136.7832 1550.9609,-155 1550.9609,-155 1550.9609,-155 1433.4045,-155 1433.4045,-155"/>
<polygon fill="#000000" stroke="#000000" points="1433.4046,-151.5001 1423.4045,-155 1433.4045,-158.5001 1433.4046,-151.5001"/>
</g>
<!-- EditableSelectorComponent -->
<g id="node10" class="node">
<title>EditableSelectorComponent</title>
<polygon fill="#ffffb3" stroke="#000000" points="1522.8543,-122 1349.1457,-122 1349.1457,-86 1522.8543,-86 1522.8543,-122"/>
<text text-anchor="middle" x="1436" y="-99.8" font-family="Times,serif" font-size="14.00" fill="#000000">EditableSelectorComponent</text>
</g>
<!-- EditableSelectorComponent&#45;&gt;DynamicFormsModule -->
<g id="edge10" class="edge">
<title>EditableSelectorComponent&#45;&gt;DynamicFormsModule</title>
<path fill="none" stroke="#000000" d="M1386.1977,-122.1061C1386.1977,-122.1061 1386.1977,-140.991 1386.1977,-140.991"/>
<polygon fill="#000000" stroke="#000000" points="1382.6978,-140.9909 1386.1977,-150.991 1389.6978,-140.991 1382.6978,-140.9909"/>
</g>
<!-- FieldCellComponent -->
<g id="node11" class="node">
<title>FieldCellComponent</title>
<polygon fill="#ffffb3" stroke="#000000" points="1330.9439,-122 1197.0561,-122 1197.0561,-86 1330.9439,-86 1330.9439,-122"/>
<text text-anchor="middle" x="1264" y="-99.8" font-family="Times,serif" font-size="14.00" fill="#000000">FieldCellComponent</text>
</g>
<!-- FieldCellComponent&#45;&gt;DynamicFormsModule -->
<g id="edge11" class="edge">
<title>FieldCellComponent&#45;&gt;DynamicFormsModule</title>
<path fill="none" stroke="#000000" d="M1303.6995,-122.1061C1303.6995,-122.1061 1303.6995,-140.991 1303.6995,-140.991"/>
<polygon fill="#000000" stroke="#000000" points="1300.1996,-140.9909 1303.6995,-150.991 1307.1996,-140.991 1300.1996,-140.9909"/>
</g>
<!-- InputPackagingComponent -->
<g id="node12" class="node">
<title>InputPackagingComponent</title>
<polygon fill="#ffffb3" stroke="#000000" points="1179.7007,-122 1010.2993,-122 1010.2993,-86 1179.7007,-86 1179.7007,-122"/>
<text text-anchor="middle" x="1095" y="-99.8" font-family="Times,serif" font-size="14.00" fill="#000000">InputPackagingComponent</text>
</g>
<!-- InputPackagingComponent&#45;&gt;DynamicFormsModule -->
<g id="edge12" class="edge">
<title>InputPackagingComponent&#45;&gt;DynamicFormsModule</title>
<path fill="none" stroke="#000000" d="M1171.1793,-122.1243C1171.1793,-136.7832 1171.1793,-155 1171.1793,-155 1171.1793,-155 1266.7508,-155 1266.7508,-155"/>
<polygon fill="#000000" stroke="#000000" points="1266.7509,-158.5001 1276.7508,-155 1266.7508,-151.5001 1266.7509,-158.5001"/>
</g>
<!-- DynamicEditableFormComponent  -->
<g id="node22" class="node">
<title>DynamicEditableFormComponent </title>
<polygon fill="#fb8072" stroke="#000000" points="1560.6368,-252 1347.3632,-252 1347.3632,-216 1560.6368,-216 1560.6368,-252"/>
<text text-anchor="middle" x="1454" y="-229.8" font-family="Times,serif" font-size="14.00" fill="#000000">DynamicEditableFormComponent </text>
</g>
<!-- DynamicFormsModule&#45;&gt;DynamicEditableFormComponent  -->
<g id="edge21" class="edge">
<title>DynamicFormsModule&#45;&gt;DynamicEditableFormComponent </title>
<path fill="none" stroke="#000000" stroke-dasharray="5,2" d="M1385.3771,-187.1061C1385.3771,-187.1061 1385.3771,-205.991 1385.3771,-205.991"/>
<polygon fill="#000000" stroke="#000000" points="1381.8772,-205.9909 1385.3771,-215.991 1388.8772,-205.991 1381.8772,-205.9909"/>
</g>
<!-- DynamicFormComponent  -->
<g id="node23" class="node">
<title>DynamicFormComponent </title>
<polygon fill="#fb8072" stroke="#000000" points="1329.4839,-252 1162.5161,-252 1162.5161,-216 1329.4839,-216 1329.4839,-252"/>
<text text-anchor="middle" x="1246" y="-229.8" font-family="Times,serif" font-size="14.00" fill="#000000">DynamicFormComponent </text>
</g>
<!-- DynamicFormsModule&#45;&gt;DynamicFormComponent  -->
<g id="edge22" class="edge">
<title>DynamicFormsModule&#45;&gt;DynamicFormComponent </title>
<path fill="none" stroke="#000000" stroke-dasharray="5,2" d="M1302.9595,-187.1061C1302.9595,-187.1061 1302.9595,-205.991 1302.9595,-205.991"/>
<polygon fill="#000000" stroke="#000000" points="1299.4596,-205.9909 1302.9595,-215.991 1306.4596,-205.991 1299.4596,-205.9909"/>
</g>
<!-- BadgeModule -->
<g id="node14" class="node">
<title>BadgeModule</title>
<polygon fill="#8dd3c7" stroke="#000000" points="985.8161,-122 982.8161,-126 961.8161,-126 958.8161,-122 890.1839,-122 890.1839,-86 985.8161,-86 985.8161,-122"/>
<text text-anchor="middle" x="938" y="-99.8" font-family="Times,serif" font-size="14.00" fill="#000000">BadgeModule</text>
</g>
<!-- BadgeModule&#45;&gt;DynamicFormsModule -->
<g id="edge13" class="edge">
<title>BadgeModule&#45;&gt;DynamicFormsModule</title>
<path fill="none" stroke="#000000" d="M938,-122.0091C938,-138.0494 938,-159 938,-159 938,-159 1266.8174,-159 1266.8174,-159"/>
<polygon fill="#000000" stroke="#000000" points="1266.8174,-162.5001 1276.8174,-159 1266.8174,-155.5001 1266.8174,-162.5001"/>
</g>
<!-- EditableFieldModule -->
<g id="node15" class="node">
<title>EditableFieldModule</title>
<polygon fill="#8dd3c7" stroke="#000000" points="872.4818,-122 869.4818,-126 848.4818,-126 845.4818,-122 737.5182,-122 737.5182,-86 872.4818,-86 872.4818,-122"/>
<text text-anchor="middle" x="805" y="-99.8" font-family="Times,serif" font-size="14.00" fill="#000000">EditableFieldModule</text>
</g>
<!-- EditableFieldModule&#45;&gt;DynamicFormsModule -->
<g id="edge14" class="edge">
<title>EditableFieldModule&#45;&gt;DynamicFormsModule</title>
<path fill="none" stroke="#000000" d="M805,-122.0336C805,-139.0597 805,-162 805,-162 805,-162 1266.7818,-162 1266.7818,-162"/>
<polygon fill="#000000" stroke="#000000" points="1266.7819,-165.5001 1276.7818,-162 1266.7818,-158.5001 1266.7819,-165.5001"/>
</g>
<!-- FileModule -->
<g id="node16" class="node">
<title>FileModule</title>
<polygon fill="#8dd3c7" stroke="#000000" points="719.8289,-122 716.8289,-126 695.8289,-126 692.8289,-122 638.1711,-122 638.1711,-86 719.8289,-86 719.8289,-122"/>
<text text-anchor="middle" x="679" y="-99.8" font-family="Times,serif" font-size="14.00" fill="#000000">FileModule</text>
</g>
<!-- FileModule&#45;&gt;DynamicFormsModule -->
<g id="edge15" class="edge">
<title>FileModule&#45;&gt;DynamicFormsModule</title>
<path fill="none" stroke="#000000" d="M679,-122.2667C679,-140.5552 679,-166 679,-166 679,-166 1266.5932,-166 1266.5932,-166"/>
<polygon fill="#000000" stroke="#000000" points="1266.5932,-169.5001 1276.5932,-166 1266.5931,-162.5001 1266.5932,-169.5001"/>
</g>
<!-- ImageModule -->
<g id="node17" class="node">
<title>ImageModule</title>
<polygon fill="#8dd3c7" stroke="#000000" points="620.0314,-122 617.0314,-126 596.0314,-126 593.0314,-122 525.9686,-122 525.9686,-86 620.0314,-86 620.0314,-122"/>
<text text-anchor="middle" x="573" y="-99.8" font-family="Times,serif" font-size="14.00" fill="#000000">ImageModule</text>
</g>
<!-- ImageModule&#45;&gt;DynamicFormsModule -->
<g id="edge16" class="edge">
<title>ImageModule&#45;&gt;DynamicFormsModule</title>
<path fill="none" stroke="#000000" d="M573,-122.1061C573,-141.3391 573,-169 573,-169 573,-169 1266.5518,-169 1266.5518,-169"/>
<polygon fill="#000000" stroke="#000000" points="1266.5519,-172.5001 1276.5518,-169 1266.5518,-165.5001 1266.5519,-172.5001"/>
</g>
<!-- InputsCustomModule -->
<g id="node18" class="node">
<title>InputsCustomModule</title>
<polygon fill="#8dd3c7" stroke="#000000" points="508.108,-122 505.108,-126 484.108,-126 481.108,-122 369.892,-122 369.892,-86 508.108,-86 508.108,-122"/>
<text text-anchor="middle" x="439" y="-99.8" font-family="Times,serif" font-size="14.00" fill="#000000">InputsCustomModule</text>
</g>
<!-- InputsCustomModule&#45;&gt;DynamicFormsModule -->
<g id="edge17" class="edge">
<title>InputsCustomModule&#45;&gt;DynamicFormsModule</title>
<path fill="none" stroke="#000000" d="M439,-122.1289C439,-142.5724 439,-173 439,-173 439,-173 1266.6053,-173 1266.6053,-173"/>
<polygon fill="#000000" stroke="#000000" points="1266.6053,-176.5001 1276.6053,-173 1266.6053,-169.5001 1266.6053,-176.5001"/>
</g>
<!-- InputsModule -->
<g id="node19" class="node">
<title>InputsModule</title>
<polygon fill="#8dd3c7" stroke="#000000" points="352.0467,-122 349.0467,-126 328.0467,-126 325.0467,-122 257.9533,-122 257.9533,-86 352.0467,-86 352.0467,-122"/>
<text text-anchor="middle" x="305" y="-99.8" font-family="Times,serif" font-size="14.00" fill="#000000">InputsModule</text>
</g>
<!-- InputsModule&#45;&gt;DynamicFormsModule -->
<g id="edge18" class="edge">
<title>InputsModule&#45;&gt;DynamicFormsModule</title>
<path fill="none" stroke="#000000" d="M305,-122.0449C305,-143.6623 305,-177 305,-177 305,-177 1266.5176,-177 1266.5176,-177"/>
<polygon fill="#000000" stroke="#000000" points="1266.5177,-180.5001 1276.5176,-177 1266.5176,-173.5001 1266.5177,-180.5001"/>
</g>
<!-- SelectorsModule -->
<g id="node20" class="node">
<title>SelectorsModule</title>
<polygon fill="#8dd3c7" stroke="#000000" points="239.3627,-122 236.3627,-126 215.3627,-126 212.3627,-122 128.6373,-122 128.6373,-86 239.3627,-86 239.3627,-122"/>
<text text-anchor="middle" x="184" y="-99.8" font-family="Times,serif" font-size="14.00" fill="#000000">SelectorsModule</text>
</g>
<!-- SelectorsModule&#45;&gt;DynamicFormsModule -->
<g id="edge19" class="edge">
<title>SelectorsModule&#45;&gt;DynamicFormsModule</title>
<path fill="none" stroke="#000000" d="M184,-122.0109C184,-144.4852 184,-180 184,-180 184,-180 1266.6198,-180 1266.6198,-180"/>
<polygon fill="#000000" stroke="#000000" points="1266.6198,-183.5001 1276.6198,-180 1266.6197,-176.5001 1266.6198,-183.5001"/>
</g>
<!-- UtilsModule -->
<g id="node21" class="node">
<title>UtilsModule</title>
<polygon fill="#8dd3c7" stroke="#000000" points="110.2731,-122 107.2731,-126 86.2731,-126 83.2731,-122 23.7269,-122 23.7269,-86 110.2731,-86 110.2731,-122"/>
<text text-anchor="middle" x="67" y="-99.8" font-family="Times,serif" font-size="14.00" fill="#000000">UtilsModule</text>
</g>
<!-- UtilsModule&#45;&gt;DynamicFormsModule -->
<g id="edge20" class="edge">
<title>UtilsModule&#45;&gt;DynamicFormsModule</title>
<path fill="none" stroke="#000000" d="M67,-122.1532C67,-145.7566 67,-184 67,-184 67,-184 1266.4122,-184 1266.4122,-184"/>
<polygon fill="#000000" stroke="#000000" points="1266.4122,-187.5001 1276.4122,-184 1266.4122,-180.5001 1266.4122,-187.5001"/>
</g>
</g>
</svg>
