<?xml version="1.0" encoding="UTF-8" standalone="no"?>
<!DOCTYPE svg PUBLIC "-//W3C//DTD SVG 1.1//EN"
 "http://www.w3.org/Graphics/SVG/1.1/DTD/svg11.dtd">
<!-- Generated by graphviz version 2.40.1 (20161225.0304)
 -->
<!-- Title: dependencies Pages: 1 -->
<svg width="1910pt" height="284pt"
 viewBox="0.00 0.00 1910.00 284.00" xmlns="http://www.w3.org/2000/svg" xmlns:xlink="http://www.w3.org/1999/xlink">
<g id="graph0" class="graph" transform="scale(1 1) rotate(0) translate(4 280)">
<title>dependencies</title>
<polygon fill="#ffffff" stroke="transparent" points="-4,4 -4,-280 1906,-280 1906,4 -4,4"/>
<text text-anchor="start" x="930.0091" y="-42.4" font-family="sans-serif" font-weight="bold" font-size="14.00" fill="#000000">Legend</text>
<polygon fill="#ffffb3" stroke="transparent" points="717,-10 717,-30 737,-30 737,-10 717,-10"/>
<text text-anchor="start" x="740.629" y="-15.4" font-family="sans-serif" font-size="14.00" fill="#000000"> &#160;Declarations</text>
<polygon fill="#8dd3c7" stroke="transparent" points="830,-10 830,-30 850,-30 850,-10 830,-10"/>
<text text-anchor="start" x="853.7251" y="-15.4" font-family="sans-serif" font-size="14.00" fill="#000000"> &#160;Module</text>
<polygon fill="#80b1d3" stroke="transparent" points="916,-10 916,-30 936,-30 936,-10 916,-10"/>
<text text-anchor="start" x="939.7812" y="-15.4" font-family="sans-serif" font-size="14.00" fill="#000000"> &#160;Bootstrap</text>
<polygon fill="#fdb462" stroke="transparent" points="1013,-10 1013,-30 1033,-30 1033,-10 1013,-10"/>
<text text-anchor="start" x="1036.6732" y="-15.4" font-family="sans-serif" font-size="14.00" fill="#000000"> &#160;Providers</text>
<polygon fill="#fb8072" stroke="transparent" points="1109,-10 1109,-30 1129,-30 1129,-10 1109,-10"/>
<text text-anchor="start" x="1132.7258" y="-15.4" font-family="sans-serif" font-size="14.00" fill="#000000"> &#160;Exports</text>
<g id="clust1" class="cluster">
<title>cluster_TopPanelModule</title>
<polygon fill="none" stroke="#000000" stroke-dasharray="1,5" points="8,-70 8,-268 1894,-268 1894,-70 8,-70"/>
</g>
<g id="clust2" class="cluster">
<title>cluster_TopPanelModule_declarations</title>
<polygon fill="none" stroke="#000000" points="1038,-78 1038,-130 1886,-130 1886,-78 1038,-78"/>
</g>
<g id="clust8" class="cluster">
<title>cluster_TopPanelModule_imports</title>
<polygon fill="none" stroke="#000000" points="16,-78 16,-130 1030,-130 1030,-78 16,-78"/>
</g>
<g id="clust9" class="cluster">
<title>cluster_TopPanelModule_exports</title>
<polygon fill="none" stroke="#000000" points="515,-208 515,-260 1196,-260 1196,-208 515,-208"/>
</g>
<!-- BreadCrumbComponent -->
<g id="node1" class="node">
<title>BreadCrumbComponent</title>
<polygon fill="#ffffb3" stroke="#000000" points="1877.647,-122 1724.353,-122 1724.353,-86 1877.647,-86 1877.647,-122"/>
<text text-anchor="middle" x="1801" y="-99.8" font-family="Times,serif" font-size="14.00" fill="#000000">BreadCrumbComponent</text>
</g>
<!-- TopPanelModule -->
<g id="node6" class="node">
<title>TopPanelModule</title>
<polygon fill="#8dd3c7" stroke="#000000" points="922.705,-187 919.705,-191 898.705,-191 895.705,-187 809.295,-187 809.295,-151 922.705,-151 922.705,-187"/>
<text text-anchor="middle" x="866" y="-164.8" font-family="Times,serif" font-size="14.00" fill="#000000">TopPanelModule</text>
</g>
<!-- BreadCrumbComponent&#45;&gt;TopPanelModule -->
<g id="edge1" class="edge">
<title>BreadCrumbComponent&#45;&gt;TopPanelModule</title>
<path fill="none" stroke="#000000" d="M1801,-122.2921C1801,-144.2057 1801,-178 1801,-178 1801,-178 932.7314,-178 932.7314,-178"/>
<polygon fill="#000000" stroke="#000000" points="932.7315,-174.5001 922.7314,-178 932.7314,-181.5001 932.7315,-174.5001"/>
</g>
<!-- SubPanelComponent -->
<g id="node2" class="node">
<title>SubPanelComponent</title>
<polygon fill="#ffffb3" stroke="#000000" points="1706.2176,-122 1571.7824,-122 1571.7824,-86 1706.2176,-86 1706.2176,-122"/>
<text text-anchor="middle" x="1639" y="-99.8" font-family="Times,serif" font-size="14.00" fill="#000000">SubPanelComponent</text>
</g>
<!-- SubPanelComponent&#45;&gt;TopPanelModule -->
<g id="edge2" class="edge">
<title>SubPanelComponent&#45;&gt;TopPanelModule</title>
<path fill="none" stroke="#000000" d="M1639,-122.0267C1639,-142.7672 1639,-174 1639,-174 1639,-174 932.8405,-174 932.8405,-174"/>
<polygon fill="#000000" stroke="#000000" points="932.8406,-170.5001 922.8405,-174 932.8405,-177.5001 932.8406,-170.5001"/>
</g>
<!-- TopPanelComponent -->
<g id="node3" class="node">
<title>TopPanelComponent</title>
<polygon fill="#ffffb3" stroke="#000000" points="1553.4874,-122 1418.5126,-122 1418.5126,-86 1553.4874,-86 1553.4874,-122"/>
<text text-anchor="middle" x="1486" y="-99.8" font-family="Times,serif" font-size="14.00" fill="#000000">TopPanelComponent</text>
</g>
<!-- TopPanelComponent&#45;&gt;TopPanelModule -->
<g id="edge3" class="edge">
<title>TopPanelComponent&#45;&gt;TopPanelModule</title>
<path fill="none" stroke="#000000" d="M1486,-122.1061C1486,-141.3391 1486,-169 1486,-169 1486,-169 932.6645,-169 932.6645,-169"/>
<polygon fill="#000000" stroke="#000000" points="932.6645,-165.5001 922.6645,-169 932.6644,-172.5001 932.6645,-165.5001"/>
</g>
<!-- TopPanelDetailsComponent -->
<g id="node4" class="node">
<title>TopPanelDetailsComponent</title>
<polygon fill="#ffffb3" stroke="#000000" points="1400.14,-122 1225.86,-122 1225.86,-86 1400.14,-86 1400.14,-122"/>
<text text-anchor="middle" x="1313" y="-99.8" font-family="Times,serif" font-size="14.00" fill="#000000">TopPanelDetailsComponent</text>
</g>
<!-- TopPanelDetailsComponent&#45;&gt;TopPanelModule -->
<g id="edge4" class="edge">
<title>TopPanelDetailsComponent&#45;&gt;TopPanelModule</title>
<path fill="none" stroke="#000000" d="M1313,-122.302C1313,-140.2699 1313,-165 1313,-165 1313,-165 932.6129,-165 932.6129,-165"/>
<polygon fill="#000000" stroke="#000000" points="932.6129,-161.5001 922.6129,-165 932.6128,-168.5001 932.6129,-161.5001"/>
</g>
<!-- ViewSwitcherComponent -->
<g id="node5" class="node">
<title>ViewSwitcherComponent</title>
<polygon fill="#ffffb3" stroke="#000000" points="1207.9115,-122 1046.0885,-122 1046.0885,-86 1207.9115,-86 1207.9115,-122"/>
<text text-anchor="middle" x="1127" y="-99.8" font-family="Times,serif" font-size="14.00" fill="#000000">ViewSwitcherComponent</text>
</g>
<!-- ViewSwitcherComponent&#45;&gt;TopPanelModule -->
<g id="edge5" class="edge">
<title>ViewSwitcherComponent&#45;&gt;TopPanelModule</title>
<path fill="none" stroke="#000000" d="M1116.9339,-122.027C1116.9339,-138.3976 1116.9339,-160 1116.9339,-160 1116.9339,-160 932.6273,-160 932.6273,-160"/>
<polygon fill="#000000" stroke="#000000" points="932.6274,-156.5001 922.6273,-160 932.6273,-163.5001 932.6274,-156.5001"/>
</g>
<!-- BreadCrumbComponent  -->
<g id="node15" class="node">
<title>BreadCrumbComponent </title>
<polygon fill="#fb8072" stroke="#000000" points="1187.6467,-252 1030.3533,-252 1030.3533,-216 1187.6467,-216 1187.6467,-252"/>
<text text-anchor="middle" x="1109" y="-229.8" font-family="Times,serif" font-size="14.00" fill="#000000">BreadCrumbComponent </text>
</g>
<!-- TopPanelModule&#45;&gt;BreadCrumbComponent  -->
<g id="edge14" class="edge">
<title>TopPanelModule&#45;&gt;BreadCrumbComponent </title>
<path fill="none" stroke="#000000" stroke-dasharray="5,2" d="M922.915,-183C973.1198,-183 1038.3606,-183 1038.3606,-183 1038.3606,-183 1038.3606,-205.8757 1038.3606,-205.8757"/>
<polygon fill="#000000" stroke="#000000" points="1034.8607,-205.8757 1038.3606,-215.8757 1041.8607,-205.8757 1034.8607,-205.8757"/>
</g>
<!-- SubPanelComponent  -->
<g id="node16" class="node">
<title>SubPanelComponent </title>
<polygon fill="#fb8072" stroke="#000000" points="1012.7177,-252 875.2823,-252 875.2823,-216 1012.7177,-216 1012.7177,-252"/>
<text text-anchor="middle" x="944" y="-229.8" font-family="Times,serif" font-size="14.00" fill="#000000">SubPanelComponent </text>
</g>
<!-- TopPanelModule&#45;&gt;SubPanelComponent  -->
<g id="edge15" class="edge">
<title>TopPanelModule&#45;&gt;SubPanelComponent </title>
<path fill="none" stroke="#000000" stroke-dasharray="5,2" d="M898.8719,-187.1061C898.8719,-187.1061 898.8719,-205.991 898.8719,-205.991"/>
<polygon fill="#000000" stroke="#000000" points="895.3719,-205.9909 898.8719,-215.991 902.3719,-205.991 895.3719,-205.9909"/>
</g>
<!-- TopPanelComponent  -->
<g id="node17" class="node">
<title>TopPanelComponent </title>
<polygon fill="#fb8072" stroke="#000000" points="857.4883,-252 718.5117,-252 718.5117,-216 857.4883,-216 857.4883,-252"/>
<text text-anchor="middle" x="788" y="-229.8" font-family="Times,serif" font-size="14.00" fill="#000000">TopPanelComponent </text>
</g>
<!-- TopPanelModule&#45;&gt;TopPanelComponent  -->
<g id="edge16" class="edge">
<title>TopPanelModule&#45;&gt;TopPanelComponent </title>
<path fill="none" stroke="#000000" stroke-dasharray="5,2" d="M833.3207,-187.1061C833.3207,-187.1061 833.3207,-205.991 833.3207,-205.991"/>
<polygon fill="#000000" stroke="#000000" points="829.8207,-205.9909 833.3207,-215.991 836.8207,-205.991 829.8207,-205.9909"/>
</g>
<!-- TopPanelDetailsComponent  -->
<g id="node18" class="node">
<title>TopPanelDetailsComponent </title>
<polygon fill="#fb8072" stroke="#000000" points="701.1397,-252 522.8603,-252 522.8603,-216 701.1397,-216 701.1397,-252"/>
<text text-anchor="middle" x="612" y="-229.8" font-family="Times,serif" font-size="14.00" fill="#000000">TopPanelDetailsComponent </text>
</g>
<!-- TopPanelModule&#45;&gt;TopPanelDetailsComponent  -->
<g id="edge17" class="edge">
<title>TopPanelModule&#45;&gt;TopPanelDetailsComponent </title>
<path fill="none" stroke="#000000" stroke-dasharray="5,2" d="M809.0266,-183C758.2816,-183 692.0023,-183 692.0023,-183 692.0023,-183 692.0023,-205.8757 692.0023,-205.8757"/>
<polygon fill="#000000" stroke="#000000" points="688.5024,-205.8757 692.0023,-215.8757 695.5024,-205.8757 688.5024,-205.8757"/>
</g>
<!-- CardModule -->
<g id="node7" class="node">
<title>CardModule</title>
<polygon fill="#8dd3c7" stroke="#000000" points="1022.2619,-122 1019.2619,-126 998.2619,-126 995.2619,-122 935.7381,-122 935.7381,-86 1022.2619,-86 1022.2619,-122"/>
<text text-anchor="middle" x="979" y="-99.8" font-family="Times,serif" font-size="14.00" fill="#000000">CardModule</text>
</g>
<!-- CardModule&#45;&gt;TopPanelModule -->
<g id="edge6" class="edge">
<title>CardModule&#45;&gt;TopPanelModule</title>
<path fill="none" stroke="#000000" d="M974.239,-122.1871C974.239,-137.1824 974.239,-156 974.239,-156 974.239,-156 932.6555,-156 932.6555,-156"/>
<polygon fill="#000000" stroke="#000000" points="932.6555,-152.5001 922.6555,-156 932.6555,-159.5001 932.6555,-152.5001"/>
</g>
<!-- DividerModule -->
<g id="node8" class="node">
<title>DividerModule</title>
<polygon fill="#8dd3c7" stroke="#000000" points="917.3133,-122 914.3133,-126 893.3133,-126 890.3133,-122 814.6867,-122 814.6867,-86 917.3133,-86 917.3133,-122"/>
<text text-anchor="middle" x="866" y="-99.8" font-family="Times,serif" font-size="14.00" fill="#000000">DividerModule</text>
</g>
<!-- DividerModule&#45;&gt;TopPanelModule -->
<g id="edge7" class="edge">
<title>DividerModule&#45;&gt;TopPanelModule</title>
<path fill="none" stroke="#000000" d="M866,-122.1061C866,-122.1061 866,-140.991 866,-140.991"/>
<polygon fill="#000000" stroke="#000000" points="862.5001,-140.9909 866,-150.991 869.5001,-140.991 862.5001,-140.9909"/>
</g>
<!-- FiltersModule -->
<g id="node9" class="node">
<title>FiltersModule</title>
<polygon fill="#8dd3c7" stroke="#000000" points="796.8246,-122 793.8246,-126 772.8246,-126 769.8246,-122 701.1754,-122 701.1754,-86 796.8246,-86 796.8246,-122"/>
<text text-anchor="middle" x="749" y="-99.8" font-family="Times,serif" font-size="14.00" fill="#000000">FiltersModule</text>
</g>
<!-- FiltersModule&#45;&gt;TopPanelModule -->
<g id="edge8" class="edge">
<title>FiltersModule&#45;&gt;TopPanelModule</title>
<path fill="none" stroke="#000000" d="M757.7092,-122.1871C757.7092,-137.1824 757.7092,-156 757.7092,-156 757.7092,-156 799.3173,-156 799.3173,-156"/>
<polygon fill="#000000" stroke="#000000" points="799.3174,-159.5001 809.3173,-156 799.3173,-152.5001 799.3174,-159.5001"/>
</g>
<!-- IconsModule -->
<g id="node10" class="node">
<title>IconsModule</title>
<polygon fill="#8dd3c7" stroke="#000000" points="682.8697,-122 679.8697,-126 658.8697,-126 655.8697,-122 593.1303,-122 593.1303,-86 682.8697,-86 682.8697,-122"/>
<text text-anchor="middle" x="638" y="-99.8" font-family="Times,serif" font-size="14.00" fill="#000000">IconsModule</text>
</g>
<!-- IconsModule&#45;&gt;TopPanelModule -->
<g id="edge9" class="edge">
<title>IconsModule&#45;&gt;TopPanelModule</title>
<path fill="none" stroke="#000000" d="M638,-122.027C638,-138.3976 638,-160 638,-160 638,-160 799.3475,-160 799.3475,-160"/>
<polygon fill="#000000" stroke="#000000" points="799.3475,-163.5001 809.3475,-160 799.3475,-156.5001 799.3475,-163.5001"/>
</g>
<!-- LoadersModule -->
<g id="node11" class="node">
<title>LoadersModule</title>
<polygon fill="#8dd3c7" stroke="#000000" points="575.1374,-122 572.1374,-126 551.1374,-126 548.1374,-122 470.8626,-122 470.8626,-86 575.1374,-86 575.1374,-122"/>
<text text-anchor="middle" x="523" y="-99.8" font-family="Times,serif" font-size="14.00" fill="#000000">LoadersModule</text>
</g>
<!-- LoadersModule&#45;&gt;TopPanelModule -->
<g id="edge10" class="edge">
<title>LoadersModule&#45;&gt;TopPanelModule</title>
<path fill="none" stroke="#000000" d="M549.1243,-122.302C549.1243,-140.2699 549.1243,-165 549.1243,-165 549.1243,-165 799.349,-165 799.349,-165"/>
<polygon fill="#000000" stroke="#000000" points="799.349,-168.5001 809.349,-165 799.3489,-161.5001 799.349,-168.5001"/>
</g>
<!-- SearchAutocompleteModule -->
<g id="node12" class="node">
<title>SearchAutocompleteModule</title>
<polygon fill="#8dd3c7" stroke="#000000" points="452.4496,-122 449.4496,-126 428.4496,-126 425.4496,-122 275.5504,-122 275.5504,-86 452.4496,-86 452.4496,-122"/>
<text text-anchor="middle" x="364" y="-99.8" font-family="Times,serif" font-size="14.00" fill="#000000">SearchAutocompleteModule</text>
</g>
<!-- SearchAutocompleteModule&#45;&gt;TopPanelModule -->
<g id="edge11" class="edge">
<title>SearchAutocompleteModule&#45;&gt;TopPanelModule</title>
<path fill="none" stroke="#000000" d="M364,-122.1061C364,-141.3391 364,-169 364,-169 364,-169 799.39,-169 799.39,-169"/>
<polygon fill="#000000" stroke="#000000" points="799.3901,-172.5001 809.39,-169 799.39,-165.5001 799.3901,-172.5001"/>
</g>
<!-- SearchBarModule -->
<g id="node13" class="node">
<title>SearchBarModule</title>
<polygon fill="#8dd3c7" stroke="#000000" points="257.8487,-122 254.8487,-126 233.8487,-126 230.8487,-122 140.1513,-122 140.1513,-86 257.8487,-86 257.8487,-122"/>
<text text-anchor="middle" x="199" y="-99.8" font-family="Times,serif" font-size="14.00" fill="#000000">SearchBarModule</text>
</g>
<!-- SearchBarModule&#45;&gt;TopPanelModule -->
<g id="edge12" class="edge">
<title>SearchBarModule&#45;&gt;TopPanelModule</title>
<path fill="none" stroke="#000000" d="M199,-122.0267C199,-142.7672 199,-174 199,-174 199,-174 799.132,-174 799.132,-174"/>
<polygon fill="#000000" stroke="#000000" points="799.132,-177.5001 809.132,-174 799.1319,-170.5001 799.132,-177.5001"/>
</g>
<!-- SharedModule -->
<g id="node14" class="node">
<title>SharedModule</title>
<polygon fill="#8dd3c7" stroke="#000000" points="122.4231,-122 119.4231,-126 98.4231,-126 95.4231,-122 23.5769,-122 23.5769,-86 122.4231,-86 122.4231,-122"/>
<text text-anchor="middle" x="73" y="-99.8" font-family="Times,serif" font-size="14.00" fill="#000000">SharedModule</text>
</g>
<!-- SharedModule&#45;&gt;TopPanelModule -->
<g id="edge13" class="edge">
<title>SharedModule&#45;&gt;TopPanelModule</title>
<path fill="none" stroke="#000000" d="M73,-122.2921C73,-144.2057 73,-178 73,-178 73,-178 799.2876,-178 799.2876,-178"/>
<polygon fill="#000000" stroke="#000000" points="799.2877,-181.5001 809.2876,-178 799.2876,-174.5001 799.2877,-181.5001"/>
</g>
</g>
</svg>
