<?xml version="1.0" encoding="UTF-8" standalone="no"?>
<!DOCTYPE svg PUBLIC "-//W3C//DTD SVG 1.1//EN"
 "http://www.w3.org/Graphics/SVG/1.1/DTD/svg11.dtd">
<!-- Generated by graphviz version 2.40.1 (20161225.0304)
 -->
<!-- Title: dependencies Pages: 1 -->
<svg width="504pt" height="284pt"
 viewBox="0.00 0.00 504.00 284.00" xmlns="http://www.w3.org/2000/svg" xmlns:xlink="http://www.w3.org/1999/xlink">
<g id="graph0" class="graph" transform="scale(1 1) rotate(0) translate(4 280)">
<title>dependencies</title>
<polygon fill="#ffffff" stroke="transparent" points="-4,4 -4,-280 500,-280 500,4 -4,4"/>
<text text-anchor="start" x="227.0091" y="-42.4" font-family="sans-serif" font-weight="bold" font-size="14.00" fill="#000000">Legend</text>
<polygon fill="#ffffb3" stroke="transparent" points="14,-10 14,-30 34,-30 34,-10 14,-10"/>
<text text-anchor="start" x="37.629" y="-15.4" font-family="sans-serif" font-size="14.00" fill="#000000"> &#160;Declarations</text>
<polygon fill="#8dd3c7" stroke="transparent" points="127,-10 127,-30 147,-30 147,-10 127,-10"/>
<text text-anchor="start" x="150.7251" y="-15.4" font-family="sans-serif" font-size="14.00" fill="#000000"> &#160;Module</text>
<polygon fill="#80b1d3" stroke="transparent" points="213,-10 213,-30 233,-30 233,-10 213,-10"/>
<text text-anchor="start" x="236.7812" y="-15.4" font-family="sans-serif" font-size="14.00" fill="#000000"> &#160;Bootstrap</text>
<polygon fill="#fdb462" stroke="transparent" points="310,-10 310,-30 330,-30 330,-10 310,-10"/>
<text text-anchor="start" x="333.6732" y="-15.4" font-family="sans-serif" font-size="14.00" fill="#000000"> &#160;Providers</text>
<polygon fill="#fb8072" stroke="transparent" points="406,-10 406,-30 426,-30 426,-10 406,-10"/>
<text text-anchor="start" x="429.7258" y="-15.4" font-family="sans-serif" font-size="14.00" fill="#000000"> &#160;Exports</text>
<g id="clust1" class="cluster">
<title>cluster_ActionBarModule</title>
<polygon fill="none" stroke="#000000" stroke-dasharray="1,5" points="48,-70 48,-268 448,-268 448,-70 48,-70"/>
</g>
<g id="clust2" class="cluster">
<title>cluster_ActionBarModule_declarations</title>
<polygon fill="none" stroke="#000000" points="284,-78 284,-130 440,-130 440,-78 284,-78"/>
</g>
<g id="clust4" class="cluster">
<title>cluster_ActionBarModule_imports</title>
<polygon fill="none" stroke="#000000" points="56,-78 56,-130 276,-130 276,-78 56,-78"/>
</g>
<g id="clust5" class="cluster">
<title>cluster_ActionBarModule_exports</title>
<polygon fill="none" stroke="#000000" points="143,-208 143,-260 303,-260 303,-208 143,-208"/>
</g>
<!-- ActionBarComponent -->
<g id="node1" class="node">
<title>ActionBarComponent</title>
<polygon fill="#ffffb3" stroke="#000000" points="431.647,-122 292.353,-122 292.353,-86 431.647,-86 431.647,-122"/>
<text text-anchor="middle" x="362" y="-99.8" font-family="Times,serif" font-size="14.00" fill="#000000">ActionBarComponent</text>
</g>
<!-- ActionBarModule -->
<g id="node2" class="node">
<title>ActionBarModule</title>
<polygon fill="#8dd3c7" stroke="#000000" points="281.8641,-187 278.8641,-191 257.8641,-191 254.8641,-187 164.1359,-187 164.1359,-151 281.8641,-151 281.8641,-187"/>
<text text-anchor="middle" x="223" y="-164.8" font-family="Times,serif" font-size="14.00" fill="#000000">ActionBarModule</text>
</g>
<!-- ActionBarComponent&#45;&gt;ActionBarModule -->
<g id="edge1" class="edge">
<title>ActionBarComponent&#45;&gt;ActionBarModule</title>
<path fill="none" stroke="#000000" d="M292.135,-104C282.0131,-104 274.9334,-104 274.9334,-104 274.9334,-104 274.9334,-140.8939 274.9334,-140.8939"/>
<polygon fill="#000000" stroke="#000000" points="271.4335,-140.8938 274.9334,-150.8939 278.4335,-140.8939 271.4335,-140.8938"/>
</g>
<!-- ActionBarComponent  -->
<g id="node5" class="node">
<title>ActionBarComponent </title>
<polygon fill="#fb8072" stroke="#000000" points="294.6467,-252 151.3533,-252 151.3533,-216 294.6467,-216 294.6467,-252"/>
<text text-anchor="middle" x="223" y="-229.8" font-family="Times,serif" font-size="14.00" fill="#000000">ActionBarComponent </text>
</g>
<!-- ActionBarModule&#45;&gt;ActionBarComponent  -->
<g id="edge4" class="edge">
<title>ActionBarModule&#45;&gt;ActionBarComponent </title>
<path fill="none" stroke="#000000" stroke-dasharray="5,2" d="M223,-187.1061C223,-187.1061 223,-205.991 223,-205.991"/>
<polygon fill="#000000" stroke="#000000" points="219.5001,-205.9909 223,-215.991 226.5001,-205.991 219.5001,-205.9909"/>
</g>
<!-- IconsModule -->
<g id="node3" class="node">
<title>IconsModule</title>
<polygon fill="#8dd3c7" stroke="#000000" points="267.8697,-122 264.8697,-126 243.8697,-126 240.8697,-122 178.1303,-122 178.1303,-86 267.8697,-86 267.8697,-122"/>
<text text-anchor="middle" x="223" y="-99.8" font-family="Times,serif" font-size="14.00" fill="#000000">IconsModule</text>
</g>
<!-- IconsModule&#45;&gt;ActionBarModule -->
<g id="edge2" class="edge">
<title>IconsModule&#45;&gt;ActionBarModule</title>
<path fill="none" stroke="#000000" d="M223,-122.1061C223,-122.1061 223,-140.991 223,-140.991"/>
<polygon fill="#000000" stroke="#000000" points="219.5001,-140.9909 223,-150.991 226.5001,-140.991 219.5001,-140.9909"/>
</g>
<!-- RatingModule -->
<g id="node4" class="node">
<title>RatingModule</title>
<polygon fill="#8dd3c7" stroke="#000000" points="160.3823,-122 157.3823,-126 136.3823,-126 133.3823,-122 63.6177,-122 63.6177,-86 160.3823,-86 160.3823,-122"/>
<text text-anchor="middle" x="112" y="-99.8" font-family="Times,serif" font-size="14.00" fill="#000000">RatingModule</text>
</g>
<!-- RatingModule&#45;&gt;ActionBarModule -->
<g id="edge3" class="edge">
<title>RatingModule&#45;&gt;ActionBarModule</title>
<path fill="none" stroke="#000000" d="M155.9339,-122.1061C155.9339,-141.3391 155.9339,-169 155.9339,-169 155.9339,-169 156.7296,-169 156.7296,-169"/>
<polygon fill="#000000" stroke="#000000" points="153.8907,-172.5001 163.8906,-169 153.8906,-165.5001 153.8907,-172.5001"/>
</g>
</g>
</svg>
