<?xml version="1.0" encoding="UTF-8" standalone="no"?>
<!DOCTYPE svg PUBLIC "-//W3C//DTD SVG 1.1//EN"
 "http://www.w3.org/Graphics/SVG/1.1/DTD/svg11.dtd">
<!-- Generated by graphviz version 2.40.1 (20161225.0304)
 -->
<!-- Title: dependencies Pages: 1 -->
<svg width="788pt" height="211pt"
 viewBox="0.00 0.00 788.00 211.00" xmlns="http://www.w3.org/2000/svg" xmlns:xlink="http://www.w3.org/1999/xlink">
<g id="graph0" class="graph" transform="scale(1 1) rotate(0) translate(4 207)">
<title>dependencies</title>
<polygon fill="#ffffff" stroke="transparent" points="-4,4 -4,-207 784,-207 784,4 -4,4"/>
<text text-anchor="start" x="369.0091" y="-42.4" font-family="sans-serif" font-weight="bold" font-size="14.00" fill="#000000">Legend</text>
<polygon fill="#ffffb3" stroke="transparent" points="156,-10 156,-30 176,-30 176,-10 156,-10"/>
<text text-anchor="start" x="179.629" y="-15.4" font-family="sans-serif" font-size="14.00" fill="#000000"> &#160;Declarations</text>
<polygon fill="#8dd3c7" stroke="transparent" points="269,-10 269,-30 289,-30 289,-10 269,-10"/>
<text text-anchor="start" x="292.7251" y="-15.4" font-family="sans-serif" font-size="14.00" fill="#000000"> &#160;Module</text>
<polygon fill="#80b1d3" stroke="transparent" points="355,-10 355,-30 375,-30 375,-10 355,-10"/>
<text text-anchor="start" x="378.7812" y="-15.4" font-family="sans-serif" font-size="14.00" fill="#000000"> &#160;Bootstrap</text>
<polygon fill="#fdb462" stroke="transparent" points="452,-10 452,-30 472,-30 472,-10 452,-10"/>
<text text-anchor="start" x="475.6732" y="-15.4" font-family="sans-serif" font-size="14.00" fill="#000000"> &#160;Providers</text>
<polygon fill="#fb8072" stroke="transparent" points="548,-10 548,-30 568,-30 568,-10 548,-10"/>
<text text-anchor="start" x="571.7258" y="-15.4" font-family="sans-serif" font-size="14.00" fill="#000000"> &#160;Exports</text>
<g id="clust1" class="cluster">
<title>cluster_TemplateModule</title>
<polygon fill="none" stroke="#000000" stroke-dasharray="1,5" points="8,-70 8,-195 772,-195 772,-70 8,-70"/>
</g>
<g id="clust2" class="cluster">
<title>cluster_TemplateModule_declarations</title>
<polygon fill="none" stroke="#000000" points="256,-78 256,-130 764,-130 764,-78 256,-78"/>
</g>
<g id="clust6" class="cluster">
<title>cluster_TemplateModule_imports</title>
<polygon fill="none" stroke="#000000" points="16,-78 16,-130 248,-130 248,-78 16,-78"/>
</g>
<!-- GuestTemplateComponent -->
<g id="node1" class="node">
<title>GuestTemplateComponent</title>
<polygon fill="#ffffb3" stroke="#000000" points="756.3571,-122 589.6429,-122 589.6429,-86 756.3571,-86 756.3571,-122"/>
<text text-anchor="middle" x="673" y="-99.8" font-family="Times,serif" font-size="14.00" fill="#000000">GuestTemplateComponent</text>
</g>
<!-- TemplateModule -->
<g id="node4" class="node">
<title>TemplateModule</title>
<polygon fill="#8dd3c7" stroke="#000000" points="387.4188,-187 384.4188,-191 363.4188,-191 360.4188,-187 274.5812,-187 274.5812,-151 387.4188,-151 387.4188,-187"/>
<text text-anchor="middle" x="331" y="-164.8" font-family="Times,serif" font-size="14.00" fill="#000000">TemplateModule</text>
</g>
<!-- GuestTemplateComponent&#45;&gt;TemplateModule -->
<g id="edge1" class="edge">
<title>GuestTemplateComponent&#45;&gt;TemplateModule</title>
<path fill="none" stroke="#000000" d="M673,-122.2843C673,-143.3211 673,-175 673,-175 673,-175 397.4743,-175 397.4743,-175"/>
<polygon fill="#000000" stroke="#000000" points="397.4744,-171.5001 387.4743,-175 397.4743,-178.5001 397.4744,-171.5001"/>
</g>
<!-- RfqTemplateComponent -->
<g id="node2" class="node">
<title>RfqTemplateComponent</title>
<polygon fill="#ffffb3" stroke="#000000" points="571.6979,-122 416.3021,-122 416.3021,-86 571.6979,-86 571.6979,-122"/>
<text text-anchor="middle" x="494" y="-99.8" font-family="Times,serif" font-size="14.00" fill="#000000">RfqTemplateComponent</text>
</g>
<!-- RfqTemplateComponent&#45;&gt;TemplateModule -->
<g id="edge2" class="edge">
<title>RfqTemplateComponent&#45;&gt;TemplateModule</title>
<path fill="none" stroke="#000000" d="M494,-122.0225C494,-139.3734 494,-163 494,-163 494,-163 397.552,-163 397.552,-163"/>
<polygon fill="#000000" stroke="#000000" points="397.5521,-159.5001 387.552,-163 397.552,-166.5001 397.5521,-159.5001"/>
</g>
<!-- TemplateComponent -->
<g id="node3" class="node">
<title>TemplateComponent</title>
<polygon fill="#ffffb3" stroke="#000000" points="398.2008,-122 263.7992,-122 263.7992,-86 398.2008,-86 398.2008,-122"/>
<text text-anchor="middle" x="331" y="-99.8" font-family="Times,serif" font-size="14.00" fill="#000000">TemplateComponent</text>
</g>
<!-- TemplateComponent&#45;&gt;TemplateModule -->
<g id="edge3" class="edge">
<title>TemplateComponent&#45;&gt;TemplateModule</title>
<path fill="none" stroke="#000000" d="M331,-122.1061C331,-122.1061 331,-140.991 331,-140.991"/>
<polygon fill="#000000" stroke="#000000" points="327.5001,-140.9909 331,-150.991 334.5001,-140.991 327.5001,-140.9909"/>
</g>
<!-- HeaderModule -->
<g id="node5" class="node">
<title>HeaderModule</title>
<polygon fill="#8dd3c7" stroke="#000000" points="239.9608,-122 236.9608,-126 215.9608,-126 212.9608,-122 140.0392,-122 140.0392,-86 239.9608,-86 239.9608,-122"/>
<text text-anchor="middle" x="190" y="-99.8" font-family="Times,serif" font-size="14.00" fill="#000000">HeaderModule</text>
</g>
<!-- HeaderModule&#45;&gt;TemplateModule -->
<g id="edge4" class="edge">
<title>HeaderModule&#45;&gt;TemplateModule</title>
<path fill="none" stroke="#000000" d="M190,-122.0225C190,-139.3734 190,-163 190,-163 190,-163 264.4623,-163 264.4623,-163"/>
<polygon fill="#000000" stroke="#000000" points="264.4624,-166.5001 274.4623,-163 264.4623,-159.5001 264.4624,-166.5001"/>
</g>
<!-- SharedModule -->
<g id="node6" class="node">
<title>SharedModule</title>
<polygon fill="#8dd3c7" stroke="#000000" points="122.4231,-122 119.4231,-126 98.4231,-126 95.4231,-122 23.5769,-122 23.5769,-86 122.4231,-86 122.4231,-122"/>
<text text-anchor="middle" x="73" y="-99.8" font-family="Times,serif" font-size="14.00" fill="#000000">SharedModule</text>
</g>
<!-- SharedModule&#45;&gt;TemplateModule -->
<g id="edge5" class="edge">
<title>SharedModule&#45;&gt;TemplateModule</title>
<path fill="none" stroke="#000000" d="M73,-122.2843C73,-143.3211 73,-175 73,-175 73,-175 264.6996,-175 264.6996,-175"/>
<polygon fill="#000000" stroke="#000000" points="264.6997,-178.5001 274.6996,-175 264.6996,-171.5001 264.6997,-178.5001"/>
</g>
</g>
</svg>
