<?xml version="1.0" encoding="UTF-8" standalone="no"?>
<!DOCTYPE svg PUBLIC "-//W3C//DTD SVG 1.1//EN"
 "http://www.w3.org/Graphics/SVG/1.1/DTD/svg11.dtd">
<!-- Generated by graphviz version 2.40.1 (20161225.0304)
 -->
<!-- Title: dependencies Pages: 1 -->
<svg width="1075pt" height="284pt"
 viewBox="0.00 0.00 1075.00 284.00" xmlns="http://www.w3.org/2000/svg" xmlns:xlink="http://www.w3.org/1999/xlink">
<g id="graph0" class="graph" transform="scale(1 1) rotate(0) translate(4 280)">
<title>dependencies</title>
<polygon fill="#ffffff" stroke="transparent" points="-4,4 -4,-280 1071,-280 1071,4 -4,4"/>
<text text-anchor="start" x="512.5091" y="-42.4" font-family="sans-serif" font-weight="bold" font-size="14.00" fill="#000000">Legend</text>
<polygon fill="#ffffb3" stroke="transparent" points="299.5,-10 299.5,-30 319.5,-30 319.5,-10 299.5,-10"/>
<text text-anchor="start" x="323.129" y="-15.4" font-family="sans-serif" font-size="14.00" fill="#000000"> &#160;Declarations</text>
<polygon fill="#8dd3c7" stroke="transparent" points="412.5,-10 412.5,-30 432.5,-30 432.5,-10 412.5,-10"/>
<text text-anchor="start" x="436.2251" y="-15.4" font-family="sans-serif" font-size="14.00" fill="#000000"> &#160;Module</text>
<polygon fill="#80b1d3" stroke="transparent" points="498.5,-10 498.5,-30 518.5,-30 518.5,-10 498.5,-10"/>
<text text-anchor="start" x="522.2812" y="-15.4" font-family="sans-serif" font-size="14.00" fill="#000000"> &#160;Bootstrap</text>
<polygon fill="#fdb462" stroke="transparent" points="595.5,-10 595.5,-30 615.5,-30 615.5,-10 595.5,-10"/>
<text text-anchor="start" x="619.1732" y="-15.4" font-family="sans-serif" font-size="14.00" fill="#000000"> &#160;Providers</text>
<polygon fill="#fb8072" stroke="transparent" points="691.5,-10 691.5,-30 711.5,-30 711.5,-10 691.5,-10"/>
<text text-anchor="start" x="715.2258" y="-15.4" font-family="sans-serif" font-size="14.00" fill="#000000"> &#160;Exports</text>
<g id="clust1" class="cluster">
<title>cluster_EditableFieldModule</title>
<polygon fill="none" stroke="#000000" stroke-dasharray="1,5" points="8,-70 8,-268 1059,-268 1059,-70 8,-70"/>
</g>
<g id="clust2" class="cluster">
<title>cluster_EditableFieldModule_declarations</title>
<polygon fill="none" stroke="#000000" points="703,-78 703,-130 1051,-130 1051,-78 703,-78"/>
</g>
<g id="clust5" class="cluster">
<title>cluster_EditableFieldModule_imports</title>
<polygon fill="none" stroke="#000000" points="16,-78 16,-130 695,-130 695,-78 16,-78"/>
</g>
<g id="clust6" class="cluster">
<title>cluster_EditableFieldModule_exports</title>
<polygon fill="none" stroke="#000000" points="297,-208 297,-260 652,-260 652,-208 297,-208"/>
</g>
<!-- EditableLabelComponent -->
<g id="node1" class="node">
<title>EditableLabelComponent</title>
<polygon fill="#ffffb3" stroke="#000000" points="1042.8585,-122 883.1415,-122 883.1415,-86 1042.8585,-86 1042.8585,-122"/>
<text text-anchor="middle" x="963" y="-99.8" font-family="Times,serif" font-size="14.00" fill="#000000">EditableLabelComponent</text>
</g>
<!-- EditableFieldModule -->
<g id="node3" class="node">
<title>EditableFieldModule</title>
<polygon fill="#8dd3c7" stroke="#000000" points="540.4818,-187 537.4818,-191 516.4818,-191 513.4818,-187 405.5182,-187 405.5182,-151 540.4818,-151 540.4818,-187"/>
<text text-anchor="middle" x="473" y="-164.8" font-family="Times,serif" font-size="14.00" fill="#000000">EditableFieldModule</text>
</g>
<!-- EditableLabelComponent&#45;&gt;EditableFieldModule -->
<g id="edge1" class="edge">
<title>EditableLabelComponent&#45;&gt;EditableFieldModule</title>
<path fill="none" stroke="#000000" d="M963,-122.2921C963,-144.2057 963,-178 963,-178 963,-178 550.6179,-178 550.6179,-178"/>
<polygon fill="#000000" stroke="#000000" points="550.618,-174.5001 540.6179,-178 550.6179,-181.5001 550.618,-174.5001"/>
</g>
<!-- EditableTextComponent -->
<g id="node2" class="node">
<title>EditableTextComponent</title>
<polygon fill="#ffffb3" stroke="#000000" points="864.6442,-122 711.3558,-122 711.3558,-86 864.6442,-86 864.6442,-122"/>
<text text-anchor="middle" x="788" y="-99.8" font-family="Times,serif" font-size="14.00" fill="#000000">EditableTextComponent</text>
</g>
<!-- EditableTextComponent&#45;&gt;EditableFieldModule -->
<g id="edge2" class="edge">
<title>EditableTextComponent&#45;&gt;EditableFieldModule</title>
<path fill="none" stroke="#000000" d="M788,-122.1061C788,-141.3391 788,-169 788,-169 788,-169 550.5754,-169 550.5754,-169"/>
<polygon fill="#000000" stroke="#000000" points="550.5754,-165.5001 540.5754,-169 550.5754,-172.5001 550.5754,-165.5001"/>
</g>
<!-- EditableLabelComponent  -->
<g id="node10" class="node">
<title>EditableLabelComponent </title>
<polygon fill="#fb8072" stroke="#000000" points="643.8588,-252 480.1412,-252 480.1412,-216 643.8588,-216 643.8588,-252"/>
<text text-anchor="middle" x="562" y="-229.8" font-family="Times,serif" font-size="14.00" fill="#000000">EditableLabelComponent </text>
</g>
<!-- EditableFieldModule&#45;&gt;EditableLabelComponent  -->
<g id="edge9" class="edge">
<title>EditableFieldModule&#45;&gt;EditableLabelComponent </title>
<path fill="none" stroke="#000000" stroke-dasharray="5,2" d="M510.4059,-187.1061C510.4059,-187.1061 510.4059,-205.991 510.4059,-205.991"/>
<polygon fill="#000000" stroke="#000000" points="506.9059,-205.9909 510.4059,-215.991 513.9059,-205.991 506.9059,-205.9909"/>
</g>
<!-- EditableTextComponent  -->
<g id="node11" class="node">
<title>EditableTextComponent </title>
<polygon fill="#fb8072" stroke="#000000" points="462.6439,-252 305.3561,-252 305.3561,-216 462.6439,-216 462.6439,-252"/>
<text text-anchor="middle" x="384" y="-229.8" font-family="Times,serif" font-size="14.00" fill="#000000">EditableTextComponent </text>
</g>
<!-- EditableFieldModule&#45;&gt;EditableTextComponent  -->
<g id="edge10" class="edge">
<title>EditableFieldModule&#45;&gt;EditableTextComponent </title>
<path fill="none" stroke="#000000" stroke-dasharray="5,2" d="M434.0405,-187.1061C434.0405,-187.1061 434.0405,-205.991 434.0405,-205.991"/>
<polygon fill="#000000" stroke="#000000" points="430.5406,-205.9909 434.0405,-215.991 437.5406,-205.991 430.5406,-205.9909"/>
</g>
<!-- BadgeModule -->
<g id="node4" class="node">
<title>BadgeModule</title>
<polygon fill="#8dd3c7" stroke="#000000" points="686.8161,-122 683.8161,-126 662.8161,-126 659.8161,-122 591.1839,-122 591.1839,-86 686.8161,-86 686.8161,-122"/>
<text text-anchor="middle" x="639" y="-99.8" font-family="Times,serif" font-size="14.00" fill="#000000">BadgeModule</text>
</g>
<!-- BadgeModule&#45;&gt;EditableFieldModule -->
<g id="edge3" class="edge">
<title>BadgeModule&#45;&gt;EditableFieldModule</title>
<path fill="none" stroke="#000000" d="M617.5107,-122.027C617.5107,-138.3976 617.5107,-160 617.5107,-160 617.5107,-160 550.6011,-160 550.6011,-160"/>
<polygon fill="#000000" stroke="#000000" points="550.6012,-156.5001 540.6011,-160 550.6011,-163.5001 550.6012,-156.5001"/>
</g>
<!-- IconsModule -->
<g id="node5" class="node">
<title>IconsModule</title>
<polygon fill="#8dd3c7" stroke="#000000" points="572.8697,-122 569.8697,-126 548.8697,-126 545.8697,-122 483.1303,-122 483.1303,-86 572.8697,-86 572.8697,-122"/>
<text text-anchor="middle" x="528" y="-99.8" font-family="Times,serif" font-size="14.00" fill="#000000">IconsModule</text>
</g>
<!-- IconsModule&#45;&gt;EditableFieldModule -->
<g id="edge4" class="edge">
<title>IconsModule&#45;&gt;EditableFieldModule</title>
<path fill="none" stroke="#000000" d="M511.7781,-122.1061C511.7781,-122.1061 511.7781,-140.991 511.7781,-140.991"/>
<polygon fill="#000000" stroke="#000000" points="508.2781,-140.9909 511.7781,-150.991 515.2781,-140.991 508.2781,-140.9909"/>
</g>
<!-- ImageModule -->
<g id="node6" class="node">
<title>ImageModule</title>
<polygon fill="#8dd3c7" stroke="#000000" points="465.0314,-122 462.0314,-126 441.0314,-126 438.0314,-122 370.9686,-122 370.9686,-86 465.0314,-86 465.0314,-122"/>
<text text-anchor="middle" x="418" y="-99.8" font-family="Times,serif" font-size="14.00" fill="#000000">ImageModule</text>
</g>
<!-- ImageModule&#45;&gt;EditableFieldModule -->
<g id="edge5" class="edge">
<title>ImageModule&#45;&gt;EditableFieldModule</title>
<path fill="none" stroke="#000000" d="M435.3871,-122.1061C435.3871,-122.1061 435.3871,-140.991 435.3871,-140.991"/>
<polygon fill="#000000" stroke="#000000" points="431.8872,-140.9909 435.3871,-150.991 438.8872,-140.991 431.8872,-140.9909"/>
</g>
<!-- InputsModule -->
<g id="node7" class="node">
<title>InputsModule</title>
<polygon fill="#8dd3c7" stroke="#000000" points="352.0467,-122 349.0467,-126 328.0467,-126 325.0467,-122 257.9533,-122 257.9533,-86 352.0467,-86 352.0467,-122"/>
<text text-anchor="middle" x="305" y="-99.8" font-family="Times,serif" font-size="14.00" fill="#000000">InputsModule</text>
</g>
<!-- InputsModule&#45;&gt;EditableFieldModule -->
<g id="edge6" class="edge">
<title>InputsModule&#45;&gt;EditableFieldModule</title>
<path fill="none" stroke="#000000" d="M328.8505,-122.027C328.8505,-138.3976 328.8505,-160 328.8505,-160 328.8505,-160 395.1462,-160 395.1462,-160"/>
<polygon fill="#000000" stroke="#000000" points="395.1462,-163.5001 405.1462,-160 395.1462,-156.5001 395.1462,-163.5001"/>
</g>
<!-- SelectorsModule -->
<g id="node8" class="node">
<title>SelectorsModule</title>
<polygon fill="#8dd3c7" stroke="#000000" points="239.3627,-122 236.3627,-126 215.3627,-126 212.3627,-122 128.6373,-122 128.6373,-86 239.3627,-86 239.3627,-122"/>
<text text-anchor="middle" x="184" y="-99.8" font-family="Times,serif" font-size="14.00" fill="#000000">SelectorsModule</text>
</g>
<!-- SelectorsModule&#45;&gt;EditableFieldModule -->
<g id="edge7" class="edge">
<title>SelectorsModule&#45;&gt;EditableFieldModule</title>
<path fill="none" stroke="#000000" d="M184,-122.1061C184,-141.3391 184,-169 184,-169 184,-169 395.2423,-169 395.2423,-169"/>
<polygon fill="#000000" stroke="#000000" points="395.2424,-172.5001 405.2423,-169 395.2423,-165.5001 395.2424,-172.5001"/>
</g>
<!-- UtilsModule -->
<g id="node9" class="node">
<title>UtilsModule</title>
<polygon fill="#8dd3c7" stroke="#000000" points="110.2731,-122 107.2731,-126 86.2731,-126 83.2731,-122 23.7269,-122 23.7269,-86 110.2731,-86 110.2731,-122"/>
<text text-anchor="middle" x="67" y="-99.8" font-family="Times,serif" font-size="14.00" fill="#000000">UtilsModule</text>
</g>
<!-- UtilsModule&#45;&gt;EditableFieldModule -->
<g id="edge8" class="edge">
<title>UtilsModule&#45;&gt;EditableFieldModule</title>
<path fill="none" stroke="#000000" d="M67,-122.2921C67,-144.2057 67,-178 67,-178 67,-178 395.5016,-178 395.5016,-178"/>
<polygon fill="#000000" stroke="#000000" points="395.5016,-181.5001 405.5016,-178 395.5016,-174.5001 395.5016,-181.5001"/>
</g>
</g>
</svg>
