<?xml version="1.0" encoding="UTF-8" standalone="no"?>
<!DOCTYPE svg PUBLIC "-//W3C//DTD SVG 1.1//EN"
 "http://www.w3.org/Graphics/SVG/1.1/DTD/svg11.dtd">
<!-- Generated by graphviz version 2.40.1 (20161225.0304)
 -->
<!-- Title: dependencies Pages: 1 -->
<svg width="1059pt" height="284pt"
 viewBox="0.00 0.00 1059.00 284.00" xmlns="http://www.w3.org/2000/svg" xmlns:xlink="http://www.w3.org/1999/xlink">
<g id="graph0" class="graph" transform="scale(1 1) rotate(0) translate(4 280)">
<title>dependencies</title>
<polygon fill="#ffffff" stroke="transparent" points="-4,4 -4,-280 1055,-280 1055,4 -4,4"/>
<text text-anchor="start" x="504.5091" y="-42.4" font-family="sans-serif" font-weight="bold" font-size="14.00" fill="#000000">Legend</text>
<polygon fill="#ffffb3" stroke="transparent" points="291.5,-10 291.5,-30 311.5,-30 311.5,-10 291.5,-10"/>
<text text-anchor="start" x="315.129" y="-15.4" font-family="sans-serif" font-size="14.00" fill="#000000"> &#160;Declarations</text>
<polygon fill="#8dd3c7" stroke="transparent" points="404.5,-10 404.5,-30 424.5,-30 424.5,-10 404.5,-10"/>
<text text-anchor="start" x="428.2251" y="-15.4" font-family="sans-serif" font-size="14.00" fill="#000000"> &#160;Module</text>
<polygon fill="#80b1d3" stroke="transparent" points="490.5,-10 490.5,-30 510.5,-30 510.5,-10 490.5,-10"/>
<text text-anchor="start" x="514.2812" y="-15.4" font-family="sans-serif" font-size="14.00" fill="#000000"> &#160;Bootstrap</text>
<polygon fill="#fdb462" stroke="transparent" points="587.5,-10 587.5,-30 607.5,-30 607.5,-10 587.5,-10"/>
<text text-anchor="start" x="611.1732" y="-15.4" font-family="sans-serif" font-size="14.00" fill="#000000"> &#160;Providers</text>
<polygon fill="#fb8072" stroke="transparent" points="683.5,-10 683.5,-30 703.5,-30 703.5,-10 683.5,-10"/>
<text text-anchor="start" x="707.2258" y="-15.4" font-family="sans-serif" font-size="14.00" fill="#000000"> &#160;Exports</text>
<g id="clust1" class="cluster">
<title>cluster_HeaderModule</title>
<polygon fill="none" stroke="#000000" stroke-dasharray="1,5" points="8,-70 8,-268 1043,-268 1043,-70 8,-70"/>
</g>
<g id="clust2" class="cluster">
<title>cluster_HeaderModule_declarations</title>
<polygon fill="none" stroke="#000000" points="612,-78 612,-130 1035,-130 1035,-78 612,-78"/>
</g>
<g id="clust6" class="cluster">
<title>cluster_HeaderModule_imports</title>
<polygon fill="none" stroke="#000000" points="16,-78 16,-130 604,-130 604,-78 16,-78"/>
</g>
<g id="clust7" class="cluster">
<title>cluster_HeaderModule_exports</title>
<polygon fill="none" stroke="#000000" points="437,-208 437,-260 579,-260 579,-208 437,-208"/>
</g>
<!-- HeaderComponent -->
<g id="node1" class="node">
<title>HeaderComponent</title>
<polygon fill="#ffffb3" stroke="#000000" points="1026.7437,-122 905.2563,-122 905.2563,-86 1026.7437,-86 1026.7437,-122"/>
<text text-anchor="middle" x="966" y="-99.8" font-family="Times,serif" font-size="14.00" fill="#000000">HeaderComponent</text>
</g>
<!-- HeaderModule -->
<g id="node4" class="node">
<title>HeaderModule</title>
<polygon fill="#8dd3c7" stroke="#000000" points="557.9608,-187 554.9608,-191 533.9608,-191 530.9608,-187 458.0392,-187 458.0392,-151 557.9608,-151 557.9608,-187"/>
<text text-anchor="middle" x="508" y="-164.8" font-family="Times,serif" font-size="14.00" fill="#000000">HeaderModule</text>
</g>
<!-- HeaderComponent&#45;&gt;HeaderModule -->
<g id="edge1" class="edge">
<title>HeaderComponent&#45;&gt;HeaderModule</title>
<path fill="none" stroke="#000000" d="M966,-122.2921C966,-144.2057 966,-178 966,-178 966,-178 568.3241,-178 568.3241,-178"/>
<polygon fill="#000000" stroke="#000000" points="568.3242,-174.5001 558.3241,-178 568.3241,-181.5001 568.3242,-174.5001"/>
</g>
<!-- NotifComponent -->
<g id="node2" class="node">
<title>NotifComponent</title>
<polygon fill="#ffffb3" stroke="#000000" points="887.3809,-122 776.6191,-122 776.6191,-86 887.3809,-86 887.3809,-122"/>
<text text-anchor="middle" x="832" y="-99.8" font-family="Times,serif" font-size="14.00" fill="#000000">NotifComponent</text>
</g>
<!-- NotifComponent&#45;&gt;HeaderModule -->
<g id="edge2" class="edge">
<title>NotifComponent&#45;&gt;HeaderModule</title>
<path fill="none" stroke="#000000" d="M832,-122.1061C832,-141.3391 832,-169 832,-169 832,-169 568.2695,-169 568.2695,-169"/>
<polygon fill="#000000" stroke="#000000" points="568.2695,-165.5001 558.2695,-169 568.2695,-172.5001 568.2695,-165.5001"/>
</g>
<!-- UserPanelComponent -->
<g id="node3" class="node">
<title>UserPanelComponent</title>
<polygon fill="#ffffb3" stroke="#000000" points="758.3613,-122 619.6387,-122 619.6387,-86 758.3613,-86 758.3613,-122"/>
<text text-anchor="middle" x="689" y="-99.8" font-family="Times,serif" font-size="14.00" fill="#000000">UserPanelComponent</text>
</g>
<!-- UserPanelComponent&#45;&gt;HeaderModule -->
<g id="edge3" class="edge">
<title>UserPanelComponent&#45;&gt;HeaderModule</title>
<path fill="none" stroke="#000000" d="M689,-122.027C689,-138.3976 689,-160 689,-160 689,-160 568.4186,-160 568.4186,-160"/>
<polygon fill="#000000" stroke="#000000" points="568.4186,-156.5001 558.4186,-160 568.4186,-163.5001 568.4186,-156.5001"/>
</g>
<!-- HeaderComponent  -->
<g id="node9" class="node">
<title>HeaderComponent </title>
<polygon fill="#fb8072" stroke="#000000" points="570.7436,-252 445.2564,-252 445.2564,-216 570.7436,-216 570.7436,-252"/>
<text text-anchor="middle" x="508" y="-229.8" font-family="Times,serif" font-size="14.00" fill="#000000">HeaderComponent </text>
</g>
<!-- HeaderModule&#45;&gt;HeaderComponent  -->
<g id="edge8" class="edge">
<title>HeaderModule&#45;&gt;HeaderComponent </title>
<path fill="none" stroke="#000000" stroke-dasharray="5,2" d="M508,-187.1061C508,-187.1061 508,-205.991 508,-205.991"/>
<polygon fill="#000000" stroke="#000000" points="504.5001,-205.9909 508,-215.991 511.5001,-205.991 504.5001,-205.9909"/>
</g>
<!-- SearchAutocompleteModule -->
<g id="node5" class="node">
<title>SearchAutocompleteModule</title>
<polygon fill="#8dd3c7" stroke="#000000" points="596.4496,-122 593.4496,-126 572.4496,-126 569.4496,-122 419.5504,-122 419.5504,-86 596.4496,-86 596.4496,-122"/>
<text text-anchor="middle" x="508" y="-99.8" font-family="Times,serif" font-size="14.00" fill="#000000">SearchAutocompleteModule</text>
</g>
<!-- SearchAutocompleteModule&#45;&gt;HeaderModule -->
<g id="edge4" class="edge">
<title>SearchAutocompleteModule&#45;&gt;HeaderModule</title>
<path fill="none" stroke="#000000" d="M508,-122.1061C508,-122.1061 508,-140.991 508,-140.991"/>
<polygon fill="#000000" stroke="#000000" points="504.5001,-140.9909 508,-150.991 511.5001,-140.991 504.5001,-140.9909"/>
</g>
<!-- SearchBarModule -->
<g id="node6" class="node">
<title>SearchBarModule</title>
<polygon fill="#8dd3c7" stroke="#000000" points="401.8487,-122 398.8487,-126 377.8487,-126 374.8487,-122 284.1513,-122 284.1513,-86 401.8487,-86 401.8487,-122"/>
<text text-anchor="middle" x="343" y="-99.8" font-family="Times,serif" font-size="14.00" fill="#000000">SearchBarModule</text>
</g>
<!-- SearchBarModule&#45;&gt;HeaderModule -->
<g id="edge5" class="edge">
<title>SearchBarModule&#45;&gt;HeaderModule</title>
<path fill="none" stroke="#000000" d="M343,-122.027C343,-138.3976 343,-160 343,-160 343,-160 447.598,-160 447.598,-160"/>
<polygon fill="#000000" stroke="#000000" points="447.598,-163.5001 457.598,-160 447.598,-156.5001 447.598,-163.5001"/>
</g>
<!-- SharedModule -->
<g id="node7" class="node">
<title>SharedModule</title>
<polygon fill="#8dd3c7" stroke="#000000" points="266.4231,-122 263.4231,-126 242.4231,-126 239.4231,-122 167.5769,-122 167.5769,-86 266.4231,-86 266.4231,-122"/>
<text text-anchor="middle" x="217" y="-99.8" font-family="Times,serif" font-size="14.00" fill="#000000">SharedModule</text>
</g>
<!-- SharedModule&#45;&gt;HeaderModule -->
<g id="edge6" class="edge">
<title>SharedModule&#45;&gt;HeaderModule</title>
<path fill="none" stroke="#000000" d="M217,-122.1061C217,-141.3391 217,-169 217,-169 217,-169 447.9753,-169 447.9753,-169"/>
<polygon fill="#000000" stroke="#000000" points="447.9754,-172.5001 457.9753,-169 447.9753,-165.5001 447.9754,-172.5001"/>
</g>
<!-- UserPictureModule -->
<g id="node8" class="node">
<title>UserPictureModule</title>
<polygon fill="#8dd3c7" stroke="#000000" points="149.6303,-122 146.6303,-126 125.6303,-126 122.6303,-122 24.3697,-122 24.3697,-86 149.6303,-86 149.6303,-122"/>
<text text-anchor="middle" x="87" y="-99.8" font-family="Times,serif" font-size="14.00" fill="#000000">UserPictureModule</text>
</g>
<!-- UserPictureModule&#45;&gt;HeaderModule -->
<g id="edge7" class="edge">
<title>UserPictureModule&#45;&gt;HeaderModule</title>
<path fill="none" stroke="#000000" d="M87,-122.2921C87,-144.2057 87,-178 87,-178 87,-178 447.6357,-178 447.6357,-178"/>
<polygon fill="#000000" stroke="#000000" points="447.6358,-181.5001 457.6357,-178 447.6357,-174.5001 447.6358,-181.5001"/>
</g>
</g>
</svg>
