<?xml version="1.0" encoding="UTF-8" standalone="no"?>
<!DOCTYPE svg PUBLIC "-//W3C//DTD SVG 1.1//EN"
 "http://www.w3.org/Graphics/SVG/1.1/DTD/svg11.dtd">
<!-- Generated by graphviz version 2.40.1 (20161225.0304)
 -->
<!-- Title: dependencies Pages: 1 -->
<svg width="1991pt" height="284pt"
 viewBox="0.00 0.00 1991.00 284.00" xmlns="http://www.w3.org/2000/svg" xmlns:xlink="http://www.w3.org/1999/xlink">
<g id="graph0" class="graph" transform="scale(1 1) rotate(0) translate(4 280)">
<title>dependencies</title>
<polygon fill="#ffffff" stroke="transparent" points="-4,4 -4,-280 1987,-280 1987,4 -4,4"/>
<text text-anchor="start" x="970.5091" y="-42.4" font-family="sans-serif" font-weight="bold" font-size="14.00" fill="#000000">Legend</text>
<polygon fill="#ffffb3" stroke="transparent" points="757.5,-10 757.5,-30 777.5,-30 777.5,-10 757.5,-10"/>
<text text-anchor="start" x="781.129" y="-15.4" font-family="sans-serif" font-size="14.00" fill="#000000"> &#160;Declarations</text>
<polygon fill="#8dd3c7" stroke="transparent" points="870.5,-10 870.5,-30 890.5,-30 890.5,-10 870.5,-10"/>
<text text-anchor="start" x="894.2251" y="-15.4" font-family="sans-serif" font-size="14.00" fill="#000000"> &#160;Module</text>
<polygon fill="#80b1d3" stroke="transparent" points="956.5,-10 956.5,-30 976.5,-30 976.5,-10 956.5,-10"/>
<text text-anchor="start" x="980.2812" y="-15.4" font-family="sans-serif" font-size="14.00" fill="#000000"> &#160;Bootstrap</text>
<polygon fill="#fdb462" stroke="transparent" points="1053.5,-10 1053.5,-30 1073.5,-30 1073.5,-10 1053.5,-10"/>
<text text-anchor="start" x="1077.1732" y="-15.4" font-family="sans-serif" font-size="14.00" fill="#000000"> &#160;Providers</text>
<polygon fill="#fb8072" stroke="transparent" points="1149.5,-10 1149.5,-30 1169.5,-30 1169.5,-10 1149.5,-10"/>
<text text-anchor="start" x="1173.2258" y="-15.4" font-family="sans-serif" font-size="14.00" fill="#000000"> &#160;Exports</text>
<g id="clust1" class="cluster">
<title>cluster_SharedModule</title>
<polygon fill="none" stroke="#000000" stroke-dasharray="1,5" points="8,-70 8,-268 1975,-268 1975,-70 8,-70"/>
</g>
<g id="clust3" class="cluster">
<title>cluster_SharedModule_imports</title>
<polygon fill="none" stroke="#000000" points="51,-78 51,-130 1945,-130 1945,-78 51,-78"/>
</g>
<g id="clust4" class="cluster">
<title>cluster_SharedModule_exports</title>
<polygon fill="none" stroke="#000000" points="16,-208 16,-260 1967,-260 1967,-208 16,-208"/>
</g>
<!-- BadgeModule -->
<g id="node1" class="node">
<title>BadgeModule</title>
<polygon fill="#8dd3c7" stroke="#000000" points="1936.8161,-122 1933.8161,-126 1912.8161,-126 1909.8161,-122 1841.1839,-122 1841.1839,-86 1936.8161,-86 1936.8161,-122"/>
<text text-anchor="middle" x="1889" y="-99.8" font-family="Times,serif" font-size="14.00" fill="#000000">BadgeModule</text>
</g>
<!-- SharedModule -->
<g id="node17" class="node">
<title>SharedModule</title>
<polygon fill="#8dd3c7" stroke="#000000" points="980.4231,-187 977.4231,-191 956.4231,-191 953.4231,-187 881.5769,-187 881.5769,-151 980.4231,-151 980.4231,-187"/>
<text text-anchor="middle" x="931" y="-164.8" font-family="Times,serif" font-size="14.00" fill="#000000">SharedModule</text>
</g>
<!-- BadgeModule&#45;&gt;SharedModule -->
<g id="edge1" class="edge">
<title>BadgeModule&#45;&gt;SharedModule</title>
<path fill="none" stroke="#000000" d="M1851.3615,-122.1686C1851.3615,-141.0898 1851.3615,-168 1851.3615,-168 1851.3615,-168 990.4826,-168 990.4826,-168"/>
<polygon fill="#000000" stroke="#000000" points="990.4827,-164.5001 980.4826,-168 990.4826,-171.5001 990.4827,-164.5001"/>
</g>
<!-- CardModule -->
<g id="node2" class="node">
<title>CardModule</title>
<polygon fill="#8dd3c7" stroke="#000000" points="1823.2619,-122 1820.2619,-126 1799.2619,-126 1796.2619,-122 1736.7381,-122 1736.7381,-86 1823.2619,-86 1823.2619,-122"/>
<text text-anchor="middle" x="1780" y="-99.8" font-family="Times,serif" font-size="14.00" fill="#000000">CardModule</text>
</g>
<!-- CardModule&#45;&gt;SharedModule -->
<g id="edge2" class="edge">
<title>CardModule&#45;&gt;SharedModule</title>
<path fill="none" stroke="#000000" d="M1744.2442,-122.2667C1744.2442,-140.5552 1744.2442,-166 1744.2442,-166 1744.2442,-166 990.3438,-166 990.3438,-166"/>
<polygon fill="#000000" stroke="#000000" points="990.3439,-162.5001 980.3438,-166 990.3438,-169.5001 990.3439,-162.5001"/>
</g>
<!-- ContextMenuModule -->
<g id="node3" class="node">
<title>ContextMenuModule</title>
<polygon fill="#8dd3c7" stroke="#000000" points="1718.0422,-122 1715.0422,-126 1694.0422,-126 1691.0422,-122 1581.9578,-122 1581.9578,-86 1718.0422,-86 1718.0422,-122"/>
<text text-anchor="middle" x="1650" y="-99.8" font-family="Times,serif" font-size="14.00" fill="#000000">ContextMenuModule</text>
</g>
<!-- ContextMenuModule&#45;&gt;SharedModule -->
<g id="edge3" class="edge">
<title>ContextMenuModule&#45;&gt;SharedModule</title>
<path fill="none" stroke="#000000" d="M1587.8543,-122.0225C1587.8543,-139.3734 1587.8543,-163 1587.8543,-163 1587.8543,-163 990.3708,-163 990.3708,-163"/>
<polygon fill="#000000" stroke="#000000" points="990.3709,-159.5001 980.3708,-163 990.3708,-166.5001 990.3709,-159.5001"/>
</g>
<!-- DividerModule -->
<g id="node4" class="node">
<title>DividerModule</title>
<polygon fill="#8dd3c7" stroke="#000000" points="1564.3133,-122 1561.3133,-126 1540.3133,-126 1537.3133,-122 1461.6867,-122 1461.6867,-86 1564.3133,-86 1564.3133,-122"/>
<text text-anchor="middle" x="1513" y="-99.8" font-family="Times,serif" font-size="14.00" fill="#000000">DividerModule</text>
</g>
<!-- DividerModule&#45;&gt;SharedModule -->
<g id="edge4" class="edge">
<title>DividerModule&#45;&gt;SharedModule</title>
<path fill="none" stroke="#000000" d="M1465.9686,-122.0352C1465.9686,-138.7344 1465.9686,-161 1465.9686,-161 1465.9686,-161 990.3697,-161 990.3697,-161"/>
<polygon fill="#000000" stroke="#000000" points="990.3697,-157.5001 980.3697,-161 990.3696,-164.5001 990.3697,-157.5001"/>
</g>
<!-- EditableFieldModule -->
<g id="node5" class="node">
<title>EditableFieldModule</title>
<polygon fill="#8dd3c7" stroke="#000000" points="1443.4818,-122 1440.4818,-126 1419.4818,-126 1416.4818,-122 1308.5182,-122 1308.5182,-86 1443.4818,-86 1443.4818,-122"/>
<text text-anchor="middle" x="1376" y="-99.8" font-family="Times,serif" font-size="14.00" fill="#000000">EditableFieldModule</text>
</g>
<!-- EditableFieldModule&#45;&gt;SharedModule -->
<g id="edge5" class="edge">
<title>EditableFieldModule&#45;&gt;SharedModule</title>
<path fill="none" stroke="#000000" d="M1400.247,-122.0091C1400.247,-138.0494 1400.247,-159 1400.247,-159 1400.247,-159 990.3307,-159 990.3307,-159"/>
<polygon fill="#000000" stroke="#000000" points="990.3308,-155.5001 980.3307,-159 990.3307,-162.5001 990.3308,-155.5001"/>
</g>
<!-- IconsModule -->
<g id="node6" class="node">
<title>IconsModule</title>
<polygon fill="#8dd3c7" stroke="#000000" points="1290.8697,-122 1287.8697,-126 1266.8697,-126 1263.8697,-122 1201.1303,-122 1201.1303,-86 1290.8697,-86 1290.8697,-122"/>
<text text-anchor="middle" x="1246" y="-99.8" font-family="Times,serif" font-size="14.00" fill="#000000">IconsModule</text>
</g>
<!-- IconsModule&#45;&gt;SharedModule -->
<g id="edge6" class="edge">
<title>IconsModule&#45;&gt;SharedModule</title>
<path fill="none" stroke="#000000" d="M1261.3949,-122.1871C1261.3949,-137.1824 1261.3949,-156 1261.3949,-156 1261.3949,-156 990.4635,-156 990.4635,-156"/>
<polygon fill="#000000" stroke="#000000" points="990.4635,-152.5001 980.4635,-156 990.4634,-159.5001 990.4635,-152.5001"/>
</g>
<!-- ImageModule -->
<g id="node7" class="node">
<title>ImageModule</title>
<polygon fill="#8dd3c7" stroke="#000000" points="1183.0314,-122 1180.0314,-126 1159.0314,-126 1156.0314,-122 1088.9686,-122 1088.9686,-86 1183.0314,-86 1183.0314,-122"/>
<text text-anchor="middle" x="1136" y="-99.8" font-family="Times,serif" font-size="14.00" fill="#000000">ImageModule</text>
</g>
<!-- ImageModule&#45;&gt;SharedModule -->
<g id="edge7" class="edge">
<title>ImageModule&#45;&gt;SharedModule</title>
<path fill="none" stroke="#000000" d="M1120.245,-122.0511C1120.245,-136.373 1120.245,-154 1120.245,-154 1120.245,-154 990.2279,-154 990.2279,-154"/>
<polygon fill="#000000" stroke="#000000" points="990.2279,-150.5001 980.2279,-154 990.2278,-157.5001 990.2279,-150.5001"/>
</g>
<!-- InputsModule -->
<g id="node8" class="node">
<title>InputsModule</title>
<polygon fill="#8dd3c7" stroke="#000000" points="1070.0467,-122 1067.0467,-126 1046.0467,-126 1043.0467,-122 975.9533,-122 975.9533,-86 1070.0467,-86 1070.0467,-122"/>
<text text-anchor="middle" x="1023" y="-99.8" font-family="Times,serif" font-size="14.00" fill="#000000">InputsModule</text>
</g>
<!-- InputsModule&#45;&gt;SharedModule -->
<g id="edge8" class="edge">
<title>InputsModule&#45;&gt;SharedModule</title>
<path fill="none" stroke="#000000" d="M975.7419,-104C970.3255,-104 966.6957,-104 966.6957,-104 966.6957,-104 966.6957,-140.8939 966.6957,-140.8939"/>
<polygon fill="#000000" stroke="#000000" points="963.1957,-140.8938 966.6957,-150.8939 970.1957,-140.8939 963.1957,-140.8938"/>
</g>
<!-- ListModule -->
<g id="node9" class="node">
<title>ListModule</title>
<polygon fill="#8dd3c7" stroke="#000000" points="957.8289,-122 954.8289,-126 933.8289,-126 930.8289,-122 876.1711,-122 876.1711,-86 957.8289,-86 957.8289,-122"/>
<text text-anchor="middle" x="917" y="-99.8" font-family="Times,serif" font-size="14.00" fill="#000000">ListModule</text>
</g>
<!-- ListModule&#45;&gt;SharedModule -->
<g id="edge9" class="edge">
<title>ListModule&#45;&gt;SharedModule</title>
<path fill="none" stroke="#000000" d="M919.7265,-122.1061C919.7265,-122.1061 919.7265,-140.991 919.7265,-140.991"/>
<polygon fill="#000000" stroke="#000000" points="916.2266,-140.9909 919.7265,-150.991 923.2266,-140.991 916.2266,-140.9909"/>
</g>
<!-- LoadersModule -->
<g id="node10" class="node">
<title>LoadersModule</title>
<polygon fill="#8dd3c7" stroke="#000000" points="858.1374,-122 855.1374,-126 834.1374,-126 831.1374,-122 753.8626,-122 753.8626,-86 858.1374,-86 858.1374,-122"/>
<text text-anchor="middle" x="806" y="-99.8" font-family="Times,serif" font-size="14.00" fill="#000000">LoadersModule</text>
</g>
<!-- LoadersModule&#45;&gt;SharedModule -->
<g id="edge10" class="edge">
<title>LoadersModule&#45;&gt;SharedModule</title>
<path fill="none" stroke="#000000" d="M854.1934,-122.0511C854.1934,-136.373 854.1934,-154 854.1934,-154 854.1934,-154 871.4888,-154 871.4888,-154"/>
<polygon fill="#000000" stroke="#000000" points="871.4888,-157.5001 881.4888,-154 871.4888,-150.5001 871.4888,-157.5001"/>
</g>
<!-- MoqModule -->
<g id="node11" class="node">
<title>MoqModule</title>
<polygon fill="#8dd3c7" stroke="#000000" points="735.9944,-122 732.9944,-126 711.9944,-126 708.9944,-122 650.0056,-122 650.0056,-86 735.9944,-86 735.9944,-122"/>
<text text-anchor="middle" x="693" y="-99.8" font-family="Times,serif" font-size="14.00" fill="#000000">MoqModule</text>
</g>
<!-- MoqModule&#45;&gt;SharedModule -->
<g id="edge11" class="edge">
<title>MoqModule&#45;&gt;SharedModule</title>
<path fill="none" stroke="#000000" d="M729.8722,-122.1871C729.8722,-137.1824 729.8722,-156 729.8722,-156 729.8722,-156 871.541,-156 871.541,-156"/>
<polygon fill="#000000" stroke="#000000" points="871.541,-159.5001 881.541,-156 871.541,-152.5001 871.541,-159.5001"/>
</g>
<!-- PanelModule -->
<g id="node12" class="node">
<title>PanelModule</title>
<polygon fill="#8dd3c7" stroke="#000000" points="632.1529,-122 629.1529,-126 608.1529,-126 605.1529,-122 541.8471,-122 541.8471,-86 632.1529,-86 632.1529,-122"/>
<text text-anchor="middle" x="587" y="-99.8" font-family="Times,serif" font-size="14.00" fill="#000000">PanelModule</text>
</g>
<!-- PanelModule&#45;&gt;SharedModule -->
<g id="edge12" class="edge">
<title>PanelModule&#45;&gt;SharedModule</title>
<path fill="none" stroke="#000000" d="M624.2011,-122.0091C624.2011,-138.0494 624.2011,-159 624.2011,-159 624.2011,-159 871.7074,-159 871.7074,-159"/>
<polygon fill="#000000" stroke="#000000" points="871.7075,-162.5001 881.7074,-159 871.7074,-155.5001 871.7075,-162.5001"/>
</g>
<!-- PriceModule -->
<g id="node13" class="node">
<title>PriceModule</title>
<polygon fill="#8dd3c7" stroke="#000000" points="524.3134,-122 521.3134,-126 500.3134,-126 497.3134,-122 435.6866,-122 435.6866,-86 524.3134,-86 524.3134,-122"/>
<text text-anchor="middle" x="480" y="-99.8" font-family="Times,serif" font-size="14.00" fill="#000000">PriceModule</text>
</g>
<!-- PriceModule&#45;&gt;SharedModule -->
<g id="edge13" class="edge">
<title>PriceModule&#45;&gt;SharedModule</title>
<path fill="none" stroke="#000000" d="M512.9152,-122.0352C512.9152,-138.7344 512.9152,-161 512.9152,-161 512.9152,-161 871.3984,-161 871.3984,-161"/>
<polygon fill="#000000" stroke="#000000" points="871.3984,-164.5001 881.3984,-161 871.3984,-157.5001 871.3984,-164.5001"/>
</g>
<!-- SelectorsModule -->
<g id="node14" class="node">
<title>SelectorsModule</title>
<polygon fill="#8dd3c7" stroke="#000000" points="417.3627,-122 414.3627,-126 393.3627,-126 390.3627,-122 306.6373,-122 306.6373,-86 417.3627,-86 417.3627,-122"/>
<text text-anchor="middle" x="362" y="-99.8" font-family="Times,serif" font-size="14.00" fill="#000000">SelectorsModule</text>
</g>
<!-- SelectorsModule&#45;&gt;SharedModule -->
<g id="edge14" class="edge">
<title>SelectorsModule&#45;&gt;SharedModule</title>
<path fill="none" stroke="#000000" d="M403.1374,-122.0225C403.1374,-139.3734 403.1374,-163 403.1374,-163 403.1374,-163 871.34,-163 871.34,-163"/>
<polygon fill="#000000" stroke="#000000" points="871.34,-166.5001 881.34,-163 871.3399,-159.5001 871.34,-166.5001"/>
</g>
<!-- UserPictureModule -->
<g id="node15" class="node">
<title>UserPictureModule</title>
<polygon fill="#8dd3c7" stroke="#000000" points="288.6303,-122 285.6303,-126 264.6303,-126 261.6303,-122 163.3697,-122 163.3697,-86 288.6303,-86 288.6303,-122"/>
<text text-anchor="middle" x="226" y="-99.8" font-family="Times,serif" font-size="14.00" fill="#000000">UserPictureModule</text>
</g>
<!-- UserPictureModule&#45;&gt;SharedModule -->
<g id="edge15" class="edge">
<title>UserPictureModule&#45;&gt;SharedModule</title>
<path fill="none" stroke="#000000" d="M284.3168,-122.2667C284.3168,-140.5552 284.3168,-166 284.3168,-166 284.3168,-166 871.5966,-166 871.5966,-166"/>
<polygon fill="#000000" stroke="#000000" points="871.5966,-169.5001 881.5966,-166 871.5965,-162.5001 871.5966,-169.5001"/>
</g>
<!-- UtilsModule -->
<g id="node16" class="node">
<title>UtilsModule</title>
<polygon fill="#8dd3c7" stroke="#000000" points="145.2731,-122 142.2731,-126 121.2731,-126 118.2731,-122 58.7269,-122 58.7269,-86 145.2731,-86 145.2731,-122"/>
<text text-anchor="middle" x="102" y="-99.8" font-family="Times,serif" font-size="14.00" fill="#000000">UtilsModule</text>
</g>
<!-- UtilsModule&#45;&gt;SharedModule -->
<g id="edge16" class="edge">
<title>UtilsModule&#45;&gt;SharedModule</title>
<path fill="none" stroke="#000000" d="M138.9108,-122.1686C138.9108,-141.0898 138.9108,-168 138.9108,-168 138.9108,-168 871.7505,-168 871.7505,-168"/>
<polygon fill="#000000" stroke="#000000" points="871.7506,-171.5001 881.7505,-168 871.7505,-164.5001 871.7506,-171.5001"/>
</g>
<!-- BadgeModule  -->
<g id="node18" class="node">
<title>BadgeModule </title>
<polygon fill="#fb8072" stroke="#000000" points="1959.3158,-252 1860.6842,-252 1860.6842,-216 1959.3158,-216 1959.3158,-252"/>
<text text-anchor="middle" x="1910" y="-229.8" font-family="Times,serif" font-size="14.00" fill="#000000">BadgeModule </text>
</g>
<!-- SharedModule&#45;&gt;BadgeModule  -->
<g id="edge17" class="edge">
<title>SharedModule&#45;&gt;BadgeModule </title>
<path fill="none" stroke="#000000" stroke-dasharray="5,2" d="M980.315,-171C1177.4981,-171 1898.625,-171 1898.625,-171 1898.625,-171 1898.625,-205.7778 1898.625,-205.7778"/>
<polygon fill="#000000" stroke="#000000" points="1895.1251,-205.7778 1898.625,-215.7778 1902.1251,-205.7778 1895.1251,-205.7778"/>
</g>
<!-- CardModule  -->
<g id="node19" class="node">
<title>CardModule </title>
<polygon fill="#fb8072" stroke="#000000" points="1842.262,-252 1751.738,-252 1751.738,-216 1842.262,-216 1842.262,-252"/>
<text text-anchor="middle" x="1797" y="-229.8" font-family="Times,serif" font-size="14.00" fill="#000000">CardModule </text>
</g>
<!-- SharedModule&#45;&gt;CardModule  -->
<g id="edge18" class="edge">
<title>SharedModule&#45;&gt;CardModule </title>
<path fill="none" stroke="#000000" stroke-dasharray="5,2" d="M980.4451,-173C1162.869,-173 1787.625,-173 1787.625,-173 1787.625,-173 1787.625,-205.698 1787.625,-205.698"/>
<polygon fill="#000000" stroke="#000000" points="1784.1251,-205.698 1787.625,-215.698 1791.1251,-205.698 1784.1251,-205.698"/>
</g>
<!-- ContextMenuModule  -->
<g id="node20" class="node">
<title>ContextMenuModule </title>
<polygon fill="#fb8072" stroke="#000000" points="1734.0414,-252 1593.9586,-252 1593.9586,-216 1734.0414,-216 1734.0414,-252"/>
<text text-anchor="middle" x="1664" y="-229.8" font-family="Times,serif" font-size="14.00" fill="#000000">ContextMenuModule </text>
</g>
<!-- SharedModule&#45;&gt;ContextMenuModule  -->
<g id="edge19" class="edge">
<title>SharedModule&#45;&gt;ContextMenuModule </title>
<path fill="none" stroke="#000000" stroke-dasharray="5,2" d="M980.2707,-175C1143.477,-175 1656.125,-175 1656.125,-175 1656.125,-175 1656.125,-205.9775 1656.125,-205.9775"/>
<polygon fill="#000000" stroke="#000000" points="1652.6251,-205.9774 1656.125,-215.9775 1659.6251,-205.9775 1652.6251,-205.9774"/>
</g>
<!-- DividerModule  -->
<g id="node21" class="node">
<title>DividerModule </title>
<polygon fill="#fb8072" stroke="#000000" points="1575.813,-252 1470.187,-252 1470.187,-216 1575.813,-216 1575.813,-252"/>
<text text-anchor="middle" x="1523" y="-229.8" font-family="Times,serif" font-size="14.00" fill="#000000">DividerModule </text>
</g>
<!-- SharedModule&#45;&gt;DividerModule  -->
<g id="edge20" class="edge">
<title>SharedModule&#45;&gt;DividerModule </title>
<path fill="none" stroke="#000000" stroke-dasharray="5,2" d="M980.2158,-178C1121.3042,-178 1517.125,-178 1517.125,-178 1517.125,-178 1517.125,-205.973 1517.125,-205.973"/>
<polygon fill="#000000" stroke="#000000" points="1513.6251,-205.973 1517.125,-215.973 1520.6251,-205.973 1513.6251,-205.973"/>
</g>
<!-- EditableFieldModule  -->
<g id="node22" class="node">
<title>EditableFieldModule </title>
<polygon fill="#fb8072" stroke="#000000" points="1452.4826,-252 1313.5174,-252 1313.5174,-216 1452.4826,-216 1452.4826,-252"/>
<text text-anchor="middle" x="1383" y="-229.8" font-family="Times,serif" font-size="14.00" fill="#000000">EditableFieldModule </text>
</g>
<!-- SharedModule&#45;&gt;EditableFieldModule  -->
<g id="edge21" class="edge">
<title>SharedModule&#45;&gt;EditableFieldModule </title>
<path fill="none" stroke="#000000" stroke-dasharray="5,2" d="M980.2841,-180C1092.4213,-180 1357.003,-180 1357.003,-180 1357.003,-180 1357.003,-205.7181 1357.003,-205.7181"/>
<polygon fill="#000000" stroke="#000000" points="1353.5031,-205.718 1357.003,-215.7181 1360.5031,-205.7181 1353.5031,-205.718"/>
</g>
<!-- IconsModule  -->
<g id="node23" class="node">
<title>IconsModule </title>
<polygon fill="#fb8072" stroke="#000000" points="1295.8703,-252 1202.1297,-252 1202.1297,-216 1295.8703,-216 1295.8703,-252"/>
<text text-anchor="middle" x="1249" y="-229.8" font-family="Times,serif" font-size="14.00" fill="#000000">IconsModule </text>
</g>
<!-- SharedModule&#45;&gt;IconsModule  -->
<g id="edge22" class="edge">
<title>SharedModule&#45;&gt;IconsModule </title>
<path fill="none" stroke="#000000" stroke-dasharray="5,2" d="M980.3432,-183C1065.695,-183 1231.8551,-183 1231.8551,-183 1231.8551,-183 1231.8551,-205.8757 1231.8551,-205.8757"/>
<polygon fill="#000000" stroke="#000000" points="1228.3552,-205.8757 1231.8551,-215.8757 1235.3552,-205.8757 1228.3552,-205.8757"/>
</g>
<!-- ImageModule  -->
<g id="node24" class="node">
<title>ImageModule </title>
<polygon fill="#fb8072" stroke="#000000" points="1184.0302,-252 1085.9698,-252 1085.9698,-216 1184.0302,-216 1184.0302,-252"/>
<text text-anchor="middle" x="1135" y="-229.8" font-family="Times,serif" font-size="14.00" fill="#000000">ImageModule </text>
</g>
<!-- SharedModule&#45;&gt;ImageModule  -->
<g id="edge23" class="edge">
<title>SharedModule&#45;&gt;ImageModule </title>
<path fill="none" stroke="#000000" stroke-dasharray="5,2" d="M980.267,-185C1045.3285,-185 1151.755,-185 1151.755,-185 1151.755,-185 1151.755,-205.7542 1151.755,-205.7542"/>
<polygon fill="#000000" stroke="#000000" points="1148.2551,-205.7542 1151.755,-215.7542 1155.2551,-205.7542 1148.2551,-205.7542"/>
</g>
<!-- InputsModule  -->
<g id="node25" class="node">
<title>InputsModule </title>
<polygon fill="#fb8072" stroke="#000000" points="1068.0456,-252 969.9544,-252 969.9544,-216 1068.0456,-216 1068.0456,-252"/>
<text text-anchor="middle" x="1019" y="-229.8" font-family="Times,serif" font-size="14.00" fill="#000000">InputsModule </text>
</g>
<!-- SharedModule&#45;&gt;InputsModule  -->
<g id="edge24" class="edge">
<title>SharedModule&#45;&gt;InputsModule </title>
<path fill="none" stroke="#000000" stroke-dasharray="5,2" d="M975.0942,-187.1061C975.0942,-187.1061 975.0942,-205.991 975.0942,-205.991"/>
<polygon fill="#000000" stroke="#000000" points="971.5942,-205.9909 975.0942,-215.991 978.5942,-205.991 971.5942,-205.9909"/>
</g>
<!-- ListModule  -->
<g id="node26" class="node">
<title>ListModule </title>
<polygon fill="#fb8072" stroke="#000000" points="952.3284,-252 867.6716,-252 867.6716,-216 952.3284,-216 952.3284,-252"/>
<text text-anchor="middle" x="910" y="-229.8" font-family="Times,serif" font-size="14.00" fill="#000000">ListModule </text>
</g>
<!-- SharedModule&#45;&gt;ListModule  -->
<g id="edge25" class="edge">
<title>SharedModule&#45;&gt;ListModule </title>
<path fill="none" stroke="#000000" stroke-dasharray="5,2" d="M917.1015,-187.1061C917.1015,-187.1061 917.1015,-205.991 917.1015,-205.991"/>
<polygon fill="#000000" stroke="#000000" points="913.6016,-205.9909 917.1015,-215.991 920.6016,-205.991 913.6016,-205.9909"/>
</g>
<!-- LoadersModule  -->
<g id="node27" class="node">
<title>LoadersModule </title>
<polygon fill="#fb8072" stroke="#000000" points="850.1369,-252 741.8631,-252 741.8631,-216 850.1369,-216 850.1369,-252"/>
<text text-anchor="middle" x="796" y="-229.8" font-family="Times,serif" font-size="14.00" fill="#000000">LoadersModule </text>
</g>
<!-- SharedModule&#45;&gt;LoadersModule  -->
<g id="edge26" class="edge">
<title>SharedModule&#45;&gt;LoadersModule </title>
<path fill="none" stroke="#000000" stroke-dasharray="5,2" d="M881.4462,-185C845.0323,-185 801.875,-185 801.875,-185 801.875,-185 801.875,-205.7542 801.875,-205.7542"/>
<polygon fill="#000000" stroke="#000000" points="798.3751,-205.7542 801.875,-215.7542 805.3751,-205.7542 798.3751,-205.7542"/>
</g>
<!-- MoqModule  -->
<g id="node28" class="node">
<title>MoqModule </title>
<polygon fill="#fb8072" stroke="#000000" points="723.9958,-252 634.0042,-252 634.0042,-216 723.9958,-216 723.9958,-252"/>
<text text-anchor="middle" x="679" y="-229.8" font-family="Times,serif" font-size="14.00" fill="#000000">MoqModule </text>
</g>
<!-- SharedModule&#45;&gt;MoqModule  -->
<g id="edge27" class="edge">
<title>SharedModule&#45;&gt;MoqModule </title>
<path fill="none" stroke="#000000" stroke-dasharray="5,2" d="M881.5977,-183C810.2636,-183 686.875,-183 686.875,-183 686.875,-183 686.875,-205.8757 686.875,-205.8757"/>
<polygon fill="#000000" stroke="#000000" points="683.3751,-205.8757 686.875,-215.8757 690.3751,-205.8757 683.3751,-205.8757"/>
</g>
<!-- PanelModule  -->
<g id="node29" class="node">
<title>PanelModule </title>
<polygon fill="#fb8072" stroke="#000000" points="616.1523,-252 521.8477,-252 521.8477,-216 616.1523,-216 616.1523,-252"/>
<text text-anchor="middle" x="569" y="-229.8" font-family="Times,serif" font-size="14.00" fill="#000000">PanelModule </text>
</g>
<!-- SharedModule&#45;&gt;PanelModule  -->
<g id="edge28" class="edge">
<title>SharedModule&#45;&gt;PanelModule </title>
<path fill="none" stroke="#000000" stroke-dasharray="5,2" d="M881.6678,-180C784.758,-180 578.875,-180 578.875,-180 578.875,-180 578.875,-205.7181 578.875,-205.7181"/>
<polygon fill="#000000" stroke="#000000" points="575.3751,-205.718 578.875,-215.7181 582.3751,-205.7181 575.3751,-205.718"/>
</g>
<!-- PriceModule  -->
<g id="node30" class="node">
<title>PriceModule </title>
<polygon fill="#fb8072" stroke="#000000" points="503.813,-252 412.187,-252 412.187,-216 503.813,-216 503.813,-252"/>
<text text-anchor="middle" x="458" y="-229.8" font-family="Times,serif" font-size="14.00" fill="#000000">PriceModule </text>
</g>
<!-- SharedModule&#45;&gt;PriceModule  -->
<g id="edge29" class="edge">
<title>SharedModule&#45;&gt;PriceModule </title>
<path fill="none" stroke="#000000" stroke-dasharray="5,2" d="M881.6515,-178C762.6939,-178 469.875,-178 469.875,-178 469.875,-178 469.875,-205.973 469.875,-205.973"/>
<polygon fill="#000000" stroke="#000000" points="466.3751,-205.973 469.875,-215.973 473.3751,-205.973 466.3751,-205.973"/>
</g>
<!-- SelectorsModule  -->
<g id="node31" class="node">
<title>SelectorsModule </title>
<polygon fill="#fb8072" stroke="#000000" points="394.3632,-252 279.6368,-252 279.6368,-216 394.3632,-216 394.3632,-252"/>
<text text-anchor="middle" x="337" y="-229.8" font-family="Times,serif" font-size="14.00" fill="#000000">SelectorsModule </text>
</g>
<!-- SharedModule&#45;&gt;SelectorsModule  -->
<g id="edge30" class="edge">
<title>SharedModule&#45;&gt;SelectorsModule </title>
<path fill="none" stroke="#000000" stroke-dasharray="5,2" d="M881.4962,-175C741.0849,-175 350.375,-175 350.375,-175 350.375,-175 350.375,-205.9775 350.375,-205.9775"/>
<polygon fill="#000000" stroke="#000000" points="346.8751,-205.9774 350.375,-215.9775 353.8751,-205.9775 346.8751,-205.9774"/>
</g>
<!-- UserPictureModule  -->
<g id="node32" class="node">
<title>UserPictureModule </title>
<polygon fill="#fb8072" stroke="#000000" points="261.6299,-252 132.3701,-252 132.3701,-216 261.6299,-216 261.6299,-252"/>
<text text-anchor="middle" x="197" y="-229.8" font-family="Times,serif" font-size="14.00" fill="#000000">UserPictureModule </text>
</g>
<!-- SharedModule&#45;&gt;UserPictureModule  -->
<g id="edge31" class="edge">
<title>SharedModule&#45;&gt;UserPictureModule </title>
<path fill="none" stroke="#000000" stroke-dasharray="5,2" d="M881.606,-173C719.2482,-173 212.375,-173 212.375,-173 212.375,-173 212.375,-205.698 212.375,-205.698"/>
<polygon fill="#000000" stroke="#000000" points="208.8751,-205.698 212.375,-215.698 215.8751,-205.698 208.8751,-205.698"/>
</g>
<!-- UtilsModule  -->
<g id="node33" class="node">
<title>UtilsModule </title>
<polygon fill="#fb8072" stroke="#000000" points="114.2732,-252 23.7268,-252 23.7268,-216 114.2732,-216 114.2732,-252"/>
<text text-anchor="middle" x="69" y="-229.8" font-family="Times,serif" font-size="14.00" fill="#000000">UtilsModule </text>
</g>
<!-- SharedModule&#45;&gt;UtilsModule  -->
<g id="edge32" class="edge">
<title>SharedModule&#45;&gt;UtilsModule </title>
<path fill="none" stroke="#000000" stroke-dasharray="5,2" d="M881.6288,-171C700.9712,-171 86.375,-171 86.375,-171 86.375,-171 86.375,-205.7778 86.375,-205.7778"/>
<polygon fill="#000000" stroke="#000000" points="82.8751,-205.7778 86.375,-215.7778 89.8751,-205.7778 82.8751,-205.7778"/>
</g>
</g>
</svg>
