<?xml version="1.0" encoding="UTF-8" standalone="no"?>
<!DOCTYPE svg PUBLIC "-//W3C//DTD SVG 1.1//EN"
 "http://www.w3.org/Graphics/SVG/1.1/DTD/svg11.dtd">
<!-- Generated by graphviz version 2.40.1 (20161225.0304)
 -->
<!-- Title: dependencies Pages: 1 -->
<svg width="1525pt" height="211pt"
 viewBox="0.00 0.00 1525.00 211.00" xmlns="http://www.w3.org/2000/svg" xmlns:xlink="http://www.w3.org/1999/xlink">
<g id="graph0" class="graph" transform="scale(1 1) rotate(0) translate(4 207)">
<title>dependencies</title>
<polygon fill="#ffffff" stroke="transparent" points="-4,4 -4,-207 1521,-207 1521,4 -4,4"/>
<text text-anchor="start" x="737.5091" y="-42.4" font-family="sans-serif" font-weight="bold" font-size="14.00" fill="#000000">Legend</text>
<polygon fill="#ffffb3" stroke="transparent" points="524.5,-10 524.5,-30 544.5,-30 544.5,-10 524.5,-10"/>
<text text-anchor="start" x="548.129" y="-15.4" font-family="sans-serif" font-size="14.00" fill="#000000"> &#160;Declarations</text>
<polygon fill="#8dd3c7" stroke="transparent" points="637.5,-10 637.5,-30 657.5,-30 657.5,-10 637.5,-10"/>
<text text-anchor="start" x="661.2251" y="-15.4" font-family="sans-serif" font-size="14.00" fill="#000000"> &#160;Module</text>
<polygon fill="#80b1d3" stroke="transparent" points="723.5,-10 723.5,-30 743.5,-30 743.5,-10 723.5,-10"/>
<text text-anchor="start" x="747.2812" y="-15.4" font-family="sans-serif" font-size="14.00" fill="#000000"> &#160;Bootstrap</text>
<polygon fill="#fdb462" stroke="transparent" points="820.5,-10 820.5,-30 840.5,-30 840.5,-10 820.5,-10"/>
<text text-anchor="start" x="844.1732" y="-15.4" font-family="sans-serif" font-size="14.00" fill="#000000"> &#160;Providers</text>
<polygon fill="#fb8072" stroke="transparent" points="916.5,-10 916.5,-30 936.5,-30 936.5,-10 916.5,-10"/>
<text text-anchor="start" x="940.2258" y="-15.4" font-family="sans-serif" font-size="14.00" fill="#000000"> &#160;Exports</text>
<g id="clust1" class="cluster">
<title>cluster_DashboardModule</title>
<polygon fill="none" stroke="#000000" stroke-dasharray="1,5" points="8,-70 8,-195 1509,-195 1509,-70 8,-70"/>
</g>
<g id="clust2" class="cluster">
<title>cluster_DashboardModule_declarations</title>
<polygon fill="none" stroke="#000000" points="867,-78 867,-130 1501,-130 1501,-78 867,-78"/>
</g>
<g id="clust7" class="cluster">
<title>cluster_DashboardModule_imports</title>
<polygon fill="none" stroke="#000000" points="232,-78 232,-130 859,-130 859,-78 232,-78"/>
</g>
<g id="clust10" class="cluster">
<title>cluster_DashboardModule_providers</title>
<polygon fill="none" stroke="#000000" points="16,-78 16,-130 224,-130 224,-78 16,-78"/>
</g>
<!-- DashboardComponent -->
<g id="node1" class="node">
<title>DashboardComponent</title>
<polygon fill="#ffffb3" stroke="#000000" points="1492.9734,-122 1351.0266,-122 1351.0266,-86 1492.9734,-86 1492.9734,-122"/>
<text text-anchor="middle" x="1422" y="-99.8" font-family="Times,serif" font-size="14.00" fill="#000000">DashboardComponent</text>
</g>
<!-- DashboardModule -->
<g id="node5" class="node">
<title>DashboardModule</title>
<polygon fill="#8dd3c7" stroke="#000000" points="787.191,-187 784.191,-191 763.191,-191 760.191,-187 666.809,-187 666.809,-151 787.191,-151 787.191,-187"/>
<text text-anchor="middle" x="727" y="-164.8" font-family="Times,serif" font-size="14.00" fill="#000000">DashboardModule</text>
</g>
<!-- DashboardComponent&#45;&gt;DashboardModule -->
<g id="edge1" class="edge">
<title>DashboardComponent&#45;&gt;DashboardModule</title>
<path fill="none" stroke="#000000" d="M1422,-122.0109C1422,-144.4852 1422,-180 1422,-180 1422,-180 797.1585,-180 797.1585,-180"/>
<polygon fill="#000000" stroke="#000000" points="797.1586,-176.5001 787.1585,-180 797.1585,-183.5001 797.1586,-176.5001"/>
</g>
<!-- EventsCardComponent -->
<g id="node2" class="node">
<title>EventsCardComponent</title>
<polygon fill="#ffffb3" stroke="#000000" points="1333.147,-122 1186.853,-122 1186.853,-86 1333.147,-86 1333.147,-122"/>
<text text-anchor="middle" x="1260" y="-99.8" font-family="Times,serif" font-size="14.00" fill="#000000">EventsCardComponent</text>
</g>
<!-- EventsCardComponent&#45;&gt;DashboardModule -->
<g id="edge2" class="edge">
<title>EventsCardComponent&#45;&gt;DashboardModule</title>
<path fill="none" stroke="#000000" d="M1260,-122.1289C1260,-142.5724 1260,-173 1260,-173 1260,-173 797.1058,-173 797.1058,-173"/>
<polygon fill="#000000" stroke="#000000" points="797.1058,-169.5001 787.1058,-173 797.1058,-176.5001 797.1058,-169.5001"/>
</g>
<!-- SummaryComponent -->
<g id="node3" class="node">
<title>SummaryComponent</title>
<polygon fill="#ffffb3" stroke="#000000" points="1168.7716,-122 1033.2284,-122 1033.2284,-86 1168.7716,-86 1168.7716,-122"/>
<text text-anchor="middle" x="1101" y="-99.8" font-family="Times,serif" font-size="14.00" fill="#000000">SummaryComponent</text>
</g>
<!-- SummaryComponent&#45;&gt;DashboardModule -->
<g id="edge3" class="edge">
<title>SummaryComponent&#45;&gt;DashboardModule</title>
<path fill="none" stroke="#000000" d="M1101,-122.2667C1101,-140.5552 1101,-166 1101,-166 1101,-166 797.5052,-166 797.5052,-166"/>
<polygon fill="#000000" stroke="#000000" points="797.5053,-162.5001 787.5052,-166 797.5052,-169.5001 797.5053,-162.5001"/>
</g>
<!-- TeamCardComponent -->
<g id="node4" class="node">
<title>TeamCardComponent</title>
<polygon fill="#ffffb3" stroke="#000000" points="1015.4172,-122 874.5828,-122 874.5828,-86 1015.4172,-86 1015.4172,-122"/>
<text text-anchor="middle" x="945" y="-99.8" font-family="Times,serif" font-size="14.00" fill="#000000">TeamCardComponent</text>
</g>
<!-- TeamCardComponent&#45;&gt;DashboardModule -->
<g id="edge4" class="edge">
<title>TeamCardComponent&#45;&gt;DashboardModule</title>
<path fill="none" stroke="#000000" d="M945,-122.0091C945,-138.0494 945,-159 945,-159 945,-159 797.1465,-159 797.1465,-159"/>
<polygon fill="#000000" stroke="#000000" points="797.1466,-155.5001 787.1465,-159 797.1465,-162.5001 797.1466,-155.5001"/>
</g>
<!-- ActivityModule -->
<g id="node6" class="node">
<title>ActivityModule</title>
<polygon fill="#8dd3c7" stroke="#000000" points="850.9343,-122 847.9343,-126 826.9343,-126 823.9343,-122 745.0657,-122 745.0657,-86 850.9343,-86 850.9343,-122"/>
<text text-anchor="middle" x="798" y="-99.8" font-family="Times,serif" font-size="14.00" fill="#000000">ActivityModule</text>
</g>
<!-- ActivityModule&#45;&gt;DashboardModule -->
<g id="edge5" class="edge">
<title>ActivityModule&#45;&gt;DashboardModule</title>
<path fill="none" stroke="#000000" d="M766.1894,-122.1061C766.1894,-122.1061 766.1894,-140.991 766.1894,-140.991"/>
<polygon fill="#000000" stroke="#000000" points="762.6894,-140.9909 766.1894,-150.991 769.6894,-140.991 762.6894,-140.9909"/>
</g>
<!-- CustomDialogModule -->
<g id="node7" class="node">
<title>CustomDialogModule</title>
<polygon fill="#8dd3c7" stroke="#000000" points="727.7148,-122 724.7148,-126 703.7148,-126 700.7148,-122 586.2852,-122 586.2852,-86 727.7148,-86 727.7148,-122"/>
<text text-anchor="middle" x="657" y="-99.8" font-family="Times,serif" font-size="14.00" fill="#000000">CustomDialogModule</text>
</g>
<!-- CustomDialogModule&#45;&gt;DashboardModule -->
<g id="edge6" class="edge">
<title>CustomDialogModule&#45;&gt;DashboardModule</title>
<path fill="none" stroke="#000000" d="M697.256,-122.1061C697.256,-122.1061 697.256,-140.991 697.256,-140.991"/>
<polygon fill="#000000" stroke="#000000" points="693.756,-140.9909 697.256,-150.991 700.756,-140.991 693.756,-140.9909"/>
</g>
<!-- DialogModule -->
<g id="node8" class="node">
<title>DialogModule</title>
<polygon fill="#8dd3c7" stroke="#000000" points="568.6528,-122 565.6528,-126 544.6528,-126 541.6528,-122 471.3472,-122 471.3472,-86 568.6528,-86 568.6528,-122"/>
<text text-anchor="middle" x="520" y="-99.8" font-family="Times,serif" font-size="14.00" fill="#000000">DialogModule</text>
</g>
<!-- DialogModule&#45;&gt;DashboardModule -->
<g id="edge7" class="edge">
<title>DialogModule&#45;&gt;DashboardModule</title>
<path fill="none" stroke="#000000" d="M520,-122.0091C520,-138.0494 520,-159 520,-159 520,-159 656.849,-159 656.849,-159"/>
<polygon fill="#000000" stroke="#000000" points="656.849,-162.5001 666.849,-159 656.8489,-155.5001 656.849,-162.5001"/>
</g>
<!-- RatingModule -->
<g id="node9" class="node">
<title>RatingModule</title>
<polygon fill="#8dd3c7" stroke="#000000" points="453.3823,-122 450.3823,-126 429.3823,-126 426.3823,-122 356.6177,-122 356.6177,-86 453.3823,-86 453.3823,-122"/>
<text text-anchor="middle" x="405" y="-99.8" font-family="Times,serif" font-size="14.00" fill="#000000">RatingModule</text>
</g>
<!-- RatingModule&#45;&gt;DashboardModule -->
<g id="edge8" class="edge">
<title>RatingModule&#45;&gt;DashboardModule</title>
<path fill="none" stroke="#000000" d="M405,-122.2667C405,-140.5552 405,-166 405,-166 405,-166 656.812,-166 656.812,-166"/>
<polygon fill="#000000" stroke="#000000" points="656.812,-169.5001 666.812,-166 656.812,-162.5001 656.812,-169.5001"/>
</g>
<!-- SharedModule -->
<g id="node10" class="node">
<title>SharedModule</title>
<polygon fill="#8dd3c7" stroke="#000000" points="338.4231,-122 335.4231,-126 314.4231,-126 311.4231,-122 239.5769,-122 239.5769,-86 338.4231,-86 338.4231,-122"/>
<text text-anchor="middle" x="289" y="-99.8" font-family="Times,serif" font-size="14.00" fill="#000000">SharedModule</text>
</g>
<!-- SharedModule&#45;&gt;DashboardModule -->
<g id="edge9" class="edge">
<title>SharedModule&#45;&gt;DashboardModule</title>
<path fill="none" stroke="#000000" d="M289,-122.1289C289,-142.5724 289,-173 289,-173 289,-173 656.5578,-173 656.5578,-173"/>
<polygon fill="#000000" stroke="#000000" points="656.5579,-176.5001 666.5578,-173 656.5578,-169.5001 656.5579,-176.5001"/>
</g>
<!-- ProductDialogService -->
<g id="node11" class="node">
<title>ProductDialogService</title>
<ellipse fill="#fdb462" stroke="#000000" cx="120" cy="-104" rx="96.1266" ry="18"/>
<text text-anchor="middle" x="120" y="-99.8" font-family="Times,serif" font-size="14.00" fill="#000000">ProductDialogService</text>
</g>
<!-- ProductDialogService&#45;&gt;DashboardModule -->
<g id="edge10" class="edge">
<title>ProductDialogService&#45;&gt;DashboardModule</title>
<path fill="none" stroke="#000000" d="M120,-122.0109C120,-144.4852 120,-180 120,-180 120,-180 656.8586,-180 656.8586,-180"/>
<polygon fill="#000000" stroke="#000000" points="656.8586,-183.5001 666.8586,-180 656.8586,-176.5001 656.8586,-183.5001"/>
</g>
</g>
</svg>
