<?xml version="1.0" encoding="UTF-8" standalone="no"?>
<!DOCTYPE svg PUBLIC "-//W3C//DTD SVG 1.1//EN"
 "http://www.w3.org/Graphics/SVG/1.1/DTD/svg11.dtd">
<!-- Generated by graphviz version 2.40.1 (20161225.0304)
 -->
<!-- Title: dependencies Pages: 1 -->
<svg width="3957pt" height="211pt"
 viewBox="0.00 0.00 3957.00 211.00" xmlns="http://www.w3.org/2000/svg" xmlns:xlink="http://www.w3.org/1999/xlink">
<g id="graph0" class="graph" transform="scale(1 1) rotate(0) translate(4 207)">
<title>dependencies</title>
<polygon fill="#ffffff" stroke="transparent" points="-4,4 -4,-207 3953,-207 3953,4 -4,4"/>
<text text-anchor="start" x="1953.5091" y="-42.4" font-family="sans-serif" font-weight="bold" font-size="14.00" fill="#000000">Legend</text>
<polygon fill="#ffffb3" stroke="transparent" points="1740.5,-10 1740.5,-30 1760.5,-30 1760.5,-10 1740.5,-10"/>
<text text-anchor="start" x="1764.129" y="-15.4" font-family="sans-serif" font-size="14.00" fill="#000000"> &#160;Declarations</text>
<polygon fill="#8dd3c7" stroke="transparent" points="1853.5,-10 1853.5,-30 1873.5,-30 1873.5,-10 1853.5,-10"/>
<text text-anchor="start" x="1877.2251" y="-15.4" font-family="sans-serif" font-size="14.00" fill="#000000"> &#160;Module</text>
<polygon fill="#80b1d3" stroke="transparent" points="1939.5,-10 1939.5,-30 1959.5,-30 1959.5,-10 1939.5,-10"/>
<text text-anchor="start" x="1963.2812" y="-15.4" font-family="sans-serif" font-size="14.00" fill="#000000"> &#160;Bootstrap</text>
<polygon fill="#fdb462" stroke="transparent" points="2036.5,-10 2036.5,-30 2056.5,-30 2056.5,-10 2036.5,-10"/>
<text text-anchor="start" x="2060.1732" y="-15.4" font-family="sans-serif" font-size="14.00" fill="#000000"> &#160;Providers</text>
<polygon fill="#fb8072" stroke="transparent" points="2132.5,-10 2132.5,-30 2152.5,-30 2152.5,-10 2132.5,-10"/>
<text text-anchor="start" x="2156.2258" y="-15.4" font-family="sans-serif" font-size="14.00" fill="#000000"> &#160;Exports</text>
<g id="clust1" class="cluster">
<title>cluster_SettingsModule</title>
<polygon fill="none" stroke="#000000" stroke-dasharray="1,5" points="8,-70 8,-195 3941,-195 3941,-70 8,-70"/>
</g>
<g id="clust2" class="cluster">
<title>cluster_SettingsModule_declarations</title>
<polygon fill="none" stroke="#000000" points="1919,-78 1919,-130 3933,-130 3933,-78 1919,-78"/>
</g>
<g id="clust13" class="cluster">
<title>cluster_SettingsModule_imports</title>
<polygon fill="none" stroke="#000000" points="474,-78 474,-130 1911,-130 1911,-78 474,-78"/>
</g>
<g id="clust16" class="cluster">
<title>cluster_SettingsModule_providers</title>
<polygon fill="none" stroke="#000000" points="16,-78 16,-130 466,-130 466,-78 16,-78"/>
</g>
<!-- ChangePswdDlgComponent -->
<g id="node1" class="node">
<title>ChangePswdDlgComponent</title>
<polygon fill="#ffffb3" stroke="#000000" points="3924.9297,-122 3749.0703,-122 3749.0703,-86 3924.9297,-86 3924.9297,-122"/>
<text text-anchor="middle" x="3837" y="-99.8" font-family="Times,serif" font-size="14.00" fill="#000000">ChangePswdDlgComponent</text>
</g>
<!-- SettingsModule -->
<g id="node11" class="node">
<title>SettingsModule</title>
<polygon fill="#8dd3c7" stroke="#000000" points="1730.1639,-187 1727.1639,-191 1706.1639,-191 1703.1639,-187 1625.8361,-187 1625.8361,-151 1730.1639,-151 1730.1639,-187"/>
<text text-anchor="middle" x="1678" y="-164.8" font-family="Times,serif" font-size="14.00" fill="#000000">SettingsModule</text>
</g>
<!-- ChangePswdDlgComponent&#45;&gt;SettingsModule -->
<g id="edge1" class="edge">
<title>ChangePswdDlgComponent&#45;&gt;SettingsModule</title>
<path fill="none" stroke="#000000" d="M3837,-122.1532C3837,-145.7566 3837,-184 3837,-184 3837,-184 1740.2991,-184 1740.2991,-184"/>
<polygon fill="#000000" stroke="#000000" points="1740.2991,-180.5001 1730.2991,-184 1740.299,-187.5001 1740.2991,-180.5001"/>
</g>
<!-- CompanyProfileCardComponent -->
<g id="node2" class="node">
<title>CompanyProfileCardComponent</title>
<polygon fill="#ffffb3" stroke="#000000" points="3731.5856,-122 3530.4144,-122 3530.4144,-86 3731.5856,-86 3731.5856,-122"/>
<text text-anchor="middle" x="3631" y="-99.8" font-family="Times,serif" font-size="14.00" fill="#000000">CompanyProfileCardComponent</text>
</g>
<!-- CompanyProfileCardComponent&#45;&gt;SettingsModule -->
<g id="edge2" class="edge">
<title>CompanyProfileCardComponent&#45;&gt;SettingsModule</title>
<path fill="none" stroke="#000000" d="M3631,-122.0908C3631,-145.1328 3631,-182 3631,-182 3631,-182 1740.238,-182 1740.238,-182"/>
<polygon fill="#000000" stroke="#000000" points="1740.2381,-178.5001 1730.238,-182 1740.238,-185.5001 1740.2381,-178.5001"/>
</g>
<!-- InviteUserDlgComponent -->
<g id="node3" class="node">
<title>InviteUserDlgComponent</title>
<polygon fill="#ffffb3" stroke="#000000" points="3512.9129,-122 3351.0871,-122 3351.0871,-86 3512.9129,-86 3512.9129,-122"/>
<text text-anchor="middle" x="3432" y="-99.8" font-family="Times,serif" font-size="14.00" fill="#000000">InviteUserDlgComponent</text>
</g>
<!-- InviteUserDlgComponent&#45;&gt;SettingsModule -->
<g id="edge3" class="edge">
<title>InviteUserDlgComponent&#45;&gt;SettingsModule</title>
<path fill="none" stroke="#000000" d="M3432,-122.2921C3432,-144.2057 3432,-178 3432,-178 3432,-178 1740.4937,-178 1740.4937,-178"/>
<polygon fill="#000000" stroke="#000000" points="1740.4938,-174.5001 1730.4937,-178 1740.4937,-181.5001 1740.4938,-174.5001"/>
</g>
<!-- ProfileCardComponent -->
<g id="node4" class="node">
<title>ProfileCardComponent</title>
<polygon fill="#ffffb3" stroke="#000000" points="3333.1442,-122 3186.8558,-122 3186.8558,-86 3333.1442,-86 3333.1442,-122"/>
<text text-anchor="middle" x="3260" y="-99.8" font-family="Times,serif" font-size="14.00" fill="#000000">ProfileCardComponent</text>
</g>
<!-- ProfileCardComponent&#45;&gt;SettingsModule -->
<g id="edge4" class="edge">
<title>ProfileCardComponent&#45;&gt;SettingsModule</title>
<path fill="none" stroke="#000000" d="M3260,-122.2843C3260,-143.3211 3260,-175 3260,-175 3260,-175 1740.1854,-175 1740.1854,-175"/>
<polygon fill="#000000" stroke="#000000" points="1740.1854,-171.5001 1730.1854,-175 1740.1853,-178.5001 1740.1854,-171.5001"/>
</g>
<!-- SettingsComponent -->
<g id="node5" class="node">
<title>SettingsComponent</title>
<polygon fill="#ffffb3" stroke="#000000" points="3168.4468,-122 3041.5532,-122 3041.5532,-86 3168.4468,-86 3168.4468,-122"/>
<text text-anchor="middle" x="3105" y="-99.8" font-family="Times,serif" font-size="14.00" fill="#000000">SettingsComponent</text>
</g>
<!-- SettingsComponent&#45;&gt;SettingsModule -->
<g id="edge5" class="edge">
<title>SettingsComponent&#45;&gt;SettingsModule</title>
<path fill="none" stroke="#000000" d="M3105,-122.2228C3105,-142.3652 3105,-172 3105,-172 3105,-172 1740.4801,-172 1740.4801,-172"/>
<polygon fill="#000000" stroke="#000000" points="1740.4801,-168.5001 1730.4801,-172 1740.48,-175.5001 1740.4801,-168.5001"/>
</g>
<!-- SettingsFieldsPageComponent -->
<g id="node6" class="node">
<title>SettingsFieldsPageComponent</title>
<polygon fill="#ffffb3" stroke="#000000" points="3023.8808,-122 2836.1192,-122 2836.1192,-86 3023.8808,-86 3023.8808,-122"/>
<text text-anchor="middle" x="2930" y="-99.8" font-family="Times,serif" font-size="14.00" fill="#000000">SettingsFieldsPageComponent</text>
</g>
<!-- SettingsFieldsPageComponent&#45;&gt;SettingsModule -->
<g id="edge6" class="edge">
<title>SettingsFieldsPageComponent&#45;&gt;SettingsModule</title>
<path fill="none" stroke="#000000" d="M2930,-122.1061C2930,-141.3391 2930,-169 2930,-169 2930,-169 1740.2029,-169 1740.2029,-169"/>
<polygon fill="#000000" stroke="#000000" points="1740.2029,-165.5001 1730.2029,-169 1740.2029,-172.5001 1740.2029,-165.5001"/>
</g>
<!-- SettingsProfileComponent -->
<g id="node7" class="node">
<title>SettingsProfileComponent</title>
<polygon fill="#ffffb3" stroke="#000000" points="2818.0462,-122 2653.9538,-122 2653.9538,-86 2818.0462,-86 2818.0462,-122"/>
<text text-anchor="middle" x="2736" y="-99.8" font-family="Times,serif" font-size="14.00" fill="#000000">SettingsProfileComponent</text>
</g>
<!-- SettingsProfileComponent&#45;&gt;SettingsModule -->
<g id="edge7" class="edge">
<title>SettingsProfileComponent&#45;&gt;SettingsModule</title>
<path fill="none" stroke="#000000" d="M2736,-122.2222C2736,-140.8285 2736,-167 2736,-167 2736,-167 1740.4664,-167 1740.4664,-167"/>
<polygon fill="#000000" stroke="#000000" points="1740.4664,-163.5001 1730.4664,-167 1740.4663,-170.5001 1740.4664,-163.5001"/>
</g>
<!-- SettingsTeamMembersPageComponent -->
<g id="node8" class="node">
<title>SettingsTeamMembersPageComponent</title>
<polygon fill="#ffffb3" stroke="#000000" points="2636.4001,-122 2397.5999,-122 2397.5999,-86 2636.4001,-86 2636.4001,-122"/>
<text text-anchor="middle" x="2517" y="-99.8" font-family="Times,serif" font-size="14.00" fill="#000000">SettingsTeamMembersPageComponent</text>
</g>
<!-- SettingsTeamMembersPageComponent&#45;&gt;SettingsModule -->
<g id="edge8" class="edge">
<title>SettingsTeamMembersPageComponent&#45;&gt;SettingsModule</title>
<path fill="none" stroke="#000000" d="M2517,-122.0225C2517,-139.3734 2517,-163 2517,-163 2517,-163 1740.1662,-163 1740.1662,-163"/>
<polygon fill="#000000" stroke="#000000" points="1740.1662,-159.5001 1730.1662,-163 1740.1662,-166.5001 1740.1662,-159.5001"/>
</g>
<!-- SettingsWorkflowsPageComponent -->
<g id="node9" class="node">
<title>SettingsWorkflowsPageComponent</title>
<polygon fill="#ffffb3" stroke="#000000" points="2379.1357,-122 2162.8643,-122 2162.8643,-86 2379.1357,-86 2379.1357,-122"/>
<text text-anchor="middle" x="2271" y="-99.8" font-family="Times,serif" font-size="14.00" fill="#000000">SettingsWorkflowsPageComponent</text>
</g>
<!-- SettingsWorkflowsPageComponent&#45;&gt;SettingsModule -->
<g id="edge9" class="edge">
<title>SettingsWorkflowsPageComponent&#45;&gt;SettingsModule</title>
<path fill="none" stroke="#000000" d="M2271,-122.027C2271,-138.3976 2271,-160 2271,-160 2271,-160 1740.3647,-160 1740.3647,-160"/>
<polygon fill="#000000" stroke="#000000" points="1740.3647,-156.5001 1730.3647,-160 1740.3646,-163.5001 1740.3647,-156.5001"/>
</g>
<!-- TeamMembersListViewComponent -->
<g id="node10" class="node">
<title>TeamMembersListViewComponent</title>
<polygon fill="#ffffb3" stroke="#000000" points="2145.1713,-122 1926.8287,-122 1926.8287,-86 2145.1713,-86 2145.1713,-122"/>
<text text-anchor="middle" x="2036" y="-99.8" font-family="Times,serif" font-size="14.00" fill="#000000">TeamMembersListViewComponent</text>
</g>
<!-- TeamMembersListViewComponent&#45;&gt;SettingsModule -->
<g id="edge10" class="edge">
<title>TeamMembersListViewComponent&#45;&gt;SettingsModule</title>
<path fill="none" stroke="#000000" d="M2036,-122.2396C2036,-137.5706 2036,-157 2036,-157 2036,-157 1740.4397,-157 1740.4397,-157"/>
<polygon fill="#000000" stroke="#000000" points="1740.4397,-153.5001 1730.4397,-157 1740.4396,-160.5001 1740.4397,-153.5001"/>
</g>
<!-- ContextMenuModule -->
<g id="node12" class="node">
<title>ContextMenuModule</title>
<polygon fill="#8dd3c7" stroke="#000000" points="1903.0422,-122 1900.0422,-126 1879.0422,-126 1876.0422,-122 1766.9578,-122 1766.9578,-86 1903.0422,-86 1903.0422,-122"/>
<text text-anchor="middle" x="1835" y="-99.8" font-family="Times,serif" font-size="14.00" fill="#000000">ContextMenuModule</text>
</g>
<!-- ContextMenuModule&#45;&gt;SettingsModule -->
<g id="edge11" class="edge">
<title>ContextMenuModule&#45;&gt;SettingsModule</title>
<path fill="none" stroke="#000000" d="M1835,-122.0511C1835,-136.373 1835,-154 1835,-154 1835,-154 1740.2787,-154 1740.2787,-154"/>
<polygon fill="#000000" stroke="#000000" points="1740.2788,-150.5001 1730.2787,-154 1740.2787,-157.5001 1740.2788,-150.5001"/>
</g>
<!-- CustomDialogModule -->
<g id="node13" class="node">
<title>CustomDialogModule</title>
<polygon fill="#8dd3c7" stroke="#000000" points="1748.7148,-122 1745.7148,-126 1724.7148,-126 1721.7148,-122 1607.2852,-122 1607.2852,-86 1748.7148,-86 1748.7148,-122"/>
<text text-anchor="middle" x="1678" y="-99.8" font-family="Times,serif" font-size="14.00" fill="#000000">CustomDialogModule</text>
</g>
<!-- CustomDialogModule&#45;&gt;SettingsModule -->
<g id="edge12" class="edge">
<title>CustomDialogModule&#45;&gt;SettingsModule</title>
<path fill="none" stroke="#000000" d="M1678,-122.1061C1678,-122.1061 1678,-140.991 1678,-140.991"/>
<polygon fill="#000000" stroke="#000000" points="1674.5001,-140.9909 1678,-150.991 1681.5001,-140.991 1674.5001,-140.9909"/>
</g>
<!-- DataManagementModule -->
<g id="node14" class="node">
<title>DataManagementModule</title>
<polygon fill="#8dd3c7" stroke="#000000" points="1589.5604,-122 1586.5604,-126 1565.5604,-126 1562.5604,-122 1430.4396,-122 1430.4396,-86 1589.5604,-86 1589.5604,-122"/>
<text text-anchor="middle" x="1510" y="-99.8" font-family="Times,serif" font-size="14.00" fill="#000000">DataManagementModule</text>
</g>
<!-- DataManagementModule&#45;&gt;SettingsModule -->
<g id="edge13" class="edge">
<title>DataManagementModule&#45;&gt;SettingsModule</title>
<path fill="none" stroke="#000000" d="M1510,-122.0511C1510,-136.373 1510,-154 1510,-154 1510,-154 1615.7647,-154 1615.7647,-154"/>
<polygon fill="#000000" stroke="#000000" points="1615.7647,-157.5001 1625.7647,-154 1615.7646,-150.5001 1615.7647,-157.5001"/>
</g>
<!-- DialogModule -->
<g id="node15" class="node">
<title>DialogModule</title>
<polygon fill="#8dd3c7" stroke="#000000" points="1412.6528,-122 1409.6528,-126 1388.6528,-126 1385.6528,-122 1315.3472,-122 1315.3472,-86 1412.6528,-86 1412.6528,-122"/>
<text text-anchor="middle" x="1364" y="-99.8" font-family="Times,serif" font-size="14.00" fill="#000000">DialogModule</text>
</g>
<!-- DialogModule&#45;&gt;SettingsModule -->
<g id="edge14" class="edge">
<title>DialogModule&#45;&gt;SettingsModule</title>
<path fill="none" stroke="#000000" d="M1364,-122.2396C1364,-137.5706 1364,-157 1364,-157 1364,-157 1615.7968,-157 1615.7968,-157"/>
<polygon fill="#000000" stroke="#000000" points="1615.7968,-160.5001 1625.7968,-157 1615.7968,-153.5001 1615.7968,-160.5001"/>
</g>
<!-- FileModule -->
<g id="node16" class="node">
<title>FileModule</title>
<polygon fill="#8dd3c7" stroke="#000000" points="1297.8289,-122 1294.8289,-126 1273.8289,-126 1270.8289,-122 1216.1711,-122 1216.1711,-86 1297.8289,-86 1297.8289,-122"/>
<text text-anchor="middle" x="1257" y="-99.8" font-family="Times,serif" font-size="14.00" fill="#000000">FileModule</text>
</g>
<!-- FileModule&#45;&gt;SettingsModule -->
<g id="edge15" class="edge">
<title>FileModule&#45;&gt;SettingsModule</title>
<path fill="none" stroke="#000000" d="M1257,-122.027C1257,-138.3976 1257,-160 1257,-160 1257,-160 1615.5313,-160 1615.5313,-160"/>
<polygon fill="#000000" stroke="#000000" points="1615.5313,-163.5001 1625.5313,-160 1615.5313,-156.5001 1615.5313,-163.5001"/>
</g>
<!-- SelectionBarModule -->
<g id="node17" class="node">
<title>SelectionBarModule</title>
<polygon fill="#8dd3c7" stroke="#000000" points="1197.8599,-122 1194.8599,-126 1173.8599,-126 1170.8599,-122 1066.1401,-122 1066.1401,-86 1197.8599,-86 1197.8599,-122"/>
<text text-anchor="middle" x="1132" y="-99.8" font-family="Times,serif" font-size="14.00" fill="#000000">SelectionBarModule</text>
</g>
<!-- SelectionBarModule&#45;&gt;SettingsModule -->
<g id="edge16" class="edge">
<title>SelectionBarModule&#45;&gt;SettingsModule</title>
<path fill="none" stroke="#000000" d="M1132,-122.0225C1132,-139.3734 1132,-163 1132,-163 1132,-163 1615.6472,-163 1615.6472,-163"/>
<polygon fill="#000000" stroke="#000000" points="1615.6473,-166.5001 1625.6472,-163 1615.6472,-159.5001 1615.6473,-166.5001"/>
</g>
<!-- SharedModule -->
<g id="node18" class="node">
<title>SharedModule</title>
<polygon fill="#8dd3c7" stroke="#000000" points="1048.4231,-122 1045.4231,-126 1024.4231,-126 1021.4231,-122 949.5769,-122 949.5769,-86 1048.4231,-86 1048.4231,-122"/>
<text text-anchor="middle" x="999" y="-99.8" font-family="Times,serif" font-size="14.00" fill="#000000">SharedModule</text>
</g>
<!-- SharedModule&#45;&gt;SettingsModule -->
<g id="edge17" class="edge">
<title>SharedModule&#45;&gt;SettingsModule</title>
<path fill="none" stroke="#000000" d="M999,-122.2222C999,-140.8285 999,-167 999,-167 999,-167 1615.5666,-167 1615.5666,-167"/>
<polygon fill="#000000" stroke="#000000" points="1615.5666,-170.5001 1625.5666,-167 1615.5665,-163.5001 1615.5666,-170.5001"/>
</g>
<!-- SidenavModule -->
<g id="node19" class="node">
<title>SidenavModule</title>
<polygon fill="#8dd3c7" stroke="#000000" points="931.1528,-122 928.1528,-126 907.1528,-126 904.1528,-122 826.8472,-122 826.8472,-86 931.1528,-86 931.1528,-122"/>
<text text-anchor="middle" x="879" y="-99.8" font-family="Times,serif" font-size="14.00" fill="#000000">SidenavModule</text>
</g>
<!-- SidenavModule&#45;&gt;SettingsModule -->
<g id="edge18" class="edge">
<title>SidenavModule&#45;&gt;SettingsModule</title>
<path fill="none" stroke="#000000" d="M879,-122.1061C879,-141.3391 879,-169 879,-169 879,-169 1615.5754,-169 1615.5754,-169"/>
<polygon fill="#000000" stroke="#000000" points="1615.5754,-172.5001 1625.5754,-169 1615.5753,-165.5001 1615.5754,-172.5001"/>
</g>
<!-- TableModule -->
<g id="node20" class="node">
<title>TableModule</title>
<polygon fill="#8dd3c7" stroke="#000000" points="808.9232,-122 805.9232,-126 784.9232,-126 781.9232,-122 717.0768,-122 717.0768,-86 808.9232,-86 808.9232,-122"/>
<text text-anchor="middle" x="763" y="-99.8" font-family="Times,serif" font-size="14.00" fill="#000000">TableModule</text>
</g>
<!-- TableModule&#45;&gt;SettingsModule -->
<g id="edge19" class="edge">
<title>TableModule&#45;&gt;SettingsModule</title>
<path fill="none" stroke="#000000" d="M763,-122.2228C763,-142.3652 763,-172 763,-172 763,-172 1615.5192,-172 1615.5192,-172"/>
<polygon fill="#000000" stroke="#000000" points="1615.5193,-175.5001 1625.5192,-172 1615.5192,-168.5001 1615.5193,-175.5001"/>
</g>
<!-- TopPanelModule -->
<g id="node21" class="node">
<title>TopPanelModule</title>
<polygon fill="#8dd3c7" stroke="#000000" points="699.705,-122 696.705,-126 675.705,-126 672.705,-122 586.295,-122 586.295,-86 699.705,-86 699.705,-122"/>
<text text-anchor="middle" x="643" y="-99.8" font-family="Times,serif" font-size="14.00" fill="#000000">TopPanelModule</text>
</g>
<!-- TopPanelModule&#45;&gt;SettingsModule -->
<g id="edge20" class="edge">
<title>TopPanelModule&#45;&gt;SettingsModule</title>
<path fill="none" stroke="#000000" d="M643,-122.2843C643,-143.3211 643,-175 643,-175 643,-175 1615.6086,-175 1615.6086,-175"/>
<polygon fill="#000000" stroke="#000000" points="1615.6087,-178.5001 1625.6086,-175 1615.6086,-171.5001 1615.6087,-178.5001"/>
</g>
<!-- UserModule -->
<g id="node22" class="node">
<title>UserModule</title>
<polygon fill="#8dd3c7" stroke="#000000" points="567.9762,-122 564.9762,-126 543.9762,-126 540.9762,-122 482.0238,-122 482.0238,-86 567.9762,-86 567.9762,-122"/>
<text text-anchor="middle" x="525" y="-99.8" font-family="Times,serif" font-size="14.00" fill="#000000">UserModule</text>
</g>
<!-- UserModule&#45;&gt;SettingsModule -->
<g id="edge21" class="edge">
<title>UserModule&#45;&gt;SettingsModule</title>
<path fill="none" stroke="#000000" d="M525,-122.2921C525,-144.2057 525,-178 525,-178 525,-178 1615.4619,-178 1615.4619,-178"/>
<polygon fill="#000000" stroke="#000000" points="1615.4619,-181.5001 1625.4619,-178 1615.4619,-174.5001 1615.4619,-181.5001"/>
</g>
<!-- InvitationFeatureService -->
<g id="node23" class="node">
<title>InvitationFeatureService</title>
<ellipse fill="#fdb462" stroke="#000000" cx="352" cy="-104" rx="106.4947" ry="18"/>
<text text-anchor="middle" x="352" y="-99.8" font-family="Times,serif" font-size="14.00" fill="#000000">InvitationFeatureService</text>
</g>
<!-- InvitationFeatureService&#45;&gt;SettingsModule -->
<g id="edge22" class="edge">
<title>InvitationFeatureService&#45;&gt;SettingsModule</title>
<path fill="none" stroke="#000000" d="M352,-122.0908C352,-145.1328 352,-182 352,-182 352,-182 1615.6108,-182 1615.6108,-182"/>
<polygon fill="#000000" stroke="#000000" points="1615.6109,-185.5001 1625.6108,-182 1615.6108,-178.5001 1615.6109,-185.5001"/>
</g>
<!-- MemberFeatureService -->
<g id="node24" class="node">
<title>MemberFeatureService</title>
<ellipse fill="#fdb462" stroke="#000000" cx="126" cy="-104" rx="101.8206" ry="18"/>
<text text-anchor="middle" x="126" y="-99.8" font-family="Times,serif" font-size="14.00" fill="#000000">MemberFeatureService</text>
</g>
<!-- MemberFeatureService&#45;&gt;SettingsModule -->
<g id="edge23" class="edge">
<title>MemberFeatureService&#45;&gt;SettingsModule</title>
<path fill="none" stroke="#000000" d="M126,-122.1532C126,-145.7566 126,-184 126,-184 126,-184 1615.4729,-184 1615.4729,-184"/>
<polygon fill="#000000" stroke="#000000" points="1615.4729,-187.5001 1625.4729,-184 1615.4728,-180.5001 1615.4729,-187.5001"/>
</g>
</g>
</svg>
