<?xml version="1.0" encoding="UTF-8" standalone="no"?>
<!DOCTYPE svg PUBLIC "-//W3C//DTD SVG 1.1//EN"
 "http://www.w3.org/Graphics/SVG/1.1/DTD/svg11.dtd">
<!-- Generated by graphviz version 2.40.1 (20161225.0304)
 -->
<!-- Title: dependencies Pages: 1 -->
<svg width="1775pt" height="284pt"
 viewBox="0.00 0.00 1775.00 284.00" xmlns="http://www.w3.org/2000/svg" xmlns:xlink="http://www.w3.org/1999/xlink">
<g id="graph0" class="graph" transform="scale(1 1) rotate(0) translate(4 280)">
<title>dependencies</title>
<polygon fill="#ffffff" stroke="transparent" points="-4,4 -4,-280 1771,-280 1771,4 -4,4"/>
<text text-anchor="start" x="862.5091" y="-42.4" font-family="sans-serif" font-weight="bold" font-size="14.00" fill="#000000">Legend</text>
<polygon fill="#ffffb3" stroke="transparent" points="649.5,-10 649.5,-30 669.5,-30 669.5,-10 649.5,-10"/>
<text text-anchor="start" x="673.129" y="-15.4" font-family="sans-serif" font-size="14.00" fill="#000000"> &#160;Declarations</text>
<polygon fill="#8dd3c7" stroke="transparent" points="762.5,-10 762.5,-30 782.5,-30 782.5,-10 762.5,-10"/>
<text text-anchor="start" x="786.2251" y="-15.4" font-family="sans-serif" font-size="14.00" fill="#000000"> &#160;Module</text>
<polygon fill="#80b1d3" stroke="transparent" points="848.5,-10 848.5,-30 868.5,-30 868.5,-10 848.5,-10"/>
<text text-anchor="start" x="872.2812" y="-15.4" font-family="sans-serif" font-size="14.00" fill="#000000"> &#160;Bootstrap</text>
<polygon fill="#fdb462" stroke="transparent" points="945.5,-10 945.5,-30 965.5,-30 965.5,-10 945.5,-10"/>
<text text-anchor="start" x="969.1732" y="-15.4" font-family="sans-serif" font-size="14.00" fill="#000000"> &#160;Providers</text>
<polygon fill="#fb8072" stroke="transparent" points="1041.5,-10 1041.5,-30 1061.5,-30 1061.5,-10 1041.5,-10"/>
<text text-anchor="start" x="1065.2258" y="-15.4" font-family="sans-serif" font-size="14.00" fill="#000000"> &#160;Exports</text>
<g id="clust1" class="cluster">
<title>cluster_SelectorsModule</title>
<polygon fill="none" stroke="#000000" stroke-dasharray="1,5" points="8,-70 8,-268 1759,-268 1759,-70 8,-70"/>
</g>
<g id="clust2" class="cluster">
<title>cluster_SelectorsModule_declarations</title>
<polygon fill="none" stroke="#000000" points="247,-78 247,-130 1751,-130 1751,-78 247,-78"/>
</g>
<g id="clust13" class="cluster">
<title>cluster_SelectorsModule_imports</title>
<polygon fill="none" stroke="#000000" points="16,-78 16,-130 239,-130 239,-78 16,-78"/>
</g>
<g id="clust14" class="cluster">
<title>cluster_SelectorsModule_exports</title>
<polygon fill="none" stroke="#000000" points="93,-208 93,-260 1632,-260 1632,-208 93,-208"/>
</g>
<!-- CheckboxComponent -->
<g id="node1" class="node">
<title>CheckboxComponent</title>
<polygon fill="#ffffb3" stroke="#000000" points="1743.0982,-122 1604.9018,-122 1604.9018,-86 1743.0982,-86 1743.0982,-122"/>
<text text-anchor="middle" x="1674" y="-99.8" font-family="Times,serif" font-size="14.00" fill="#000000">CheckboxComponent</text>
</g>
<!-- SelectorsModule -->
<g id="node11" class="node">
<title>SelectorsModule</title>
<polygon fill="#8dd3c7" stroke="#000000" points="983.3627,-187 980.3627,-191 959.3627,-191 956.3627,-187 872.6373,-187 872.6373,-151 983.3627,-151 983.3627,-187"/>
<text text-anchor="middle" x="928" y="-164.8" font-family="Times,serif" font-size="14.00" fill="#000000">SelectorsModule</text>
</g>
<!-- CheckboxComponent&#45;&gt;SelectorsModule -->
<g id="edge1" class="edge">
<title>CheckboxComponent&#45;&gt;SelectorsModule</title>
<path fill="none" stroke="#000000" d="M1614.375,-122.1061C1614.375,-141.3391 1614.375,-169 1614.375,-169 1614.375,-169 993.5875,-169 993.5875,-169"/>
<polygon fill="#000000" stroke="#000000" points="993.5876,-165.5001 983.5875,-169 993.5875,-172.5001 993.5876,-165.5001"/>
</g>
<!-- ErrorComponent -->
<g id="node2" class="node">
<title>ErrorComponent</title>
<polygon fill="#ffffb3" stroke="#000000" points="1587.3669,-122 1476.6331,-122 1476.6331,-86 1587.3669,-86 1587.3669,-122"/>
<text text-anchor="middle" x="1532" y="-99.8" font-family="Times,serif" font-size="14.00" fill="#000000">ErrorComponent</text>
</g>
<!-- ErrorComponent&#45;&gt;SelectorsModule -->
<g id="edge2" class="edge">
<title>ErrorComponent&#45;&gt;SelectorsModule</title>
<path fill="none" stroke="#000000" d="M1552.3559,-122.2667C1552.3559,-140.5552 1552.3559,-166 1552.3559,-166 1552.3559,-166 993.4074,-166 993.4074,-166"/>
<polygon fill="#000000" stroke="#000000" points="993.4075,-162.5001 983.4074,-166 993.4074,-169.5001 993.4075,-162.5001"/>
</g>
<!-- FormFieldComponent -->
<g id="node3" class="node">
<title>FormFieldComponent</title>
<polygon fill="#ffffb3" stroke="#000000" points="1458.4453,-122 1317.5547,-122 1317.5547,-86 1458.4453,-86 1458.4453,-122"/>
<text text-anchor="middle" x="1388" y="-99.8" font-family="Times,serif" font-size="14.00" fill="#000000">FormFieldComponent</text>
</g>
<!-- FormFieldComponent&#45;&gt;SelectorsModule -->
<g id="edge3" class="edge">
<title>FormFieldComponent&#45;&gt;SelectorsModule</title>
<path fill="none" stroke="#000000" d="M1324.875,-122.0336C1324.875,-139.0597 1324.875,-162 1324.875,-162 1324.875,-162 993.6017,-162 993.6017,-162"/>
<polygon fill="#000000" stroke="#000000" points="993.6017,-158.5001 983.6017,-162 993.6016,-165.5001 993.6017,-158.5001"/>
</g>
<!-- HintComponent -->
<g id="node4" class="node">
<title>HintComponent</title>
<polygon fill="#ffffb3" stroke="#000000" points="1300.2204,-122 1193.7796,-122 1193.7796,-86 1300.2204,-86 1300.2204,-122"/>
<text text-anchor="middle" x="1247" y="-99.8" font-family="Times,serif" font-size="14.00" fill="#000000">HintComponent</text>
</g>
<!-- HintComponent&#45;&gt;SelectorsModule -->
<g id="edge4" class="edge">
<title>HintComponent&#45;&gt;SelectorsModule</title>
<path fill="none" stroke="#000000" d="M1264.7034,-122.0091C1264.7034,-138.0494 1264.7034,-159 1264.7034,-159 1264.7034,-159 993.5997,-159 993.5997,-159"/>
<polygon fill="#000000" stroke="#000000" points="993.5997,-155.5001 983.5997,-159 993.5997,-162.5001 993.5997,-155.5001"/>
</g>
<!-- InputDirective -->
<g id="node5" class="node">
<title>InputDirective</title>
<polygon fill="#ffffb3" stroke="#000000" points="1175.6347,-122 1078.3653,-122 1078.3653,-86 1175.6347,-86 1175.6347,-122"/>
<text text-anchor="middle" x="1127" y="-99.8" font-family="Times,serif" font-size="14.00" fill="#000000">InputDirective</text>
</g>
<!-- InputDirective&#45;&gt;SelectorsModule -->
<g id="edge5" class="edge">
<title>InputDirective&#45;&gt;SelectorsModule</title>
<path fill="none" stroke="#000000" d="M1124.0216,-122.1243C1124.0216,-136.7832 1124.0216,-155 1124.0216,-155 1124.0216,-155 993.3859,-155 993.3859,-155"/>
<polygon fill="#000000" stroke="#000000" points="993.3859,-151.5001 983.3859,-155 993.3859,-158.5001 993.3859,-151.5001"/>
</g>
<!-- LabelComponent -->
<g id="node6" class="node">
<title>LabelComponent</title>
<polygon fill="#ffffb3" stroke="#000000" points="1060.705,-122 947.295,-122 947.295,-86 1060.705,-86 1060.705,-122"/>
<text text-anchor="middle" x="1004" y="-99.8" font-family="Times,serif" font-size="14.00" fill="#000000">LabelComponent</text>
</g>
<!-- LabelComponent&#45;&gt;SelectorsModule -->
<g id="edge6" class="edge">
<title>LabelComponent&#45;&gt;SelectorsModule</title>
<path fill="none" stroke="#000000" d="M965.4145,-122.1061C965.4145,-122.1061 965.4145,-140.991 965.4145,-140.991"/>
<polygon fill="#000000" stroke="#000000" points="961.9145,-140.9909 965.4145,-150.991 968.9145,-140.991 961.9145,-140.9909"/>
</g>
<!-- RadioComponent -->
<g id="node7" class="node">
<title>RadioComponent</title>
<polygon fill="#ffffb3" stroke="#000000" points="929.2744,-122 814.7256,-122 814.7256,-86 929.2744,-86 929.2744,-122"/>
<text text-anchor="middle" x="872" y="-99.8" font-family="Times,serif" font-size="14.00" fill="#000000">RadioComponent</text>
</g>
<!-- RadioComponent&#45;&gt;SelectorsModule -->
<g id="edge7" class="edge">
<title>RadioComponent&#45;&gt;SelectorsModule</title>
<path fill="none" stroke="#000000" d="M900.9779,-122.1061C900.9779,-122.1061 900.9779,-140.991 900.9779,-140.991"/>
<polygon fill="#000000" stroke="#000000" points="897.478,-140.9909 900.9779,-150.991 904.478,-140.991 897.478,-140.9909"/>
</g>
<!-- RestrictInputDirective -->
<g id="node8" class="node">
<title>RestrictInputDirective</title>
<polygon fill="#ffffb3" stroke="#000000" points="796.6769,-122 655.3231,-122 655.3231,-86 796.6769,-86 796.6769,-122"/>
<text text-anchor="middle" x="726" y="-99.8" font-family="Times,serif" font-size="14.00" fill="#000000">RestrictInputDirective</text>
</g>
<!-- RestrictInputDirective&#45;&gt;SelectorsModule -->
<g id="edge8" class="edge">
<title>RestrictInputDirective&#45;&gt;SelectorsModule</title>
<path fill="none" stroke="#000000" d="M792.8628,-122.1243C792.8628,-136.7832 792.8628,-155 792.8628,-155 792.8628,-155 862.2543,-155 862.2543,-155"/>
<polygon fill="#000000" stroke="#000000" points="862.2543,-158.5001 872.2543,-155 862.2543,-151.5001 862.2543,-158.5001"/>
</g>
<!-- RestrictSpecialInputDirective -->
<g id="node9" class="node">
<title>RestrictSpecialInputDirective</title>
<polygon fill="#ffffb3" stroke="#000000" points="637.3848,-122 454.6152,-122 454.6152,-86 637.3848,-86 637.3848,-122"/>
<text text-anchor="middle" x="546" y="-99.8" font-family="Times,serif" font-size="14.00" fill="#000000">RestrictSpecialInputDirective</text>
</g>
<!-- RestrictSpecialInputDirective&#45;&gt;SelectorsModule -->
<g id="edge9" class="edge">
<title>RestrictSpecialInputDirective&#45;&gt;SelectorsModule</title>
<path fill="none" stroke="#000000" d="M572.9269,-122.0091C572.9269,-138.0494 572.9269,-159 572.9269,-159 572.9269,-159 862.5198,-159 862.5198,-159"/>
<polygon fill="#000000" stroke="#000000" points="862.5199,-162.5001 872.5198,-159 862.5198,-155.5001 862.5199,-162.5001"/>
</g>
<!-- TextareaAutoGrowsDirective -->
<g id="node10" class="node">
<title>TextareaAutoGrowsDirective</title>
<polygon fill="#ffffb3" stroke="#000000" points="437.361,-122 254.639,-122 254.639,-86 437.361,-86 437.361,-122"/>
<text text-anchor="middle" x="346" y="-99.8" font-family="Times,serif" font-size="14.00" fill="#000000">TextareaAutoGrowsDirective</text>
</g>
<!-- TextareaAutoGrowsDirective&#45;&gt;SelectorsModule -->
<g id="edge10" class="edge">
<title>TextareaAutoGrowsDirective&#45;&gt;SelectorsModule</title>
<path fill="none" stroke="#000000" d="M371.1191,-122.0336C371.1191,-139.0597 371.1191,-162 371.1191,-162 371.1191,-162 862.5682,-162 862.5682,-162"/>
<polygon fill="#000000" stroke="#000000" points="862.5682,-165.5001 872.5682,-162 862.5682,-158.5001 862.5682,-165.5001"/>
</g>
<!-- CheckboxComponent  -->
<g id="node14" class="node">
<title>CheckboxComponent </title>
<polygon fill="#fb8072" stroke="#000000" points="1623.5988,-252 1482.4012,-252 1482.4012,-216 1623.5988,-216 1623.5988,-252"/>
<text text-anchor="middle" x="1553" y="-229.8" font-family="Times,serif" font-size="14.00" fill="#000000">CheckboxComponent </text>
</g>
<!-- SelectorsModule&#45;&gt;CheckboxComponent  -->
<g id="edge13" class="edge">
<title>SelectorsModule&#45;&gt;CheckboxComponent </title>
<path fill="none" stroke="#000000" stroke-dasharray="5,2" d="M983.4379,-173C1130.1306,-173 1517.2784,-173 1517.2784,-173 1517.2784,-173 1517.2784,-205.698 1517.2784,-205.698"/>
<polygon fill="#000000" stroke="#000000" points="1513.7785,-205.698 1517.2784,-215.698 1520.7785,-205.698 1513.7785,-205.698"/>
</g>
<!-- ErrorComponent  -->
<g id="node15" class="node">
<title>ErrorComponent </title>
<polygon fill="#fb8072" stroke="#000000" points="1464.3674,-252 1349.6326,-252 1349.6326,-216 1464.3674,-216 1464.3674,-252"/>
<text text-anchor="middle" x="1407" y="-229.8" font-family="Times,serif" font-size="14.00" fill="#000000">ErrorComponent </text>
</g>
<!-- SelectorsModule&#45;&gt;ErrorComponent  -->
<g id="edge14" class="edge">
<title>SelectorsModule&#45;&gt;ErrorComponent </title>
<path fill="none" stroke="#000000" stroke-dasharray="5,2" d="M983.5371,-177C1109.1058,-177 1404.0195,-177 1404.0195,-177 1404.0195,-177 1404.0195,-205.9648 1404.0195,-205.9648"/>
<polygon fill="#000000" stroke="#000000" points="1400.5195,-205.9648 1404.0195,-215.9648 1407.5195,-205.9649 1400.5195,-205.9648"/>
</g>
<!-- FormFieldComponent  -->
<g id="node16" class="node">
<title>FormFieldComponent </title>
<polygon fill="#fb8072" stroke="#000000" points="1331.9446,-252 1188.0554,-252 1188.0554,-216 1331.9446,-216 1331.9446,-252"/>
<text text-anchor="middle" x="1260" y="-229.8" font-family="Times,serif" font-size="14.00" fill="#000000">FormFieldComponent </text>
</g>
<!-- SelectorsModule&#45;&gt;FormFieldComponent  -->
<g id="edge15" class="edge">
<title>SelectorsModule&#45;&gt;FormFieldComponent </title>
<path fill="none" stroke="#000000" stroke-dasharray="5,2" d="M983.6136,-180C1070.6715,-180 1229.2966,-180 1229.2966,-180 1229.2966,-180 1229.2966,-205.7181 1229.2966,-205.7181"/>
<polygon fill="#000000" stroke="#000000" points="1225.7967,-205.718 1229.2966,-215.7181 1232.7967,-205.7181 1225.7967,-205.718"/>
</g>
<!-- HintComponent  -->
<g id="node17" class="node">
<title>HintComponent </title>
<polygon fill="#fb8072" stroke="#000000" points="1169.7206,-252 1060.2794,-252 1060.2794,-216 1169.7206,-216 1169.7206,-252"/>
<text text-anchor="middle" x="1115" y="-229.8" font-family="Times,serif" font-size="14.00" fill="#000000">HintComponent </text>
</g>
<!-- SelectorsModule&#45;&gt;HintComponent  -->
<g id="edge16" class="edge">
<title>SelectorsModule&#45;&gt;HintComponent </title>
<path fill="none" stroke="#000000" stroke-dasharray="5,2" d="M983.4763,-184C1023.0883,-184 1069.3927,-184 1069.3927,-184 1069.3927,-184 1069.3927,-205.9489 1069.3927,-205.9489"/>
<polygon fill="#000000" stroke="#000000" points="1065.8928,-205.9488 1069.3927,-215.9489 1072.8928,-205.9489 1065.8928,-205.9488"/>
</g>
<!-- InputDirective  -->
<g id="node18" class="node">
<title>InputDirective </title>
<polygon fill="#fb8072" stroke="#000000" points="1042.6341,-252 941.3659,-252 941.3659,-216 1042.6341,-216 1042.6341,-252"/>
<text text-anchor="middle" x="992" y="-229.8" font-family="Times,serif" font-size="14.00" fill="#000000">InputDirective </text>
</g>
<!-- SelectorsModule&#45;&gt;InputDirective  -->
<g id="edge17" class="edge">
<title>SelectorsModule&#45;&gt;InputDirective </title>
<path fill="none" stroke="#000000" stroke-dasharray="5,2" d="M962.4322,-187.1061C962.4322,-187.1061 962.4322,-205.991 962.4322,-205.991"/>
<polygon fill="#000000" stroke="#000000" points="958.9322,-205.9909 962.4322,-215.991 965.9322,-205.991 958.9322,-205.9909"/>
</g>
<!-- LabelComponent  -->
<g id="node19" class="node">
<title>LabelComponent </title>
<polygon fill="#fb8072" stroke="#000000" points="923.2052,-252 806.7948,-252 806.7948,-216 923.2052,-216 923.2052,-252"/>
<text text-anchor="middle" x="865" y="-229.8" font-family="Times,serif" font-size="14.00" fill="#000000">LabelComponent </text>
</g>
<!-- SelectorsModule&#45;&gt;LabelComponent  -->
<g id="edge18" class="edge">
<title>SelectorsModule&#45;&gt;LabelComponent </title>
<path fill="none" stroke="#000000" stroke-dasharray="5,2" d="M897.9606,-187.1061C897.9606,-187.1061 897.9606,-205.991 897.9606,-205.991"/>
<polygon fill="#000000" stroke="#000000" points="894.4606,-205.9909 897.9606,-215.991 901.4606,-205.991 894.4606,-205.9909"/>
</g>
<!-- RadioComponent  -->
<g id="node20" class="node">
<title>RadioComponent </title>
<polygon fill="#fb8072" stroke="#000000" points="789.2745,-252 670.7255,-252 670.7255,-216 789.2745,-216 789.2745,-252"/>
<text text-anchor="middle" x="730" y="-229.8" font-family="Times,serif" font-size="14.00" fill="#000000">RadioComponent </text>
</g>
<!-- SelectorsModule&#45;&gt;RadioComponent  -->
<g id="edge19" class="edge">
<title>SelectorsModule&#45;&gt;RadioComponent </title>
<path fill="none" stroke="#000000" stroke-dasharray="5,2" d="M872.5827,-184C814.0073,-184 730,-184 730,-184 730,-184 730,-205.9489 730,-205.9489"/>
<polygon fill="#000000" stroke="#000000" points="726.5001,-205.9488 730,-215.9489 733.5001,-205.9489 726.5001,-205.9488"/>
</g>
<!-- RestrictInputDirective  -->
<g id="node21" class="node">
<title>RestrictInputDirective </title>
<polygon fill="#fb8072" stroke="#000000" points="653.1772,-252 508.8228,-252 508.8228,-216 653.1772,-216 653.1772,-252"/>
<text text-anchor="middle" x="581" y="-229.8" font-family="Times,serif" font-size="14.00" fill="#000000">RestrictInputDirective </text>
</g>
<!-- SelectorsModule&#45;&gt;RestrictInputDirective  -->
<g id="edge20" class="edge">
<title>SelectorsModule&#45;&gt;RestrictInputDirective </title>
<path fill="none" stroke="#000000" stroke-dasharray="5,2" d="M872.4781,-180C790.1382,-180 645.2653,-180 645.2653,-180 645.2653,-180 645.2653,-205.7181 645.2653,-205.7181"/>
<polygon fill="#000000" stroke="#000000" points="641.7654,-205.718 645.2653,-215.7181 648.7654,-205.7181 641.7654,-205.718"/>
</g>
<!-- RestrictSpecialInputDirective  -->
<g id="node22" class="node">
<title>RestrictSpecialInputDirective </title>
<polygon fill="#fb8072" stroke="#000000" points="490.8844,-252 305.1156,-252 305.1156,-216 490.8844,-216 490.8844,-252"/>
<text text-anchor="middle" x="398" y="-229.8" font-family="Times,serif" font-size="14.00" fill="#000000">RestrictSpecialInputDirective </text>
</g>
<!-- SelectorsModule&#45;&gt;RestrictSpecialInputDirective  -->
<g id="edge21" class="edge">
<title>SelectorsModule&#45;&gt;RestrictSpecialInputDirective </title>
<path fill="none" stroke="#000000" stroke-dasharray="5,2" d="M872.1927,-177C750.6613,-177 472.875,-177 472.875,-177 472.875,-177 472.875,-205.9648 472.875,-205.9648"/>
<polygon fill="#000000" stroke="#000000" points="469.3751,-205.9648 472.875,-215.9648 476.3751,-205.9649 469.3751,-205.9648"/>
</g>
<!-- TextareaAutoGrowsDirective  -->
<g id="node23" class="node">
<title>TextareaAutoGrowsDirective </title>
<polygon fill="#fb8072" stroke="#000000" points="286.8607,-252 101.1393,-252 101.1393,-216 286.8607,-216 286.8607,-252"/>
<text text-anchor="middle" x="194" y="-229.8" font-family="Times,serif" font-size="14.00" fill="#000000">TextareaAutoGrowsDirective </text>
</g>
<!-- SelectorsModule&#45;&gt;TextareaAutoGrowsDirective  -->
<g id="edge22" class="edge">
<title>SelectorsModule&#45;&gt;TextareaAutoGrowsDirective </title>
<path fill="none" stroke="#000000" stroke-dasharray="5,2" d="M872.5402,-173C714.1161,-173 270.875,-173 270.875,-173 270.875,-173 270.875,-205.698 270.875,-205.698"/>
<polygon fill="#000000" stroke="#000000" points="267.3751,-205.698 270.875,-215.698 274.3751,-205.698 267.3751,-205.698"/>
</g>
<!-- ImageModule -->
<g id="node12" class="node">
<title>ImageModule</title>
<polygon fill="#8dd3c7" stroke="#000000" points="231.0314,-122 228.0314,-126 207.0314,-126 204.0314,-122 136.9686,-122 136.9686,-86 231.0314,-86 231.0314,-122"/>
<text text-anchor="middle" x="184" y="-99.8" font-family="Times,serif" font-size="14.00" fill="#000000">ImageModule</text>
</g>
<!-- ImageModule&#45;&gt;SelectorsModule -->
<g id="edge11" class="edge">
<title>ImageModule&#45;&gt;SelectorsModule</title>
<path fill="none" stroke="#000000" d="M184,-122.2667C184,-140.5552 184,-166 184,-166 184,-166 862.3833,-166 862.3833,-166"/>
<polygon fill="#000000" stroke="#000000" points="862.3834,-169.5001 872.3833,-166 862.3833,-162.5001 862.3834,-169.5001"/>
</g>
<!-- InputsModule -->
<g id="node13" class="node">
<title>InputsModule</title>
<polygon fill="#8dd3c7" stroke="#000000" points="118.0467,-122 115.0467,-126 94.0467,-126 91.0467,-122 23.9533,-122 23.9533,-86 118.0467,-86 118.0467,-122"/>
<text text-anchor="middle" x="71" y="-99.8" font-family="Times,serif" font-size="14.00" fill="#000000">InputsModule</text>
</g>
<!-- InputsModule&#45;&gt;SelectorsModule -->
<g id="edge12" class="edge">
<title>InputsModule&#45;&gt;SelectorsModule</title>
<path fill="none" stroke="#000000" d="M109.6713,-122.1061C109.6713,-141.3391 109.6713,-169 109.6712,-169 109.6712,-169 862.3963,-169 862.3963,-169"/>
<polygon fill="#000000" stroke="#000000" points="862.3963,-172.5001 872.3963,-169 862.3963,-165.5001 862.3963,-172.5001"/>
</g>
</g>
</svg>
