<?xml version="1.0" encoding="UTF-8" standalone="no"?>
<!DOCTYPE svg PUBLIC "-//W3C//DTD SVG 1.1//EN"
 "http://www.w3.org/Graphics/SVG/1.1/DTD/svg11.dtd">
<!-- Generated by graphviz version 2.40.1 (20161225.0304)
 -->
<!-- Title: dependencies Pages: 1 -->
<svg width="1790pt" height="284pt"
 viewBox="0.00 0.00 1790.00 284.00" xmlns="http://www.w3.org/2000/svg" xmlns:xlink="http://www.w3.org/1999/xlink">
<g id="graph0" class="graph" transform="scale(1 1) rotate(0) translate(4 280)">
<title>dependencies</title>
<polygon fill="#ffffff" stroke="transparent" points="-4,4 -4,-280 1786,-280 1786,4 -4,4"/>
<text text-anchor="start" x="870.0091" y="-42.4" font-family="sans-serif" font-weight="bold" font-size="14.00" fill="#000000">Legend</text>
<polygon fill="#ffffb3" stroke="transparent" points="657,-10 657,-30 677,-30 677,-10 657,-10"/>
<text text-anchor="start" x="680.629" y="-15.4" font-family="sans-serif" font-size="14.00" fill="#000000"> &#160;Declarations</text>
<polygon fill="#8dd3c7" stroke="transparent" points="770,-10 770,-30 790,-30 790,-10 770,-10"/>
<text text-anchor="start" x="793.7251" y="-15.4" font-family="sans-serif" font-size="14.00" fill="#000000"> &#160;Module</text>
<polygon fill="#80b1d3" stroke="transparent" points="856,-10 856,-30 876,-30 876,-10 856,-10"/>
<text text-anchor="start" x="879.7812" y="-15.4" font-family="sans-serif" font-size="14.00" fill="#000000"> &#160;Bootstrap</text>
<polygon fill="#fdb462" stroke="transparent" points="953,-10 953,-30 973,-30 973,-10 953,-10"/>
<text text-anchor="start" x="976.6732" y="-15.4" font-family="sans-serif" font-size="14.00" fill="#000000"> &#160;Providers</text>
<polygon fill="#fb8072" stroke="transparent" points="1049,-10 1049,-30 1069,-30 1069,-10 1049,-10"/>
<text text-anchor="start" x="1072.7258" y="-15.4" font-family="sans-serif" font-size="14.00" fill="#000000"> &#160;Exports</text>
<g id="clust1" class="cluster">
<title>cluster_DataManagementModule</title>
<polygon fill="none" stroke="#000000" stroke-dasharray="1,5" points="8,-70 8,-268 1774,-268 1774,-70 8,-70"/>
</g>
<g id="clust2" class="cluster">
<title>cluster_DataManagementModule_declarations</title>
<polygon fill="none" stroke="#000000" points="514,-78 514,-130 1766,-130 1766,-78 514,-78"/>
</g>
<g id="clust8" class="cluster">
<title>cluster_DataManagementModule_imports</title>
<polygon fill="none" stroke="#000000" points="16,-78 16,-130 506,-130 506,-78 16,-78"/>
</g>
<g id="clust9" class="cluster">
<title>cluster_DataManagementModule_exports</title>
<polygon fill="none" stroke="#000000" points="523,-208 523,-260 751,-260 751,-208 523,-208"/>
</g>
<!-- CategoryDataManagementPageComponent -->
<g id="node1" class="node">
<title>CategoryDataManagementPageComponent</title>
<polygon fill="#ffffb3" stroke="#000000" points="1757.8721,-122 1498.1279,-122 1498.1279,-86 1757.8721,-86 1757.8721,-122"/>
<text text-anchor="middle" x="1628" y="-99.8" font-family="Times,serif" font-size="14.00" fill="#000000">CategoryDataManagementPageComponent</text>
</g>
<!-- DataManagementModule -->
<g id="node6" class="node">
<title>DataManagementModule</title>
<polygon fill="#8dd3c7" stroke="#000000" points="716.5604,-187 713.5604,-191 692.5604,-191 689.5604,-187 557.4396,-187 557.4396,-151 716.5604,-151 716.5604,-187"/>
<text text-anchor="middle" x="637" y="-164.8" font-family="Times,serif" font-size="14.00" fill="#000000">DataManagementModule</text>
</g>
<!-- CategoryDataManagementPageComponent&#45;&gt;DataManagementModule -->
<g id="edge1" class="edge">
<title>CategoryDataManagementPageComponent&#45;&gt;DataManagementModule</title>
<path fill="none" stroke="#000000" d="M1628,-122.0109C1628,-144.4852 1628,-180 1628,-180 1628,-180 726.8399,-180 726.8399,-180"/>
<polygon fill="#000000" stroke="#000000" points="726.8399,-176.5001 716.8399,-180 726.8399,-183.5001 726.8399,-176.5001"/>
</g>
<!-- DataManagementPageComponent -->
<g id="node2" class="node">
<title>DataManagementPageComponent</title>
<polygon fill="#ffffb3" stroke="#000000" points="1480.0548,-122 1271.9452,-122 1271.9452,-86 1480.0548,-86 1480.0548,-122"/>
<text text-anchor="middle" x="1376" y="-99.8" font-family="Times,serif" font-size="14.00" fill="#000000">DataManagementPageComponent</text>
</g>
<!-- DataManagementPageComponent&#45;&gt;DataManagementModule -->
<g id="edge2" class="edge">
<title>DataManagementPageComponent&#45;&gt;DataManagementModule</title>
<path fill="none" stroke="#000000" d="M1376,-122.1289C1376,-142.5724 1376,-173 1376,-173 1376,-173 726.7881,-173 726.7881,-173"/>
<polygon fill="#000000" stroke="#000000" points="726.7881,-169.5001 716.7881,-173 726.7881,-176.5001 726.7881,-169.5001"/>
</g>
<!-- DataMananagementTableComponent -->
<g id="node3" class="node">
<title>DataMananagementTableComponent</title>
<polygon fill="#ffffb3" stroke="#000000" points="1253.93,-122 1028.07,-122 1028.07,-86 1253.93,-86 1253.93,-122"/>
<text text-anchor="middle" x="1141" y="-99.8" font-family="Times,serif" font-size="14.00" fill="#000000">DataMananagementTableComponent</text>
</g>
<!-- DataMananagementTableComponent&#45;&gt;DataManagementModule -->
<g id="edge3" class="edge">
<title>DataMananagementTableComponent&#45;&gt;DataManagementModule</title>
<path fill="none" stroke="#000000" d="M1141,-122.2667C1141,-140.5552 1141,-166 1141,-166 1141,-166 726.5822,-166 726.5822,-166"/>
<polygon fill="#000000" stroke="#000000" points="726.5822,-162.5001 716.5822,-166 726.5822,-169.5001 726.5822,-162.5001"/>
</g>
<!-- EventDataManagementPageComponent -->
<g id="node4" class="node">
<title>EventDataManagementPageComponent</title>
<polygon fill="#ffffb3" stroke="#000000" points="1010.2128,-122 769.7872,-122 769.7872,-86 1010.2128,-86 1010.2128,-122"/>
<text text-anchor="middle" x="890" y="-99.8" font-family="Times,serif" font-size="14.00" fill="#000000">EventDataManagementPageComponent</text>
</g>
<!-- EventDataManagementPageComponent&#45;&gt;DataManagementModule -->
<g id="edge4" class="edge">
<title>EventDataManagementPageComponent&#45;&gt;DataManagementModule</title>
<path fill="none" stroke="#000000" d="M890,-122.0091C890,-138.0494 890,-159 890,-159 890,-159 726.7035,-159 726.7035,-159"/>
<polygon fill="#000000" stroke="#000000" points="726.7036,-155.5001 716.7035,-159 726.7035,-162.5001 726.7036,-155.5001"/>
</g>
<!-- TagDataManagementPageComponent -->
<g id="node5" class="node">
<title>TagDataManagementPageComponent</title>
<polygon fill="#ffffb3" stroke="#000000" points="751.8221,-122 522.1779,-122 522.1779,-86 751.8221,-86 751.8221,-122"/>
<text text-anchor="middle" x="637" y="-99.8" font-family="Times,serif" font-size="14.00" fill="#000000">TagDataManagementPageComponent</text>
</g>
<!-- TagDataManagementPageComponent&#45;&gt;DataManagementModule -->
<g id="edge5" class="edge">
<title>TagDataManagementPageComponent&#45;&gt;DataManagementModule</title>
<path fill="none" stroke="#000000" d="M637,-122.1061C637,-122.1061 637,-140.991 637,-140.991"/>
<polygon fill="#000000" stroke="#000000" points="633.5001,-140.9909 637,-150.991 640.5001,-140.991 633.5001,-140.9909"/>
</g>
<!-- DataManagementPageComponent  -->
<g id="node11" class="node">
<title>DataManagementPageComponent </title>
<polygon fill="#fb8072" stroke="#000000" points="742.5553,-252 531.4447,-252 531.4447,-216 742.5553,-216 742.5553,-252"/>
<text text-anchor="middle" x="637" y="-229.8" font-family="Times,serif" font-size="14.00" fill="#000000">DataManagementPageComponent </text>
</g>
<!-- DataManagementModule&#45;&gt;DataManagementPageComponent  -->
<g id="edge10" class="edge">
<title>DataManagementModule&#45;&gt;DataManagementPageComponent </title>
<path fill="none" stroke="#000000" stroke-dasharray="5,2" d="M637,-187.1061C637,-187.1061 637,-205.991 637,-205.991"/>
<polygon fill="#000000" stroke="#000000" points="633.5001,-205.9909 637,-215.991 640.5001,-205.991 633.5001,-205.9909"/>
</g>
<!-- SharedModule -->
<g id="node7" class="node">
<title>SharedModule</title>
<polygon fill="#8dd3c7" stroke="#000000" points="498.4231,-122 495.4231,-126 474.4231,-126 471.4231,-122 399.5769,-122 399.5769,-86 498.4231,-86 498.4231,-122"/>
<text text-anchor="middle" x="449" y="-99.8" font-family="Times,serif" font-size="14.00" fill="#000000">SharedModule</text>
</g>
<!-- SharedModule&#45;&gt;DataManagementModule -->
<g id="edge6" class="edge">
<title>SharedModule&#45;&gt;DataManagementModule</title>
<path fill="none" stroke="#000000" d="M449,-122.0091C449,-138.0494 449,-159 449,-159 449,-159 547.2711,-159 547.2711,-159"/>
<polygon fill="#000000" stroke="#000000" points="547.2711,-162.5001 557.2711,-159 547.271,-155.5001 547.2711,-162.5001"/>
</g>
<!-- SideMenuModule -->
<g id="node8" class="node">
<title>SideMenuModule</title>
<polygon fill="#8dd3c7" stroke="#000000" points="381.5968,-122 378.5968,-126 357.5968,-126 354.5968,-122 264.4032,-122 264.4032,-86 381.5968,-86 381.5968,-122"/>
<text text-anchor="middle" x="323" y="-99.8" font-family="Times,serif" font-size="14.00" fill="#000000">SideMenuModule</text>
</g>
<!-- SideMenuModule&#45;&gt;DataManagementModule -->
<g id="edge7" class="edge">
<title>SideMenuModule&#45;&gt;DataManagementModule</title>
<path fill="none" stroke="#000000" d="M323,-122.2667C323,-140.5552 323,-166 323,-166 323,-166 547.3586,-166 547.3586,-166"/>
<polygon fill="#000000" stroke="#000000" points="547.3587,-169.5001 557.3586,-166 547.3586,-162.5001 547.3587,-169.5001"/>
</g>
<!-- TableModule -->
<g id="node9" class="node">
<title>TableModule</title>
<polygon fill="#8dd3c7" stroke="#000000" points="246.9232,-122 243.9232,-126 222.9232,-126 219.9232,-122 155.0768,-122 155.0768,-86 246.9232,-86 246.9232,-122"/>
<text text-anchor="middle" x="201" y="-99.8" font-family="Times,serif" font-size="14.00" fill="#000000">TableModule</text>
</g>
<!-- TableModule&#45;&gt;DataManagementModule -->
<g id="edge8" class="edge">
<title>TableModule&#45;&gt;DataManagementModule</title>
<path fill="none" stroke="#000000" d="M201,-122.1289C201,-142.5724 201,-173 201,-173 201,-173 547.2845,-173 547.2845,-173"/>
<polygon fill="#000000" stroke="#000000" points="547.2845,-176.5001 557.2845,-173 547.2845,-169.5001 547.2845,-176.5001"/>
</g>
<!-- TopPanelModule -->
<g id="node10" class="node">
<title>TopPanelModule</title>
<polygon fill="#8dd3c7" stroke="#000000" points="137.705,-122 134.705,-126 113.705,-126 110.705,-122 24.295,-122 24.295,-86 137.705,-86 137.705,-122"/>
<text text-anchor="middle" x="81" y="-99.8" font-family="Times,serif" font-size="14.00" fill="#000000">TopPanelModule</text>
</g>
<!-- TopPanelModule&#45;&gt;DataManagementModule -->
<g id="edge9" class="edge">
<title>TopPanelModule&#45;&gt;DataManagementModule</title>
<path fill="none" stroke="#000000" d="M81,-122.0109C81,-144.4852 81,-180 81,-180 81,-180 547.3388,-180 547.3388,-180"/>
<polygon fill="#000000" stroke="#000000" points="547.3388,-183.5001 557.3388,-180 547.3387,-176.5001 547.3388,-183.5001"/>
</g>
</g>
</svg>
