<?xml version="1.0" encoding="UTF-8" standalone="no"?>
<!DOCTYPE svg PUBLIC "-//W3C//DTD SVG 1.1//EN"
 "http://www.w3.org/Graphics/SVG/1.1/DTD/svg11.dtd">
<!-- Generated by graphviz version 2.40.1 (20161225.0304)
 -->
<!-- Title: dependencies Pages: 1 -->
<svg width="695pt" height="284pt"
 viewBox="0.00 0.00 695.00 284.00" xmlns="http://www.w3.org/2000/svg" xmlns:xlink="http://www.w3.org/1999/xlink">
<g id="graph0" class="graph" transform="scale(1 1) rotate(0) translate(4 280)">
<title>dependencies</title>
<polygon fill="#ffffff" stroke="transparent" points="-4,4 -4,-280 691,-280 691,4 -4,4"/>
<text text-anchor="start" x="322.5091" y="-42.4" font-family="sans-serif" font-weight="bold" font-size="14.00" fill="#000000">Legend</text>
<polygon fill="#ffffb3" stroke="transparent" points="109.5,-10 109.5,-30 129.5,-30 129.5,-10 109.5,-10"/>
<text text-anchor="start" x="133.129" y="-15.4" font-family="sans-serif" font-size="14.00" fill="#000000"> &#160;Declarations</text>
<polygon fill="#8dd3c7" stroke="transparent" points="222.5,-10 222.5,-30 242.5,-30 242.5,-10 222.5,-10"/>
<text text-anchor="start" x="246.2251" y="-15.4" font-family="sans-serif" font-size="14.00" fill="#000000"> &#160;Module</text>
<polygon fill="#80b1d3" stroke="transparent" points="308.5,-10 308.5,-30 328.5,-30 328.5,-10 308.5,-10"/>
<text text-anchor="start" x="332.2812" y="-15.4" font-family="sans-serif" font-size="14.00" fill="#000000"> &#160;Bootstrap</text>
<polygon fill="#fdb462" stroke="transparent" points="405.5,-10 405.5,-30 425.5,-30 425.5,-10 405.5,-10"/>
<text text-anchor="start" x="429.1732" y="-15.4" font-family="sans-serif" font-size="14.00" fill="#000000"> &#160;Providers</text>
<polygon fill="#fb8072" stroke="transparent" points="501.5,-10 501.5,-30 521.5,-30 521.5,-10 501.5,-10"/>
<text text-anchor="start" x="525.2258" y="-15.4" font-family="sans-serif" font-size="14.00" fill="#000000"> &#160;Exports</text>
<g id="clust1" class="cluster">
<title>cluster_PanelModule</title>
<polygon fill="none" stroke="#000000" stroke-dasharray="1,5" points="8,-70 8,-268 679,-268 679,-70 8,-70"/>
</g>
<g id="clust2" class="cluster">
<title>cluster_PanelModule_declarations</title>
<polygon fill="none" stroke="#000000" points="142,-78 142,-130 671,-130 671,-78 142,-78"/>
</g>
<g id="clust6" class="cluster">
<title>cluster_PanelModule_imports</title>
<polygon fill="none" stroke="#000000" points="16,-78 16,-130 134,-130 134,-78 16,-78"/>
</g>
<g id="clust7" class="cluster">
<title>cluster_PanelModule_exports</title>
<polygon fill="none" stroke="#000000" points="74,-208 74,-260 613,-260 613,-208 74,-208"/>
</g>
<!-- SidePanelActionComponent -->
<g id="node1" class="node">
<title>SidePanelActionComponent</title>
<polygon fill="#ffffb3" stroke="#000000" points="662.9255,-122 487.0745,-122 487.0745,-86 662.9255,-86 662.9255,-122"/>
<text text-anchor="middle" x="575" y="-99.8" font-family="Times,serif" font-size="14.00" fill="#000000">SidePanelActionComponent</text>
</g>
<!-- PanelModule -->
<g id="node4" class="node">
<title>PanelModule</title>
<polygon fill="#8dd3c7" stroke="#000000" points="383.1529,-187 380.1529,-191 359.1529,-191 356.1529,-187 292.8471,-187 292.8471,-151 383.1529,-151 383.1529,-187"/>
<text text-anchor="middle" x="338" y="-164.8" font-family="Times,serif" font-size="14.00" fill="#000000">PanelModule</text>
</g>
<!-- SidePanelActionComponent&#45;&gt;PanelModule -->
<g id="edge1" class="edge">
<title>SidePanelActionComponent&#45;&gt;PanelModule</title>
<path fill="none" stroke="#000000" d="M546.375,-122.0225C546.375,-139.3734 546.375,-163 546.375,-163 546.375,-163 393.2143,-163 393.2143,-163"/>
<polygon fill="#000000" stroke="#000000" points="393.2143,-159.5001 383.2143,-163 393.2142,-166.5001 393.2143,-159.5001"/>
</g>
<!-- SidePanelComponent -->
<g id="node2" class="node">
<title>SidePanelComponent</title>
<polygon fill="#ffffb3" stroke="#000000" points="469.823,-122 332.177,-122 332.177,-86 469.823,-86 469.823,-122"/>
<text text-anchor="middle" x="401" y="-99.8" font-family="Times,serif" font-size="14.00" fill="#000000">SidePanelComponent</text>
</g>
<!-- SidePanelComponent&#45;&gt;PanelModule -->
<g id="edge2" class="edge">
<title>SidePanelComponent&#45;&gt;PanelModule</title>
<path fill="none" stroke="#000000" d="M357.8324,-122.1061C357.8324,-122.1061 357.8324,-140.991 357.8324,-140.991"/>
<polygon fill="#000000" stroke="#000000" points="354.3325,-140.9909 357.8324,-150.991 361.3325,-140.991 354.3325,-140.9909"/>
</g>
<!-- SidePanelTitleComponent -->
<g id="node3" class="node">
<title>SidePanelTitleComponent</title>
<polygon fill="#ffffb3" stroke="#000000" points="313.7618,-122 150.2382,-122 150.2382,-86 313.7618,-86 313.7618,-122"/>
<text text-anchor="middle" x="232" y="-99.8" font-family="Times,serif" font-size="14.00" fill="#000000">SidePanelTitleComponent</text>
</g>
<!-- SidePanelTitleComponent&#45;&gt;PanelModule -->
<g id="edge3" class="edge">
<title>SidePanelTitleComponent&#45;&gt;PanelModule</title>
<path fill="none" stroke="#000000" d="M303.2773,-122.1061C303.2773,-122.1061 303.2773,-140.991 303.2773,-140.991"/>
<polygon fill="#000000" stroke="#000000" points="299.7774,-140.9909 303.2773,-150.991 306.7774,-140.991 299.7774,-140.9909"/>
</g>
<!-- SidePanelActionComponent  -->
<g id="node6" class="node">
<title>SidePanelActionComponent </title>
<polygon fill="#fb8072" stroke="#000000" points="605.425,-252 426.575,-252 426.575,-216 605.425,-216 605.425,-252"/>
<text text-anchor="middle" x="516" y="-229.8" font-family="Times,serif" font-size="14.00" fill="#000000">SidePanelActionComponent </text>
</g>
<!-- PanelModule&#45;&gt;SidePanelActionComponent  -->
<g id="edge5" class="edge">
<title>PanelModule&#45;&gt;SidePanelActionComponent </title>
<path fill="none" stroke="#000000" stroke-dasharray="5,2" d="M383.4173,-175C413.7454,-175 448.0994,-175 448.0994,-175 448.0994,-175 448.0994,-205.9775 448.0994,-205.9775"/>
<polygon fill="#000000" stroke="#000000" points="444.5995,-205.9774 448.0994,-215.9775 451.5995,-205.9775 444.5995,-205.9774"/>
</g>
<!-- SidePanelComponent  -->
<g id="node7" class="node">
<title>SidePanelComponent </title>
<polygon fill="#fb8072" stroke="#000000" points="408.3227,-252 267.6773,-252 267.6773,-216 408.3227,-216 408.3227,-252"/>
<text text-anchor="middle" x="338" y="-229.8" font-family="Times,serif" font-size="14.00" fill="#000000">SidePanelComponent </text>
</g>
<!-- PanelModule&#45;&gt;SidePanelComponent  -->
<g id="edge6" class="edge">
<title>PanelModule&#45;&gt;SidePanelComponent </title>
<path fill="none" stroke="#000000" stroke-dasharray="5,2" d="M338,-187.1061C338,-187.1061 338,-205.991 338,-205.991"/>
<polygon fill="#000000" stroke="#000000" points="334.5001,-205.9909 338,-215.991 341.5001,-205.991 334.5001,-205.9909"/>
</g>
<!-- SidePanelTitleComponent  -->
<g id="node8" class="node">
<title>SidePanelTitleComponent </title>
<polygon fill="#fb8072" stroke="#000000" points="249.7618,-252 82.2382,-252 82.2382,-216 249.7618,-216 249.7618,-252"/>
<text text-anchor="middle" x="166" y="-229.8" font-family="Times,serif" font-size="14.00" fill="#000000">SidePanelTitleComponent </text>
</g>
<!-- PanelModule&#45;&gt;SidePanelTitleComponent  -->
<g id="edge7" class="edge">
<title>PanelModule&#45;&gt;SidePanelTitleComponent </title>
<path fill="none" stroke="#000000" stroke-dasharray="5,2" d="M292.7727,-175C252.4896,-175 199.875,-175 199.875,-175 199.875,-175 199.875,-205.9775 199.875,-205.9775"/>
<polygon fill="#000000" stroke="#000000" points="196.3751,-205.9774 199.875,-215.9775 203.3751,-205.9775 196.3751,-205.9774"/>
</g>
<!-- DividerModule -->
<g id="node5" class="node">
<title>DividerModule</title>
<polygon fill="#8dd3c7" stroke="#000000" points="126.3133,-122 123.3133,-126 102.3133,-126 99.3133,-122 23.6867,-122 23.6867,-86 126.3133,-86 126.3133,-122"/>
<text text-anchor="middle" x="75" y="-99.8" font-family="Times,serif" font-size="14.00" fill="#000000">DividerModule</text>
</g>
<!-- DividerModule&#45;&gt;PanelModule -->
<g id="edge4" class="edge">
<title>DividerModule&#45;&gt;PanelModule</title>
<path fill="none" stroke="#000000" d="M104.2628,-122.0225C104.2628,-139.3734 104.2628,-163 104.2628,-163 104.2628,-163 282.656,-163 282.656,-163"/>
<polygon fill="#000000" stroke="#000000" points="282.656,-166.5001 292.656,-163 282.6559,-159.5001 282.656,-166.5001"/>
</g>
</g>
</svg>
