<?xml version="1.0" encoding="UTF-8" standalone="no"?>
<!DOCTYPE svg PUBLIC "-//W3C//DTD SVG 1.1//EN"
 "http://www.w3.org/Graphics/SVG/1.1/DTD/svg11.dtd">
<!-- Generated by graphviz version 2.40.1 (20161225.0304)
 -->
<!-- Title: dependencies Pages: 1 -->
<svg width="1759pt" height="284pt"
 viewBox="0.00 0.00 1759.00 284.00" xmlns="http://www.w3.org/2000/svg" xmlns:xlink="http://www.w3.org/1999/xlink">
<g id="graph0" class="graph" transform="scale(1 1) rotate(0) translate(4 280)">
<title>dependencies</title>
<polygon fill="#ffffff" stroke="transparent" points="-4,4 -4,-280 1755,-280 1755,4 -4,4"/>
<text text-anchor="start" x="854.5091" y="-42.4" font-family="sans-serif" font-weight="bold" font-size="14.00" fill="#000000">Legend</text>
<polygon fill="#ffffb3" stroke="transparent" points="641.5,-10 641.5,-30 661.5,-30 661.5,-10 641.5,-10"/>
<text text-anchor="start" x="665.129" y="-15.4" font-family="sans-serif" font-size="14.00" fill="#000000"> &#160;Declarations</text>
<polygon fill="#8dd3c7" stroke="transparent" points="754.5,-10 754.5,-30 774.5,-30 774.5,-10 754.5,-10"/>
<text text-anchor="start" x="778.2251" y="-15.4" font-family="sans-serif" font-size="14.00" fill="#000000"> &#160;Module</text>
<polygon fill="#80b1d3" stroke="transparent" points="840.5,-10 840.5,-30 860.5,-30 860.5,-10 840.5,-10"/>
<text text-anchor="start" x="864.2812" y="-15.4" font-family="sans-serif" font-size="14.00" fill="#000000"> &#160;Bootstrap</text>
<polygon fill="#fdb462" stroke="transparent" points="937.5,-10 937.5,-30 957.5,-30 957.5,-10 937.5,-10"/>
<text text-anchor="start" x="961.1732" y="-15.4" font-family="sans-serif" font-size="14.00" fill="#000000"> &#160;Providers</text>
<polygon fill="#fb8072" stroke="transparent" points="1033.5,-10 1033.5,-30 1053.5,-30 1053.5,-10 1033.5,-10"/>
<text text-anchor="start" x="1057.2258" y="-15.4" font-family="sans-serif" font-size="14.00" fill="#000000"> &#160;Exports</text>
<g id="clust1" class="cluster">
<title>cluster_SearchAutocompleteModule</title>
<polygon fill="none" stroke="#000000" stroke-dasharray="1,5" points="8,-70 8,-268 1743,-268 1743,-70 8,-70"/>
</g>
<g id="clust2" class="cluster">
<title>cluster_SearchAutocompleteModule_declarations</title>
<polygon fill="none" stroke="#000000" points="473,-78 473,-130 1735,-130 1735,-78 473,-78"/>
</g>
<g id="clust8" class="cluster">
<title>cluster_SearchAutocompleteModule_imports</title>
<polygon fill="none" stroke="#000000" points="16,-78 16,-130 465,-130 465,-78 16,-78"/>
</g>
<g id="clust9" class="cluster">
<title>cluster_SearchAutocompleteModule_exports</title>
<polygon fill="none" stroke="#000000" points="16,-208 16,-260 1295,-260 1295,-208 16,-208"/>
</g>
<!-- SearchAutocompleteComponent -->
<g id="node1" class="node">
<title>SearchAutocompleteComponent</title>
<polygon fill="#ffffb3" stroke="#000000" points="1727.2324,-122 1528.7676,-122 1528.7676,-86 1727.2324,-86 1727.2324,-122"/>
<text text-anchor="middle" x="1628" y="-99.8" font-family="Times,serif" font-size="14.00" fill="#000000">SearchAutocompleteComponent</text>
</g>
<!-- SearchAutocompleteModule -->
<g id="node6" class="node">
<title>SearchAutocompleteModule</title>
<polygon fill="#8dd3c7" stroke="#000000" points="733.4496,-187 730.4496,-191 709.4496,-191 706.4496,-187 556.5504,-187 556.5504,-151 733.4496,-151 733.4496,-187"/>
<text text-anchor="middle" x="645" y="-164.8" font-family="Times,serif" font-size="14.00" fill="#000000">SearchAutocompleteModule</text>
</g>
<!-- SearchAutocompleteComponent&#45;&gt;SearchAutocompleteModule -->
<g id="edge1" class="edge">
<title>SearchAutocompleteComponent&#45;&gt;SearchAutocompleteModule</title>
<path fill="none" stroke="#000000" d="M1628,-122.1061C1628,-141.3391 1628,-169 1628,-169 1628,-169 743.5337,-169 743.5337,-169"/>
<polygon fill="#000000" stroke="#000000" points="743.5337,-165.5001 733.5337,-169 743.5336,-172.5001 743.5337,-165.5001"/>
</g>
<!-- SearchAutocompleteDividerComponent -->
<g id="node2" class="node">
<title>SearchAutocompleteDividerComponent</title>
<polygon fill="#ffffb3" stroke="#000000" points="1510.9957,-122 1269.0043,-122 1269.0043,-86 1510.9957,-86 1510.9957,-122"/>
<text text-anchor="middle" x="1390" y="-99.8" font-family="Times,serif" font-size="14.00" fill="#000000">SearchAutocompleteDividerComponent</text>
</g>
<!-- SearchAutocompleteDividerComponent&#45;&gt;SearchAutocompleteModule -->
<g id="edge2" class="edge">
<title>SearchAutocompleteDividerComponent&#45;&gt;SearchAutocompleteModule</title>
<path fill="none" stroke="#000000" d="M1278.1843,-122.0225C1278.1843,-139.3734 1278.1843,-163 1278.1843,-163 1278.1843,-163 743.7083,-163 743.7083,-163"/>
<polygon fill="#000000" stroke="#000000" points="743.7083,-159.5001 733.7083,-163 743.7082,-166.5001 743.7083,-159.5001"/>
</g>
<!-- SearchAutocompleteItemComponent -->
<g id="node3" class="node">
<title>SearchAutocompleteItemComponent</title>
<polygon fill="#ffffb3" stroke="#000000" points="1251.3889,-122 1026.6111,-122 1026.6111,-86 1251.3889,-86 1251.3889,-122"/>
<text text-anchor="middle" x="1139" y="-99.8" font-family="Times,serif" font-size="14.00" fill="#000000">SearchAutocompleteItemComponent</text>
</g>
<!-- SearchAutocompleteItemComponent&#45;&gt;SearchAutocompleteModule -->
<g id="edge3" class="edge">
<title>SearchAutocompleteItemComponent&#45;&gt;SearchAutocompleteModule</title>
<path fill="none" stroke="#000000" d="M1046.6517,-122.2396C1046.6517,-137.5706 1046.6517,-157 1046.6517,-157 1046.6517,-157 743.6414,-157 743.6414,-157"/>
<polygon fill="#000000" stroke="#000000" points="743.6414,-153.5001 733.6414,-157 743.6414,-160.5001 743.6414,-153.5001"/>
</g>
<!-- SearchAutocompleteItemContentComponent -->
<g id="node4" class="node">
<title>SearchAutocompleteItemContentComponent</title>
<polygon fill="#ffffb3" stroke="#000000" points="1008.2211,-122 739.7789,-122 739.7789,-86 1008.2211,-86 1008.2211,-122"/>
<text text-anchor="middle" x="874" y="-99.8" font-family="Times,serif" font-size="14.00" fill="#000000">SearchAutocompleteItemContentComponent</text>
</g>
<!-- SearchAutocompleteItemContentComponent&#45;&gt;SearchAutocompleteModule -->
<g id="edge4" class="edge">
<title>SearchAutocompleteItemContentComponent&#45;&gt;SearchAutocompleteModule</title>
<path fill="none" stroke="#000000" d="M739.6608,-104C732.0457,-104 727.4152,-104 727.4152,-104 727.4152,-104 727.4152,-140.8939 727.4152,-140.8939"/>
<polygon fill="#000000" stroke="#000000" points="723.9153,-140.8938 727.4152,-150.8939 730.9153,-140.8939 723.9153,-140.8938"/>
</g>
<!-- SearchAutocompleteTriggerComponent -->
<g id="node5" class="node">
<title>SearchAutocompleteTriggerComponent</title>
<polygon fill="#ffffb3" stroke="#000000" points="721.2114,-122 480.7886,-122 480.7886,-86 721.2114,-86 721.2114,-122"/>
<text text-anchor="middle" x="601" y="-99.8" font-family="Times,serif" font-size="14.00" fill="#000000">SearchAutocompleteTriggerComponent</text>
</g>
<!-- SearchAutocompleteTriggerComponent&#45;&gt;SearchAutocompleteModule -->
<g id="edge5" class="edge">
<title>SearchAutocompleteTriggerComponent&#45;&gt;SearchAutocompleteModule</title>
<path fill="none" stroke="#000000" d="M638.9404,-122.1061C638.9404,-122.1061 638.9404,-140.991 638.9404,-140.991"/>
<polygon fill="#000000" stroke="#000000" points="635.4405,-140.9909 638.9404,-150.991 642.4405,-140.991 635.4405,-140.9909"/>
</g>
<!-- SearchAutocompleteComponent  -->
<g id="node11" class="node">
<title>SearchAutocompleteComponent </title>
<polygon fill="#fb8072" stroke="#000000" points="1287.2323,-252 1084.7677,-252 1084.7677,-216 1287.2323,-216 1287.2323,-252"/>
<text text-anchor="middle" x="1186" y="-229.8" font-family="Times,serif" font-size="14.00" fill="#000000">SearchAutocompleteComponent </text>
</g>
<!-- SearchAutocompleteModule&#45;&gt;SearchAutocompleteComponent  -->
<g id="edge10" class="edge">
<title>SearchAutocompleteModule&#45;&gt;SearchAutocompleteComponent </title>
<path fill="none" stroke="#000000" stroke-dasharray="5,2" d="M733.7265,-175C882.9518,-175 1168.0391,-175 1168.0391,-175 1168.0391,-175 1168.0391,-205.9775 1168.0391,-205.9775"/>
<polygon fill="#000000" stroke="#000000" points="1164.5392,-205.9774 1168.0391,-215.9775 1171.5392,-205.9775 1164.5392,-205.9774"/>
</g>
<!-- SearchAutocompleteDividerComponent  -->
<g id="node12" class="node">
<title>SearchAutocompleteDividerComponent </title>
<polygon fill="#fb8072" stroke="#000000" points="1066.4952,-252 821.5048,-252 821.5048,-216 1066.4952,-216 1066.4952,-252"/>
<text text-anchor="middle" x="944" y="-229.8" font-family="Times,serif" font-size="14.00" fill="#000000">SearchAutocompleteDividerComponent </text>
</g>
<!-- SearchAutocompleteModule&#45;&gt;SearchAutocompleteDividerComponent  -->
<g id="edge11" class="edge">
<title>SearchAutocompleteModule&#45;&gt;SearchAutocompleteDividerComponent </title>
<path fill="none" stroke="#000000" stroke-dasharray="5,2" d="M733.7595,-181C812.4342,-181 914.9315,-181 914.9315,-181 914.9315,-181 914.9315,-205.7604 914.9315,-205.7604"/>
<polygon fill="#000000" stroke="#000000" points="911.4315,-205.7604 914.9315,-215.7604 918.4315,-205.7604 911.4315,-205.7604"/>
</g>
<!-- SearchAutocompleteItemComponent  -->
<g id="node13" class="node">
<title>SearchAutocompleteItemComponent </title>
<polygon fill="#fb8072" stroke="#000000" points="803.8886,-252 576.1114,-252 576.1114,-216 803.8886,-216 803.8886,-252"/>
<text text-anchor="middle" x="690" y="-229.8" font-family="Times,serif" font-size="14.00" fill="#000000">SearchAutocompleteItemComponent </text>
</g>
<!-- SearchAutocompleteModule&#45;&gt;SearchAutocompleteItemComponent  -->
<g id="edge12" class="edge">
<title>SearchAutocompleteModule&#45;&gt;SearchAutocompleteItemComponent </title>
<path fill="none" stroke="#000000" stroke-dasharray="5,2" d="M654.7652,-187.1061C654.7652,-187.1061 654.7652,-205.991 654.7652,-205.991"/>
<polygon fill="#000000" stroke="#000000" points="651.2653,-205.9909 654.7652,-215.991 658.2653,-205.991 651.2653,-205.9909"/>
</g>
<!-- SearchAutocompleteItemContentComponent  -->
<g id="node14" class="node">
<title>SearchAutocompleteItemContentComponent </title>
<polygon fill="#fb8072" stroke="#000000" points="558.2211,-252 285.7789,-252 285.7789,-216 558.2211,-216 558.2211,-252"/>
<text text-anchor="middle" x="422" y="-229.8" font-family="Times,serif" font-size="14.00" fill="#000000">SearchAutocompleteItemContentComponent </text>
</g>
<!-- SearchAutocompleteModule&#45;&gt;SearchAutocompleteItemContentComponent  -->
<g id="edge13" class="edge">
<title>SearchAutocompleteModule&#45;&gt;SearchAutocompleteItemContentComponent </title>
<path fill="none" stroke="#000000" stroke-dasharray="5,2" d="M567.0831,-187.1061C567.0831,-206.3391 567.0831,-234 567.0831,-234 567.0831,-234 566.219,-234 566.219,-234"/>
<polygon fill="#000000" stroke="#000000" points="568.442,-230.5001 558.442,-234 568.4419,-237.5001 568.442,-230.5001"/>
</g>
<!-- SearchAutocompleteTriggerComponent  -->
<g id="node15" class="node">
<title>SearchAutocompleteTriggerComponent </title>
<polygon fill="#fb8072" stroke="#000000" points="268.2113,-252 23.7887,-252 23.7887,-216 268.2113,-216 268.2113,-252"/>
<text text-anchor="middle" x="146" y="-229.8" font-family="Times,serif" font-size="14.00" fill="#000000">SearchAutocompleteTriggerComponent </text>
</g>
<!-- SearchAutocompleteModule&#45;&gt;SearchAutocompleteTriggerComponent  -->
<g id="edge14" class="edge">
<title>SearchAutocompleteModule&#45;&gt;SearchAutocompleteTriggerComponent </title>
<path fill="none" stroke="#000000" stroke-dasharray="5,2" d="M556.3837,-181C441.1624,-181 254.4746,-181 254.4746,-181 254.4746,-181 254.4746,-205.7604 254.4746,-205.7604"/>
<polygon fill="#000000" stroke="#000000" points="250.9747,-205.7604 254.4746,-215.7604 257.9747,-205.7604 250.9747,-205.7604"/>
</g>
<!-- BadgeModule -->
<g id="node7" class="node">
<title>BadgeModule</title>
<polygon fill="#8dd3c7" stroke="#000000" points="456.8161,-122 453.8161,-126 432.8161,-126 429.8161,-122 361.1839,-122 361.1839,-86 456.8161,-86 456.8161,-122"/>
<text text-anchor="middle" x="409" y="-99.8" font-family="Times,serif" font-size="14.00" fill="#000000">BadgeModule</text>
</g>
<!-- BadgeModule&#45;&gt;SearchAutocompleteModule -->
<g id="edge6" class="edge">
<title>BadgeModule&#45;&gt;SearchAutocompleteModule</title>
<path fill="none" stroke="#000000" d="M409,-122.2396C409,-137.5706 409,-157 409,-157 409,-157 546.4509,-157 546.4509,-157"/>
<polygon fill="#000000" stroke="#000000" points="546.4509,-160.5001 556.4509,-157 546.4508,-153.5001 546.4509,-160.5001"/>
</g>
<!-- DividerModule -->
<g id="node8" class="node">
<title>DividerModule</title>
<polygon fill="#8dd3c7" stroke="#000000" points="343.3133,-122 340.3133,-126 319.3133,-126 316.3133,-122 240.6867,-122 240.6867,-86 343.3133,-86 343.3133,-122"/>
<text text-anchor="middle" x="292" y="-99.8" font-family="Times,serif" font-size="14.00" fill="#000000">DividerModule</text>
</g>
<!-- DividerModule&#45;&gt;SearchAutocompleteModule -->
<g id="edge7" class="edge">
<title>DividerModule&#45;&gt;SearchAutocompleteModule</title>
<path fill="none" stroke="#000000" d="M314.523,-122.0225C314.523,-139.3734 314.523,-163 314.523,-163 314.523,-163 546.4382,-163 546.4382,-163"/>
<polygon fill="#000000" stroke="#000000" points="546.4383,-166.5001 556.4382,-163 546.4382,-159.5001 546.4383,-166.5001"/>
</g>
<!-- InputsModule -->
<g id="node9" class="node">
<title>InputsModule</title>
<polygon fill="#8dd3c7" stroke="#000000" points="223.0467,-122 220.0467,-126 199.0467,-126 196.0467,-122 128.9533,-122 128.9533,-86 223.0467,-86 223.0467,-122"/>
<text text-anchor="middle" x="176" y="-99.8" font-family="Times,serif" font-size="14.00" fill="#000000">InputsModule</text>
</g>
<!-- InputsModule&#45;&gt;SearchAutocompleteModule -->
<g id="edge8" class="edge">
<title>InputsModule&#45;&gt;SearchAutocompleteModule</title>
<path fill="none" stroke="#000000" d="M176,-122.1061C176,-141.3391 176,-169 176,-169 176,-169 546.5092,-169 546.5092,-169"/>
<polygon fill="#000000" stroke="#000000" points="546.5092,-172.5001 556.5092,-169 546.5091,-165.5001 546.5092,-172.5001"/>
</g>
<!-- UtilsModule -->
<g id="node10" class="node">
<title>UtilsModule</title>
<polygon fill="#8dd3c7" stroke="#000000" points="110.2731,-122 107.2731,-126 86.2731,-126 83.2731,-122 23.7269,-122 23.7269,-86 110.2731,-86 110.2731,-122"/>
<text text-anchor="middle" x="67" y="-99.8" font-family="Times,serif" font-size="14.00" fill="#000000">UtilsModule</text>
</g>
<!-- UtilsModule&#45;&gt;SearchAutocompleteModule -->
<g id="edge9" class="edge">
<title>UtilsModule&#45;&gt;SearchAutocompleteModule</title>
<path fill="none" stroke="#000000" d="M67.1404,-122.2843C67.1404,-143.3211 67.1404,-175 67.1404,-175 67.1404,-175 546.2914,-175 546.2914,-175"/>
<polygon fill="#000000" stroke="#000000" points="546.2914,-178.5001 556.2914,-175 546.2914,-171.5001 546.2914,-178.5001"/>
</g>
</g>
</svg>
