<?xml version="1.0" encoding="UTF-8" standalone="no"?>
<!DOCTYPE svg PUBLIC "-//W3C//DTD SVG 1.1//EN"
 "http://www.w3.org/Graphics/SVG/1.1/DTD/svg11.dtd">
<!-- Generated by graphviz version 2.40.1 (20161225.0304)
 -->
<!-- Title: dependencies Pages: 1 -->
<svg width="504pt" height="284pt"
 viewBox="0.00 0.00 504.00 284.00" xmlns="http://www.w3.org/2000/svg" xmlns:xlink="http://www.w3.org/1999/xlink">
<g id="graph0" class="graph" transform="scale(1 1) rotate(0) translate(4 280)">
<title>dependencies</title>
<polygon fill="#ffffff" stroke="transparent" points="-4,4 -4,-280 500,-280 500,4 -4,4"/>
<text text-anchor="start" x="227.0091" y="-42.4" font-family="sans-serif" font-weight="bold" font-size="14.00" fill="#000000">Legend</text>
<polygon fill="#ffffb3" stroke="transparent" points="14,-10 14,-30 34,-30 34,-10 14,-10"/>
<text text-anchor="start" x="37.629" y="-15.4" font-family="sans-serif" font-size="14.00" fill="#000000"> &#160;Declarations</text>
<polygon fill="#8dd3c7" stroke="transparent" points="127,-10 127,-30 147,-30 147,-10 127,-10"/>
<text text-anchor="start" x="150.7251" y="-15.4" font-family="sans-serif" font-size="14.00" fill="#000000"> &#160;Module</text>
<polygon fill="#80b1d3" stroke="transparent" points="213,-10 213,-30 233,-30 233,-10 213,-10"/>
<text text-anchor="start" x="236.7812" y="-15.4" font-family="sans-serif" font-size="14.00" fill="#000000"> &#160;Bootstrap</text>
<polygon fill="#fdb462" stroke="transparent" points="310,-10 310,-30 330,-30 330,-10 310,-10"/>
<text text-anchor="start" x="333.6732" y="-15.4" font-family="sans-serif" font-size="14.00" fill="#000000"> &#160;Providers</text>
<polygon fill="#fb8072" stroke="transparent" points="406,-10 406,-30 426,-30 426,-10 406,-10"/>
<text text-anchor="start" x="429.7258" y="-15.4" font-family="sans-serif" font-size="14.00" fill="#000000"> &#160;Exports</text>
<g id="clust1" class="cluster">
<title>cluster_ImageModule</title>
<polygon fill="none" stroke="#000000" stroke-dasharray="1,5" points="11,-70 11,-268 485,-268 485,-70 11,-70"/>
</g>
<g id="clust2" class="cluster">
<title>cluster_ImageModule_declarations</title>
<polygon fill="none" stroke="#000000" points="28,-78 28,-130 471,-130 471,-78 28,-78"/>
</g>
<g id="clust8" class="cluster">
<title>cluster_ImageModule_exports</title>
<polygon fill="none" stroke="#000000" points="19,-208 19,-260 477,-260 477,-208 19,-208"/>
</g>
<!-- ImageComponent -->
<g id="node1" class="node">
<title>ImageComponent</title>
<polygon fill="#ffffb3" stroke="#000000" points="463.3132,-122 346.6868,-122 346.6868,-86 463.3132,-86 463.3132,-122"/>
<text text-anchor="middle" x="405" y="-99.8" font-family="Times,serif" font-size="14.00" fill="#000000">ImageComponent</text>
</g>
<!-- ImageModule -->
<g id="node5" class="node">
<title>ImageModule</title>
<polygon fill="#8dd3c7" stroke="#000000" points="229.0314,-187 226.0314,-191 205.0314,-191 202.0314,-187 134.9686,-187 134.9686,-151 229.0314,-151 229.0314,-187"/>
<text text-anchor="middle" x="182" y="-164.8" font-family="Times,serif" font-size="14.00" fill="#000000">ImageModule</text>
</g>
<!-- ImageComponent&#45;&gt;ImageModule -->
<g id="edge1" class="edge">
<title>ImageComponent&#45;&gt;ImageModule</title>
<path fill="none" stroke="#000000" d="M425.1355,-122.2667C425.1355,-140.5552 425.1355,-166 425.1355,-166 425.1355,-166 239.1673,-166 239.1673,-166"/>
<polygon fill="#000000" stroke="#000000" points="239.1673,-162.5001 229.1673,-166 239.1672,-169.5001 239.1673,-162.5001"/>
</g>
<!-- ImagePipe -->
<g id="node2" class="node">
<title>ImagePipe</title>
<polygon fill="#ffffb3" stroke="#000000" points="328.8683,-122 253.1317,-122 253.1317,-86 328.8683,-86 328.8683,-122"/>
<text text-anchor="middle" x="291" y="-99.8" font-family="Times,serif" font-size="14.00" fill="#000000">ImagePipe</text>
</g>
<!-- ImagePipe&#45;&gt;ImageModule -->
<g id="edge2" class="edge">
<title>ImagePipe&#45;&gt;ImageModule</title>
<path fill="none" stroke="#000000" d="M303.6447,-122.0091C303.6447,-138.0494 303.6447,-159 303.6447,-159 303.6447,-159 239.3793,-159 239.3793,-159"/>
<polygon fill="#000000" stroke="#000000" points="239.3794,-155.5001 229.3793,-159 239.3793,-162.5001 239.3794,-155.5001"/>
</g>
<!-- LogoComponent -->
<g id="node3" class="node">
<title>LogoComponent</title>
<polygon fill="#ffffb3" stroke="#000000" points="235.3851,-122 124.6149,-122 124.6149,-86 235.3851,-86 235.3851,-122"/>
<text text-anchor="middle" x="180" y="-99.8" font-family="Times,serif" font-size="14.00" fill="#000000">LogoComponent</text>
</g>
<!-- LogoComponent&#45;&gt;ImageModule -->
<g id="edge3" class="edge">
<title>LogoComponent&#45;&gt;ImageModule</title>
<path fill="none" stroke="#000000" d="M182,-122.1061C182,-122.1061 182,-140.991 182,-140.991"/>
<polygon fill="#000000" stroke="#000000" points="178.5001,-140.9909 182,-150.991 185.5001,-140.991 178.5001,-140.9909"/>
</g>
<!-- LogoPipe -->
<g id="node4" class="node">
<title>LogoPipe</title>
<polygon fill="#ffffb3" stroke="#000000" points="106.4418,-122 35.5582,-122 35.5582,-86 106.4418,-86 106.4418,-122"/>
<text text-anchor="middle" x="71" y="-99.8" font-family="Times,serif" font-size="14.00" fill="#000000">LogoPipe</text>
</g>
<!-- LogoPipe&#45;&gt;ImageModule -->
<g id="edge4" class="edge">
<title>LogoPipe&#45;&gt;ImageModule</title>
<path fill="none" stroke="#000000" d="M79.2401,-122.0225C79.2401,-139.3734 79.2401,-163 79.2401,-163 79.2401,-163 124.8306,-163 124.8306,-163"/>
<polygon fill="#000000" stroke="#000000" points="124.8306,-166.5001 134.8306,-163 124.8306,-159.5001 124.8306,-166.5001"/>
</g>
<!-- ImageComponent  -->
<g id="node6" class="node">
<title>ImageComponent </title>
<polygon fill="#fb8072" stroke="#000000" points="468.8129,-252 349.1871,-252 349.1871,-216 468.8129,-216 468.8129,-252"/>
<text text-anchor="middle" x="409" y="-229.8" font-family="Times,serif" font-size="14.00" fill="#000000">ImageComponent </text>
</g>
<!-- ImageModule&#45;&gt;ImageComponent  -->
<g id="edge5" class="edge">
<title>ImageModule&#45;&gt;ImageComponent </title>
<path fill="none" stroke="#000000" stroke-dasharray="5,2" d="M229.0574,-173C289.6142,-173 387.1145,-173 387.1145,-173 387.1145,-173 387.1145,-205.698 387.1145,-205.698"/>
<polygon fill="#000000" stroke="#000000" points="383.6146,-205.698 387.1145,-215.698 390.6146,-205.698 383.6146,-205.698"/>
</g>
<!-- ImagePipe  -->
<g id="node7" class="node">
<title>ImagePipe </title>
<polygon fill="#fb8072" stroke="#000000" points="330.8691,-252 251.1309,-252 251.1309,-216 330.8691,-216 330.8691,-252"/>
<text text-anchor="middle" x="291" y="-229.8" font-family="Times,serif" font-size="14.00" fill="#000000">ImagePipe </text>
</g>
<!-- ImageModule&#45;&gt;ImagePipe  -->
<g id="edge6" class="edge">
<title>ImageModule&#45;&gt;ImagePipe </title>
<path fill="none" stroke="#000000" stroke-dasharray="5,2" d="M229.0486,-180C253.5078,-180 278.3553,-180 278.3553,-180 278.3553,-180 278.3553,-205.7181 278.3553,-205.7181"/>
<polygon fill="#000000" stroke="#000000" points="274.8554,-205.718 278.3553,-215.7181 281.8554,-205.7181 274.8554,-205.718"/>
</g>
<!-- LogoComponent  -->
<g id="node8" class="node">
<title>LogoComponent </title>
<polygon fill="#fb8072" stroke="#000000" points="233.3857,-252 118.6143,-252 118.6143,-216 233.3857,-216 233.3857,-252"/>
<text text-anchor="middle" x="176" y="-229.8" font-family="Times,serif" font-size="14.00" fill="#000000">LogoComponent </text>
</g>
<!-- ImageModule&#45;&gt;LogoComponent  -->
<g id="edge7" class="edge">
<title>ImageModule&#45;&gt;LogoComponent </title>
<path fill="none" stroke="#000000" stroke-dasharray="5,2" d="M182,-187.1061C182,-187.1061 182,-205.991 182,-205.991"/>
<polygon fill="#000000" stroke="#000000" points="178.5001,-205.9909 182,-215.991 185.5001,-205.991 178.5001,-205.9909"/>
</g>
<!-- LogoPipe  -->
<g id="node9" class="node">
<title>LogoPipe </title>
<polygon fill="#fb8072" stroke="#000000" points="100.9404,-252 27.0596,-252 27.0596,-216 100.9404,-216 100.9404,-252"/>
<text text-anchor="middle" x="64" y="-229.8" font-family="Times,serif" font-size="14.00" fill="#000000">LogoPipe </text>
</g>
<!-- ImageModule&#45;&gt;LogoPipe  -->
<g id="edge8" class="edge">
<title>ImageModule&#45;&gt;LogoPipe </title>
<path fill="none" stroke="#000000" stroke-dasharray="5,2" d="M134.9356,-175C99.6822,-175 57.5099,-175 57.5099,-175 57.5099,-175 57.5099,-205.9775 57.5099,-205.9775"/>
<polygon fill="#000000" stroke="#000000" points="54.01,-205.9774 57.5099,-215.9775 61.01,-205.9775 54.01,-205.9774"/>
</g>
</g>
</svg>
