<?xml version="1.0" encoding="UTF-8" standalone="no"?>
<!DOCTYPE svg PUBLIC "-//W3C//DTD SVG 1.1//EN"
 "http://www.w3.org/Graphics/SVG/1.1/DTD/svg11.dtd">
<!-- Generated by graphviz version 2.40.1 (20161225.0304)
 -->
<!-- Title: dependencies Pages: 1 -->
<svg width="1302pt" height="284pt"
 viewBox="0.00 0.00 1302.00 284.00" xmlns="http://www.w3.org/2000/svg" xmlns:xlink="http://www.w3.org/1999/xlink">
<g id="graph0" class="graph" transform="scale(1 1) rotate(0) translate(4 280)">
<title>dependencies</title>
<polygon fill="#ffffff" stroke="transparent" points="-4,4 -4,-280 1298,-280 1298,4 -4,4"/>
<text text-anchor="start" x="626.0091" y="-42.4" font-family="sans-serif" font-weight="bold" font-size="14.00" fill="#000000">Legend</text>
<polygon fill="#ffffb3" stroke="transparent" points="413,-10 413,-30 433,-30 433,-10 413,-10"/>
<text text-anchor="start" x="436.629" y="-15.4" font-family="sans-serif" font-size="14.00" fill="#000000"> &#160;Declarations</text>
<polygon fill="#8dd3c7" stroke="transparent" points="526,-10 526,-30 546,-30 546,-10 526,-10"/>
<text text-anchor="start" x="549.7251" y="-15.4" font-family="sans-serif" font-size="14.00" fill="#000000"> &#160;Module</text>
<polygon fill="#80b1d3" stroke="transparent" points="612,-10 612,-30 632,-30 632,-10 612,-10"/>
<text text-anchor="start" x="635.7812" y="-15.4" font-family="sans-serif" font-size="14.00" fill="#000000"> &#160;Bootstrap</text>
<polygon fill="#fdb462" stroke="transparent" points="709,-10 709,-30 729,-30 729,-10 709,-10"/>
<text text-anchor="start" x="732.6732" y="-15.4" font-family="sans-serif" font-size="14.00" fill="#000000"> &#160;Providers</text>
<polygon fill="#fb8072" stroke="transparent" points="805,-10 805,-30 825,-30 825,-10 805,-10"/>
<text text-anchor="start" x="828.7258" y="-15.4" font-family="sans-serif" font-size="14.00" fill="#000000"> &#160;Exports</text>
<g id="clust1" class="cluster">
<title>cluster_WorkflowModule</title>
<polygon fill="none" stroke="#000000" stroke-dasharray="1,5" points="8,-70 8,-268 1286,-268 1286,-70 8,-70"/>
</g>
<g id="clust2" class="cluster">
<title>cluster_WorkflowModule_declarations</title>
<polygon fill="none" stroke="#000000" points="748,-78 748,-130 1278,-130 1278,-78 748,-78"/>
</g>
<g id="clust6" class="cluster">
<title>cluster_WorkflowModule_imports</title>
<polygon fill="none" stroke="#000000" points="180,-78 180,-130 740,-130 740,-78 180,-78"/>
</g>
<g id="clust7" class="cluster">
<title>cluster_WorkflowModule_exports</title>
<polygon fill="none" stroke="#000000" points="297,-208 297,-260 837,-260 837,-208 297,-208"/>
</g>
<g id="clust9" class="cluster">
<title>cluster_WorkflowModule_providers</title>
<polygon fill="none" stroke="#000000" points="16,-78 16,-130 172,-130 172,-78 16,-78"/>
</g>
<!-- KanbanColComponent -->
<g id="node1" class="node">
<title>KanbanColComponent</title>
<polygon fill="#ffffb3" stroke="#000000" points="1269.5954,-122 1124.4046,-122 1124.4046,-86 1269.5954,-86 1269.5954,-122"/>
<text text-anchor="middle" x="1197" y="-99.8" font-family="Times,serif" font-size="14.00" fill="#000000">KanbanColComponent</text>
</g>
<!-- WorkflowModule -->
<g id="node4" class="node">
<title>WorkflowModule</title>
<polygon fill="#8dd3c7" stroke="#000000" points="644.5828,-187 641.5828,-191 620.5828,-191 617.5828,-187 527.4172,-187 527.4172,-151 644.5828,-151 644.5828,-187"/>
<text text-anchor="middle" x="586" y="-164.8" font-family="Times,serif" font-size="14.00" fill="#000000">WorkflowModule</text>
</g>
<!-- KanbanColComponent&#45;&gt;WorkflowModule -->
<g id="edge1" class="edge">
<title>KanbanColComponent&#45;&gt;WorkflowModule</title>
<path fill="none" stroke="#000000" d="M1197,-122.1289C1197,-142.5724 1197,-173 1197,-173 1197,-173 654.5852,-173 654.5852,-173"/>
<polygon fill="#000000" stroke="#000000" points="654.5853,-169.5001 644.5852,-173 654.5852,-176.5001 654.5853,-169.5001"/>
</g>
<!-- KanbanItemComponent -->
<g id="node2" class="node">
<title>KanbanItemComponent</title>
<polygon fill="#ffffb3" stroke="#000000" points="1106.0253,-122 955.9747,-122 955.9747,-86 1106.0253,-86 1106.0253,-122"/>
<text text-anchor="middle" x="1031" y="-99.8" font-family="Times,serif" font-size="14.00" fill="#000000">KanbanItemComponent</text>
</g>
<!-- KanbanItemComponent&#45;&gt;WorkflowModule -->
<g id="edge2" class="edge">
<title>KanbanItemComponent&#45;&gt;WorkflowModule</title>
<path fill="none" stroke="#000000" d="M1031,-122.2667C1031,-140.5552 1031,-166 1031,-166 1031,-166 654.6336,-166 654.6336,-166"/>
<polygon fill="#000000" stroke="#000000" points="654.6336,-162.5001 644.6336,-166 654.6335,-169.5001 654.6336,-162.5001"/>
</g>
<!-- WorkflowKanbanComponent -->
<g id="node3" class="node">
<title>WorkflowKanbanComponent</title>
<polygon fill="#ffffb3" stroke="#000000" points="938.4016,-122 755.5984,-122 755.5984,-86 938.4016,-86 938.4016,-122"/>
<text text-anchor="middle" x="847" y="-99.8" font-family="Times,serif" font-size="14.00" fill="#000000">WorkflowKanbanComponent</text>
</g>
<!-- WorkflowKanbanComponent&#45;&gt;WorkflowModule -->
<g id="edge3" class="edge">
<title>WorkflowKanbanComponent&#45;&gt;WorkflowModule</title>
<path fill="none" stroke="#000000" d="M792.5486,-122.0091C792.5486,-138.0494 792.5486,-159 792.5486,-159 792.5486,-159 654.636,-159 654.636,-159"/>
<polygon fill="#000000" stroke="#000000" points="654.6361,-155.5001 644.636,-159 654.636,-162.5001 654.6361,-155.5001"/>
</g>
<!-- KanbanColComponent  -->
<g id="node10" class="node">
<title>KanbanColComponent </title>
<polygon fill="#fb8072" stroke="#000000" points="829.0959,-252 680.9041,-252 680.9041,-216 829.0959,-216 829.0959,-252"/>
<text text-anchor="middle" x="755" y="-229.8" font-family="Times,serif" font-size="14.00" fill="#000000">KanbanColComponent </text>
</g>
<!-- WorkflowModule&#45;&gt;KanbanColComponent  -->
<g id="edge9" class="edge">
<title>WorkflowModule&#45;&gt;KanbanColComponent </title>
<path fill="none" stroke="#000000" stroke-dasharray="5,2" d="M644.8583,-180C675.4571,-180 706.5416,-180 706.5416,-180 706.5416,-180 706.5416,-205.7181 706.5416,-205.7181"/>
<polygon fill="#000000" stroke="#000000" points="703.0416,-205.718 706.5416,-215.7181 710.0416,-205.7181 703.0416,-205.718"/>
</g>
<!-- KanbanItemComponent  -->
<g id="node11" class="node">
<title>KanbanItemComponent </title>
<polygon fill="#fb8072" stroke="#000000" points="663.0246,-252 508.9754,-252 508.9754,-216 663.0246,-216 663.0246,-252"/>
<text text-anchor="middle" x="586" y="-229.8" font-family="Times,serif" font-size="14.00" fill="#000000">KanbanItemComponent </text>
</g>
<!-- WorkflowModule&#45;&gt;KanbanItemComponent  -->
<g id="edge10" class="edge">
<title>WorkflowModule&#45;&gt;KanbanItemComponent </title>
<path fill="none" stroke="#000000" stroke-dasharray="5,2" d="M586,-187.1061C586,-187.1061 586,-205.991 586,-205.991"/>
<polygon fill="#000000" stroke="#000000" points="582.5001,-205.9909 586,-215.991 589.5001,-205.991 582.5001,-205.9909"/>
</g>
<!-- WorkflowKanbanComponent  -->
<g id="node12" class="node">
<title>WorkflowKanbanComponent </title>
<polygon fill="#fb8072" stroke="#000000" points="490.9012,-252 305.0988,-252 305.0988,-216 490.9012,-216 490.9012,-252"/>
<text text-anchor="middle" x="398" y="-229.8" font-family="Times,serif" font-size="14.00" fill="#000000">WorkflowKanbanComponent </text>
</g>
<!-- WorkflowModule&#45;&gt;WorkflowKanbanComponent  -->
<g id="edge11" class="edge">
<title>WorkflowModule&#45;&gt;WorkflowKanbanComponent </title>
<path fill="none" stroke="#000000" stroke-dasharray="5,2" d="M527.2654,-180C495.8285,-180 463.5079,-180 463.5079,-180 463.5079,-180 463.5079,-205.7181 463.5079,-205.7181"/>
<polygon fill="#000000" stroke="#000000" points="460.008,-205.718 463.5079,-215.7181 467.008,-205.7181 460.008,-205.718"/>
</g>
<!-- CardModule -->
<g id="node5" class="node">
<title>CardModule</title>
<polygon fill="#8dd3c7" stroke="#000000" points="732.2619,-122 729.2619,-126 708.2619,-126 705.2619,-122 645.7381,-122 645.7381,-86 732.2619,-86 732.2619,-122"/>
<text text-anchor="middle" x="689" y="-99.8" font-family="Times,serif" font-size="14.00" fill="#000000">CardModule</text>
</g>
<!-- CardModule&#45;&gt;WorkflowModule -->
<g id="edge4" class="edge">
<title>CardModule&#45;&gt;WorkflowModule</title>
<path fill="none" stroke="#000000" d="M645.3845,-104C639.9113,-104 636.1848,-104 636.1848,-104 636.1848,-104 636.1848,-140.8939 636.1848,-140.8939"/>
<polygon fill="#000000" stroke="#000000" points="632.6849,-140.8938 636.1848,-150.8939 639.6849,-140.8939 632.6849,-140.8938"/>
</g>
<!-- DndModule -->
<g id="node6" class="node">
<title>DndModule</title>
<polygon fill="#8dd3c7" stroke="#000000" points="627.6571,-122 624.6571,-126 603.6571,-126 600.6571,-122 544.3429,-122 544.3429,-86 627.6571,-86 627.6571,-122"/>
<text text-anchor="middle" x="586" y="-99.8" font-family="Times,serif" font-size="14.00" fill="#000000">DndModule</text>
</g>
<!-- DndModule&#45;&gt;WorkflowModule -->
<g id="edge5" class="edge">
<title>DndModule&#45;&gt;WorkflowModule</title>
<path fill="none" stroke="#000000" d="M586,-122.1061C586,-122.1061 586,-140.991 586,-140.991"/>
<polygon fill="#000000" stroke="#000000" points="582.5001,-140.9909 586,-150.991 589.5001,-140.991 582.5001,-140.9909"/>
</g>
<!-- IconsModule -->
<g id="node7" class="node">
<title>IconsModule</title>
<polygon fill="#8dd3c7" stroke="#000000" points="525.8697,-122 522.8697,-126 501.8697,-126 498.8697,-122 436.1303,-122 436.1303,-86 525.8697,-86 525.8697,-122"/>
<text text-anchor="middle" x="481" y="-99.8" font-family="Times,serif" font-size="14.00" fill="#000000">IconsModule</text>
</g>
<!-- IconsModule&#45;&gt;WorkflowModule -->
<g id="edge6" class="edge">
<title>IconsModule&#45;&gt;WorkflowModule</title>
<path fill="none" stroke="#000000" d="M526.0153,-104C531.833,-104 535.8152,-104 535.8152,-104 535.8152,-104 535.8152,-140.8939 535.8152,-140.8939"/>
<polygon fill="#000000" stroke="#000000" points="532.3153,-140.8938 535.8152,-150.8939 539.3153,-140.8939 532.3153,-140.8938"/>
</g>
<!-- SharedModule -->
<g id="node8" class="node">
<title>SharedModule</title>
<polygon fill="#8dd3c7" stroke="#000000" points="418.4231,-122 415.4231,-126 394.4231,-126 391.4231,-122 319.5769,-122 319.5769,-86 418.4231,-86 418.4231,-122"/>
<text text-anchor="middle" x="369" y="-99.8" font-family="Times,serif" font-size="14.00" fill="#000000">SharedModule</text>
</g>
<!-- SharedModule&#45;&gt;WorkflowModule -->
<g id="edge7" class="edge">
<title>SharedModule&#45;&gt;WorkflowModule</title>
<path fill="none" stroke="#000000" d="M369,-122.0091C369,-138.0494 369,-159 369,-159 369,-159 517.2767,-159 517.2767,-159"/>
<polygon fill="#000000" stroke="#000000" points="517.2767,-162.5001 527.2767,-159 517.2766,-155.5001 517.2767,-162.5001"/>
</g>
<!-- TopPanelModule -->
<g id="node9" class="node">
<title>TopPanelModule</title>
<polygon fill="#8dd3c7" stroke="#000000" points="301.705,-122 298.705,-126 277.705,-126 274.705,-122 188.295,-122 188.295,-86 301.705,-86 301.705,-122"/>
<text text-anchor="middle" x="245" y="-99.8" font-family="Times,serif" font-size="14.00" fill="#000000">TopPanelModule</text>
</g>
<!-- TopPanelModule&#45;&gt;WorkflowModule -->
<g id="edge8" class="edge">
<title>TopPanelModule&#45;&gt;WorkflowModule</title>
<path fill="none" stroke="#000000" d="M245,-122.2667C245,-140.5552 245,-166 245,-166 245,-166 517.38,-166 517.38,-166"/>
<polygon fill="#000000" stroke="#000000" points="517.38,-169.5001 527.38,-166 517.38,-162.5001 517.38,-169.5001"/>
</g>
<!-- KanbanService -->
<g id="node13" class="node">
<title>KanbanService</title>
<ellipse fill="#fdb462" stroke="#000000" cx="94" cy="-104" rx="70.0442" ry="18"/>
<text text-anchor="middle" x="94" y="-99.8" font-family="Times,serif" font-size="14.00" fill="#000000">KanbanService</text>
</g>
<!-- KanbanService&#45;&gt;WorkflowModule -->
<g id="edge12" class="edge">
<title>KanbanService&#45;&gt;WorkflowModule</title>
<path fill="none" stroke="#000000" d="M94,-122.1289C94,-142.5724 94,-173 94,-173 94,-173 517.142,-173 517.142,-173"/>
<polygon fill="#000000" stroke="#000000" points="517.142,-176.5001 527.142,-173 517.142,-169.5001 517.142,-176.5001"/>
</g>
</g>
</svg>
