<?xml version="1.0" encoding="UTF-8" standalone="no"?>
<!DOCTYPE svg PUBLIC "-//W3C//DTD SVG 1.1//EN"
 "http://www.w3.org/Graphics/SVG/1.1/DTD/svg11.dtd">
<!-- Generated by graphviz version 2.40.1 (20161225.0304)
 -->
<!-- Title: dependencies Pages: 1 -->
<svg width="2329pt" height="211pt"
 viewBox="0.00 0.00 2329.00 211.00" xmlns="http://www.w3.org/2000/svg" xmlns:xlink="http://www.w3.org/1999/xlink">
<g id="graph0" class="graph" transform="scale(1 1) rotate(0) translate(4 207)">
<title>dependencies</title>
<polygon fill="#ffffff" stroke="transparent" points="-4,4 -4,-207 2325,-207 2325,4 -4,4"/>
<text text-anchor="start" x="1139.5091" y="-42.4" font-family="sans-serif" font-weight="bold" font-size="14.00" fill="#000000">Legend</text>
<polygon fill="#ffffb3" stroke="transparent" points="926.5,-10 926.5,-30 946.5,-30 946.5,-10 926.5,-10"/>
<text text-anchor="start" x="950.129" y="-15.4" font-family="sans-serif" font-size="14.00" fill="#000000"> &#160;Declarations</text>
<polygon fill="#8dd3c7" stroke="transparent" points="1039.5,-10 1039.5,-30 1059.5,-30 1059.5,-10 1039.5,-10"/>
<text text-anchor="start" x="1063.2251" y="-15.4" font-family="sans-serif" font-size="14.00" fill="#000000"> &#160;Module</text>
<polygon fill="#80b1d3" stroke="transparent" points="1125.5,-10 1125.5,-30 1145.5,-30 1145.5,-10 1125.5,-10"/>
<text text-anchor="start" x="1149.2812" y="-15.4" font-family="sans-serif" font-size="14.00" fill="#000000"> &#160;Bootstrap</text>
<polygon fill="#fdb462" stroke="transparent" points="1222.5,-10 1222.5,-30 1242.5,-30 1242.5,-10 1222.5,-10"/>
<text text-anchor="start" x="1246.1732" y="-15.4" font-family="sans-serif" font-size="14.00" fill="#000000"> &#160;Providers</text>
<polygon fill="#fb8072" stroke="transparent" points="1318.5,-10 1318.5,-30 1338.5,-30 1338.5,-10 1318.5,-10"/>
<text text-anchor="start" x="1342.2258" y="-15.4" font-family="sans-serif" font-size="14.00" fill="#000000"> &#160;Exports</text>
<g id="clust1" class="cluster">
<title>cluster_RfqModule</title>
<polygon fill="none" stroke="#000000" stroke-dasharray="1,5" points="8,-70 8,-195 2313,-195 2313,-70 8,-70"/>
</g>
<g id="clust2" class="cluster">
<title>cluster_RfqModule_declarations</title>
<polygon fill="none" stroke="#000000" points="1338,-78 1338,-130 2305,-130 2305,-78 1338,-78"/>
</g>
<g id="clust8" class="cluster">
<title>cluster_RfqModule_imports</title>
<polygon fill="none" stroke="#000000" points="306,-78 306,-130 1330,-130 1330,-78 306,-78"/>
</g>
<g id="clust11" class="cluster">
<title>cluster_RfqModule_providers</title>
<polygon fill="none" stroke="#000000" points="16,-78 16,-130 298,-130 298,-78 16,-78"/>
</g>
<!-- FillInformationPageComponent -->
<g id="node1" class="node">
<title>FillInformationPageComponent</title>
<polygon fill="#ffffb3" stroke="#000000" points="2297.3668,-122 2102.6332,-122 2102.6332,-86 2297.3668,-86 2297.3668,-122"/>
<text text-anchor="middle" x="2200" y="-99.8" font-family="Times,serif" font-size="14.00" fill="#000000">FillInformationPageComponent</text>
</g>
<!-- RfqModule -->
<g id="node6" class="node">
<title>RfqModule</title>
<polygon fill="#8dd3c7" stroke="#000000" points="1142.0483,-187 1139.0483,-191 1118.0483,-191 1115.0483,-187 1061.9517,-187 1061.9517,-151 1142.0483,-151 1142.0483,-187"/>
<text text-anchor="middle" x="1102" y="-164.8" font-family="Times,serif" font-size="14.00" fill="#000000">RfqModule</text>
</g>
<!-- FillInformationPageComponent&#45;&gt;RfqModule -->
<g id="edge1" class="edge">
<title>FillInformationPageComponent&#45;&gt;RfqModule</title>
<path fill="none" stroke="#000000" d="M2200,-122.0908C2200,-145.1328 2200,-182 2200,-182 2200,-182 1152.0532,-182 1152.0532,-182"/>
<polygon fill="#000000" stroke="#000000" points="1152.0533,-178.5001 1142.0532,-182 1152.0532,-185.5001 1152.0533,-178.5001"/>
</g>
<!-- NewRequestPageComponent -->
<g id="node2" class="node">
<title>NewRequestPageComponent</title>
<polygon fill="#ffffb3" stroke="#000000" points="2085.073,-122 1904.927,-122 1904.927,-86 2085.073,-86 2085.073,-122"/>
<text text-anchor="middle" x="1995" y="-99.8" font-family="Times,serif" font-size="14.00" fill="#000000">NewRequestPageComponent</text>
</g>
<!-- NewRequestPageComponent&#45;&gt;RfqModule -->
<g id="edge2" class="edge">
<title>NewRequestPageComponent&#45;&gt;RfqModule</title>
<path fill="none" stroke="#000000" d="M1995,-122.0449C1995,-143.6623 1995,-177 1995,-177 1995,-177 1152.1052,-177 1152.1052,-177"/>
<polygon fill="#000000" stroke="#000000" points="1152.1052,-173.5001 1142.1052,-177 1152.1051,-180.5001 1152.1052,-173.5001"/>
</g>
<!-- RefuseDialogComponent -->
<g id="node3" class="node">
<title>RefuseDialogComponent</title>
<polygon fill="#ffffb3" stroke="#000000" points="1887.3061,-122 1728.6939,-122 1728.6939,-86 1887.3061,-86 1887.3061,-122"/>
<text text-anchor="middle" x="1808" y="-99.8" font-family="Times,serif" font-size="14.00" fill="#000000">RefuseDialogComponent</text>
</g>
<!-- RefuseDialogComponent&#45;&gt;RfqModule -->
<g id="edge3" class="edge">
<title>RefuseDialogComponent&#45;&gt;RfqModule</title>
<path fill="none" stroke="#000000" d="M1808,-122.2228C1808,-142.3652 1808,-172 1808,-172 1808,-172 1152.2365,-172 1152.2365,-172"/>
<polygon fill="#000000" stroke="#000000" points="1152.2366,-168.5001 1142.2365,-172 1152.2365,-175.5001 1152.2366,-168.5001"/>
</g>
<!-- ReviewSendPageComponent -->
<g id="node4" class="node">
<title>ReviewSendPageComponent</title>
<polygon fill="#ffffb3" stroke="#000000" points="1710.8047,-122 1531.1953,-122 1531.1953,-86 1710.8047,-86 1710.8047,-122"/>
<text text-anchor="middle" x="1621" y="-99.8" font-family="Times,serif" font-size="14.00" fill="#000000">ReviewSendPageComponent</text>
</g>
<!-- ReviewSendPageComponent&#45;&gt;RfqModule -->
<g id="edge4" class="edge">
<title>ReviewSendPageComponent&#45;&gt;RfqModule</title>
<path fill="none" stroke="#000000" d="M1621,-122.2222C1621,-140.8285 1621,-167 1621,-167 1621,-167 1152.2932,-167 1152.2932,-167"/>
<polygon fill="#000000" stroke="#000000" points="1152.2932,-163.5001 1142.2932,-167 1152.2932,-170.5001 1152.2932,-163.5001"/>
</g>
<!-- ValidationPageComponent -->
<g id="node5" class="node">
<title>ValidationPageComponent</title>
<polygon fill="#ffffb3" stroke="#000000" points="1513.6428,-122 1346.3572,-122 1346.3572,-86 1513.6428,-86 1513.6428,-122"/>
<text text-anchor="middle" x="1430" y="-99.8" font-family="Times,serif" font-size="14.00" fill="#000000">ValidationPageComponent</text>
</g>
<!-- ValidationPageComponent&#45;&gt;RfqModule -->
<g id="edge5" class="edge">
<title>ValidationPageComponent&#45;&gt;RfqModule</title>
<path fill="none" stroke="#000000" d="M1430,-122.0336C1430,-139.0597 1430,-162 1430,-162 1430,-162 1152.2192,-162 1152.2192,-162"/>
<polygon fill="#000000" stroke="#000000" points="1152.2193,-158.5001 1142.2192,-162 1152.2192,-165.5001 1152.2193,-158.5001"/>
</g>
<!-- CardModule -->
<g id="node7" class="node">
<title>CardModule</title>
<polygon fill="#8dd3c7" stroke="#000000" points="1322.2619,-122 1319.2619,-126 1298.2619,-126 1295.2619,-122 1235.7381,-122 1235.7381,-86 1322.2619,-86 1322.2619,-122"/>
<text text-anchor="middle" x="1279" y="-99.8" font-family="Times,serif" font-size="14.00" fill="#000000">CardModule</text>
</g>
<!-- CardModule&#45;&gt;RfqModule -->
<g id="edge6" class="edge">
<title>CardModule&#45;&gt;RfqModule</title>
<path fill="none" stroke="#000000" d="M1279,-122.2396C1279,-137.5706 1279,-157 1279,-157 1279,-157 1152.164,-157 1152.164,-157"/>
<polygon fill="#000000" stroke="#000000" points="1152.1641,-153.5001 1142.164,-157 1152.164,-160.5001 1152.1641,-153.5001"/>
</g>
<!-- CarouselModule -->
<g id="node8" class="node">
<title>CarouselModule</title>
<polygon fill="#8dd3c7" stroke="#000000" points="1217.8118,-122 1214.8118,-126 1193.8118,-126 1190.8118,-122 1108.1882,-122 1108.1882,-86 1217.8118,-86 1217.8118,-122"/>
<text text-anchor="middle" x="1163" y="-99.8" font-family="Times,serif" font-size="14.00" fill="#000000">CarouselModule</text>
</g>
<!-- CarouselModule&#45;&gt;RfqModule -->
<g id="edge7" class="edge">
<title>CarouselModule&#45;&gt;RfqModule</title>
<path fill="none" stroke="#000000" d="M1125.3089,-122.1061C1125.3089,-122.1061 1125.3089,-140.991 1125.3089,-140.991"/>
<polygon fill="#000000" stroke="#000000" points="1121.809,-140.9909 1125.3089,-150.991 1128.809,-140.991 1121.809,-140.9909"/>
</g>
<!-- DialogModule -->
<g id="node9" class="node">
<title>DialogModule</title>
<polygon fill="#8dd3c7" stroke="#000000" points="1090.6528,-122 1087.6528,-126 1066.6528,-126 1063.6528,-122 993.3472,-122 993.3472,-86 1090.6528,-86 1090.6528,-122"/>
<text text-anchor="middle" x="1042" y="-99.8" font-family="Times,serif" font-size="14.00" fill="#000000">DialogModule</text>
</g>
<!-- DialogModule&#45;&gt;RfqModule -->
<g id="edge8" class="edge">
<title>DialogModule&#45;&gt;RfqModule</title>
<path fill="none" stroke="#000000" d="M1076.2763,-122.1061C1076.2763,-122.1061 1076.2763,-140.991 1076.2763,-140.991"/>
<polygon fill="#000000" stroke="#000000" points="1072.7764,-140.9909 1076.2763,-150.991 1079.7764,-140.991 1072.7764,-140.9909"/>
</g>
<!-- DynamicFormsModule -->
<g id="node10" class="node">
<title>DynamicFormsModule</title>
<polygon fill="#8dd3c7" stroke="#000000" points="975.1456,-122 972.1456,-126 951.1456,-126 948.1456,-122 828.8544,-122 828.8544,-86 975.1456,-86 975.1456,-122"/>
<text text-anchor="middle" x="902" y="-99.8" font-family="Times,serif" font-size="14.00" fill="#000000">DynamicFormsModule</text>
</g>
<!-- DynamicFormsModule&#45;&gt;RfqModule -->
<g id="edge9" class="edge">
<title>DynamicFormsModule&#45;&gt;RfqModule</title>
<path fill="none" stroke="#000000" d="M902,-122.2396C902,-137.5706 902,-157 902,-157 902,-157 1051.527,-157 1051.527,-157"/>
<polygon fill="#000000" stroke="#000000" points="1051.5271,-160.5001 1061.527,-157 1051.527,-153.5001 1051.5271,-160.5001"/>
</g>
<!-- IconsModule -->
<g id="node11" class="node">
<title>IconsModule</title>
<polygon fill="#8dd3c7" stroke="#000000" points="810.8697,-122 807.8697,-126 786.8697,-126 783.8697,-122 721.1303,-122 721.1303,-86 810.8697,-86 810.8697,-122"/>
<text text-anchor="middle" x="766" y="-99.8" font-family="Times,serif" font-size="14.00" fill="#000000">IconsModule</text>
</g>
<!-- IconsModule&#45;&gt;RfqModule -->
<g id="edge10" class="edge">
<title>IconsModule&#45;&gt;RfqModule</title>
<path fill="none" stroke="#000000" d="M766,-122.0336C766,-139.0597 766,-162 766,-162 766,-162 1051.8043,-162 1051.8043,-162"/>
<polygon fill="#000000" stroke="#000000" points="1051.8043,-165.5001 1061.8043,-162 1051.8043,-158.5001 1051.8043,-165.5001"/>
</g>
<!-- SharedModule -->
<g id="node12" class="node">
<title>SharedModule</title>
<polygon fill="#8dd3c7" stroke="#000000" points="703.4231,-122 700.4231,-126 679.4231,-126 676.4231,-122 604.5769,-122 604.5769,-86 703.4231,-86 703.4231,-122"/>
<text text-anchor="middle" x="654" y="-99.8" font-family="Times,serif" font-size="14.00" fill="#000000">SharedModule</text>
</g>
<!-- SharedModule&#45;&gt;RfqModule -->
<g id="edge11" class="edge">
<title>SharedModule&#45;&gt;RfqModule</title>
<path fill="none" stroke="#000000" d="M654,-122.2222C654,-140.8285 654,-167 654,-167 654,-167 1051.8487,-167 1051.8487,-167"/>
<polygon fill="#000000" stroke="#000000" points="1051.8488,-170.5001 1061.8487,-167 1051.8487,-163.5001 1051.8488,-170.5001"/>
</g>
<!-- StageIndicatorModule -->
<g id="node13" class="node">
<title>StageIndicatorModule</title>
<polygon fill="#8dd3c7" stroke="#000000" points="586.6839,-122 583.6839,-126 562.6839,-126 559.6839,-122 445.3161,-122 445.3161,-86 586.6839,-86 586.6839,-122"/>
<text text-anchor="middle" x="516" y="-99.8" font-family="Times,serif" font-size="14.00" fill="#000000">StageIndicatorModule</text>
</g>
<!-- StageIndicatorModule&#45;&gt;RfqModule -->
<g id="edge12" class="edge">
<title>StageIndicatorModule&#45;&gt;RfqModule</title>
<path fill="none" stroke="#000000" d="M516,-122.2228C516,-142.3652 516,-172 516,-172 516,-172 1051.7218,-172 1051.7218,-172"/>
<polygon fill="#000000" stroke="#000000" points="1051.7219,-175.5001 1061.7218,-172 1051.7218,-168.5001 1051.7219,-175.5001"/>
</g>
<!-- TopPanelModule -->
<g id="node14" class="node">
<title>TopPanelModule</title>
<polygon fill="#8dd3c7" stroke="#000000" points="427.705,-122 424.705,-126 403.705,-126 400.705,-122 314.295,-122 314.295,-86 427.705,-86 427.705,-122"/>
<text text-anchor="middle" x="371" y="-99.8" font-family="Times,serif" font-size="14.00" fill="#000000">TopPanelModule</text>
</g>
<!-- TopPanelModule&#45;&gt;RfqModule -->
<g id="edge13" class="edge">
<title>TopPanelModule&#45;&gt;RfqModule</title>
<path fill="none" stroke="#000000" d="M371,-122.0449C371,-143.6623 371,-177 371,-177 371,-177 1051.9185,-177 1051.9185,-177"/>
<polygon fill="#000000" stroke="#000000" points="1051.9185,-180.5001 1061.9185,-177 1051.9184,-173.5001 1051.9185,-180.5001"/>
</g>
<!-- ExternalRequestFeatureService -->
<g id="node15" class="node">
<title>ExternalRequestFeatureService</title>
<ellipse fill="#fdb462" stroke="#000000" cx="157" cy="-104" rx="132.5385" ry="18"/>
<text text-anchor="middle" x="157" y="-99.8" font-family="Times,serif" font-size="14.00" fill="#000000">ExternalRequestFeatureService</text>
</g>
<!-- ExternalRequestFeatureService&#45;&gt;RfqModule -->
<g id="edge14" class="edge">
<title>ExternalRequestFeatureService&#45;&gt;RfqModule</title>
<path fill="none" stroke="#000000" d="M157,-122.0908C157,-145.1328 157,-182 157,-182 157,-182 1051.6968,-182 1051.6968,-182"/>
<polygon fill="#000000" stroke="#000000" points="1051.6969,-185.5001 1061.6968,-182 1051.6968,-178.5001 1051.6969,-185.5001"/>
</g>
</g>
</svg>
