<?xml version="1.0" encoding="UTF-8" standalone="no"?>
<!DOCTYPE svg PUBLIC "-//W3C//DTD SVG 1.1//EN"
 "http://www.w3.org/Graphics/SVG/1.1/DTD/svg11.dtd">
<!-- Generated by graphviz version 2.40.1 (20161225.0304)
 -->
<!-- Title: dependencies Pages: 1 -->
<svg width="955pt" height="284pt"
 viewBox="0.00 0.00 955.00 284.00" xmlns="http://www.w3.org/2000/svg" xmlns:xlink="http://www.w3.org/1999/xlink">
<g id="graph0" class="graph" transform="scale(1 1) rotate(0) translate(4 280)">
<title>dependencies</title>
<polygon fill="#ffffff" stroke="transparent" points="-4,4 -4,-280 951,-280 951,4 -4,4"/>
<text text-anchor="start" x="452.5091" y="-42.4" font-family="sans-serif" font-weight="bold" font-size="14.00" fill="#000000">Legend</text>
<polygon fill="#ffffb3" stroke="transparent" points="239.5,-10 239.5,-30 259.5,-30 259.5,-10 239.5,-10"/>
<text text-anchor="start" x="263.129" y="-15.4" font-family="sans-serif" font-size="14.00" fill="#000000"> &#160;Declarations</text>
<polygon fill="#8dd3c7" stroke="transparent" points="352.5,-10 352.5,-30 372.5,-30 372.5,-10 352.5,-10"/>
<text text-anchor="start" x="376.2251" y="-15.4" font-family="sans-serif" font-size="14.00" fill="#000000"> &#160;Module</text>
<polygon fill="#80b1d3" stroke="transparent" points="438.5,-10 438.5,-30 458.5,-30 458.5,-10 438.5,-10"/>
<text text-anchor="start" x="462.2812" y="-15.4" font-family="sans-serif" font-size="14.00" fill="#000000"> &#160;Bootstrap</text>
<polygon fill="#fdb462" stroke="transparent" points="535.5,-10 535.5,-30 555.5,-30 555.5,-10 535.5,-10"/>
<text text-anchor="start" x="559.1732" y="-15.4" font-family="sans-serif" font-size="14.00" fill="#000000"> &#160;Providers</text>
<polygon fill="#fb8072" stroke="transparent" points="631.5,-10 631.5,-30 651.5,-30 651.5,-10 631.5,-10"/>
<text text-anchor="start" x="655.2258" y="-15.4" font-family="sans-serif" font-size="14.00" fill="#000000"> &#160;Exports</text>
<g id="clust1" class="cluster">
<title>cluster_PickATeamModule</title>
<polygon fill="none" stroke="#000000" stroke-dasharray="1,5" points="8,-70 8,-268 939,-268 939,-70 8,-70"/>
</g>
<g id="clust2" class="cluster">
<title>cluster_PickATeamModule_declarations</title>
<polygon fill="none" stroke="#000000" points="534,-78 534,-130 931,-130 931,-78 534,-78"/>
</g>
<g id="clust5" class="cluster">
<title>cluster_PickATeamModule_imports</title>
<polygon fill="none" stroke="#000000" points="412,-78 412,-130 526,-130 526,-78 412,-78"/>
</g>
<g id="clust6" class="cluster">
<title>cluster_PickATeamModule_exports</title>
<polygon fill="none" stroke="#000000" points="271,-208 271,-260 674,-260 674,-208 271,-208"/>
</g>
<g id="clust8" class="cluster">
<title>cluster_PickATeamModule_providers</title>
<polygon fill="none" stroke="#000000" points="16,-78 16,-130 404,-130 404,-78 16,-78"/>
</g>
<!-- CreateATeamPageComponent -->
<g id="node1" class="node">
<title>CreateATeamPageComponent</title>
<polygon fill="#ffffb3" stroke="#000000" points="922.5548,-122 735.4452,-122 735.4452,-86 922.5548,-86 922.5548,-122"/>
<text text-anchor="middle" x="829" y="-99.8" font-family="Times,serif" font-size="14.00" fill="#000000">CreateATeamPageComponent</text>
</g>
<!-- PickATeamModule -->
<g id="node3" class="node">
<title>PickATeamModule</title>
<polygon fill="#8dd3c7" stroke="#000000" points="532.4173,-187 529.4173,-191 508.4173,-191 505.4173,-187 405.5827,-187 405.5827,-151 532.4173,-151 532.4173,-187"/>
<text text-anchor="middle" x="469" y="-164.8" font-family="Times,serif" font-size="14.00" fill="#000000">PickATeamModule</text>
</g>
<!-- CreateATeamPageComponent&#45;&gt;PickATeamModule -->
<g id="edge1" class="edge">
<title>CreateATeamPageComponent&#45;&gt;PickATeamModule</title>
<path fill="none" stroke="#000000" d="M829,-122.1061C829,-141.3391 829,-169 829,-169 829,-169 542.5321,-169 542.5321,-169"/>
<polygon fill="#000000" stroke="#000000" points="542.5321,-165.5001 532.5321,-169 542.532,-172.5001 542.5321,-165.5001"/>
</g>
<!-- PickATeamPageComponent -->
<g id="node2" class="node">
<title>PickATeamPageComponent</title>
<polygon fill="#ffffb3" stroke="#000000" points="717.9115,-122 542.0885,-122 542.0885,-86 717.9115,-86 717.9115,-122"/>
<text text-anchor="middle" x="630" y="-99.8" font-family="Times,serif" font-size="14.00" fill="#000000">PickATeamPageComponent</text>
</g>
<!-- PickATeamPageComponent&#45;&gt;PickATeamModule -->
<g id="edge2" class="edge">
<title>PickATeamPageComponent&#45;&gt;PickATeamModule</title>
<path fill="none" stroke="#000000" d="M542.0461,-104C531.9654,-104 525.2097,-104 525.2097,-104 525.2097,-104 525.2097,-140.8939 525.2097,-140.8939"/>
<polygon fill="#000000" stroke="#000000" points="521.7098,-140.8938 525.2097,-150.8939 528.7098,-140.8939 521.7098,-140.8938"/>
</g>
<!-- CreateATeamPageComponent  -->
<g id="node5" class="node">
<title>CreateATeamPageComponent </title>
<polygon fill="#fb8072" stroke="#000000" points="666.0553,-252 475.9447,-252 475.9447,-216 666.0553,-216 666.0553,-252"/>
<text text-anchor="middle" x="571" y="-229.8" font-family="Times,serif" font-size="14.00" fill="#000000">CreateATeamPageComponent </text>
</g>
<!-- PickATeamModule&#45;&gt;CreateATeamPageComponent  -->
<g id="edge4" class="edge">
<title>PickATeamModule&#45;&gt;CreateATeamPageComponent </title>
<path fill="none" stroke="#000000" stroke-dasharray="5,2" d="M503.9655,-187.1061C503.9655,-187.1061 503.9655,-205.991 503.9655,-205.991"/>
<polygon fill="#000000" stroke="#000000" points="500.4655,-205.9909 503.9655,-215.991 507.4655,-205.991 500.4655,-205.9909"/>
</g>
<!-- PickATeamPageComponent  -->
<g id="node6" class="node">
<title>PickATeamPageComponent </title>
<polygon fill="#fb8072" stroke="#000000" points="457.411,-252 278.589,-252 278.589,-216 457.411,-216 457.411,-252"/>
<text text-anchor="middle" x="368" y="-229.8" font-family="Times,serif" font-size="14.00" fill="#000000">PickATeamPageComponent </text>
</g>
<!-- PickATeamModule&#45;&gt;PickATeamPageComponent  -->
<g id="edge5" class="edge">
<title>PickATeamModule&#45;&gt;PickATeamPageComponent </title>
<path fill="none" stroke="#000000" stroke-dasharray="5,2" d="M431.6236,-187.1061C431.6236,-187.1061 431.6236,-205.991 431.6236,-205.991"/>
<polygon fill="#000000" stroke="#000000" points="428.1237,-205.9909 431.6236,-215.991 435.1237,-205.991 428.1237,-205.9909"/>
</g>
<!-- SharedModule -->
<g id="node4" class="node">
<title>SharedModule</title>
<polygon fill="#8dd3c7" stroke="#000000" points="518.4231,-122 515.4231,-126 494.4231,-126 491.4231,-122 419.5769,-122 419.5769,-86 518.4231,-86 518.4231,-122"/>
<text text-anchor="middle" x="469" y="-99.8" font-family="Times,serif" font-size="14.00" fill="#000000">SharedModule</text>
</g>
<!-- SharedModule&#45;&gt;PickATeamModule -->
<g id="edge3" class="edge">
<title>SharedModule&#45;&gt;PickATeamModule</title>
<path fill="none" stroke="#000000" d="M469,-122.1061C469,-122.1061 469,-140.991 469,-140.991"/>
<polygon fill="#000000" stroke="#000000" points="465.5001,-140.9909 469,-150.991 472.5001,-140.991 465.5001,-140.9909"/>
</g>
<!-- HasTeamGuard -->
<g id="node7" class="node">
<title>HasTeamGuard</title>
<ellipse fill="#fdb462" stroke="#000000" cx="324" cy="-104" rx="72.3303" ry="18"/>
<text text-anchor="middle" x="324" y="-99.8" font-family="Times,serif" font-size="14.00" fill="#000000">HasTeamGuard</text>
</g>
<!-- HasTeamGuard&#45;&gt;PickATeamModule -->
<g id="edge6" class="edge">
<title>HasTeamGuard&#45;&gt;PickATeamModule</title>
<path fill="none" stroke="#000000" d="M396.5048,-104C406.1516,-104 412.7903,-104 412.7903,-104 412.7903,-104 412.7903,-140.8939 412.7903,-140.8939"/>
<polygon fill="#000000" stroke="#000000" points="409.2904,-140.8938 412.7903,-150.8939 416.2904,-140.8939 409.2904,-140.8938"/>
</g>
<!-- HasTeamSelectedGuard -->
<g id="node8" class="node">
<title>HasTeamSelectedGuard</title>
<ellipse fill="#fdb462" stroke="#000000" cx="129" cy="-104" rx="104.752" ry="18"/>
<text text-anchor="middle" x="129" y="-99.8" font-family="Times,serif" font-size="14.00" fill="#000000">HasTeamSelectedGuard</text>
</g>
<!-- HasTeamSelectedGuard&#45;&gt;PickATeamModule -->
<g id="edge7" class="edge">
<title>HasTeamSelectedGuard&#45;&gt;PickATeamModule</title>
<path fill="none" stroke="#000000" d="M129,-122.1061C129,-141.3391 129,-169 129,-169 129,-169 395.4474,-169 395.4474,-169"/>
<polygon fill="#000000" stroke="#000000" points="395.4475,-172.5001 405.4474,-169 395.4474,-165.5001 395.4475,-172.5001"/>
</g>
</g>
</svg>
