<?xml version="1.0" encoding="UTF-8" standalone="no"?>
<!DOCTYPE svg PUBLIC "-//W3C//DTD SVG 1.1//EN"
 "http://www.w3.org/Graphics/SVG/1.1/DTD/svg11.dtd">
<!-- Generated by graphviz version 2.40.1 (20161225.0304)
 -->
<!-- Title: dependencies Pages: 1 -->
<svg width="1381pt" height="284pt"
 viewBox="0.00 0.00 1381.00 284.00" xmlns="http://www.w3.org/2000/svg" xmlns:xlink="http://www.w3.org/1999/xlink">
<g id="graph0" class="graph" transform="scale(1 1) rotate(0) translate(4 280)">
<title>dependencies</title>
<polygon fill="#ffffff" stroke="transparent" points="-4,4 -4,-280 1377,-280 1377,4 -4,4"/>
<text text-anchor="start" x="665.5091" y="-42.4" font-family="sans-serif" font-weight="bold" font-size="14.00" fill="#000000">Legend</text>
<polygon fill="#ffffb3" stroke="transparent" points="452.5,-10 452.5,-30 472.5,-30 472.5,-10 452.5,-10"/>
<text text-anchor="start" x="476.129" y="-15.4" font-family="sans-serif" font-size="14.00" fill="#000000"> &#160;Declarations</text>
<polygon fill="#8dd3c7" stroke="transparent" points="565.5,-10 565.5,-30 585.5,-30 585.5,-10 565.5,-10"/>
<text text-anchor="start" x="589.2251" y="-15.4" font-family="sans-serif" font-size="14.00" fill="#000000"> &#160;Module</text>
<polygon fill="#80b1d3" stroke="transparent" points="651.5,-10 651.5,-30 671.5,-30 671.5,-10 651.5,-10"/>
<text text-anchor="start" x="675.2812" y="-15.4" font-family="sans-serif" font-size="14.00" fill="#000000"> &#160;Bootstrap</text>
<polygon fill="#fdb462" stroke="transparent" points="748.5,-10 748.5,-30 768.5,-30 768.5,-10 748.5,-10"/>
<text text-anchor="start" x="772.1732" y="-15.4" font-family="sans-serif" font-size="14.00" fill="#000000"> &#160;Providers</text>
<polygon fill="#fb8072" stroke="transparent" points="844.5,-10 844.5,-30 864.5,-30 864.5,-10 844.5,-10"/>
<text text-anchor="start" x="868.2258" y="-15.4" font-family="sans-serif" font-size="14.00" fill="#000000"> &#160;Exports</text>
<g id="clust1" class="cluster">
<title>cluster_ActivityModule</title>
<polygon fill="none" stroke="#000000" stroke-dasharray="1,5" points="8,-70 8,-268 1365,-268 1365,-70 8,-70"/>
</g>
<g id="clust2" class="cluster">
<title>cluster_ActivityModule_declarations</title>
<polygon fill="none" stroke="#000000" points="512,-78 512,-130 1357,-130 1357,-78 512,-78"/>
</g>
<g id="clust7" class="cluster">
<title>cluster_ActivityModule_imports</title>
<polygon fill="none" stroke="#000000" points="16,-78 16,-130 504,-130 504,-78 16,-78"/>
</g>
<g id="clust8" class="cluster">
<title>cluster_ActivityModule_exports</title>
<polygon fill="none" stroke="#000000" points="86,-208 86,-260 945,-260 945,-208 86,-208"/>
</g>
<!-- ActivityListComponent -->
<g id="node1" class="node">
<title>ActivityListComponent</title>
<polygon fill="#ffffb3" stroke="#000000" points="1349.4944,-122 1200.5056,-122 1200.5056,-86 1349.4944,-86 1349.4944,-122"/>
<text text-anchor="middle" x="1275" y="-99.8" font-family="Times,serif" font-size="14.00" fill="#000000">ActivityListComponent</text>
</g>
<!-- ActivityModule -->
<g id="node5" class="node">
<title>ActivityModule</title>
<polygon fill="#8dd3c7" stroke="#000000" points="586.9343,-187 583.9343,-191 562.9343,-191 559.9343,-187 481.0657,-187 481.0657,-151 586.9343,-151 586.9343,-187"/>
<text text-anchor="middle" x="534" y="-164.8" font-family="Times,serif" font-size="14.00" fill="#000000">ActivityModule</text>
</g>
<!-- ActivityListComponent&#45;&gt;ActivityModule -->
<g id="edge1" class="edge">
<title>ActivityListComponent&#45;&gt;ActivityModule</title>
<path fill="none" stroke="#000000" d="M1275,-122.1061C1275,-141.3391 1275,-169 1275,-169 1275,-169 596.9935,-169 596.9935,-169"/>
<polygon fill="#000000" stroke="#000000" points="596.9936,-165.5001 586.9935,-169 596.9935,-172.5001 596.9936,-165.5001"/>
</g>
<!-- ActivityUserComponent -->
<g id="node2" class="node">
<title>ActivityUserComponent</title>
<polygon fill="#ffffb3" stroke="#000000" points="1182.6428,-122 1029.3572,-122 1029.3572,-86 1182.6428,-86 1182.6428,-122"/>
<text text-anchor="middle" x="1106" y="-99.8" font-family="Times,serif" font-size="14.00" fill="#000000">ActivityUserComponent</text>
</g>
<!-- ActivityUserComponent&#45;&gt;ActivityModule -->
<g id="edge2" class="edge">
<title>ActivityUserComponent&#45;&gt;ActivityModule</title>
<path fill="none" stroke="#000000" d="M1106,-122.0225C1106,-139.3734 1106,-163 1106,-163 1106,-163 596.7871,-163 596.7871,-163"/>
<polygon fill="#000000" stroke="#000000" points="596.7871,-159.5001 586.7871,-163 596.7871,-166.5001 596.7871,-159.5001"/>
</g>
<!-- MultipleProductsActivityCardComponent -->
<g id="node3" class="node">
<title>MultipleProductsActivityCardComponent</title>
<polygon fill="#ffffb3" stroke="#000000" points="1010.6427,-122 759.3573,-122 759.3573,-86 1010.6427,-86 1010.6427,-122"/>
<text text-anchor="middle" x="885" y="-99.8" font-family="Times,serif" font-size="14.00" fill="#000000">MultipleProductsActivityCardComponent</text>
</g>
<!-- MultipleProductsActivityCardComponent&#45;&gt;ActivityModule -->
<g id="edge3" class="edge">
<title>MultipleProductsActivityCardComponent&#45;&gt;ActivityModule</title>
<path fill="none" stroke="#000000" d="M762.875,-122.2396C762.875,-137.5706 762.875,-157 762.875,-157 762.875,-157 596.7959,-157 596.7959,-157"/>
<polygon fill="#000000" stroke="#000000" points="596.796,-153.5001 586.7959,-157 596.7959,-160.5001 596.796,-153.5001"/>
</g>
<!-- OneProductActivityCardComponent -->
<g id="node4" class="node">
<title>OneProductActivityCardComponent</title>
<polygon fill="#ffffb3" stroke="#000000" points="741.7976,-122 520.2024,-122 520.2024,-86 741.7976,-86 741.7976,-122"/>
<text text-anchor="middle" x="631" y="-99.8" font-family="Times,serif" font-size="14.00" fill="#000000">OneProductActivityCardComponent</text>
</g>
<!-- OneProductActivityCardComponent&#45;&gt;ActivityModule -->
<g id="edge4" class="edge">
<title>OneProductActivityCardComponent&#45;&gt;ActivityModule</title>
<path fill="none" stroke="#000000" d="M553.534,-122.1061C553.534,-122.1061 553.534,-140.991 553.534,-140.991"/>
<polygon fill="#000000" stroke="#000000" points="550.0341,-140.9909 553.534,-150.991 557.0341,-140.991 550.0341,-140.9909"/>
</g>
<!-- ActivityListComponent  -->
<g id="node10" class="node">
<title>ActivityListComponent </title>
<polygon fill="#fb8072" stroke="#000000" points="937.4952,-252 784.5048,-252 784.5048,-216 937.4952,-216 937.4952,-252"/>
<text text-anchor="middle" x="861" y="-229.8" font-family="Times,serif" font-size="14.00" fill="#000000">ActivityListComponent </text>
</g>
<!-- ActivityModule&#45;&gt;ActivityListComponent  -->
<g id="edge9" class="edge">
<title>ActivityModule&#45;&gt;ActivityListComponent </title>
<path fill="none" stroke="#000000" stroke-dasharray="5,2" d="M586.9016,-175C679.4497,-175 861,-175 861,-175 861,-175 861,-205.9775 861,-205.9775"/>
<polygon fill="#000000" stroke="#000000" points="857.5001,-205.9774 861,-215.9775 864.5001,-205.9775 857.5001,-205.9774"/>
</g>
<!-- ActivityUserComponent  -->
<g id="node11" class="node">
<title>ActivityUserComponent </title>
<polygon fill="#fb8072" stroke="#000000" points="766.6425,-252 609.3575,-252 609.3575,-216 766.6425,-216 766.6425,-252"/>
<text text-anchor="middle" x="688" y="-229.8" font-family="Times,serif" font-size="14.00" fill="#000000">ActivityUserComponent </text>
</g>
<!-- ActivityModule&#45;&gt;ActivityUserComponent  -->
<g id="edge10" class="edge">
<title>ActivityModule&#45;&gt;ActivityUserComponent </title>
<path fill="none" stroke="#000000" stroke-dasharray="5,2" d="M587.1065,-181C627.2687,-181 675.5387,-181 675.5387,-181 675.5387,-181 675.5387,-205.7604 675.5387,-205.7604"/>
<polygon fill="#000000" stroke="#000000" points="672.0388,-205.7604 675.5387,-215.7604 679.0388,-205.7604 672.0388,-205.7604"/>
</g>
<!-- MultipleProductsActivityCardComponent  -->
<g id="node12" class="node">
<title>MultipleProductsActivityCardComponent </title>
<polygon fill="#fb8072" stroke="#000000" points="591.6424,-252 336.3576,-252 336.3576,-216 591.6424,-216 591.6424,-252"/>
<text text-anchor="middle" x="464" y="-229.8" font-family="Times,serif" font-size="14.00" fill="#000000">MultipleProductsActivityCardComponent </text>
</g>
<!-- ActivityModule&#45;&gt;MultipleProductsActivityCardComponent  -->
<g id="edge11" class="edge">
<title>ActivityModule&#45;&gt;MultipleProductsActivityCardComponent </title>
<path fill="none" stroke="#000000" stroke-dasharray="5,2" d="M534,-187.1061C534,-187.1061 534,-205.991 534,-205.991"/>
<polygon fill="#000000" stroke="#000000" points="530.5001,-205.9909 534,-215.991 537.5001,-205.991 530.5001,-205.9909"/>
</g>
<!-- OneProductActivityCardComponent  -->
<g id="node13" class="node">
<title>OneProductActivityCardComponent </title>
<polygon fill="#fb8072" stroke="#000000" points="318.2975,-252 93.7025,-252 93.7025,-216 318.2975,-216 318.2975,-252"/>
<text text-anchor="middle" x="206" y="-229.8" font-family="Times,serif" font-size="14.00" fill="#000000">OneProductActivityCardComponent </text>
</g>
<!-- ActivityModule&#45;&gt;OneProductActivityCardComponent  -->
<g id="edge12" class="edge">
<title>ActivityModule&#45;&gt;OneProductActivityCardComponent </title>
<path fill="none" stroke="#000000" stroke-dasharray="5,2" d="M481.0209,-180C408.456,-180 287.0402,-180 287.0402,-180 287.0402,-180 287.0402,-205.7181 287.0402,-205.7181"/>
<polygon fill="#000000" stroke="#000000" points="283.5402,-205.718 287.0402,-215.7181 290.5402,-205.7181 283.5402,-205.718"/>
</g>
<!-- ActionBarModule -->
<g id="node6" class="node">
<title>ActionBarModule</title>
<polygon fill="#8dd3c7" stroke="#000000" points="495.8641,-122 492.8641,-126 471.8641,-126 468.8641,-122 378.1359,-122 378.1359,-86 495.8641,-86 495.8641,-122"/>
<text text-anchor="middle" x="437" y="-99.8" font-family="Times,serif" font-size="14.00" fill="#000000">ActionBarModule</text>
</g>
<!-- ActionBarModule&#45;&gt;ActivityModule -->
<g id="edge5" class="edge">
<title>ActionBarModule&#45;&gt;ActivityModule</title>
<path fill="none" stroke="#000000" d="M488.6077,-122.1061C488.6077,-122.1061 488.6077,-140.991 488.6077,-140.991"/>
<polygon fill="#000000" stroke="#000000" points="485.1077,-140.9909 488.6077,-150.991 492.1077,-140.991 485.1077,-140.9909"/>
</g>
<!-- LoadersModule -->
<g id="node7" class="node">
<title>LoadersModule</title>
<polygon fill="#8dd3c7" stroke="#000000" points="360.1374,-122 357.1374,-126 336.1374,-126 333.1374,-122 255.8626,-122 255.8626,-86 360.1374,-86 360.1374,-122"/>
<text text-anchor="middle" x="308" y="-99.8" font-family="Times,serif" font-size="14.00" fill="#000000">LoadersModule</text>
</g>
<!-- LoadersModule&#45;&gt;ActivityModule -->
<g id="edge6" class="edge">
<title>LoadersModule&#45;&gt;ActivityModule</title>
<path fill="none" stroke="#000000" d="M348.3736,-122.0091C348.3736,-138.0494 348.3736,-159 348.3736,-159 348.3736,-159 470.8069,-159 470.8069,-159"/>
<polygon fill="#000000" stroke="#000000" points="470.807,-162.5001 480.8069,-159 470.8069,-155.5001 470.807,-162.5001"/>
</g>
<!-- RatingModule -->
<g id="node8" class="node">
<title>RatingModule</title>
<polygon fill="#8dd3c7" stroke="#000000" points="237.3823,-122 234.3823,-126 213.3823,-126 210.3823,-122 140.6177,-122 140.6177,-86 237.3823,-86 237.3823,-122"/>
<text text-anchor="middle" x="189" y="-99.8" font-family="Times,serif" font-size="14.00" fill="#000000">RatingModule</text>
</g>
<!-- RatingModule&#45;&gt;ActivityModule -->
<g id="edge7" class="edge">
<title>RatingModule&#45;&gt;ActivityModule</title>
<path fill="none" stroke="#000000" d="M189,-122.2667C189,-140.5552 189,-166 189,-166 189,-166 471.2264,-166 471.2264,-166"/>
<polygon fill="#000000" stroke="#000000" points="471.2264,-169.5001 481.2264,-166 471.2263,-162.5001 471.2264,-169.5001"/>
</g>
<!-- SharedModule -->
<g id="node9" class="node">
<title>SharedModule</title>
<polygon fill="#8dd3c7" stroke="#000000" points="122.4231,-122 119.4231,-126 98.4231,-126 95.4231,-122 23.5769,-122 23.5769,-86 122.4231,-86 122.4231,-122"/>
<text text-anchor="middle" x="73" y="-99.8" font-family="Times,serif" font-size="14.00" fill="#000000">SharedModule</text>
</g>
<!-- SharedModule&#45;&gt;ActivityModule -->
<g id="edge8" class="edge">
<title>SharedModule&#45;&gt;ActivityModule</title>
<path fill="none" stroke="#000000" d="M107.9062,-122.1289C107.9062,-142.5724 107.9062,-173 107.9062,-173 107.9062,-173 470.8965,-173 470.8965,-173"/>
<polygon fill="#000000" stroke="#000000" points="470.8965,-176.5001 480.8965,-173 470.8964,-169.5001 470.8965,-176.5001"/>
</g>
</g>
</svg>
