<?xml version="1.0" encoding="UTF-8" standalone="no"?>
<!DOCTYPE svg PUBLIC "-//W3C//DTD SVG 1.1//EN"
 "http://www.w3.org/Graphics/SVG/1.1/DTD/svg11.dtd">
<!-- Generated by graphviz version 2.40.1 (20161225.0304)
 -->
<!-- Title: dependencies Pages: 1 -->
<svg width="2002pt" height="284pt"
 viewBox="0.00 0.00 2002.00 284.00" xmlns="http://www.w3.org/2000/svg" xmlns:xlink="http://www.w3.org/1999/xlink">
<g id="graph0" class="graph" transform="scale(1 1) rotate(0) translate(4 280)">
<title>dependencies</title>
<polygon fill="#ffffff" stroke="transparent" points="-4,4 -4,-280 1998,-280 1998,4 -4,4"/>
<text text-anchor="start" x="976.0091" y="-42.4" font-family="sans-serif" font-weight="bold" font-size="14.00" fill="#000000">Legend</text>
<polygon fill="#ffffb3" stroke="transparent" points="763,-10 763,-30 783,-30 783,-10 763,-10"/>
<text text-anchor="start" x="786.629" y="-15.4" font-family="sans-serif" font-size="14.00" fill="#000000"> &#160;Declarations</text>
<polygon fill="#8dd3c7" stroke="transparent" points="876,-10 876,-30 896,-30 896,-10 876,-10"/>
<text text-anchor="start" x="899.7251" y="-15.4" font-family="sans-serif" font-size="14.00" fill="#000000"> &#160;Module</text>
<polygon fill="#80b1d3" stroke="transparent" points="962,-10 962,-30 982,-30 982,-10 962,-10"/>
<text text-anchor="start" x="985.7812" y="-15.4" font-family="sans-serif" font-size="14.00" fill="#000000"> &#160;Bootstrap</text>
<polygon fill="#fdb462" stroke="transparent" points="1059,-10 1059,-30 1079,-30 1079,-10 1059,-10"/>
<text text-anchor="start" x="1082.6732" y="-15.4" font-family="sans-serif" font-size="14.00" fill="#000000"> &#160;Providers</text>
<polygon fill="#fb8072" stroke="transparent" points="1155,-10 1155,-30 1175,-30 1175,-10 1155,-10"/>
<text text-anchor="start" x="1178.7258" y="-15.4" font-family="sans-serif" font-size="14.00" fill="#000000"> &#160;Exports</text>
<g id="clust1" class="cluster">
<title>cluster_FiltersModule</title>
<polygon fill="none" stroke="#000000" stroke-dasharray="1,5" points="8,-70 8,-268 1986,-268 1986,-70 8,-70"/>
</g>
<g id="clust2" class="cluster">
<title>cluster_FiltersModule_declarations</title>
<polygon fill="none" stroke="#000000" points="367,-78 367,-130 1978,-130 1978,-78 367,-78"/>
</g>
<g id="clust12" class="cluster">
<title>cluster_FiltersModule_imports</title>
<polygon fill="none" stroke="#000000" points="16,-78 16,-130 359,-130 359,-78 16,-78"/>
</g>
<g id="clust13" class="cluster">
<title>cluster_FiltersModule_exports</title>
<polygon fill="none" stroke="#000000" points="81,-208 81,-260 1723,-260 1723,-208 81,-208"/>
</g>
<!-- FilterBtnComponent -->
<g id="node1" class="node">
<title>FilterBtnComponent</title>
<polygon fill="#ffffb3" stroke="#000000" points="1969.8892,-122 1838.1108,-122 1838.1108,-86 1969.8892,-86 1969.8892,-122"/>
<text text-anchor="middle" x="1904" y="-99.8" font-family="Times,serif" font-size="14.00" fill="#000000">FilterBtnComponent</text>
</g>
<!-- FiltersModule -->
<g id="node10" class="node">
<title>FiltersModule</title>
<polygon fill="#8dd3c7" stroke="#000000" points="935.8246,-187 932.8246,-191 911.8246,-191 908.8246,-187 840.1754,-187 840.1754,-151 935.8246,-151 935.8246,-187"/>
<text text-anchor="middle" x="888" y="-164.8" font-family="Times,serif" font-size="14.00" fill="#000000">FiltersModule</text>
</g>
<!-- FilterBtnComponent&#45;&gt;FiltersModule -->
<g id="edge1" class="edge">
<title>FilterBtnComponent&#45;&gt;FiltersModule</title>
<path fill="none" stroke="#000000" d="M1904,-122.1061C1904,-141.3391 1904,-169 1904,-169 1904,-169 945.9801,-169 945.9801,-169"/>
<polygon fill="#000000" stroke="#000000" points="945.9802,-165.5001 935.9801,-169 945.9801,-172.5001 945.9802,-165.5001"/>
</g>
<!-- FilterBtnsPanelComponent -->
<g id="node2" class="node">
<title>FilterBtnsPanelComponent</title>
<polygon fill="#ffffb3" stroke="#000000" points="1820.4368,-122 1651.5632,-122 1651.5632,-86 1820.4368,-86 1820.4368,-122"/>
<text text-anchor="middle" x="1736" y="-99.8" font-family="Times,serif" font-size="14.00" fill="#000000">FilterBtnsPanelComponent</text>
</g>
<!-- FilterBtnsPanelComponent&#45;&gt;FiltersModule -->
<g id="edge2" class="edge">
<title>FilterBtnsPanelComponent&#45;&gt;FiltersModule</title>
<path fill="none" stroke="#000000" d="M1683.2383,-122.2667C1683.2383,-140.5552 1683.2383,-166 1683.2383,-166 1683.2383,-166 945.9548,-166 945.9548,-166"/>
<polygon fill="#000000" stroke="#000000" points="945.9549,-162.5001 935.9548,-166 945.9548,-169.5001 945.9549,-162.5001"/>
</g>
<!-- FilterEntityPanelComponent -->
<g id="node3" class="node">
<title>FilterEntityPanelComponent</title>
<polygon fill="#ffffb3" stroke="#000000" points="1633.4888,-122 1456.5112,-122 1456.5112,-86 1633.4888,-86 1633.4888,-122"/>
<text text-anchor="middle" x="1545" y="-99.8" font-family="Times,serif" font-size="14.00" fill="#000000">FilterEntityPanelComponent</text>
</g>
<!-- FilterEntityPanelComponent&#45;&gt;FiltersModule -->
<g id="edge3" class="edge">
<title>FilterEntityPanelComponent&#45;&gt;FiltersModule</title>
<path fill="none" stroke="#000000" d="M1508.7369,-122.0336C1508.7369,-139.0597 1508.7369,-162 1508.7369,-162 1508.7369,-162 945.6775,-162 945.6775,-162"/>
<polygon fill="#000000" stroke="#000000" points="945.6775,-158.5001 935.6775,-162 945.6774,-165.5001 945.6775,-158.5001"/>
</g>
<!-- FilterPricePanelComponent -->
<g id="node4" class="node">
<title>FilterPricePanelComponent</title>
<polygon fill="#ffffb3" stroke="#000000" points="1438.528,-122 1267.472,-122 1267.472,-86 1438.528,-86 1438.528,-122"/>
<text text-anchor="middle" x="1353" y="-99.8" font-family="Times,serif" font-size="14.00" fill="#000000">FilterPricePanelComponent</text>
</g>
<!-- FilterPricePanelComponent&#45;&gt;FiltersModule -->
<g id="edge4" class="edge">
<title>FilterPricePanelComponent&#45;&gt;FiltersModule</title>
<path fill="none" stroke="#000000" d="M1319.2404,-122.0091C1319.2404,-138.0494 1319.2404,-159 1319.2404,-159 1319.2404,-159 945.7979,-159 945.7979,-159"/>
<polygon fill="#000000" stroke="#000000" points="945.798,-155.5001 935.7979,-159 945.7979,-162.5001 945.798,-155.5001"/>
</g>
<!-- FilterRatingPanelComponent -->
<g id="node5" class="node">
<title>FilterRatingPanelComponent</title>
<polygon fill="#ffffb3" stroke="#000000" points="1249.0968,-122 1068.9032,-122 1068.9032,-86 1249.0968,-86 1249.0968,-122"/>
<text text-anchor="middle" x="1159" y="-99.8" font-family="Times,serif" font-size="14.00" fill="#000000">FilterRatingPanelComponent</text>
</g>
<!-- FilterRatingPanelComponent&#45;&gt;FiltersModule -->
<g id="edge5" class="edge">
<title>FilterRatingPanelComponent&#45;&gt;FiltersModule</title>
<path fill="none" stroke="#000000" d="M1120.7327,-122.1243C1120.7327,-136.7832 1120.7327,-155 1120.7327,-155 1120.7327,-155 945.9402,-155 945.9402,-155"/>
<polygon fill="#000000" stroke="#000000" points="945.9402,-151.5001 935.9402,-155 945.9401,-158.5001 945.9402,-151.5001"/>
</g>
<!-- FilterSelectionPanelComponent -->
<g id="node6" class="node">
<title>FilterSelectionPanelComponent</title>
<polygon fill="#ffffb3" stroke="#000000" points="1051.3626,-122 856.6374,-122 856.6374,-86 1051.3626,-86 1051.3626,-122"/>
<text text-anchor="middle" x="954" y="-99.8" font-family="Times,serif" font-size="14.00" fill="#000000">FilterSelectionPanelComponent</text>
</g>
<!-- FilterSelectionPanelComponent&#45;&gt;FiltersModule -->
<g id="edge6" class="edge">
<title>FilterSelectionPanelComponent&#45;&gt;FiltersModule</title>
<path fill="none" stroke="#000000" d="M896.1154,-122.1061C896.1154,-122.1061 896.1154,-140.991 896.1154,-140.991"/>
<polygon fill="#000000" stroke="#000000" points="892.6154,-140.9909 896.1154,-150.991 899.6154,-140.991 892.6154,-140.9909"/>
</g>
<!-- FilterSmartPanelComponent -->
<g id="node7" class="node">
<title>FilterSmartPanelComponent</title>
<polygon fill="#ffffb3" stroke="#000000" points="838.2035,-122 661.7965,-122 661.7965,-86 838.2035,-86 838.2035,-122"/>
<text text-anchor="middle" x="750" y="-99.8" font-family="Times,serif" font-size="14.00" fill="#000000">FilterSmartPanelComponent</text>
</g>
<!-- FilterSmartPanelComponent&#45;&gt;FiltersModule -->
<g id="edge7" class="edge">
<title>FilterSmartPanelComponent&#45;&gt;FiltersModule</title>
<path fill="none" stroke="#000000" d="M838.2879,-104C844.5459,-104 848.4534,-104 848.4534,-104 848.4534,-104 848.4534,-140.8939 848.4534,-140.8939"/>
<polygon fill="#000000" stroke="#000000" points="844.9534,-140.8938 848.4534,-150.8939 851.9534,-140.8939 844.9534,-140.8938"/>
</g>
<!-- FilterTagComponent -->
<g id="node8" class="node">
<title>FilterTagComponent</title>
<polygon fill="#ffffb3" stroke="#000000" points="643.9299,-122 510.0701,-122 510.0701,-86 643.9299,-86 643.9299,-122"/>
<text text-anchor="middle" x="577" y="-99.8" font-family="Times,serif" font-size="14.00" fill="#000000">FilterTagComponent</text>
</g>
<!-- FilterTagComponent&#45;&gt;FiltersModule -->
<g id="edge8" class="edge">
<title>FilterTagComponent&#45;&gt;FiltersModule</title>
<path fill="none" stroke="#000000" d="M611.7667,-122.1243C611.7667,-136.7832 611.7667,-155 611.7667,-155 611.7667,-155 830.1992,-155 830.1992,-155"/>
<polygon fill="#000000" stroke="#000000" points="830.1992,-158.5001 840.1992,-155 830.1991,-151.5001 830.1992,-158.5001"/>
</g>
<!-- FiltersComponent -->
<g id="node9" class="node">
<title>FiltersComponent</title>
<polygon fill="#ffffb3" stroke="#000000" points="492.6066,-122 375.3934,-122 375.3934,-86 492.6066,-86 492.6066,-122"/>
<text text-anchor="middle" x="434" y="-99.8" font-family="Times,serif" font-size="14.00" fill="#000000">FiltersComponent</text>
</g>
<!-- FiltersComponent&#45;&gt;FiltersModule -->
<g id="edge9" class="edge">
<title>FiltersComponent&#45;&gt;FiltersModule</title>
<path fill="none" stroke="#000000" d="M437.3508,-122.0091C437.3508,-138.0494 437.3508,-159 437.3508,-159 437.3508,-159 830.1993,-159 830.1993,-159"/>
<polygon fill="#000000" stroke="#000000" points="830.1993,-162.5001 840.1993,-159 830.1992,-155.5001 830.1993,-162.5001"/>
</g>
<!-- FilterBtnComponent  -->
<g id="node14" class="node">
<title>FilterBtnComponent </title>
<polygon fill="#fb8072" stroke="#000000" points="1714.8898,-252 1579.1102,-252 1579.1102,-216 1714.8898,-216 1714.8898,-252"/>
<text text-anchor="middle" x="1647" y="-229.8" font-family="Times,serif" font-size="14.00" fill="#000000">FilterBtnComponent </text>
</g>
<!-- FiltersModule&#45;&gt;FilterBtnComponent  -->
<g id="edge13" class="edge">
<title>FiltersModule&#45;&gt;FilterBtnComponent </title>
<path fill="none" stroke="#000000" stroke-dasharray="5,2" d="M935.6926,-173C1096.1441,-173 1606.3999,-173 1606.3999,-173 1606.3999,-173 1606.3999,-205.698 1606.3999,-205.698"/>
<polygon fill="#000000" stroke="#000000" points="1602.9,-205.698 1606.3999,-215.698 1609.9,-205.698 1602.9,-205.698"/>
</g>
<!-- FilterBtnsPanelComponent  -->
<g id="node15" class="node">
<title>FilterBtnsPanelComponent </title>
<polygon fill="#fb8072" stroke="#000000" points="1560.9362,-252 1389.0638,-252 1389.0638,-216 1560.9362,-216 1560.9362,-252"/>
<text text-anchor="middle" x="1475" y="-229.8" font-family="Times,serif" font-size="14.00" fill="#000000">FilterBtnsPanelComponent </text>
</g>
<!-- FiltersModule&#45;&gt;FilterBtnsPanelComponent  -->
<g id="edge14" class="edge">
<title>FiltersModule&#45;&gt;FilterBtnsPanelComponent </title>
<path fill="none" stroke="#000000" stroke-dasharray="5,2" d="M936.0641,-177C1065.888,-177 1413.8978,-177 1413.8978,-177 1413.8978,-177 1413.8978,-205.9648 1413.8978,-205.9648"/>
<polygon fill="#000000" stroke="#000000" points="1410.3979,-205.9648 1413.8978,-215.9648 1417.3979,-205.9649 1410.3979,-205.9648"/>
</g>
<!-- FilterEntityPanelComponent  -->
<g id="node16" class="node">
<title>FilterEntityPanelComponent </title>
<polygon fill="#fb8072" stroke="#000000" points="1371.4895,-252 1190.5105,-252 1190.5105,-216 1371.4895,-216 1371.4895,-252"/>
<text text-anchor="middle" x="1281" y="-229.8" font-family="Times,serif" font-size="14.00" fill="#000000">FilterEntityPanelComponent </text>
</g>
<!-- FiltersModule&#45;&gt;FilterEntityPanelComponent  -->
<g id="edge15" class="edge">
<title>FiltersModule&#45;&gt;FilterEntityPanelComponent </title>
<path fill="none" stroke="#000000" stroke-dasharray="5,2" d="M935.9069,-180C1027.8208,-180 1219.902,-180 1219.902,-180 1219.902,-180 1219.902,-205.7181 1219.902,-205.7181"/>
<polygon fill="#000000" stroke="#000000" points="1216.4021,-205.718 1219.902,-215.7181 1223.4021,-205.7181 1216.4021,-205.718"/>
</g>
<!-- FilterPricePanelComponent  -->
<g id="node17" class="node">
<title>FilterPricePanelComponent </title>
<polygon fill="#fb8072" stroke="#000000" points="1172.5274,-252 997.4726,-252 997.4726,-216 1172.5274,-216 1172.5274,-252"/>
<text text-anchor="middle" x="1085" y="-229.8" font-family="Times,serif" font-size="14.00" fill="#000000">FilterPricePanelComponent </text>
</g>
<!-- FiltersModule&#45;&gt;FilterPricePanelComponent  -->
<g id="edge16" class="edge">
<title>FiltersModule&#45;&gt;FilterPricePanelComponent </title>
<path fill="none" stroke="#000000" stroke-dasharray="5,2" d="M935.7267,-184C975.0774,-184 1024.4588,-184 1024.4588,-184 1024.4588,-184 1024.4588,-205.9489 1024.4588,-205.9489"/>
<polygon fill="#000000" stroke="#000000" points="1020.9589,-205.9488 1024.4588,-215.9489 1027.9589,-205.9489 1020.9589,-205.9488"/>
</g>
<!-- FilterRatingPanelComponent  -->
<g id="node18" class="node">
<title>FilterRatingPanelComponent </title>
<polygon fill="#fb8072" stroke="#000000" points="979.5972,-252 796.4028,-252 796.4028,-216 979.5972,-216 979.5972,-252"/>
<text text-anchor="middle" x="888" y="-229.8" font-family="Times,serif" font-size="14.00" fill="#000000">FilterRatingPanelComponent </text>
</g>
<!-- FiltersModule&#45;&gt;FilterRatingPanelComponent  -->
<g id="edge17" class="edge">
<title>FiltersModule&#45;&gt;FilterRatingPanelComponent </title>
<path fill="none" stroke="#000000" stroke-dasharray="5,2" d="M888,-187.1061C888,-187.1061 888,-205.991 888,-205.991"/>
<polygon fill="#000000" stroke="#000000" points="884.5001,-205.9909 888,-215.991 891.5001,-205.991 884.5001,-205.9909"/>
</g>
<!-- FilterSelectionPanelComponent  -->
<g id="node19" class="node">
<title>FilterSelectionPanelComponent </title>
<polygon fill="#fb8072" stroke="#000000" points="778.3629,-252 579.6371,-252 579.6371,-216 778.3629,-216 778.3629,-252"/>
<text text-anchor="middle" x="679" y="-229.8" font-family="Times,serif" font-size="14.00" fill="#000000">FilterSelectionPanelComponent </text>
</g>
<!-- FiltersModule&#45;&gt;FilterSelectionPanelComponent  -->
<g id="edge18" class="edge">
<title>FiltersModule&#45;&gt;FilterSelectionPanelComponent </title>
<path fill="none" stroke="#000000" stroke-dasharray="5,2" d="M840.3186,-184C790.6622,-184 720.0398,-184 720.0398,-184 720.0398,-184 720.0398,-205.9489 720.0398,-205.9489"/>
<polygon fill="#000000" stroke="#000000" points="716.5399,-205.9488 720.0398,-215.9489 723.5399,-205.9489 716.5399,-205.9488"/>
</g>
<!-- FilterSmartPanelComponent  -->
<g id="node20" class="node">
<title>FilterSmartPanelComponent </title>
<polygon fill="#fb8072" stroke="#000000" points="561.7036,-252 382.2964,-252 382.2964,-216 561.7036,-216 561.7036,-252"/>
<text text-anchor="middle" x="472" y="-229.8" font-family="Times,serif" font-size="14.00" fill="#000000">FilterSmartPanelComponent </text>
</g>
<!-- FiltersModule&#45;&gt;FilterSmartPanelComponent  -->
<g id="edge19" class="edge">
<title>FiltersModule&#45;&gt;FilterSmartPanelComponent </title>
<path fill="none" stroke="#000000" stroke-dasharray="5,2" d="M840.1707,-180C743.9461,-180 536.0686,-180 536.0686,-180 536.0686,-180 536.0686,-205.7181 536.0686,-205.7181"/>
<polygon fill="#000000" stroke="#000000" points="532.5686,-205.718 536.0686,-215.7181 539.5686,-205.7181 532.5686,-205.718"/>
</g>
<!-- FilterTagComponent  -->
<g id="node21" class="node">
<title>FilterTagComponent </title>
<polygon fill="#fb8072" stroke="#000000" points="364.4292,-252 227.5708,-252 227.5708,-216 364.4292,-216 364.4292,-252"/>
<text text-anchor="middle" x="296" y="-229.8" font-family="Times,serif" font-size="14.00" fill="#000000">FilterTagComponent </text>
</g>
<!-- FiltersModule&#45;&gt;FilterTagComponent  -->
<g id="edge20" class="edge">
<title>FiltersModule&#45;&gt;FilterTagComponent </title>
<path fill="none" stroke="#000000" stroke-dasharray="5,2" d="M839.9916,-177C709.4192,-177 357.5612,-177 357.5612,-177 357.5612,-177 357.5612,-205.9648 357.5612,-205.9648"/>
<polygon fill="#000000" stroke="#000000" points="354.0613,-205.9648 357.5612,-215.9648 361.0613,-205.9649 354.0613,-205.9648"/>
</g>
<!-- FiltersComponent  -->
<g id="node22" class="node">
<title>FiltersComponent </title>
<polygon fill="#fb8072" stroke="#000000" points="209.1072,-252 88.8928,-252 88.8928,-216 209.1072,-216 209.1072,-252"/>
<text text-anchor="middle" x="149" y="-229.8" font-family="Times,serif" font-size="14.00" fill="#000000">FiltersComponent </text>
</g>
<!-- FiltersModule&#45;&gt;FiltersComponent  -->
<g id="edge21" class="edge">
<title>FiltersModule&#45;&gt;FiltersComponent </title>
<path fill="none" stroke="#000000" stroke-dasharray="5,2" d="M840.1063,-173C680.2274,-173 174.9311,-173 174.9311,-173 174.9311,-173 174.9311,-205.698 174.9311,-205.698"/>
<polygon fill="#000000" stroke="#000000" points="171.4312,-205.698 174.9311,-215.698 178.4312,-205.698 171.4312,-205.698"/>
</g>
<!-- BadgeModule -->
<g id="node11" class="node">
<title>BadgeModule</title>
<polygon fill="#8dd3c7" stroke="#000000" points="350.8161,-122 347.8161,-126 326.8161,-126 323.8161,-122 255.1839,-122 255.1839,-86 350.8161,-86 350.8161,-122"/>
<text text-anchor="middle" x="303" y="-99.8" font-family="Times,serif" font-size="14.00" fill="#000000">BadgeModule</text>
</g>
<!-- BadgeModule&#45;&gt;FiltersModule -->
<g id="edge10" class="edge">
<title>BadgeModule&#45;&gt;FiltersModule</title>
<path fill="none" stroke="#000000" d="M303,-122.0336C303,-139.0597 303,-162 303,-162 303,-162 830.127,-162 830.127,-162"/>
<polygon fill="#000000" stroke="#000000" points="830.127,-165.5001 840.127,-162 830.127,-158.5001 830.127,-165.5001"/>
</g>
<!-- RatingModule -->
<g id="node12" class="node">
<title>RatingModule</title>
<polygon fill="#8dd3c7" stroke="#000000" points="237.3823,-122 234.3823,-126 213.3823,-126 210.3823,-122 140.6177,-122 140.6177,-86 237.3823,-86 237.3823,-122"/>
<text text-anchor="middle" x="189" y="-99.8" font-family="Times,serif" font-size="14.00" fill="#000000">RatingModule</text>
</g>
<!-- RatingModule&#45;&gt;FiltersModule -->
<g id="edge11" class="edge">
<title>RatingModule&#45;&gt;FiltersModule</title>
<path fill="none" stroke="#000000" d="M232.4883,-122.2667C232.4883,-140.5552 232.4883,-166 232.4883,-166 232.4883,-166 830.3292,-166 830.3292,-166"/>
<polygon fill="#000000" stroke="#000000" points="830.3292,-169.5001 840.3292,-166 830.3292,-162.5001 830.3292,-169.5001"/>
</g>
<!-- SharedModule -->
<g id="node13" class="node">
<title>SharedModule</title>
<polygon fill="#8dd3c7" stroke="#000000" points="122.4231,-122 119.4231,-126 98.4231,-126 95.4231,-122 23.5769,-122 23.5769,-86 122.4231,-86 122.4231,-122"/>
<text text-anchor="middle" x="73" y="-99.8" font-family="Times,serif" font-size="14.00" fill="#000000">SharedModule</text>
</g>
<!-- SharedModule&#45;&gt;FiltersModule -->
<g id="edge12" class="edge">
<title>SharedModule&#45;&gt;FiltersModule</title>
<path fill="none" stroke="#000000" d="M105.4539,-122.1061C105.4539,-141.3391 105.4539,-169 105.4539,-169 105.4539,-169 830.2262,-169 830.2262,-169"/>
<polygon fill="#000000" stroke="#000000" points="830.2263,-172.5001 840.2262,-169 830.2262,-165.5001 830.2263,-172.5001"/>
</g>
</g>
</svg>
