<?xml version="1.0" encoding="UTF-8" standalone="no"?>
<!DOCTYPE svg PUBLIC "-//W3C//DTD SVG 1.1//EN"
 "http://www.w3.org/Graphics/SVG/1.1/DTD/svg11.dtd">
<!-- Generated by graphviz version 2.40.1 (20161225.0304)
 -->
<!-- Title: dependencies Pages: 1 -->
<svg width="7273pt" height="284pt"
 viewBox="0.00 0.00 7273.00 284.00" xmlns="http://www.w3.org/2000/svg" xmlns:xlink="http://www.w3.org/1999/xlink">
<g id="graph0" class="graph" transform="scale(1 1) rotate(0) translate(4 280)">
<title>dependencies</title>
<polygon fill="#ffffff" stroke="transparent" points="-4,4 -4,-280 7269,-280 7269,4 -4,4"/>
<text text-anchor="start" x="3611.5091" y="-42.4" font-family="sans-serif" font-weight="bold" font-size="14.00" fill="#000000">Legend</text>
<polygon fill="#ffffb3" stroke="transparent" points="3398.5,-10 3398.5,-30 3418.5,-30 3418.5,-10 3398.5,-10"/>
<text text-anchor="start" x="3422.129" y="-15.4" font-family="sans-serif" font-size="14.00" fill="#000000"> &#160;Declarations</text>
<polygon fill="#8dd3c7" stroke="transparent" points="3511.5,-10 3511.5,-30 3531.5,-30 3531.5,-10 3511.5,-10"/>
<text text-anchor="start" x="3535.2251" y="-15.4" font-family="sans-serif" font-size="14.00" fill="#000000"> &#160;Module</text>
<polygon fill="#80b1d3" stroke="transparent" points="3597.5,-10 3597.5,-30 3617.5,-30 3617.5,-10 3597.5,-10"/>
<text text-anchor="start" x="3621.2812" y="-15.4" font-family="sans-serif" font-size="14.00" fill="#000000"> &#160;Bootstrap</text>
<polygon fill="#fdb462" stroke="transparent" points="3694.5,-10 3694.5,-30 3714.5,-30 3714.5,-10 3694.5,-10"/>
<text text-anchor="start" x="3718.1732" y="-15.4" font-family="sans-serif" font-size="14.00" fill="#000000"> &#160;Providers</text>
<polygon fill="#fb8072" stroke="transparent" points="3790.5,-10 3790.5,-30 3810.5,-30 3810.5,-10 3790.5,-10"/>
<text text-anchor="start" x="3814.2258" y="-15.4" font-family="sans-serif" font-size="14.00" fill="#000000"> &#160;Exports</text>
<g id="clust1" class="cluster">
<title>cluster_ProductModule</title>
<polygon fill="none" stroke="#000000" stroke-dasharray="1,5" points="8,-70 8,-268 7257,-268 7257,-70 8,-70"/>
</g>
<g id="clust2" class="cluster">
<title>cluster_ProductModule_declarations</title>
<polygon fill="none" stroke="#000000" points="2788,-78 2788,-130 7249,-130 7249,-78 2788,-78"/>
</g>
<g id="clust27" class="cluster">
<title>cluster_ProductModule_imports</title>
<polygon fill="none" stroke="#000000" points="238,-78 238,-130 2780,-130 2780,-78 238,-78"/>
</g>
<g id="clust28" class="cluster">
<title>cluster_ProductModule_exports</title>
<polygon fill="none" stroke="#000000" points="3060,-208 3060,-260 3264,-260 3264,-208 3060,-208"/>
</g>
<g id="clust30" class="cluster">
<title>cluster_ProductModule_providers</title>
<polygon fill="none" stroke="#000000" points="16,-78 16,-130 230,-130 230,-78 16,-78"/>
</g>
<!-- EmailListComponent -->
<g id="node1" class="node">
<title>EmailListComponent</title>
<polygon fill="#ffffb3" stroke="#000000" points="7241.0505,-122 7104.9495,-122 7104.9495,-86 7241.0505,-86 7241.0505,-122"/>
<text text-anchor="middle" x="7173" y="-99.8" font-family="Times,serif" font-size="14.00" fill="#000000">EmailListComponent</text>
</g>
<!-- ProductModule -->
<g id="node25" class="node">
<title>ProductModule</title>
<polygon fill="#8dd3c7" stroke="#000000" points="3213.5982,-187 3210.5982,-191 3189.5982,-191 3186.5982,-187 3110.4018,-187 3110.4018,-151 3213.5982,-151 3213.5982,-187"/>
<text text-anchor="middle" x="3162" y="-164.8" font-family="Times,serif" font-size="14.00" fill="#000000">ProductModule</text>
</g>
<!-- EmailListComponent&#45;&gt;ProductModule -->
<g id="edge1" class="edge">
<title>EmailListComponent&#45;&gt;ProductModule</title>
<path fill="none" stroke="#000000" d="M7173,-122.1985C7173,-146.3563 7173,-186 7173,-186 7173,-186 3223.8122,-186 3223.8122,-186"/>
<polygon fill="#000000" stroke="#000000" points="3223.8123,-182.5001 3213.8122,-186 3223.8122,-189.5001 3223.8123,-182.5001"/>
</g>
<!-- GroupByPipe -->
<g id="node2" class="node">
<title>GroupByPipe</title>
<polygon fill="#ffffb3" stroke="#000000" points="7086.4916,-122 6993.5084,-122 6993.5084,-86 7086.4916,-86 7086.4916,-122"/>
<text text-anchor="middle" x="7040" y="-99.8" font-family="Times,serif" font-size="14.00" fill="#000000">GroupByPipe</text>
</g>
<!-- GroupByPipe&#45;&gt;ProductModule -->
<g id="edge2" class="edge">
<title>GroupByPipe&#45;&gt;ProductModule</title>
<path fill="none" stroke="#000000" d="M7040,-122.1532C7040,-145.7566 7040,-184 7040,-184 7040,-184 3223.8881,-184 3223.8881,-184"/>
<polygon fill="#000000" stroke="#000000" points="3223.8882,-180.5001 3213.8881,-184 3223.8881,-187.5001 3223.8882,-180.5001"/>
</g>
<!-- NewProductDialogComponent -->
<g id="node3" class="node">
<title>NewProductDialogComponent</title>
<polygon fill="#ffffb3" stroke="#000000" points="6975.9114,-122 6786.0886,-122 6786.0886,-86 6975.9114,-86 6975.9114,-122"/>
<text text-anchor="middle" x="6881" y="-99.8" font-family="Times,serif" font-size="14.00" fill="#000000">NewProductDialogComponent</text>
</g>
<!-- NewProductDialogComponent&#45;&gt;ProductModule -->
<g id="edge3" class="edge">
<title>NewProductDialogComponent&#45;&gt;ProductModule</title>
<path fill="none" stroke="#000000" d="M6881,-122.3228C6881,-145.6602 6881,-183 6881,-183 6881,-183 3223.863,-183 3223.863,-183"/>
<polygon fill="#000000" stroke="#000000" points="3223.8631,-179.5001 3213.863,-183 3223.863,-186.5001 3223.8631,-179.5001"/>
</g>
<!-- ProductActivityComponent -->
<g id="node4" class="node">
<title>ProductActivityComponent</title>
<polygon fill="#ffffb3" stroke="#000000" points="6768.2646,-122 6597.7354,-122 6597.7354,-86 6768.2646,-86 6768.2646,-122"/>
<text text-anchor="middle" x="6683" y="-99.8" font-family="Times,serif" font-size="14.00" fill="#000000">ProductActivityComponent</text>
</g>
<!-- ProductActivityComponent&#45;&gt;ProductModule -->
<g id="edge4" class="edge">
<title>ProductActivityComponent&#45;&gt;ProductModule</title>
<path fill="none" stroke="#000000" d="M6683,-122.2479C6683,-145.0179 6683,-181 6683,-181 6683,-181 3223.8163,-181 3223.8163,-181"/>
<polygon fill="#000000" stroke="#000000" points="3223.8164,-177.5001 3213.8163,-181 3223.8163,-184.5001 3223.8164,-177.5001"/>
</g>
<!-- ProductCardViewComponent -->
<g id="node5" class="node">
<title>ProductCardViewComponent</title>
<polygon fill="#ffffb3" stroke="#000000" points="6579.4115,-122 6396.5885,-122 6396.5885,-86 6579.4115,-86 6579.4115,-122"/>
<text text-anchor="middle" x="6488" y="-99.8" font-family="Times,serif" font-size="14.00" fill="#000000">ProductCardViewComponent</text>
</g>
<!-- ProductCardViewComponent&#45;&gt;ProductModule -->
<g id="edge5" class="edge">
<title>ProductCardViewComponent&#45;&gt;ProductModule</title>
<path fill="none" stroke="#000000" d="M6488,-122.1554C6488,-144.3519 6488,-179 6488,-179 6488,-179 3223.576,-179 3223.576,-179"/>
<polygon fill="#000000" stroke="#000000" points="3223.5761,-175.5001 3213.576,-179 3223.576,-182.5001 3223.5761,-175.5001"/>
</g>
<!-- ProductCarouselComponent -->
<g id="node6" class="node">
<title>ProductCarouselComponent</title>
<polygon fill="#ffffb3" stroke="#000000" points="6378.1428,-122 6203.8572,-122 6203.8572,-86 6378.1428,-86 6378.1428,-122"/>
<text text-anchor="middle" x="6291" y="-99.8" font-family="Times,serif" font-size="14.00" fill="#000000">ProductCarouselComponent</text>
</g>
<!-- ProductCarouselComponent&#45;&gt;ProductModule -->
<g id="edge6" class="edge">
<title>ProductCarouselComponent&#45;&gt;ProductModule</title>
<path fill="none" stroke="#000000" d="M6291,-122.2921C6291,-144.2057 6291,-178 6291,-178 6291,-178 3223.699,-178 3223.699,-178"/>
<polygon fill="#000000" stroke="#000000" points="3223.6991,-174.5001 3213.699,-178 3223.699,-181.5001 3223.6991,-174.5001"/>
</g>
<!-- ProductDetailsComponent -->
<g id="node7" class="node">
<title>ProductDetailsComponent</title>
<polygon fill="#ffffb3" stroke="#000000" points="6185.0337,-122 6020.9663,-122 6020.9663,-86 6185.0337,-86 6185.0337,-122"/>
<text text-anchor="middle" x="6103" y="-99.8" font-family="Times,serif" font-size="14.00" fill="#000000">ProductDetailsComponent</text>
</g>
<!-- ProductDetailsComponent&#45;&gt;ProductModule -->
<g id="edge7" class="edge">
<title>ProductDetailsComponent&#45;&gt;ProductModule</title>
<path fill="none" stroke="#000000" d="M6103,-122.1686C6103,-143.498 6103,-176 6103,-176 6103,-176 3223.6689,-176 3223.6689,-176"/>
<polygon fill="#000000" stroke="#000000" points="3223.6689,-172.5001 3213.6689,-176 3223.6689,-179.5001 3223.6689,-172.5001"/>
</g>
<!-- ProductGeneralInfoComponent -->
<g id="node8" class="node">
<title>ProductGeneralInfoComponent</title>
<polygon fill="#ffffb3" stroke="#000000" points="6002.0042,-122 5809.9958,-122 5809.9958,-86 6002.0042,-86 6002.0042,-122"/>
<text text-anchor="middle" x="5906" y="-99.8" font-family="Times,serif" font-size="14.00" fill="#000000">ProductGeneralInfoComponent</text>
</g>
<!-- ProductGeneralInfoComponent&#45;&gt;ProductModule -->
<g id="edge8" class="edge">
<title>ProductGeneralInfoComponent&#45;&gt;ProductModule</title>
<path fill="none" stroke="#000000" d="M5906,-122.0267C5906,-142.7672 5906,-174 5906,-174 5906,-174 3223.7611,-174 3223.7611,-174"/>
<polygon fill="#000000" stroke="#000000" points="3223.7611,-170.5001 3213.7611,-174 3223.761,-177.5001 3223.7611,-170.5001"/>
</g>
<!-- ProductGridCardComponent -->
<g id="node9" class="node">
<title>ProductGridCardComponent</title>
<polygon fill="#ffffb3" stroke="#000000" points="5791.7506,-122 5614.2494,-122 5614.2494,-86 5791.7506,-86 5791.7506,-122"/>
<text text-anchor="middle" x="5703" y="-99.8" font-family="Times,serif" font-size="14.00" fill="#000000">ProductGridCardComponent</text>
</g>
<!-- ProductGridCardComponent&#45;&gt;ProductModule -->
<g id="edge9" class="edge">
<title>ProductGridCardComponent&#45;&gt;ProductModule</title>
<path fill="none" stroke="#000000" d="M5703,-122.1289C5703,-142.5724 5703,-173 5703,-173 5703,-173 3223.6199,-173 3223.6199,-173"/>
<polygon fill="#000000" stroke="#000000" points="3223.6199,-169.5001 3213.6199,-173 3223.6199,-176.5001 3223.6199,-169.5001"/>
</g>
<!-- ProductIconsComponent -->
<g id="node10" class="node">
<title>ProductIconsComponent</title>
<polygon fill="#ffffb3" stroke="#000000" points="5596.7007,-122 5441.2993,-122 5441.2993,-86 5596.7007,-86 5596.7007,-122"/>
<text text-anchor="middle" x="5519" y="-99.8" font-family="Times,serif" font-size="14.00" fill="#000000">ProductIconsComponent</text>
</g>
<!-- ProductIconsComponent&#45;&gt;ProductModule -->
<g id="edge10" class="edge">
<title>ProductIconsComponent&#45;&gt;ProductModule</title>
<path fill="none" stroke="#000000" d="M5519,-122.308C5519,-142.1455 5519,-171 5519,-171 5519,-171 3223.6984,-171 3223.6984,-171"/>
<polygon fill="#000000" stroke="#000000" points="3223.6985,-167.5001 3213.6984,-171 3223.6984,-174.5001 3223.6985,-167.5001"/>
</g>
<!-- ProductListViewComponent -->
<g id="node11" class="node">
<title>ProductListViewComponent</title>
<polygon fill="#ffffb3" stroke="#000000" points="5423.4776,-122 5246.5224,-122 5246.5224,-86 5423.4776,-86 5423.4776,-122"/>
<text text-anchor="middle" x="5335" y="-99.8" font-family="Times,serif" font-size="14.00" fill="#000000">ProductListViewComponent</text>
</g>
<!-- ProductListViewComponent&#45;&gt;ProductModule -->
<g id="edge11" class="edge">
<title>ProductListViewComponent&#45;&gt;ProductModule</title>
<path fill="none" stroke="#000000" d="M5335,-122.1061C5335,-141.3391 5335,-169 5335,-169 5335,-169 3223.5716,-169 3223.5716,-169"/>
<polygon fill="#000000" stroke="#000000" points="3223.5717,-165.5001 3213.5716,-169 3223.5716,-172.5001 3223.5717,-165.5001"/>
</g>
<!-- ProductNavigationComponent -->
<g id="node12" class="node">
<title>ProductNavigationComponent</title>
<polygon fill="#ffffb3" stroke="#000000" points="5228.5884,-122 5041.4116,-122 5041.4116,-86 5228.5884,-86 5228.5884,-122"/>
<text text-anchor="middle" x="5135" y="-99.8" font-family="Times,serif" font-size="14.00" fill="#000000">ProductNavigationComponent</text>
</g>
<!-- ProductNavigationComponent&#45;&gt;ProductModule -->
<g id="edge12" class="edge">
<title>ProductNavigationComponent&#45;&gt;ProductModule</title>
<path fill="none" stroke="#000000" d="M5135,-122.1686C5135,-141.0898 5135,-168 5135,-168 5135,-168 3223.7588,-168 3223.7588,-168"/>
<polygon fill="#000000" stroke="#000000" points="3223.7589,-164.5001 3213.7588,-168 3223.7588,-171.5001 3223.7589,-164.5001"/>
</g>
<!-- ProductPreviewComponent -->
<g id="node13" class="node">
<title>ProductPreviewComponent</title>
<polygon fill="#ffffb3" stroke="#000000" points="5023.2506,-122 4852.7494,-122 4852.7494,-86 5023.2506,-86 5023.2506,-122"/>
<text text-anchor="middle" x="4938" y="-99.8" font-family="Times,serif" font-size="14.00" fill="#000000">ProductPreviewComponent</text>
</g>
<!-- ProductPreviewComponent&#45;&gt;ProductModule -->
<g id="edge13" class="edge">
<title>ProductPreviewComponent&#45;&gt;ProductModule</title>
<path fill="none" stroke="#000000" d="M4938,-122.2667C4938,-140.5552 4938,-166 4938,-166 4938,-166 3223.7127,-166 3223.7127,-166"/>
<polygon fill="#000000" stroke="#000000" points="3223.7127,-162.5001 3213.7127,-166 3223.7126,-169.5001 3223.7127,-162.5001"/>
</g>
<!-- ProductSmallCardComponent -->
<g id="node14" class="node">
<title>ProductSmallCardComponent</title>
<polygon fill="#ffffb3" stroke="#000000" points="4834.2618,-122 4649.7382,-122 4649.7382,-86 4834.2618,-86 4834.2618,-122"/>
<text text-anchor="middle" x="4742" y="-99.8" font-family="Times,serif" font-size="14.00" fill="#000000">ProductSmallCardComponent</text>
</g>
<!-- ProductSmallCardComponent&#45;&gt;ProductModule -->
<g id="edge14" class="edge">
<title>ProductSmallCardComponent&#45;&gt;ProductModule</title>
<path fill="none" stroke="#000000" d="M4742,-122.302C4742,-140.2699 4742,-165 4742,-165 4742,-165 3223.6711,-165 3223.6711,-165"/>
<polygon fill="#000000" stroke="#000000" points="3223.6712,-161.5001 3213.6711,-165 3223.6711,-168.5001 3223.6712,-161.5001"/>
</g>
<!-- ProductSubInfoComponent -->
<g id="node15" class="node">
<title>ProductSubInfoComponent</title>
<polygon fill="#ffffb3" stroke="#000000" points="4631.9846,-122 4462.0154,-122 4462.0154,-86 4631.9846,-86 4631.9846,-122"/>
<text text-anchor="middle" x="4547" y="-99.8" font-family="Times,serif" font-size="14.00" fill="#000000">ProductSubInfoComponent</text>
</g>
<!-- ProductSubInfoComponent&#45;&gt;ProductModule -->
<g id="edge15" class="edge">
<title>ProductSubInfoComponent&#45;&gt;ProductModule</title>
<path fill="none" stroke="#000000" d="M4547,-122.0225C4547,-139.3734 4547,-163 4547,-163 4547,-163 3223.7659,-163 3223.7659,-163"/>
<polygon fill="#000000" stroke="#000000" points="3223.7659,-159.5001 3213.7659,-163 3223.7659,-166.5001 3223.7659,-159.5001"/>
</g>
<!-- ProductSummaryComponent -->
<g id="node16" class="node">
<title>ProductSummaryComponent</title>
<polygon fill="#ffffb3" stroke="#000000" points="4443.8201,-122 4264.1799,-122 4264.1799,-86 4443.8201,-86 4443.8201,-122"/>
<text text-anchor="middle" x="4354" y="-99.8" font-family="Times,serif" font-size="14.00" fill="#000000">ProductSummaryComponent</text>
</g>
<!-- ProductSummaryComponent&#45;&gt;ProductModule -->
<g id="edge16" class="edge">
<title>ProductSummaryComponent&#45;&gt;ProductModule</title>
<path fill="none" stroke="#000000" d="M4354,-122.0352C4354,-138.7344 4354,-161 4354,-161 4354,-161 3223.6013,-161 3223.6013,-161"/>
<polygon fill="#000000" stroke="#000000" points="3223.6014,-157.5001 3213.6013,-161 3223.6013,-164.5001 3223.6014,-157.5001"/>
</g>
<!-- ProductTeamRatingComponent -->
<g id="node17" class="node">
<title>ProductTeamRatingComponent</title>
<polygon fill="#ffffb3" stroke="#000000" points="4246.0856,-122 4051.9144,-122 4051.9144,-86 4246.0856,-86 4246.0856,-122"/>
<text text-anchor="middle" x="4149" y="-99.8" font-family="Times,serif" font-size="14.00" fill="#000000">ProductTeamRatingComponent</text>
</g>
<!-- ProductTeamRatingComponent&#45;&gt;ProductModule -->
<g id="edge17" class="edge">
<title>ProductTeamRatingComponent&#45;&gt;ProductModule</title>
<path fill="none" stroke="#000000" d="M4149,-122.027C4149,-138.3976 4149,-160 4149,-160 4149,-160 3223.6757,-160 3223.6757,-160"/>
<polygon fill="#000000" stroke="#000000" points="3223.6758,-156.5001 3213.6757,-160 3223.6757,-163.5001 3223.6758,-156.5001"/>
</g>
<!-- ProductsPageComponent -->
<g id="node18" class="node">
<title>ProductsPageComponent</title>
<polygon fill="#ffffb3" stroke="#000000" points="4033.5379,-122 3876.4621,-122 3876.4621,-86 4033.5379,-86 4033.5379,-122"/>
<text text-anchor="middle" x="3955" y="-99.8" font-family="Times,serif" font-size="14.00" fill="#000000">ProductsPageComponent</text>
</g>
<!-- ProductsPageComponent&#45;&gt;ProductModule -->
<g id="edge18" class="edge">
<title>ProductsPageComponent&#45;&gt;ProductModule</title>
<path fill="none" stroke="#000000" d="M3955,-122.2819C3955,-137.9478 3955,-158 3955,-158 3955,-158 3223.725,-158 3223.725,-158"/>
<polygon fill="#000000" stroke="#000000" points="3223.7251,-154.5001 3213.725,-158 3223.725,-161.5001 3223.7251,-154.5001"/>
</g>
<!-- ProjectCardComponent -->
<g id="node19" class="node">
<title>ProjectCardComponent</title>
<polygon fill="#ffffb3" stroke="#000000" points="3858.1979,-122 3709.8021,-122 3709.8021,-86 3858.1979,-86 3858.1979,-122"/>
<text text-anchor="middle" x="3784" y="-99.8" font-family="Times,serif" font-size="14.00" fill="#000000">ProjectCardComponent</text>
</g>
<!-- ProjectCardComponent&#45;&gt;ProductModule -->
<g id="edge19" class="edge">
<title>ProjectCardComponent&#45;&gt;ProductModule</title>
<path fill="none" stroke="#000000" d="M3784,-122.1871C3784,-137.1824 3784,-156 3784,-156 3784,-156 3223.6955,-156 3223.6955,-156"/>
<polygon fill="#000000" stroke="#000000" points="3223.6955,-152.5001 3213.6955,-156 3223.6955,-159.5001 3223.6955,-152.5001"/>
</g>
<!-- RfqDialogComponent -->
<g id="node20" class="node">
<title>RfqDialogComponent</title>
<polygon fill="#ffffb3" stroke="#000000" points="3692.4327,-122 3551.5673,-122 3551.5673,-86 3692.4327,-86 3692.4327,-122"/>
<text text-anchor="middle" x="3622" y="-99.8" font-family="Times,serif" font-size="14.00" fill="#000000">RfqDialogComponent</text>
</g>
<!-- RfqDialogComponent&#45;&gt;ProductModule -->
<g id="edge20" class="edge">
<title>RfqDialogComponent&#45;&gt;ProductModule</title>
<path fill="none" stroke="#000000" d="M3622,-122.1243C3622,-136.7832 3622,-155 3622,-155 3622,-155 3223.8737,-155 3223.8737,-155"/>
<polygon fill="#000000" stroke="#000000" points="3223.8737,-151.5001 3213.8737,-155 3223.8736,-158.5001 3223.8737,-151.5001"/>
</g>
<!-- SelectableImageComponent -->
<g id="node21" class="node">
<title>SelectableImageComponent</title>
<polygon fill="#ffffb3" stroke="#000000" points="3533.8403,-122 3360.1597,-122 3360.1597,-86 3533.8403,-86 3533.8403,-122"/>
<text text-anchor="middle" x="3447" y="-99.8" font-family="Times,serif" font-size="14.00" fill="#000000">SelectableImageComponent</text>
</g>
<!-- SelectableImageComponent&#45;&gt;ProductModule -->
<g id="edge21" class="edge">
<title>SelectableImageComponent&#45;&gt;ProductModule</title>
<path fill="none" stroke="#000000" d="M3447,-122.2458C3447,-136.1772 3447,-153 3447,-153 3447,-153 3223.6113,-153 3223.6113,-153"/>
<polygon fill="#000000" stroke="#000000" points="3223.6114,-149.5001 3213.6113,-153 3223.6113,-156.5001 3223.6114,-149.5001"/>
</g>
<!-- SelectionActionsComponent -->
<g id="node22" class="node">
<title>SelectionActionsComponent</title>
<polygon fill="#ffffb3" stroke="#000000" points="3342.4776,-122 3165.5224,-122 3165.5224,-86 3342.4776,-86 3342.4776,-122"/>
<text text-anchor="middle" x="3254" y="-99.8" font-family="Times,serif" font-size="14.00" fill="#000000">SelectionActionsComponent</text>
</g>
<!-- SelectionActionsComponent&#45;&gt;ProductModule -->
<g id="edge22" class="edge">
<title>SelectionActionsComponent&#45;&gt;ProductModule</title>
<path fill="none" stroke="#000000" d="M3189.5302,-122.1061C3189.5302,-122.1061 3189.5302,-140.991 3189.5302,-140.991"/>
<polygon fill="#000000" stroke="#000000" points="3186.0302,-140.9909 3189.5302,-150.991 3193.0302,-140.991 3186.0302,-140.9909"/>
</g>
<!-- SupplierCardComponent -->
<g id="node23" class="node">
<title>SupplierCardComponent</title>
<polygon fill="#ffffb3" stroke="#000000" points="3147.9832,-122 2992.0168,-122 2992.0168,-86 3147.9832,-86 3147.9832,-122"/>
<text text-anchor="middle" x="3070" y="-99.8" font-family="Times,serif" font-size="14.00" fill="#000000">SupplierCardComponent</text>
</g>
<!-- SupplierCardComponent&#45;&gt;ProductModule -->
<g id="edge23" class="edge">
<title>SupplierCardComponent&#45;&gt;ProductModule</title>
<path fill="none" stroke="#000000" d="M3129.2212,-122.1061C3129.2212,-122.1061 3129.2212,-140.991 3129.2212,-140.991"/>
<polygon fill="#000000" stroke="#000000" points="3125.7213,-140.9909 3129.2212,-150.991 3132.7213,-140.991 3125.7213,-140.9909"/>
</g>
<!-- TeamRatingCardComponent -->
<g id="node24" class="node">
<title>TeamRatingCardComponent</title>
<polygon fill="#ffffb3" stroke="#000000" points="2973.7492,-122 2796.2508,-122 2796.2508,-86 2973.7492,-86 2973.7492,-122"/>
<text text-anchor="middle" x="2885" y="-99.8" font-family="Times,serif" font-size="14.00" fill="#000000">TeamRatingCardComponent</text>
</g>
<!-- TeamRatingCardComponent&#45;&gt;ProductModule -->
<g id="edge24" class="edge">
<title>TeamRatingCardComponent&#45;&gt;ProductModule</title>
<path fill="none" stroke="#000000" d="M2885,-122.2458C2885,-136.1772 2885,-153 2885,-153 2885,-153 3100.2234,-153 3100.2234,-153"/>
<polygon fill="#000000" stroke="#000000" points="3100.2234,-156.5001 3110.2234,-153 3100.2233,-149.5001 3100.2234,-156.5001"/>
</g>
<!-- ProductSmallCardComponent  -->
<g id="node45" class="node">
<title>ProductSmallCardComponent </title>
<polygon fill="#fb8072" stroke="#000000" points="3256.2618,-252 3067.7382,-252 3067.7382,-216 3256.2618,-216 3256.2618,-252"/>
<text text-anchor="middle" x="3162" y="-229.8" font-family="Times,serif" font-size="14.00" fill="#000000">ProductSmallCardComponent </text>
</g>
<!-- ProductModule&#45;&gt;ProductSmallCardComponent  -->
<g id="edge44" class="edge">
<title>ProductModule&#45;&gt;ProductSmallCardComponent </title>
<path fill="none" stroke="#000000" stroke-dasharray="5,2" d="M3162,-187.1061C3162,-187.1061 3162,-205.991 3162,-205.991"/>
<polygon fill="#000000" stroke="#000000" points="3158.5001,-205.9909 3162,-215.991 3165.5001,-205.991 3158.5001,-205.9909"/>
</g>
<!-- ActionBarModule -->
<g id="node26" class="node">
<title>ActionBarModule</title>
<polygon fill="#8dd3c7" stroke="#000000" points="2771.8641,-122 2768.8641,-126 2747.8641,-126 2744.8641,-122 2654.1359,-122 2654.1359,-86 2771.8641,-86 2771.8641,-122"/>
<text text-anchor="middle" x="2713" y="-99.8" font-family="Times,serif" font-size="14.00" fill="#000000">ActionBarModule</text>
</g>
<!-- ActionBarModule&#45;&gt;ProductModule -->
<g id="edge25" class="edge">
<title>ActionBarModule&#45;&gt;ProductModule</title>
<path fill="none" stroke="#000000" d="M2713,-122.1243C2713,-136.7832 2713,-155 2713,-155 2713,-155 3100.0554,-155 3100.0554,-155"/>
<polygon fill="#000000" stroke="#000000" points="3100.0554,-158.5001 3110.0554,-155 3100.0553,-151.5001 3100.0554,-158.5001"/>
</g>
<!-- ActivityModule -->
<g id="node27" class="node">
<title>ActivityModule</title>
<polygon fill="#8dd3c7" stroke="#000000" points="2635.9343,-122 2632.9343,-126 2611.9343,-126 2608.9343,-122 2530.0657,-122 2530.0657,-86 2635.9343,-86 2635.9343,-122"/>
<text text-anchor="middle" x="2583" y="-99.8" font-family="Times,serif" font-size="14.00" fill="#000000">ActivityModule</text>
</g>
<!-- ActivityModule&#45;&gt;ProductModule -->
<g id="edge26" class="edge">
<title>ActivityModule&#45;&gt;ProductModule</title>
<path fill="none" stroke="#000000" d="M2583,-122.1871C2583,-137.1824 2583,-156 2583,-156 2583,-156 3100.3631,-156 3100.3631,-156"/>
<polygon fill="#000000" stroke="#000000" points="3100.3631,-159.5001 3110.3631,-156 3100.3631,-152.5001 3100.3631,-159.5001"/>
</g>
<!-- BadgeModule -->
<g id="node28" class="node">
<title>BadgeModule</title>
<polygon fill="#8dd3c7" stroke="#000000" points="2512.8161,-122 2509.8161,-126 2488.8161,-126 2485.8161,-122 2417.1839,-122 2417.1839,-86 2512.8161,-86 2512.8161,-122"/>
<text text-anchor="middle" x="2465" y="-99.8" font-family="Times,serif" font-size="14.00" fill="#000000">BadgeModule</text>
</g>
<!-- BadgeModule&#45;&gt;ProductModule -->
<g id="edge27" class="edge">
<title>BadgeModule&#45;&gt;ProductModule</title>
<path fill="none" stroke="#000000" d="M2465,-122.2819C2465,-137.9478 2465,-158 2465,-158 2465,-158 3100.1811,-158 3100.1811,-158"/>
<polygon fill="#000000" stroke="#000000" points="3100.1812,-161.5001 3110.1811,-158 3100.1811,-154.5001 3100.1812,-161.5001"/>
</g>
<!-- CarouselModule -->
<g id="node29" class="node">
<title>CarouselModule</title>
<polygon fill="#8dd3c7" stroke="#000000" points="2399.8118,-122 2396.8118,-126 2375.8118,-126 2372.8118,-122 2290.1882,-122 2290.1882,-86 2399.8118,-86 2399.8118,-122"/>
<text text-anchor="middle" x="2345" y="-99.8" font-family="Times,serif" font-size="14.00" fill="#000000">CarouselModule</text>
</g>
<!-- CarouselModule&#45;&gt;ProductModule -->
<g id="edge28" class="edge">
<title>CarouselModule&#45;&gt;ProductModule</title>
<path fill="none" stroke="#000000" d="M2345,-122.027C2345,-138.3976 2345,-160 2345,-160 2345,-160 3100.2732,-160 3100.2732,-160"/>
<polygon fill="#000000" stroke="#000000" points="3100.2732,-163.5001 3110.2732,-160 3100.2731,-156.5001 3100.2732,-163.5001"/>
</g>
<!-- CommentModule -->
<g id="node30" class="node">
<title>CommentModule</title>
<polygon fill="#8dd3c7" stroke="#000000" points="2272.273,-122 2269.273,-126 2248.273,-126 2245.273,-122 2157.727,-122 2157.727,-86 2272.273,-86 2272.273,-122"/>
<text text-anchor="middle" x="2215" y="-99.8" font-family="Times,serif" font-size="14.00" fill="#000000">CommentModule</text>
</g>
<!-- CommentModule&#45;&gt;ProductModule -->
<g id="edge29" class="edge">
<title>CommentModule&#45;&gt;ProductModule</title>
<path fill="none" stroke="#000000" d="M2215,-122.0352C2215,-138.7344 2215,-161 2215,-161 2215,-161 3100.4126,-161 3100.4126,-161"/>
<polygon fill="#000000" stroke="#000000" points="3100.4127,-164.5001 3110.4126,-161 3100.4126,-157.5001 3100.4127,-164.5001"/>
</g>
<!-- CustomDialogModule -->
<g id="node31" class="node">
<title>CustomDialogModule</title>
<polygon fill="#8dd3c7" stroke="#000000" points="2139.7148,-122 2136.7148,-126 2115.7148,-126 2112.7148,-122 1998.2852,-122 1998.2852,-86 2139.7148,-86 2139.7148,-122"/>
<text text-anchor="middle" x="2069" y="-99.8" font-family="Times,serif" font-size="14.00" fill="#000000">CustomDialogModule</text>
</g>
<!-- CustomDialogModule&#45;&gt;ProductModule -->
<g id="edge30" class="edge">
<title>CustomDialogModule&#45;&gt;ProductModule</title>
<path fill="none" stroke="#000000" d="M2069,-122.0225C2069,-139.3734 2069,-163 2069,-163 2069,-163 3100.3836,-163 3100.3836,-163"/>
<polygon fill="#000000" stroke="#000000" points="3100.3836,-166.5001 3110.3836,-163 3100.3835,-159.5001 3100.3836,-166.5001"/>
</g>
<!-- DialogModule -->
<g id="node32" class="node">
<title>DialogModule</title>
<polygon fill="#8dd3c7" stroke="#000000" points="1980.6528,-122 1977.6528,-126 1956.6528,-126 1953.6528,-122 1883.3472,-122 1883.3472,-86 1980.6528,-86 1980.6528,-122"/>
<text text-anchor="middle" x="1932" y="-99.8" font-family="Times,serif" font-size="14.00" fill="#000000">DialogModule</text>
</g>
<!-- DialogModule&#45;&gt;ProductModule -->
<g id="edge31" class="edge">
<title>DialogModule&#45;&gt;ProductModule</title>
<path fill="none" stroke="#000000" d="M1932,-122.302C1932,-140.2699 1932,-165 1932,-165 1932,-165 3100.3249,-165 3100.3249,-165"/>
<polygon fill="#000000" stroke="#000000" points="3100.3249,-168.5001 3110.3249,-165 3100.3249,-161.5001 3100.3249,-168.5001"/>
</g>
<!-- DynamicFormsModule -->
<g id="node33" class="node">
<title>DynamicFormsModule</title>
<polygon fill="#8dd3c7" stroke="#000000" points="1865.1456,-122 1862.1456,-126 1841.1456,-126 1838.1456,-122 1718.8544,-122 1718.8544,-86 1865.1456,-86 1865.1456,-122"/>
<text text-anchor="middle" x="1792" y="-99.8" font-family="Times,serif" font-size="14.00" fill="#000000">DynamicFormsModule</text>
</g>
<!-- DynamicFormsModule&#45;&gt;ProductModule -->
<g id="edge32" class="edge">
<title>DynamicFormsModule&#45;&gt;ProductModule</title>
<path fill="none" stroke="#000000" d="M1792,-122.2667C1792,-140.5552 1792,-166 1792,-166 1792,-166 3100.3818,-166 3100.3818,-166"/>
<polygon fill="#000000" stroke="#000000" points="3100.3818,-169.5001 3110.3818,-166 3100.3817,-162.5001 3100.3818,-169.5001"/>
</g>
<!-- FileModule -->
<g id="node34" class="node">
<title>FileModule</title>
<polygon fill="#8dd3c7" stroke="#000000" points="1700.8289,-122 1697.8289,-126 1676.8289,-126 1673.8289,-122 1619.1711,-122 1619.1711,-86 1700.8289,-86 1700.8289,-122"/>
<text text-anchor="middle" x="1660" y="-99.8" font-family="Times,serif" font-size="14.00" fill="#000000">FileModule</text>
</g>
<!-- FileModule&#45;&gt;ProductModule -->
<g id="edge33" class="edge">
<title>FileModule&#45;&gt;ProductModule</title>
<path fill="none" stroke="#000000" d="M1660,-122.1686C1660,-141.0898 1660,-168 1660,-168 1660,-168 3100.2978,-168 3100.2978,-168"/>
<polygon fill="#000000" stroke="#000000" points="3100.2978,-171.5001 3110.2978,-168 3100.2977,-164.5001 3100.2978,-171.5001"/>
</g>
<!-- FiltersModule -->
<g id="node35" class="node">
<title>FiltersModule</title>
<polygon fill="#8dd3c7" stroke="#000000" points="1601.8246,-122 1598.8246,-126 1577.8246,-126 1574.8246,-122 1506.1754,-122 1506.1754,-86 1601.8246,-86 1601.8246,-122"/>
<text text-anchor="middle" x="1554" y="-99.8" font-family="Times,serif" font-size="14.00" fill="#000000">FiltersModule</text>
</g>
<!-- FiltersModule&#45;&gt;ProductModule -->
<g id="edge34" class="edge">
<title>FiltersModule&#45;&gt;ProductModule</title>
<path fill="none" stroke="#000000" d="M1554,-122.1061C1554,-141.3391 1554,-169 1554,-169 1554,-169 3100.3202,-169 3100.3202,-169"/>
<polygon fill="#000000" stroke="#000000" points="3100.3202,-172.5001 3110.3202,-169 3100.3201,-165.5001 3100.3202,-172.5001"/>
</g>
<!-- RatingModule -->
<g id="node36" class="node">
<title>RatingModule</title>
<polygon fill="#8dd3c7" stroke="#000000" points="1488.3823,-122 1485.3823,-126 1464.3823,-126 1461.3823,-122 1391.6177,-122 1391.6177,-86 1488.3823,-86 1488.3823,-122"/>
<text text-anchor="middle" x="1440" y="-99.8" font-family="Times,serif" font-size="14.00" fill="#000000">RatingModule</text>
</g>
<!-- RatingModule&#45;&gt;ProductModule -->
<g id="edge35" class="edge">
<title>RatingModule&#45;&gt;ProductModule</title>
<path fill="none" stroke="#000000" d="M1440,-122.308C1440,-142.1455 1440,-171 1440,-171 1440,-171 3099.9948,-171 3099.9948,-171"/>
<polygon fill="#000000" stroke="#000000" points="3099.9948,-174.5001 3109.9948,-171 3099.9948,-167.5001 3099.9948,-174.5001"/>
</g>
<!-- SearchAutocompleteModule -->
<g id="node37" class="node">
<title>SearchAutocompleteModule</title>
<polygon fill="#8dd3c7" stroke="#000000" points="1373.4496,-122 1370.4496,-126 1349.4496,-126 1346.4496,-122 1196.5504,-122 1196.5504,-86 1373.4496,-86 1373.4496,-122"/>
<text text-anchor="middle" x="1285" y="-99.8" font-family="Times,serif" font-size="14.00" fill="#000000">SearchAutocompleteModule</text>
</g>
<!-- SearchAutocompleteModule&#45;&gt;ProductModule -->
<g id="edge36" class="edge">
<title>SearchAutocompleteModule&#45;&gt;ProductModule</title>
<path fill="none" stroke="#000000" d="M1285,-122.1289C1285,-142.5724 1285,-173 1285,-173 1285,-173 3100.3314,-173 3100.3314,-173"/>
<polygon fill="#000000" stroke="#000000" points="3100.3314,-176.5001 3110.3314,-173 3100.3313,-169.5001 3100.3314,-176.5001"/>
</g>
<!-- SelectionBarModule -->
<g id="node38" class="node">
<title>SelectionBarModule</title>
<polygon fill="#8dd3c7" stroke="#000000" points="1178.8599,-122 1175.8599,-126 1154.8599,-126 1151.8599,-122 1047.1401,-122 1047.1401,-86 1178.8599,-86 1178.8599,-122"/>
<text text-anchor="middle" x="1113" y="-99.8" font-family="Times,serif" font-size="14.00" fill="#000000">SelectionBarModule</text>
</g>
<!-- SelectionBarModule&#45;&gt;ProductModule -->
<g id="edge37" class="edge">
<title>SelectionBarModule&#45;&gt;ProductModule</title>
<path fill="none" stroke="#000000" d="M1113,-122.0267C1113,-142.7672 1113,-174 1113,-174 1113,-174 3100.3255,-174 3100.3255,-174"/>
<polygon fill="#000000" stroke="#000000" points="3100.3255,-177.5001 3110.3255,-174 3100.3255,-170.5001 3100.3255,-177.5001"/>
</g>
<!-- SharedModule -->
<g id="node39" class="node">
<title>SharedModule</title>
<polygon fill="#8dd3c7" stroke="#000000" points="1029.4231,-122 1026.4231,-126 1005.4231,-126 1002.4231,-122 930.5769,-122 930.5769,-86 1029.4231,-86 1029.4231,-122"/>
<text text-anchor="middle" x="980" y="-99.8" font-family="Times,serif" font-size="14.00" fill="#000000">SharedModule</text>
</g>
<!-- SharedModule&#45;&gt;ProductModule -->
<g id="edge38" class="edge">
<title>SharedModule&#45;&gt;ProductModule</title>
<path fill="none" stroke="#000000" d="M980,-122.1686C980,-143.498 980,-176 980,-176 980,-176 3100.2148,-176 3100.2148,-176"/>
<polygon fill="#000000" stroke="#000000" points="3100.2148,-179.5001 3110.2148,-176 3100.2147,-172.5001 3100.2148,-179.5001"/>
</g>
<!-- StageIndicatorModule -->
<g id="node40" class="node">
<title>StageIndicatorModule</title>
<polygon fill="#8dd3c7" stroke="#000000" points="912.6839,-122 909.6839,-126 888.6839,-126 885.6839,-122 771.3161,-122 771.3161,-86 912.6839,-86 912.6839,-122"/>
<text text-anchor="middle" x="842" y="-99.8" font-family="Times,serif" font-size="14.00" fill="#000000">StageIndicatorModule</text>
</g>
<!-- StageIndicatorModule&#45;&gt;ProductModule -->
<g id="edge39" class="edge">
<title>StageIndicatorModule&#45;&gt;ProductModule</title>
<path fill="none" stroke="#000000" d="M842,-122.2921C842,-144.2057 842,-178 842,-178 842,-178 3100.2907,-178 3100.2907,-178"/>
<polygon fill="#000000" stroke="#000000" points="3100.2907,-181.5001 3110.2907,-178 3100.2907,-174.5001 3100.2907,-181.5001"/>
</g>
<!-- StatusModule -->
<g id="node41" class="node">
<title>StatusModule</title>
<polygon fill="#8dd3c7" stroke="#000000" points="753.7731,-122 750.7731,-126 729.7731,-126 726.7731,-122 660.2269,-122 660.2269,-86 753.7731,-86 753.7731,-122"/>
<text text-anchor="middle" x="707" y="-99.8" font-family="Times,serif" font-size="14.00" fill="#000000">StatusModule</text>
</g>
<!-- StatusModule&#45;&gt;ProductModule -->
<g id="edge40" class="edge">
<title>StatusModule&#45;&gt;ProductModule</title>
<path fill="none" stroke="#000000" d="M707,-122.1554C707,-144.3519 707,-179 707,-179 707,-179 3100.441,-179 3100.441,-179"/>
<polygon fill="#000000" stroke="#000000" points="3100.441,-182.5001 3110.441,-179 3100.4409,-175.5001 3100.441,-182.5001"/>
</g>
<!-- TableModule -->
<g id="node42" class="node">
<title>TableModule</title>
<polygon fill="#8dd3c7" stroke="#000000" points="641.9232,-122 638.9232,-126 617.9232,-126 614.9232,-122 550.0768,-122 550.0768,-86 641.9232,-86 641.9232,-122"/>
<text text-anchor="middle" x="596" y="-99.8" font-family="Times,serif" font-size="14.00" fill="#000000">TableModule</text>
</g>
<!-- TableModule&#45;&gt;ProductModule -->
<g id="edge41" class="edge">
<title>TableModule&#45;&gt;ProductModule</title>
<path fill="none" stroke="#000000" d="M596,-122.2479C596,-145.0179 596,-181 596,-181 596,-181 3100.1633,-181 3100.1633,-181"/>
<polygon fill="#000000" stroke="#000000" points="3100.1634,-184.5001 3110.1633,-181 3100.1633,-177.5001 3100.1634,-184.5001"/>
</g>
<!-- TopPanelModule -->
<g id="node43" class="node">
<title>TopPanelModule</title>
<polygon fill="#8dd3c7" stroke="#000000" points="532.705,-122 529.705,-126 508.705,-126 505.705,-122 419.295,-122 419.295,-86 532.705,-86 532.705,-122"/>
<text text-anchor="middle" x="476" y="-99.8" font-family="Times,serif" font-size="14.00" fill="#000000">TopPanelModule</text>
</g>
<!-- TopPanelModule&#45;&gt;ProductModule -->
<g id="edge42" class="edge">
<title>TopPanelModule&#45;&gt;ProductModule</title>
<path fill="none" stroke="#000000" d="M476,-122.3228C476,-145.6602 476,-183 476,-183 476,-183 3100.4454,-183 3100.4454,-183"/>
<polygon fill="#000000" stroke="#000000" points="3100.4454,-186.5001 3110.4454,-183 3100.4453,-179.5001 3100.4454,-186.5001"/>
</g>
<!-- WorkflowActionModule -->
<g id="node44" class="node">
<title>WorkflowActionModule</title>
<polygon fill="#8dd3c7" stroke="#000000" points="401.6853,-122 398.6853,-126 377.6853,-126 374.6853,-122 246.3147,-122 246.3147,-86 401.6853,-86 401.6853,-122"/>
<text text-anchor="middle" x="324" y="-99.8" font-family="Times,serif" font-size="14.00" fill="#000000">WorkflowActionModule</text>
</g>
<!-- WorkflowActionModule&#45;&gt;ProductModule -->
<g id="edge43" class="edge">
<title>WorkflowActionModule&#45;&gt;ProductModule</title>
<path fill="none" stroke="#000000" d="M324,-122.1532C324,-145.7566 324,-184 324,-184 324,-184 3100.3186,-184 3100.3186,-184"/>
<polygon fill="#000000" stroke="#000000" points="3100.3186,-187.5001 3110.3186,-184 3100.3185,-180.5001 3100.3186,-187.5001"/>
</g>
<!-- ProductFeatureService -->
<g id="node46" class="node">
<title>ProductFeatureService</title>
<ellipse fill="#fdb462" stroke="#000000" cx="123" cy="-104" rx="98.9723" ry="18"/>
<text text-anchor="middle" x="123" y="-99.8" font-family="Times,serif" font-size="14.00" fill="#000000">ProductFeatureService</text>
</g>
<!-- ProductFeatureService&#45;&gt;ProductModule -->
<g id="edge45" class="edge">
<title>ProductFeatureService&#45;&gt;ProductModule</title>
<path fill="none" stroke="#000000" d="M123,-122.1985C123,-146.3563 123,-186 123,-186 123,-186 3100.2102,-186 3100.2102,-186"/>
<polygon fill="#000000" stroke="#000000" points="3100.2102,-189.5001 3110.2102,-186 3100.2101,-182.5001 3100.2102,-189.5001"/>
</g>
</g>
</svg>
