<?xml version="1.0" encoding="UTF-8" standalone="no"?>
<!DOCTYPE svg PUBLIC "-//W3C//DTD SVG 1.1//EN"
 "http://www.w3.org/Graphics/SVG/1.1/DTD/svg11.dtd">
<!-- Generated by graphviz version 2.40.1 (20161225.0304)
 -->
<!-- Title: dependencies Pages: 1 -->
<svg width="3553pt" height="284pt"
 viewBox="0.00 0.00 3553.00 284.00" xmlns="http://www.w3.org/2000/svg" xmlns:xlink="http://www.w3.org/1999/xlink">
<g id="graph0" class="graph" transform="scale(1 1) rotate(0) translate(4 280)">
<title>dependencies</title>
<polygon fill="#ffffff" stroke="transparent" points="-4,4 -4,-280 3549,-280 3549,4 -4,4"/>
<text text-anchor="start" x="1751.5091" y="-42.4" font-family="sans-serif" font-weight="bold" font-size="14.00" fill="#000000">Legend</text>
<polygon fill="#ffffb3" stroke="transparent" points="1538.5,-10 1538.5,-30 1558.5,-30 1558.5,-10 1538.5,-10"/>
<text text-anchor="start" x="1562.129" y="-15.4" font-family="sans-serif" font-size="14.00" fill="#000000"> &#160;Declarations</text>
<polygon fill="#8dd3c7" stroke="transparent" points="1651.5,-10 1651.5,-30 1671.5,-30 1671.5,-10 1651.5,-10"/>
<text text-anchor="start" x="1675.2251" y="-15.4" font-family="sans-serif" font-size="14.00" fill="#000000"> &#160;Module</text>
<polygon fill="#80b1d3" stroke="transparent" points="1737.5,-10 1737.5,-30 1757.5,-30 1757.5,-10 1737.5,-10"/>
<text text-anchor="start" x="1761.2812" y="-15.4" font-family="sans-serif" font-size="14.00" fill="#000000"> &#160;Bootstrap</text>
<polygon fill="#fdb462" stroke="transparent" points="1834.5,-10 1834.5,-30 1854.5,-30 1854.5,-10 1834.5,-10"/>
<text text-anchor="start" x="1858.1732" y="-15.4" font-family="sans-serif" font-size="14.00" fill="#000000"> &#160;Providers</text>
<polygon fill="#fb8072" stroke="transparent" points="1930.5,-10 1930.5,-30 1950.5,-30 1950.5,-10 1930.5,-10"/>
<text text-anchor="start" x="1954.2258" y="-15.4" font-family="sans-serif" font-size="14.00" fill="#000000"> &#160;Exports</text>
<g id="clust1" class="cluster">
<title>cluster_ProjectModule</title>
<polygon fill="none" stroke="#000000" stroke-dasharray="1,5" points="8,-70 8,-268 3537,-268 3537,-70 8,-70"/>
</g>
<g id="clust2" class="cluster">
<title>cluster_ProjectModule_declarations</title>
<polygon fill="none" stroke="#000000" points="2050,-78 2050,-130 3529,-130 3529,-78 2050,-78"/>
</g>
<g id="clust11" class="cluster">
<title>cluster_ProjectModule_imports</title>
<polygon fill="none" stroke="#000000" points="522,-78 522,-130 2042,-130 2042,-78 522,-78"/>
</g>
<g id="clust12" class="cluster">
<title>cluster_ProjectModule_exports</title>
<polygon fill="none" stroke="#000000" points="1562,-208 1562,-260 1736,-260 1736,-208 1562,-208"/>
</g>
<g id="clust14" class="cluster">
<title>cluster_ProjectModule_providers</title>
<polygon fill="none" stroke="#000000" points="16,-78 16,-130 514,-130 514,-78 16,-78"/>
</g>
<!-- ProjectDetailsComponent -->
<g id="node1" class="node">
<title>ProjectDetailsComponent</title>
<polygon fill="#ffffb3" stroke="#000000" points="3521.1386,-122 3360.8614,-122 3360.8614,-86 3521.1386,-86 3521.1386,-122"/>
<text text-anchor="middle" x="3441" y="-99.8" font-family="Times,serif" font-size="14.00" fill="#000000">ProjectDetailsComponent</text>
</g>
<!-- ProjectModule -->
<g id="node9" class="node">
<title>ProjectModule</title>
<polygon fill="#8dd3c7" stroke="#000000" points="1698.7036,-187 1695.7036,-191 1674.7036,-191 1671.7036,-187 1599.2964,-187 1599.2964,-151 1698.7036,-151 1698.7036,-187"/>
<text text-anchor="middle" x="1649" y="-164.8" font-family="Times,serif" font-size="14.00" fill="#000000">ProjectModule</text>
</g>
<!-- ProjectDetailsComponent&#45;&gt;ProjectModule -->
<g id="edge1" class="edge">
<title>ProjectDetailsComponent&#45;&gt;ProjectModule</title>
<path fill="none" stroke="#000000" d="M3441,-122.1532C3441,-145.7566 3441,-184 3441,-184 3441,-184 1708.7987,-184 1708.7987,-184"/>
<polygon fill="#000000" stroke="#000000" points="1708.7987,-180.5001 1698.7987,-184 1708.7986,-187.5001 1708.7987,-180.5001"/>
</g>
<!-- ProjectNavComponent -->
<g id="node2" class="node">
<title>ProjectNavComponent</title>
<polygon fill="#ffffb3" stroke="#000000" points="3343.3075,-122 3198.6925,-122 3198.6925,-86 3343.3075,-86 3343.3075,-122"/>
<text text-anchor="middle" x="3271" y="-99.8" font-family="Times,serif" font-size="14.00" fill="#000000">ProjectNavComponent</text>
</g>
<!-- ProjectNavComponent&#45;&gt;ProjectModule -->
<g id="edge2" class="edge">
<title>ProjectNavComponent&#45;&gt;ProjectModule</title>
<path fill="none" stroke="#000000" d="M3271,-122.2479C3271,-145.0179 3271,-181 3271,-181 3271,-181 1708.8745,-181 1708.8745,-181"/>
<polygon fill="#000000" stroke="#000000" points="1708.8745,-177.5001 1698.8745,-181 1708.8744,-184.5001 1708.8745,-177.5001"/>
</g>
<!-- ProjectProductListComponent -->
<g id="node3" class="node">
<title>ProjectProductListComponent</title>
<polygon fill="#ffffb3" stroke="#000000" points="3181.3131,-122 2994.6869,-122 2994.6869,-86 3181.3131,-86 3181.3131,-122"/>
<text text-anchor="middle" x="3088" y="-99.8" font-family="Times,serif" font-size="14.00" fill="#000000">ProjectProductListComponent</text>
</g>
<!-- ProjectProductListComponent&#45;&gt;ProjectModule -->
<g id="edge3" class="edge">
<title>ProjectProductListComponent&#45;&gt;ProjectModule</title>
<path fill="none" stroke="#000000" d="M3088,-122.2921C3088,-144.2057 3088,-178 3088,-178 3088,-178 1708.9515,-178 1708.9515,-178"/>
<polygon fill="#000000" stroke="#000000" points="1708.9516,-174.5001 1698.9515,-178 1708.9515,-181.5001 1708.9516,-174.5001"/>
</g>
<!-- ProjectProductsComponent -->
<g id="node4" class="node">
<title>ProjectProductsComponent</title>
<polygon fill="#ffffb3" stroke="#000000" points="2976.979,-122 2807.021,-122 2807.021,-86 2976.979,-86 2976.979,-122"/>
<text text-anchor="middle" x="2892" y="-99.8" font-family="Times,serif" font-size="14.00" fill="#000000">ProjectProductsComponent</text>
</g>
<!-- ProjectProductsComponent&#45;&gt;ProjectModule -->
<g id="edge4" class="edge">
<title>ProjectProductsComponent&#45;&gt;ProjectModule</title>
<path fill="none" stroke="#000000" d="M2892,-122.0267C2892,-142.7672 2892,-174 2892,-174 2892,-174 1708.8797,-174 1708.8797,-174"/>
<polygon fill="#000000" stroke="#000000" points="1708.8797,-170.5001 1698.8797,-174 1708.8796,-177.5001 1708.8797,-170.5001"/>
</g>
<!-- ProjectSettingsComponent -->
<g id="node5" class="node">
<title>ProjectSettingsComponent</title>
<polygon fill="#ffffb3" stroke="#000000" points="2789.0996,-122 2622.9004,-122 2622.9004,-86 2789.0996,-86 2789.0996,-122"/>
<text text-anchor="middle" x="2706" y="-99.8" font-family="Times,serif" font-size="14.00" fill="#000000">ProjectSettingsComponent</text>
</g>
<!-- ProjectSettingsComponent&#45;&gt;ProjectModule -->
<g id="edge5" class="edge">
<title>ProjectSettingsComponent&#45;&gt;ProjectModule</title>
<path fill="none" stroke="#000000" d="M2706,-122.308C2706,-142.1455 2706,-171 2706,-171 2706,-171 1708.9163,-171 1708.9163,-171"/>
<polygon fill="#000000" stroke="#000000" points="1708.9164,-167.5001 1698.9163,-171 1708.9163,-174.5001 1708.9164,-167.5001"/>
</g>
<!-- ProjectWorkflowComponent -->
<g id="node6" class="node">
<title>ProjectWorkflowComponent</title>
<polygon fill="#ffffb3" stroke="#000000" points="2605.0196,-122 2426.9804,-122 2426.9804,-86 2605.0196,-86 2605.0196,-122"/>
<text text-anchor="middle" x="2516" y="-99.8" font-family="Times,serif" font-size="14.00" fill="#000000">ProjectWorkflowComponent</text>
</g>
<!-- ProjectWorkflowComponent&#45;&gt;ProjectModule -->
<g id="edge6" class="edge">
<title>ProjectWorkflowComponent&#45;&gt;ProjectModule</title>
<path fill="none" stroke="#000000" d="M2516,-122.1686C2516,-141.0898 2516,-168 2516,-168 2516,-168 1708.7277,-168 1708.7277,-168"/>
<polygon fill="#000000" stroke="#000000" points="1708.7277,-164.5001 1698.7277,-168 1708.7276,-171.5001 1708.7277,-164.5001"/>
</g>
<!-- ProjectsListViewComponent -->
<g id="node7" class="node">
<title>ProjectsListViewComponent</title>
<polygon fill="#ffffb3" stroke="#000000" points="2408.028,-122 2229.972,-122 2229.972,-86 2408.028,-86 2408.028,-122"/>
<text text-anchor="middle" x="2319" y="-99.8" font-family="Times,serif" font-size="14.00" fill="#000000">ProjectsListViewComponent</text>
</g>
<!-- ProjectsListViewComponent&#45;&gt;ProjectModule -->
<g id="edge7" class="edge">
<title>ProjectsListViewComponent&#45;&gt;ProjectModule</title>
<path fill="none" stroke="#000000" d="M2319,-122.302C2319,-140.2699 2319,-165 2319,-165 2319,-165 1708.8115,-165 1708.8115,-165"/>
<polygon fill="#000000" stroke="#000000" points="1708.8116,-161.5001 1698.8115,-165 1708.8115,-168.5001 1708.8116,-161.5001"/>
</g>
<!-- ProjectsPageComponent -->
<g id="node8" class="node">
<title>ProjectsPageComponent</title>
<polygon fill="#ffffb3" stroke="#000000" points="2211.6428,-122 2058.3572,-122 2058.3572,-86 2211.6428,-86 2211.6428,-122"/>
<text text-anchor="middle" x="2135" y="-99.8" font-family="Times,serif" font-size="14.00" fill="#000000">ProjectsPageComponent</text>
</g>
<!-- ProjectsPageComponent&#45;&gt;ProjectModule -->
<g id="edge8" class="edge">
<title>ProjectsPageComponent&#45;&gt;ProjectModule</title>
<path fill="none" stroke="#000000" d="M2135,-122.0352C2135,-138.7344 2135,-161 2135,-161 2135,-161 1708.7266,-161 1708.7266,-161"/>
<polygon fill="#000000" stroke="#000000" points="1708.7266,-157.5001 1698.7266,-161 1708.7265,-164.5001 1708.7266,-157.5001"/>
</g>
<!-- ProjectsPageComponent  -->
<g id="node22" class="node">
<title>ProjectsPageComponent </title>
<polygon fill="#fb8072" stroke="#000000" points="1727.6425,-252 1570.3575,-252 1570.3575,-216 1727.6425,-216 1727.6425,-252"/>
<text text-anchor="middle" x="1649" y="-229.8" font-family="Times,serif" font-size="14.00" fill="#000000">ProjectsPageComponent </text>
</g>
<!-- ProjectModule&#45;&gt;ProjectsPageComponent  -->
<g id="edge21" class="edge">
<title>ProjectModule&#45;&gt;ProjectsPageComponent </title>
<path fill="none" stroke="#000000" stroke-dasharray="5,2" d="M1649,-187.1061C1649,-187.1061 1649,-205.991 1649,-205.991"/>
<polygon fill="#000000" stroke="#000000" points="1645.5001,-205.9909 1649,-215.991 1652.5001,-205.991 1645.5001,-205.9909"/>
</g>
<!-- ActionBarModule -->
<g id="node10" class="node">
<title>ActionBarModule</title>
<polygon fill="#8dd3c7" stroke="#000000" points="2033.8641,-122 2030.8641,-126 2009.8641,-126 2006.8641,-122 1916.1359,-122 1916.1359,-86 2033.8641,-86 2033.8641,-122"/>
<text text-anchor="middle" x="1975" y="-99.8" font-family="Times,serif" font-size="14.00" fill="#000000">ActionBarModule</text>
</g>
<!-- ActionBarModule&#45;&gt;ProjectModule -->
<g id="edge9" class="edge">
<title>ActionBarModule&#45;&gt;ProjectModule</title>
<path fill="none" stroke="#000000" d="M1975,-122.2819C1975,-137.9478 1975,-158 1975,-158 1975,-158 1708.8673,-158 1708.8673,-158"/>
<polygon fill="#000000" stroke="#000000" points="1708.8673,-154.5001 1698.8673,-158 1708.8672,-161.5001 1708.8673,-154.5001"/>
</g>
<!-- BadgeModule -->
<g id="node11" class="node">
<title>BadgeModule</title>
<polygon fill="#8dd3c7" stroke="#000000" points="1897.8161,-122 1894.8161,-126 1873.8161,-126 1870.8161,-122 1802.1839,-122 1802.1839,-86 1897.8161,-86 1897.8161,-122"/>
<text text-anchor="middle" x="1850" y="-99.8" font-family="Times,serif" font-size="14.00" fill="#000000">BadgeModule</text>
</g>
<!-- BadgeModule&#45;&gt;ProjectModule -->
<g id="edge10" class="edge">
<title>BadgeModule&#45;&gt;ProjectModule</title>
<path fill="none" stroke="#000000" d="M1850,-122.1243C1850,-136.7832 1850,-155 1850,-155 1850,-155 1708.6854,-155 1708.6854,-155"/>
<polygon fill="#000000" stroke="#000000" points="1708.6854,-151.5001 1698.6854,-155 1708.6854,-158.5001 1708.6854,-151.5001"/>
</g>
<!-- CustomDialogModule -->
<g id="node12" class="node">
<title>CustomDialogModule</title>
<polygon fill="#8dd3c7" stroke="#000000" points="1784.7148,-122 1781.7148,-126 1760.7148,-126 1757.7148,-122 1643.2852,-122 1643.2852,-86 1784.7148,-86 1784.7148,-122"/>
<text text-anchor="middle" x="1714" y="-99.8" font-family="Times,serif" font-size="14.00" fill="#000000">CustomDialogModule</text>
</g>
<!-- CustomDialogModule&#45;&gt;ProjectModule -->
<g id="edge11" class="edge">
<title>CustomDialogModule&#45;&gt;ProjectModule</title>
<path fill="none" stroke="#000000" d="M1670.9972,-122.1061C1670.9972,-122.1061 1670.9972,-140.991 1670.9972,-140.991"/>
<polygon fill="#000000" stroke="#000000" points="1667.4973,-140.9909 1670.9972,-150.991 1674.4973,-140.991 1667.4973,-140.9909"/>
</g>
<!-- FileModule -->
<g id="node13" class="node">
<title>FileModule</title>
<polygon fill="#8dd3c7" stroke="#000000" points="1625.8289,-122 1622.8289,-126 1601.8289,-126 1598.8289,-122 1544.1711,-122 1544.1711,-86 1625.8289,-86 1625.8289,-122"/>
<text text-anchor="middle" x="1585" y="-99.8" font-family="Times,serif" font-size="14.00" fill="#000000">FileModule</text>
</g>
<!-- FileModule&#45;&gt;ProjectModule -->
<g id="edge12" class="edge">
<title>FileModule&#45;&gt;ProjectModule</title>
<path fill="none" stroke="#000000" d="M1612.5312,-122.1061C1612.5312,-122.1061 1612.5312,-140.991 1612.5312,-140.991"/>
<polygon fill="#000000" stroke="#000000" points="1609.0313,-140.9909 1612.5312,-150.991 1616.0313,-140.991 1609.0313,-140.9909"/>
</g>
<!-- RatingModule -->
<g id="node14" class="node">
<title>RatingModule</title>
<polygon fill="#8dd3c7" stroke="#000000" points="1526.3823,-122 1523.3823,-126 1502.3823,-126 1499.3823,-122 1429.6177,-122 1429.6177,-86 1526.3823,-86 1526.3823,-122"/>
<text text-anchor="middle" x="1478" y="-99.8" font-family="Times,serif" font-size="14.00" fill="#000000">RatingModule</text>
</g>
<!-- RatingModule&#45;&gt;ProjectModule -->
<g id="edge13" class="edge">
<title>RatingModule&#45;&gt;ProjectModule</title>
<path fill="none" stroke="#000000" d="M1478,-122.1243C1478,-136.7832 1478,-155 1478,-155 1478,-155 1589.08,-155 1589.08,-155"/>
<polygon fill="#000000" stroke="#000000" points="1589.0801,-158.5001 1599.08,-155 1589.08,-151.5001 1589.0801,-158.5001"/>
</g>
<!-- SelectionBarModule -->
<g id="node15" class="node">
<title>SelectionBarModule</title>
<polygon fill="#8dd3c7" stroke="#000000" points="1411.8599,-122 1408.8599,-126 1387.8599,-126 1384.8599,-122 1280.1401,-122 1280.1401,-86 1411.8599,-86 1411.8599,-122"/>
<text text-anchor="middle" x="1346" y="-99.8" font-family="Times,serif" font-size="14.00" fill="#000000">SelectionBarModule</text>
</g>
<!-- SelectionBarModule&#45;&gt;ProjectModule -->
<g id="edge14" class="edge">
<title>SelectionBarModule&#45;&gt;ProjectModule</title>
<path fill="none" stroke="#000000" d="M1346,-122.2819C1346,-137.9478 1346,-158 1346,-158 1346,-158 1589.305,-158 1589.305,-158"/>
<polygon fill="#000000" stroke="#000000" points="1589.305,-161.5001 1599.305,-158 1589.305,-154.5001 1589.305,-161.5001"/>
</g>
<!-- SharedModule -->
<g id="node16" class="node">
<title>SharedModule</title>
<polygon fill="#8dd3c7" stroke="#000000" points="1262.4231,-122 1259.4231,-126 1238.4231,-126 1235.4231,-122 1163.5769,-122 1163.5769,-86 1262.4231,-86 1262.4231,-122"/>
<text text-anchor="middle" x="1213" y="-99.8" font-family="Times,serif" font-size="14.00" fill="#000000">SharedModule</text>
</g>
<!-- SharedModule&#45;&gt;ProjectModule -->
<g id="edge15" class="edge">
<title>SharedModule&#45;&gt;ProjectModule</title>
<path fill="none" stroke="#000000" d="M1213,-122.0352C1213,-138.7344 1213,-161 1213,-161 1213,-161 1588.9853,-161 1588.9853,-161"/>
<polygon fill="#000000" stroke="#000000" points="1588.9853,-164.5001 1598.9853,-161 1588.9852,-157.5001 1588.9853,-164.5001"/>
</g>
<!-- SideMenuModule -->
<g id="node17" class="node">
<title>SideMenuModule</title>
<polygon fill="#8dd3c7" stroke="#000000" points="1145.5968,-122 1142.5968,-126 1121.5968,-126 1118.5968,-122 1028.4032,-122 1028.4032,-86 1145.5968,-86 1145.5968,-122"/>
<text text-anchor="middle" x="1087" y="-99.8" font-family="Times,serif" font-size="14.00" fill="#000000">SideMenuModule</text>
</g>
<!-- SideMenuModule&#45;&gt;ProjectModule -->
<g id="edge16" class="edge">
<title>SideMenuModule&#45;&gt;ProjectModule</title>
<path fill="none" stroke="#000000" d="M1087,-122.302C1087,-140.2699 1087,-165 1087,-165 1087,-165 1589.1262,-165 1589.1262,-165"/>
<polygon fill="#000000" stroke="#000000" points="1589.1263,-168.5001 1599.1262,-165 1589.1262,-161.5001 1589.1263,-168.5001"/>
</g>
<!-- SidenavModule -->
<g id="node18" class="node">
<title>SidenavModule</title>
<polygon fill="#8dd3c7" stroke="#000000" points="1010.1528,-122 1007.1528,-126 986.1528,-126 983.1528,-122 905.8472,-122 905.8472,-86 1010.1528,-86 1010.1528,-122"/>
<text text-anchor="middle" x="958" y="-99.8" font-family="Times,serif" font-size="14.00" fill="#000000">SidenavModule</text>
</g>
<!-- SidenavModule&#45;&gt;ProjectModule -->
<g id="edge17" class="edge">
<title>SidenavModule&#45;&gt;ProjectModule</title>
<path fill="none" stroke="#000000" d="M958,-122.1686C958,-141.0898 958,-168 958,-168 958,-168 1589.305,-168 1589.305,-168"/>
<polygon fill="#000000" stroke="#000000" points="1589.305,-171.5001 1599.305,-168 1589.3049,-164.5001 1589.305,-171.5001"/>
</g>
<!-- TableModule -->
<g id="node19" class="node">
<title>TableModule</title>
<polygon fill="#8dd3c7" stroke="#000000" points="887.9232,-122 884.9232,-126 863.9232,-126 860.9232,-122 796.0768,-122 796.0768,-86 887.9232,-86 887.9232,-122"/>
<text text-anchor="middle" x="842" y="-99.8" font-family="Times,serif" font-size="14.00" fill="#000000">TableModule</text>
</g>
<!-- TableModule&#45;&gt;ProjectModule -->
<g id="edge18" class="edge">
<title>TableModule&#45;&gt;ProjectModule</title>
<path fill="none" stroke="#000000" d="M842,-122.308C842,-142.1455 842,-171 842,-171 842,-171 1589.1275,-171 1589.1275,-171"/>
<polygon fill="#000000" stroke="#000000" points="1589.1276,-174.5001 1599.1275,-171 1589.1275,-167.5001 1589.1276,-174.5001"/>
</g>
<!-- TopPanelModule -->
<g id="node20" class="node">
<title>TopPanelModule</title>
<polygon fill="#8dd3c7" stroke="#000000" points="778.705,-122 775.705,-126 754.705,-126 751.705,-122 665.295,-122 665.295,-86 778.705,-86 778.705,-122"/>
<text text-anchor="middle" x="722" y="-99.8" font-family="Times,serif" font-size="14.00" fill="#000000">TopPanelModule</text>
</g>
<!-- TopPanelModule&#45;&gt;ProjectModule -->
<g id="edge19" class="edge">
<title>TopPanelModule&#45;&gt;ProjectModule</title>
<path fill="none" stroke="#000000" d="M722,-122.0267C722,-142.7672 722,-174 722,-174 722,-174 1589.1605,-174 1589.1605,-174"/>
<polygon fill="#000000" stroke="#000000" points="1589.1605,-177.5001 1599.1605,-174 1589.1604,-170.5001 1589.1605,-177.5001"/>
</g>
<!-- WorkflowModule -->
<g id="node21" class="node">
<title>WorkflowModule</title>
<polygon fill="#8dd3c7" stroke="#000000" points="647.5828,-122 644.5828,-126 623.5828,-126 620.5828,-122 530.4172,-122 530.4172,-86 647.5828,-86 647.5828,-122"/>
<text text-anchor="middle" x="589" y="-99.8" font-family="Times,serif" font-size="14.00" fill="#000000">WorkflowModule</text>
</g>
<!-- WorkflowModule&#45;&gt;ProjectModule -->
<g id="edge20" class="edge">
<title>WorkflowModule&#45;&gt;ProjectModule</title>
<path fill="none" stroke="#000000" d="M589,-122.2921C589,-144.2057 589,-178 589,-178 589,-178 1589.2957,-178 1589.2957,-178"/>
<polygon fill="#000000" stroke="#000000" points="1589.2958,-181.5001 1599.2957,-178 1589.2957,-174.5001 1589.2958,-181.5001"/>
</g>
<!-- ProjectFeatureService -->
<g id="node23" class="node">
<title>ProjectFeatureService</title>
<ellipse fill="#fdb462" stroke="#000000" cx="410" cy="-104" rx="96.0996" ry="18"/>
<text text-anchor="middle" x="410" y="-99.8" font-family="Times,serif" font-size="14.00" fill="#000000">ProjectFeatureService</text>
</g>
<!-- ProjectFeatureService&#45;&gt;ProjectModule -->
<g id="edge22" class="edge">
<title>ProjectFeatureService&#45;&gt;ProjectModule</title>
<path fill="none" stroke="#000000" d="M410,-122.2479C410,-145.0179 410,-181 410,-181 410,-181 1589.2808,-181 1589.2808,-181"/>
<polygon fill="#000000" stroke="#000000" points="1589.2809,-184.5001 1599.2808,-181 1589.2808,-177.5001 1589.2809,-184.5001"/>
</g>
<!-- ProjectWorkflowFeatureService -->
<g id="node24" class="node">
<title>ProjectWorkflowFeatureService</title>
<ellipse fill="#fdb462" stroke="#000000" cx="160" cy="-104" rx="135.9696" ry="18"/>
<text text-anchor="middle" x="160" y="-99.8" font-family="Times,serif" font-size="14.00" fill="#000000">ProjectWorkflowFeatureService</text>
</g>
<!-- ProjectWorkflowFeatureService&#45;&gt;ProjectModule -->
<g id="edge23" class="edge">
<title>ProjectWorkflowFeatureService&#45;&gt;ProjectModule</title>
<path fill="none" stroke="#000000" d="M160,-122.1532C160,-145.7566 160,-184 160,-184 160,-184 1589.0325,-184 1589.0325,-184"/>
<polygon fill="#000000" stroke="#000000" points="1589.0326,-187.5001 1599.0325,-184 1589.0325,-180.5001 1589.0326,-187.5001"/>
</g>
</g>
</svg>
