<?xml version="1.0" encoding="UTF-8" standalone="no"?>
<!DOCTYPE svg PUBLIC "-//W3C//DTD SVG 1.1//EN"
 "http://www.w3.org/Graphics/SVG/1.1/DTD/svg11.dtd">
<!-- Generated by graphviz version 2.40.1 (20161225.0304)
 -->
<!-- Title: dependencies Pages: 1 -->
<svg width="504pt" height="284pt"
 viewBox="0.00 0.00 504.00 284.00" xmlns="http://www.w3.org/2000/svg" xmlns:xlink="http://www.w3.org/1999/xlink">
<g id="graph0" class="graph" transform="scale(1 1) rotate(0) translate(4 280)">
<title>dependencies</title>
<polygon fill="#ffffff" stroke="transparent" points="-4,4 -4,-280 500,-280 500,4 -4,4"/>
<text text-anchor="start" x="227.0091" y="-42.4" font-family="sans-serif" font-weight="bold" font-size="14.00" fill="#000000">Legend</text>
<polygon fill="#ffffb3" stroke="transparent" points="14,-10 14,-30 34,-30 34,-10 14,-10"/>
<text text-anchor="start" x="37.629" y="-15.4" font-family="sans-serif" font-size="14.00" fill="#000000"> &#160;Declarations</text>
<polygon fill="#8dd3c7" stroke="transparent" points="127,-10 127,-30 147,-30 147,-10 127,-10"/>
<text text-anchor="start" x="150.7251" y="-15.4" font-family="sans-serif" font-size="14.00" fill="#000000"> &#160;Module</text>
<polygon fill="#80b1d3" stroke="transparent" points="213,-10 213,-30 233,-30 233,-10 213,-10"/>
<text text-anchor="start" x="236.7812" y="-15.4" font-family="sans-serif" font-size="14.00" fill="#000000"> &#160;Bootstrap</text>
<polygon fill="#fdb462" stroke="transparent" points="310,-10 310,-30 330,-30 330,-10 310,-10"/>
<text text-anchor="start" x="333.6732" y="-15.4" font-family="sans-serif" font-size="14.00" fill="#000000"> &#160;Providers</text>
<polygon fill="#fb8072" stroke="transparent" points="406,-10 406,-30 426,-30 426,-10 406,-10"/>
<text text-anchor="start" x="429.7258" y="-15.4" font-family="sans-serif" font-size="14.00" fill="#000000"> &#160;Exports</text>
<g id="clust1" class="cluster">
<title>cluster_StatusModule</title>
<polygon fill="none" stroke="#000000" stroke-dasharray="1,5" points="102,-70 102,-268 394,-268 394,-70 102,-70"/>
</g>
<g id="clust2" class="cluster">
<title>cluster_StatusModule_declarations</title>
<polygon fill="none" stroke="#000000" points="224,-78 224,-130 386,-130 386,-78 224,-78"/>
</g>
<g id="clust4" class="cluster">
<title>cluster_StatusModule_imports</title>
<polygon fill="none" stroke="#000000" points="110,-78 110,-130 216,-130 216,-78 110,-78"/>
</g>
<g id="clust5" class="cluster">
<title>cluster_StatusModule_exports</title>
<polygon fill="none" stroke="#000000" points="165,-208 165,-260 331,-260 331,-208 165,-208"/>
</g>
<!-- IconsStatusComponent -->
<g id="node1" class="node">
<title>IconsStatusComponent</title>
<polygon fill="#ffffb3" stroke="#000000" points="377.8753,-122 232.1247,-122 232.1247,-86 377.8753,-86 377.8753,-122"/>
<text text-anchor="middle" x="305" y="-99.8" font-family="Times,serif" font-size="14.00" fill="#000000">IconsStatusComponent</text>
</g>
<!-- StatusModule -->
<g id="node2" class="node">
<title>StatusModule</title>
<polygon fill="#8dd3c7" stroke="#000000" points="294.7731,-187 291.7731,-191 270.7731,-191 267.7731,-187 201.2269,-187 201.2269,-151 294.7731,-151 294.7731,-187"/>
<text text-anchor="middle" x="248" y="-164.8" font-family="Times,serif" font-size="14.00" fill="#000000">StatusModule</text>
</g>
<!-- IconsStatusComponent&#45;&gt;StatusModule -->
<g id="edge1" class="edge">
<title>IconsStatusComponent&#45;&gt;StatusModule</title>
<path fill="none" stroke="#000000" d="M263.4744,-122.1061C263.4744,-122.1061 263.4744,-140.991 263.4744,-140.991"/>
<polygon fill="#000000" stroke="#000000" points="259.9745,-140.9909 263.4744,-150.991 266.9745,-140.991 259.9745,-140.9909"/>
</g>
<!-- IconsStatusComponent  -->
<g id="node4" class="node">
<title>IconsStatusComponent </title>
<polygon fill="#fb8072" stroke="#000000" points="322.8757,-252 173.1243,-252 173.1243,-216 322.8757,-216 322.8757,-252"/>
<text text-anchor="middle" x="248" y="-229.8" font-family="Times,serif" font-size="14.00" fill="#000000">IconsStatusComponent </text>
</g>
<!-- StatusModule&#45;&gt;IconsStatusComponent  -->
<g id="edge3" class="edge">
<title>StatusModule&#45;&gt;IconsStatusComponent </title>
<path fill="none" stroke="#000000" stroke-dasharray="5,2" d="M248,-187.1061C248,-187.1061 248,-205.991 248,-205.991"/>
<polygon fill="#000000" stroke="#000000" points="244.5001,-205.9909 248,-215.991 251.5001,-205.991 244.5001,-205.9909"/>
</g>
<!-- IconsModule -->
<g id="node3" class="node">
<title>IconsModule</title>
<polygon fill="#8dd3c7" stroke="#000000" points="207.8697,-122 204.8697,-126 183.8697,-126 180.8697,-122 118.1303,-122 118.1303,-86 207.8697,-86 207.8697,-122"/>
<text text-anchor="middle" x="163" y="-99.8" font-family="Times,serif" font-size="14.00" fill="#000000">IconsModule</text>
</g>
<!-- IconsModule&#45;&gt;StatusModule -->
<g id="edge2" class="edge">
<title>IconsModule&#45;&gt;StatusModule</title>
<path fill="none" stroke="#000000" d="M207.9107,-104C214.975,-104 219.9986,-104 219.9986,-104 219.9986,-104 219.9986,-140.8939 219.9986,-140.8939"/>
<polygon fill="#000000" stroke="#000000" points="216.4987,-140.8938 219.9986,-150.8939 223.4987,-140.8939 216.4987,-140.8938"/>
</g>
</g>
</svg>
