<?xml version="1.0" encoding="UTF-8" standalone="no"?>
<!DOCTYPE svg PUBLIC "-//W3C//DTD SVG 1.1//EN"
 "http://www.w3.org/Graphics/SVG/1.1/DTD/svg11.dtd">
<!-- Generated by graphviz version 2.40.1 (20161225.0304)
 -->
<!-- Title: dependencies Pages: 1 -->
<svg width="1762pt" height="284pt"
 viewBox="0.00 0.00 1762.00 284.00" xmlns="http://www.w3.org/2000/svg" xmlns:xlink="http://www.w3.org/1999/xlink">
<g id="graph0" class="graph" transform="scale(1 1) rotate(0) translate(4 280)">
<title>dependencies</title>
<polygon fill="#ffffff" stroke="transparent" points="-4,4 -4,-280 1758,-280 1758,4 -4,4"/>
<text text-anchor="start" x="856.0091" y="-42.4" font-family="sans-serif" font-weight="bold" font-size="14.00" fill="#000000">Legend</text>
<polygon fill="#ffffb3" stroke="transparent" points="643,-10 643,-30 663,-30 663,-10 643,-10"/>
<text text-anchor="start" x="666.629" y="-15.4" font-family="sans-serif" font-size="14.00" fill="#000000"> &#160;Declarations</text>
<polygon fill="#8dd3c7" stroke="transparent" points="756,-10 756,-30 776,-30 776,-10 756,-10"/>
<text text-anchor="start" x="779.7251" y="-15.4" font-family="sans-serif" font-size="14.00" fill="#000000"> &#160;Module</text>
<polygon fill="#80b1d3" stroke="transparent" points="842,-10 842,-30 862,-30 862,-10 842,-10"/>
<text text-anchor="start" x="865.7812" y="-15.4" font-family="sans-serif" font-size="14.00" fill="#000000"> &#160;Bootstrap</text>
<polygon fill="#fdb462" stroke="transparent" points="939,-10 939,-30 959,-30 959,-10 939,-10"/>
<text text-anchor="start" x="962.6732" y="-15.4" font-family="sans-serif" font-size="14.00" fill="#000000"> &#160;Providers</text>
<polygon fill="#fb8072" stroke="transparent" points="1035,-10 1035,-30 1055,-30 1055,-10 1035,-10"/>
<text text-anchor="start" x="1058.7258" y="-15.4" font-family="sans-serif" font-size="14.00" fill="#000000"> &#160;Exports</text>
<g id="clust1" class="cluster">
<title>cluster_InputsModule</title>
<polygon fill="none" stroke="#000000" stroke-dasharray="1,5" points="8,-70 8,-268 1746,-268 1746,-70 8,-70"/>
</g>
<g id="clust2" class="cluster">
<title>cluster_InputsModule_declarations</title>
<polygon fill="none" stroke="#000000" points="234,-78 234,-130 1738,-130 1738,-78 234,-78"/>
</g>
<g id="clust13" class="cluster">
<title>cluster_InputsModule_imports</title>
<polygon fill="none" stroke="#000000" points="16,-78 16,-130 226,-130 226,-78 16,-78"/>
</g>
<g id="clust14" class="cluster">
<title>cluster_InputsModule_exports</title>
<polygon fill="none" stroke="#000000" points="80,-208 80,-260 1619,-260 1619,-208 80,-208"/>
</g>
<!-- CheckboxComponent -->
<g id="node1" class="node">
<title>CheckboxComponent</title>
<polygon fill="#ffffb3" stroke="#000000" points="1730.0982,-122 1591.9018,-122 1591.9018,-86 1730.0982,-86 1730.0982,-122"/>
<text text-anchor="middle" x="1661" y="-99.8" font-family="Times,serif" font-size="14.00" fill="#000000">CheckboxComponent</text>
</g>
<!-- InputsModule -->
<g id="node11" class="node">
<title>InputsModule</title>
<polygon fill="#8dd3c7" stroke="#000000" points="962.0467,-187 959.0467,-191 938.0467,-191 935.0467,-187 867.9533,-187 867.9533,-151 962.0467,-151 962.0467,-187"/>
<text text-anchor="middle" x="915" y="-164.8" font-family="Times,serif" font-size="14.00" fill="#000000">InputsModule</text>
</g>
<!-- CheckboxComponent&#45;&gt;InputsModule -->
<g id="edge1" class="edge">
<title>CheckboxComponent&#45;&gt;InputsModule</title>
<path fill="none" stroke="#000000" d="M1601.375,-122.1061C1601.375,-141.3391 1601.375,-169 1601.375,-169 1601.375,-169 972.1773,-169 972.1773,-169"/>
<polygon fill="#000000" stroke="#000000" points="972.1774,-165.5001 962.1773,-169 972.1773,-172.5001 972.1774,-165.5001"/>
</g>
<!-- ErrorComponent -->
<g id="node2" class="node">
<title>ErrorComponent</title>
<polygon fill="#ffffb3" stroke="#000000" points="1574.3669,-122 1463.6331,-122 1463.6331,-86 1574.3669,-86 1574.3669,-122"/>
<text text-anchor="middle" x="1519" y="-99.8" font-family="Times,serif" font-size="14.00" fill="#000000">ErrorComponent</text>
</g>
<!-- ErrorComponent&#45;&gt;InputsModule -->
<g id="edge2" class="edge">
<title>ErrorComponent&#45;&gt;InputsModule</title>
<path fill="none" stroke="#000000" d="M1539.3559,-122.2667C1539.3559,-140.5552 1539.3559,-166 1539.3559,-166 1539.3559,-166 972.1841,-166 972.1841,-166"/>
<polygon fill="#000000" stroke="#000000" points="972.1841,-162.5001 962.1841,-166 972.1841,-169.5001 972.1841,-162.5001"/>
</g>
<!-- FormFieldComponent -->
<g id="node3" class="node">
<title>FormFieldComponent</title>
<polygon fill="#ffffb3" stroke="#000000" points="1445.4453,-122 1304.5547,-122 1304.5547,-86 1445.4453,-86 1445.4453,-122"/>
<text text-anchor="middle" x="1375" y="-99.8" font-family="Times,serif" font-size="14.00" fill="#000000">FormFieldComponent</text>
</g>
<!-- FormFieldComponent&#45;&gt;InputsModule -->
<g id="edge3" class="edge">
<title>FormFieldComponent&#45;&gt;InputsModule</title>
<path fill="none" stroke="#000000" d="M1311.875,-122.0336C1311.875,-139.0597 1311.875,-162 1311.875,-162 1311.875,-162 972.0853,-162 972.0853,-162"/>
<polygon fill="#000000" stroke="#000000" points="972.0853,-158.5001 962.0853,-162 972.0852,-165.5001 972.0853,-158.5001"/>
</g>
<!-- HintComponent -->
<g id="node4" class="node">
<title>HintComponent</title>
<polygon fill="#ffffb3" stroke="#000000" points="1287.2204,-122 1180.7796,-122 1180.7796,-86 1287.2204,-86 1287.2204,-122"/>
<text text-anchor="middle" x="1234" y="-99.8" font-family="Times,serif" font-size="14.00" fill="#000000">HintComponent</text>
</g>
<!-- HintComponent&#45;&gt;InputsModule -->
<g id="edge4" class="edge">
<title>HintComponent&#45;&gt;InputsModule</title>
<path fill="none" stroke="#000000" d="M1251.7034,-122.0091C1251.7034,-138.0494 1251.7034,-159 1251.7034,-159 1251.7034,-159 972.1717,-159 972.1717,-159"/>
<polygon fill="#000000" stroke="#000000" points="972.1717,-155.5001 962.1717,-159 972.1717,-162.5001 972.1717,-155.5001"/>
</g>
<!-- InputDirective -->
<g id="node5" class="node">
<title>InputDirective</title>
<polygon fill="#ffffb3" stroke="#000000" points="1162.6347,-122 1065.3653,-122 1065.3653,-86 1162.6347,-86 1162.6347,-122"/>
<text text-anchor="middle" x="1114" y="-99.8" font-family="Times,serif" font-size="14.00" fill="#000000">InputDirective</text>
</g>
<!-- InputDirective&#45;&gt;InputsModule -->
<g id="edge5" class="edge">
<title>InputDirective&#45;&gt;InputsModule</title>
<path fill="none" stroke="#000000" d="M1111.0216,-122.1243C1111.0216,-136.7832 1111.0216,-155 1111.0216,-155 1111.0216,-155 972.4513,-155 972.4513,-155"/>
<polygon fill="#000000" stroke="#000000" points="972.4514,-151.5001 962.4513,-155 972.4513,-158.5001 972.4514,-151.5001"/>
</g>
<!-- LabelComponent -->
<g id="node6" class="node">
<title>LabelComponent</title>
<polygon fill="#ffffb3" stroke="#000000" points="1047.705,-122 934.295,-122 934.295,-86 1047.705,-86 1047.705,-122"/>
<text text-anchor="middle" x="991" y="-99.8" font-family="Times,serif" font-size="14.00" fill="#000000">LabelComponent</text>
</g>
<!-- LabelComponent&#45;&gt;InputsModule -->
<g id="edge6" class="edge">
<title>LabelComponent&#45;&gt;InputsModule</title>
<path fill="none" stroke="#000000" d="M948.3352,-122.1061C948.3352,-122.1061 948.3352,-140.991 948.3352,-140.991"/>
<polygon fill="#000000" stroke="#000000" points="944.8353,-140.9909 948.3352,-150.991 951.8353,-140.991 944.8353,-140.9909"/>
</g>
<!-- RadioComponent -->
<g id="node7" class="node">
<title>RadioComponent</title>
<polygon fill="#ffffb3" stroke="#000000" points="916.2744,-122 801.7256,-122 801.7256,-86 916.2744,-86 916.2744,-122"/>
<text text-anchor="middle" x="859" y="-99.8" font-family="Times,serif" font-size="14.00" fill="#000000">RadioComponent</text>
</g>
<!-- RadioComponent&#45;&gt;InputsModule -->
<g id="edge7" class="edge">
<title>RadioComponent&#45;&gt;InputsModule</title>
<path fill="none" stroke="#000000" d="M892.0572,-122.1061C892.0572,-122.1061 892.0572,-140.991 892.0572,-140.991"/>
<polygon fill="#000000" stroke="#000000" points="888.5572,-140.9909 892.0572,-150.991 895.5572,-140.991 888.5572,-140.9909"/>
</g>
<!-- RestrictInputDirective -->
<g id="node8" class="node">
<title>RestrictInputDirective</title>
<polygon fill="#ffffb3" stroke="#000000" points="783.6769,-122 642.3231,-122 642.3231,-86 783.6769,-86 783.6769,-122"/>
<text text-anchor="middle" x="713" y="-99.8" font-family="Times,serif" font-size="14.00" fill="#000000">RestrictInputDirective</text>
</g>
<!-- RestrictInputDirective&#45;&gt;InputsModule -->
<g id="edge8" class="edge">
<title>RestrictInputDirective&#45;&gt;InputsModule</title>
<path fill="none" stroke="#000000" d="M779.8628,-122.1243C779.8628,-136.7832 779.8628,-155 779.8628,-155 779.8628,-155 857.7355,-155 857.7355,-155"/>
<polygon fill="#000000" stroke="#000000" points="857.7356,-158.5001 867.7355,-155 857.7355,-151.5001 857.7356,-158.5001"/>
</g>
<!-- RestrictSpecialInputDirective -->
<g id="node9" class="node">
<title>RestrictSpecialInputDirective</title>
<polygon fill="#ffffb3" stroke="#000000" points="624.3848,-122 441.6152,-122 441.6152,-86 624.3848,-86 624.3848,-122"/>
<text text-anchor="middle" x="533" y="-99.8" font-family="Times,serif" font-size="14.00" fill="#000000">RestrictSpecialInputDirective</text>
</g>
<!-- RestrictSpecialInputDirective&#45;&gt;InputsModule -->
<g id="edge9" class="edge">
<title>RestrictSpecialInputDirective&#45;&gt;InputsModule</title>
<path fill="none" stroke="#000000" d="M559.9269,-122.0091C559.9269,-138.0494 559.9269,-159 559.9269,-159 559.9269,-159 857.849,-159 857.849,-159"/>
<polygon fill="#000000" stroke="#000000" points="857.8491,-162.5001 867.849,-159 857.849,-155.5001 857.8491,-162.5001"/>
</g>
<!-- TextareaAutoGrowsDirective -->
<g id="node10" class="node">
<title>TextareaAutoGrowsDirective</title>
<polygon fill="#ffffb3" stroke="#000000" points="424.361,-122 241.639,-122 241.639,-86 424.361,-86 424.361,-122"/>
<text text-anchor="middle" x="333" y="-99.8" font-family="Times,serif" font-size="14.00" fill="#000000">TextareaAutoGrowsDirective</text>
</g>
<!-- TextareaAutoGrowsDirective&#45;&gt;InputsModule -->
<g id="edge10" class="edge">
<title>TextareaAutoGrowsDirective&#45;&gt;InputsModule</title>
<path fill="none" stroke="#000000" d="M358.1191,-122.0336C358.1191,-139.0597 358.1191,-162 358.1191,-162 358.1191,-162 857.5206,-162 857.5206,-162"/>
<polygon fill="#000000" stroke="#000000" points="857.5207,-165.5001 867.5206,-162 857.5206,-158.5001 857.5207,-165.5001"/>
</g>
<!-- CheckboxComponent  -->
<g id="node14" class="node">
<title>CheckboxComponent </title>
<polygon fill="#fb8072" stroke="#000000" points="1610.5988,-252 1469.4012,-252 1469.4012,-216 1610.5988,-216 1610.5988,-252"/>
<text text-anchor="middle" x="1540" y="-229.8" font-family="Times,serif" font-size="14.00" fill="#000000">CheckboxComponent </text>
</g>
<!-- InputsModule&#45;&gt;CheckboxComponent  -->
<g id="edge13" class="edge">
<title>InputsModule&#45;&gt;CheckboxComponent </title>
<path fill="none" stroke="#000000" stroke-dasharray="5,2" d="M962.227,-173C1102.0606,-173 1504.2784,-173 1504.2784,-173 1504.2784,-173 1504.2784,-205.698 1504.2784,-205.698"/>
<polygon fill="#000000" stroke="#000000" points="1500.7785,-205.698 1504.2784,-215.698 1507.7785,-205.698 1500.7785,-205.698"/>
</g>
<!-- ErrorComponent  -->
<g id="node15" class="node">
<title>ErrorComponent </title>
<polygon fill="#fb8072" stroke="#000000" points="1451.3674,-252 1336.6326,-252 1336.6326,-216 1451.3674,-216 1451.3674,-252"/>
<text text-anchor="middle" x="1394" y="-229.8" font-family="Times,serif" font-size="14.00" fill="#000000">ErrorComponent </text>
</g>
<!-- InputsModule&#45;&gt;ErrorComponent  -->
<g id="edge14" class="edge">
<title>InputsModule&#45;&gt;ErrorComponent </title>
<path fill="none" stroke="#000000" stroke-dasharray="5,2" d="M962.3829,-177C1082.7864,-177 1391.0195,-177 1391.0195,-177 1391.0195,-177 1391.0195,-205.9648 1391.0195,-205.9648"/>
<polygon fill="#000000" stroke="#000000" points="1387.5195,-205.9648 1391.0195,-215.9648 1394.5195,-205.9649 1387.5195,-205.9648"/>
</g>
<!-- FormFieldComponent  -->
<g id="node16" class="node">
<title>FormFieldComponent </title>
<polygon fill="#fb8072" stroke="#000000" points="1318.9446,-252 1175.0554,-252 1175.0554,-216 1318.9446,-216 1318.9446,-252"/>
<text text-anchor="middle" x="1247" y="-229.8" font-family="Times,serif" font-size="14.00" fill="#000000">FormFieldComponent </text>
</g>
<!-- InputsModule&#45;&gt;FormFieldComponent  -->
<g id="edge15" class="edge">
<title>InputsModule&#45;&gt;FormFieldComponent </title>
<path fill="none" stroke="#000000" stroke-dasharray="5,2" d="M962.0776,-180C1046.8173,-180 1216.2966,-180 1216.2966,-180 1216.2966,-180 1216.2966,-205.7181 1216.2966,-205.7181"/>
<polygon fill="#000000" stroke="#000000" points="1212.7967,-205.718 1216.2966,-215.7181 1219.7967,-205.7181 1212.7967,-205.718"/>
</g>
<!-- HintComponent  -->
<g id="node17" class="node">
<title>HintComponent </title>
<polygon fill="#fb8072" stroke="#000000" points="1156.7206,-252 1047.2794,-252 1047.2794,-216 1156.7206,-216 1156.7206,-252"/>
<text text-anchor="middle" x="1102" y="-229.8" font-family="Times,serif" font-size="14.00" fill="#000000">HintComponent </text>
</g>
<!-- InputsModule&#45;&gt;HintComponent  -->
<g id="edge16" class="edge">
<title>InputsModule&#45;&gt;HintComponent </title>
<path fill="none" stroke="#000000" stroke-dasharray="5,2" d="M962.0817,-184C1003.2129,-184 1056.3927,-184 1056.3927,-184 1056.3927,-184 1056.3927,-205.9489 1056.3927,-205.9489"/>
<polygon fill="#000000" stroke="#000000" points="1052.8928,-205.9488 1056.3927,-215.9489 1059.8928,-205.9489 1052.8928,-205.9488"/>
</g>
<!-- InputDirective  -->
<g id="node18" class="node">
<title>InputDirective </title>
<polygon fill="#fb8072" stroke="#000000" points="1029.6341,-252 928.3659,-252 928.3659,-216 1029.6341,-216 1029.6341,-252"/>
<text text-anchor="middle" x="979" y="-229.8" font-family="Times,serif" font-size="14.00" fill="#000000">InputDirective </text>
</g>
<!-- InputsModule&#45;&gt;InputDirective  -->
<g id="edge17" class="edge">
<title>InputsModule&#45;&gt;InputDirective </title>
<path fill="none" stroke="#000000" stroke-dasharray="5,2" d="M945.3529,-187.1061C945.3529,-187.1061 945.3529,-205.991 945.3529,-205.991"/>
<polygon fill="#000000" stroke="#000000" points="941.853,-205.9909 945.3529,-215.991 948.853,-205.991 941.853,-205.9909"/>
</g>
<!-- LabelComponent  -->
<g id="node19" class="node">
<title>LabelComponent </title>
<polygon fill="#fb8072" stroke="#000000" points="910.2052,-252 793.7948,-252 793.7948,-216 910.2052,-216 910.2052,-252"/>
<text text-anchor="middle" x="852" y="-229.8" font-family="Times,serif" font-size="14.00" fill="#000000">LabelComponent </text>
</g>
<!-- InputsModule&#45;&gt;LabelComponent  -->
<g id="edge18" class="edge">
<title>InputsModule&#45;&gt;LabelComponent </title>
<path fill="none" stroke="#000000" stroke-dasharray="5,2" d="M889.0398,-187.1061C889.0398,-187.1061 889.0398,-205.991 889.0398,-205.991"/>
<polygon fill="#000000" stroke="#000000" points="885.5399,-205.9909 889.0398,-215.991 892.5399,-205.991 885.5399,-205.9909"/>
</g>
<!-- RadioComponent  -->
<g id="node20" class="node">
<title>RadioComponent </title>
<polygon fill="#fb8072" stroke="#000000" points="776.2745,-252 657.7255,-252 657.7255,-216 776.2745,-216 776.2745,-252"/>
<text text-anchor="middle" x="717" y="-229.8" font-family="Times,serif" font-size="14.00" fill="#000000">RadioComponent </text>
</g>
<!-- InputsModule&#45;&gt;RadioComponent  -->
<g id="edge19" class="edge">
<title>InputsModule&#45;&gt;RadioComponent </title>
<path fill="none" stroke="#000000" stroke-dasharray="5,2" d="M867.8256,-184C809.2613,-184 717,-184 717,-184 717,-184 717,-205.9489 717,-205.9489"/>
<polygon fill="#000000" stroke="#000000" points="713.5001,-205.9488 717,-215.9489 720.5001,-205.9489 713.5001,-205.9488"/>
</g>
<!-- RestrictInputDirective  -->
<g id="node21" class="node">
<title>RestrictInputDirective </title>
<polygon fill="#fb8072" stroke="#000000" points="640.1772,-252 495.8228,-252 495.8228,-216 640.1772,-216 640.1772,-252"/>
<text text-anchor="middle" x="568" y="-229.8" font-family="Times,serif" font-size="14.00" fill="#000000">RestrictInputDirective </text>
</g>
<!-- InputsModule&#45;&gt;RestrictInputDirective  -->
<g id="edge20" class="edge">
<title>InputsModule&#45;&gt;RestrictInputDirective </title>
<path fill="none" stroke="#000000" stroke-dasharray="5,2" d="M867.6766,-180C787.1889,-180 632.2653,-180 632.2653,-180 632.2653,-180 632.2653,-205.7181 632.2653,-205.7181"/>
<polygon fill="#000000" stroke="#000000" points="628.7654,-205.718 632.2653,-215.7181 635.7654,-205.7181 628.7654,-205.718"/>
</g>
<!-- RestrictSpecialInputDirective  -->
<g id="node22" class="node">
<title>RestrictSpecialInputDirective </title>
<polygon fill="#fb8072" stroke="#000000" points="477.8844,-252 292.1156,-252 292.1156,-216 477.8844,-216 477.8844,-252"/>
<text text-anchor="middle" x="385" y="-229.8" font-family="Times,serif" font-size="14.00" fill="#000000">RestrictSpecialInputDirective </text>
</g>
<!-- InputsModule&#45;&gt;RestrictSpecialInputDirective  -->
<g id="edge21" class="edge">
<title>InputsModule&#45;&gt;RestrictSpecialInputDirective </title>
<path fill="none" stroke="#000000" stroke-dasharray="5,2" d="M867.5816,-177C751.0128,-177 459.875,-177 459.875,-177 459.875,-177 459.875,-205.9648 459.875,-205.9648"/>
<polygon fill="#000000" stroke="#000000" points="456.3751,-205.9648 459.875,-215.9648 463.3751,-205.9649 456.3751,-205.9648"/>
</g>
<!-- TextareaAutoGrowsDirective  -->
<g id="node23" class="node">
<title>TextareaAutoGrowsDirective </title>
<polygon fill="#fb8072" stroke="#000000" points="273.8607,-252 88.1393,-252 88.1393,-216 273.8607,-216 273.8607,-252"/>
<text text-anchor="middle" x="181" y="-229.8" font-family="Times,serif" font-size="14.00" fill="#000000">TextareaAutoGrowsDirective </text>
</g>
<!-- InputsModule&#45;&gt;TextareaAutoGrowsDirective  -->
<g id="edge22" class="edge">
<title>InputsModule&#45;&gt;TextareaAutoGrowsDirective </title>
<path fill="none" stroke="#000000" stroke-dasharray="5,2" d="M867.7412,-173C717.0684,-173 257.875,-173 257.875,-173 257.875,-173 257.875,-205.698 257.875,-205.698"/>
<polygon fill="#000000" stroke="#000000" points="254.3751,-205.698 257.875,-215.698 261.3751,-205.698 254.3751,-205.698"/>
</g>
<!-- IconsModule -->
<g id="node12" class="node">
<title>IconsModule</title>
<polygon fill="#8dd3c7" stroke="#000000" points="217.8697,-122 214.8697,-126 193.8697,-126 190.8697,-122 128.1303,-122 128.1303,-86 217.8697,-86 217.8697,-122"/>
<text text-anchor="middle" x="173" y="-99.8" font-family="Times,serif" font-size="14.00" fill="#000000">IconsModule</text>
</g>
<!-- IconsModule&#45;&gt;InputsModule -->
<g id="edge11" class="edge">
<title>IconsModule&#45;&gt;InputsModule</title>
<path fill="none" stroke="#000000" d="M173,-122.2667C173,-140.5552 173,-166 173,-166 173,-166 857.7391,-166 857.7391,-166"/>
<polygon fill="#000000" stroke="#000000" points="857.7391,-169.5001 867.7391,-166 857.7391,-162.5001 857.7391,-169.5001"/>
</g>
<!-- UtilsModule -->
<g id="node13" class="node">
<title>UtilsModule</title>
<polygon fill="#8dd3c7" stroke="#000000" points="110.2731,-122 107.2731,-126 86.2731,-126 83.2731,-122 23.7269,-122 23.7269,-86 110.2731,-86 110.2731,-122"/>
<text text-anchor="middle" x="67" y="-99.8" font-family="Times,serif" font-size="14.00" fill="#000000">UtilsModule</text>
</g>
<!-- UtilsModule&#45;&gt;InputsModule -->
<g id="edge12" class="edge">
<title>UtilsModule&#45;&gt;InputsModule</title>
<path fill="none" stroke="#000000" d="M99.2281,-122.1061C99.2281,-141.3391 99.2281,-169 99.2281,-169 99.2281,-169 857.913,-169 857.913,-169"/>
<polygon fill="#000000" stroke="#000000" points="857.913,-172.5001 867.913,-169 857.913,-165.5001 857.913,-172.5001"/>
</g>
</g>
</svg>
