<?xml version="1.0" encoding="UTF-8" standalone="no"?>
<!DOCTYPE svg PUBLIC "-//W3C//DTD SVG 1.1//EN"
 "http://www.w3.org/Graphics/SVG/1.1/DTD/svg11.dtd">
<!-- Generated by graphviz version 2.40.1 (20161225.0304)
 -->
<!-- Title: dependencies Pages: 1 -->
<svg width="1007pt" height="211pt"
 viewBox="0.00 0.00 1007.00 211.00" xmlns="http://www.w3.org/2000/svg" xmlns:xlink="http://www.w3.org/1999/xlink">
<g id="graph0" class="graph" transform="scale(1 1) rotate(0) translate(4 207)">
<title>dependencies</title>
<polygon fill="#ffffff" stroke="transparent" points="-4,4 -4,-207 1003,-207 1003,4 -4,4"/>
<text text-anchor="start" x="478.5091" y="-42.4" font-family="sans-serif" font-weight="bold" font-size="14.00" fill="#000000">Legend</text>
<polygon fill="#ffffb3" stroke="transparent" points="265.5,-10 265.5,-30 285.5,-30 285.5,-10 265.5,-10"/>
<text text-anchor="start" x="289.129" y="-15.4" font-family="sans-serif" font-size="14.00" fill="#000000"> &#160;Declarations</text>
<polygon fill="#8dd3c7" stroke="transparent" points="378.5,-10 378.5,-30 398.5,-30 398.5,-10 378.5,-10"/>
<text text-anchor="start" x="402.2251" y="-15.4" font-family="sans-serif" font-size="14.00" fill="#000000"> &#160;Module</text>
<polygon fill="#80b1d3" stroke="transparent" points="464.5,-10 464.5,-30 484.5,-30 484.5,-10 464.5,-10"/>
<text text-anchor="start" x="488.2812" y="-15.4" font-family="sans-serif" font-size="14.00" fill="#000000"> &#160;Bootstrap</text>
<polygon fill="#fdb462" stroke="transparent" points="561.5,-10 561.5,-30 581.5,-30 581.5,-10 561.5,-10"/>
<text text-anchor="start" x="585.1732" y="-15.4" font-family="sans-serif" font-size="14.00" fill="#000000"> &#160;Providers</text>
<polygon fill="#fb8072" stroke="transparent" points="657.5,-10 657.5,-30 677.5,-30 677.5,-10 657.5,-10"/>
<text text-anchor="start" x="681.2258" y="-15.4" font-family="sans-serif" font-size="14.00" fill="#000000"> &#160;Exports</text>
<g id="clust1" class="cluster">
<title>cluster_AuthModule</title>
<polygon fill="none" stroke="#000000" stroke-dasharray="1,5" points="8,-70 8,-195 991,-195 991,-70 8,-70"/>
</g>
<g id="clust2" class="cluster">
<title>cluster_AuthModule_declarations</title>
<polygon fill="none" stroke="#000000" points="138,-78 138,-130 983,-130 983,-78 138,-78"/>
</g>
<g id="clust8" class="cluster">
<title>cluster_AuthModule_imports</title>
<polygon fill="none" stroke="#000000" points="16,-78 16,-130 130,-130 130,-78 16,-78"/>
</g>
<!-- AccountCreatedComponent -->
<g id="node1" class="node">
<title>AccountCreatedComponent</title>
<polygon fill="#ffffb3" stroke="#000000" points="975.2906,-122 802.7094,-122 802.7094,-86 975.2906,-86 975.2906,-122"/>
<text text-anchor="middle" x="889" y="-99.8" font-family="Times,serif" font-size="14.00" fill="#000000">AccountCreatedComponent</text>
</g>
<!-- AuthModule -->
<g id="node6" class="node">
<title>AuthModule</title>
<polygon fill="#8dd3c7" stroke="#000000" points="505.5482,-187 502.5482,-191 481.5482,-191 478.5482,-187 418.4518,-187 418.4518,-151 505.5482,-151 505.5482,-187"/>
<text text-anchor="middle" x="462" y="-164.8" font-family="Times,serif" font-size="14.00" fill="#000000">AuthModule</text>
</g>
<!-- AccountCreatedComponent&#45;&gt;AuthModule -->
<g id="edge1" class="edge">
<title>AccountCreatedComponent&#45;&gt;AuthModule</title>
<path fill="none" stroke="#000000" d="M889,-122.2843C889,-143.3211 889,-175 889,-175 889,-175 515.6898,-175 515.6898,-175"/>
<polygon fill="#000000" stroke="#000000" points="515.6899,-171.5001 505.6898,-175 515.6898,-178.5001 515.6899,-171.5001"/>
</g>
<!-- ForgotPasswordComponent -->
<g id="node2" class="node">
<title>ForgotPasswordComponent</title>
<polygon fill="#ffffb3" stroke="#000000" points="785.3201,-122 612.6799,-122 612.6799,-86 785.3201,-86 785.3201,-122"/>
<text text-anchor="middle" x="699" y="-99.8" font-family="Times,serif" font-size="14.00" fill="#000000">ForgotPasswordComponent</text>
</g>
<!-- ForgotPasswordComponent&#45;&gt;AuthModule -->
<g id="edge2" class="edge">
<title>ForgotPasswordComponent&#45;&gt;AuthModule</title>
<path fill="none" stroke="#000000" d="M699,-122.0225C699,-139.3734 699,-163 699,-163 699,-163 515.7456,-163 515.7456,-163"/>
<polygon fill="#000000" stroke="#000000" points="515.7457,-159.5001 505.7456,-163 515.7456,-166.5001 515.7457,-159.5001"/>
</g>
<!-- LoginComponent -->
<g id="node3" class="node">
<title>LoginComponent</title>
<polygon fill="#ffffb3" stroke="#000000" points="594.2758,-122 479.7242,-122 479.7242,-86 594.2758,-86 594.2758,-122"/>
<text text-anchor="middle" x="537" y="-99.8" font-family="Times,serif" font-size="14.00" fill="#000000">LoginComponent</text>
</g>
<!-- LoginComponent&#45;&gt;AuthModule -->
<g id="edge3" class="edge">
<title>LoginComponent&#45;&gt;AuthModule</title>
<path fill="none" stroke="#000000" d="M492.6929,-122.1061C492.6929,-122.1061 492.6929,-140.991 492.6929,-140.991"/>
<polygon fill="#000000" stroke="#000000" points="489.1929,-140.9909 492.6929,-150.991 496.1929,-140.991 489.1929,-140.9909"/>
</g>
<!-- PwResettedComponent -->
<g id="node4" class="node">
<title>PwResettedComponent</title>
<polygon fill="#ffffb3" stroke="#000000" points="461.9284,-122 314.0716,-122 314.0716,-86 461.9284,-86 461.9284,-122"/>
<text text-anchor="middle" x="388" y="-99.8" font-family="Times,serif" font-size="14.00" fill="#000000">PwResettedComponent</text>
</g>
<!-- PwResettedComponent&#45;&gt;AuthModule -->
<g id="edge4" class="edge">
<title>PwResettedComponent&#45;&gt;AuthModule</title>
<path fill="none" stroke="#000000" d="M439.9702,-122.1061C439.9702,-122.1061 439.9702,-140.991 439.9702,-140.991"/>
<polygon fill="#000000" stroke="#000000" points="436.4703,-140.9909 439.9702,-150.991 443.4703,-140.991 436.4703,-140.9909"/>
</g>
<!-- RegistrationComponent -->
<g id="node5" class="node">
<title>RegistrationComponent</title>
<polygon fill="#ffffb3" stroke="#000000" points="295.766,-122 146.234,-122 146.234,-86 295.766,-86 295.766,-122"/>
<text text-anchor="middle" x="221" y="-99.8" font-family="Times,serif" font-size="14.00" fill="#000000">RegistrationComponent</text>
</g>
<!-- RegistrationComponent&#45;&gt;AuthModule -->
<g id="edge5" class="edge">
<title>RegistrationComponent&#45;&gt;AuthModule</title>
<path fill="none" stroke="#000000" d="M221,-122.0225C221,-139.3734 221,-163 221,-163 221,-163 408.3567,-163 408.3567,-163"/>
<polygon fill="#000000" stroke="#000000" points="408.3568,-166.5001 418.3567,-163 408.3567,-159.5001 408.3568,-166.5001"/>
</g>
<!-- SharedModule -->
<g id="node7" class="node">
<title>SharedModule</title>
<polygon fill="#8dd3c7" stroke="#000000" points="122.4231,-122 119.4231,-126 98.4231,-126 95.4231,-122 23.5769,-122 23.5769,-86 122.4231,-86 122.4231,-122"/>
<text text-anchor="middle" x="73" y="-99.8" font-family="Times,serif" font-size="14.00" fill="#000000">SharedModule</text>
</g>
<!-- SharedModule&#45;&gt;AuthModule -->
<g id="edge6" class="edge">
<title>SharedModule&#45;&gt;AuthModule</title>
<path fill="none" stroke="#000000" d="M73,-122.2843C73,-143.3211 73,-175 73,-175 73,-175 408.1329,-175 408.1329,-175"/>
<polygon fill="#000000" stroke="#000000" points="408.133,-178.5001 418.1329,-175 408.1329,-171.5001 408.133,-178.5001"/>
</g>
</g>
</svg>
