<?xml version="1.0" encoding="UTF-8" standalone="no"?>
<!DOCTYPE svg PUBLIC "-//W3C//DTD SVG 1.1//EN"
 "http://www.w3.org/Graphics/SVG/1.1/DTD/svg11.dtd">
<!-- Generated by graphviz version 2.40.1 (20161225.0304)
 -->
<!-- Title: dependencies Pages: 1 -->
<svg width="2035pt" height="211pt"
 viewBox="0.00 0.00 2035.00 211.00" xmlns="http://www.w3.org/2000/svg" xmlns:xlink="http://www.w3.org/1999/xlink">
<g id="graph0" class="graph" transform="scale(1 1) rotate(0) translate(4 207)">
<title>dependencies</title>
<polygon fill="#ffffff" stroke="transparent" points="-4,4 -4,-207 2031,-207 2031,4 -4,4"/>
<text text-anchor="start" x="992.5091" y="-42.4" font-family="sans-serif" font-weight="bold" font-size="14.00" fill="#000000">Legend</text>
<polygon fill="#ffffb3" stroke="transparent" points="779.5,-10 779.5,-30 799.5,-30 799.5,-10 779.5,-10"/>
<text text-anchor="start" x="803.129" y="-15.4" font-family="sans-serif" font-size="14.00" fill="#000000"> &#160;Declarations</text>
<polygon fill="#8dd3c7" stroke="transparent" points="892.5,-10 892.5,-30 912.5,-30 912.5,-10 892.5,-10"/>
<text text-anchor="start" x="916.2251" y="-15.4" font-family="sans-serif" font-size="14.00" fill="#000000"> &#160;Module</text>
<polygon fill="#80b1d3" stroke="transparent" points="978.5,-10 978.5,-30 998.5,-30 998.5,-10 978.5,-10"/>
<text text-anchor="start" x="1002.2812" y="-15.4" font-family="sans-serif" font-size="14.00" fill="#000000"> &#160;Bootstrap</text>
<polygon fill="#fdb462" stroke="transparent" points="1075.5,-10 1075.5,-30 1095.5,-30 1095.5,-10 1075.5,-10"/>
<text text-anchor="start" x="1099.1732" y="-15.4" font-family="sans-serif" font-size="14.00" fill="#000000"> &#160;Providers</text>
<polygon fill="#fb8072" stroke="transparent" points="1171.5,-10 1171.5,-30 1191.5,-30 1191.5,-10 1171.5,-10"/>
<text text-anchor="start" x="1195.2258" y="-15.4" font-family="sans-serif" font-size="14.00" fill="#000000"> &#160;Exports</text>
<g id="clust1" class="cluster">
<title>cluster_ShowsModule</title>
<polygon fill="none" stroke="#000000" stroke-dasharray="1,5" points="8,-70 8,-195 2019,-195 2019,-70 8,-70"/>
</g>
<g id="clust2" class="cluster">
<title>cluster_ShowsModule_declarations</title>
<polygon fill="none" stroke="#000000" points="612,-78 612,-130 2011,-130 2011,-78 612,-78"/>
</g>
<g id="clust11" class="cluster">
<title>cluster_ShowsModule_imports</title>
<polygon fill="none" stroke="#000000" points="222,-78 222,-130 604,-130 604,-78 222,-78"/>
</g>
<g id="clust14" class="cluster">
<title>cluster_ShowsModule_providers</title>
<polygon fill="none" stroke="#000000" points="16,-78 16,-130 214,-130 214,-78 16,-78"/>
</g>
<!-- ImgShowComponent -->
<g id="node1" class="node">
<title>ImgShowComponent</title>
<polygon fill="#ffffb3" stroke="#000000" points="2002.773,-122 1867.227,-122 1867.227,-86 2002.773,-86 2002.773,-122"/>
<text text-anchor="middle" x="1935" y="-99.8" font-family="Times,serif" font-size="14.00" fill="#000000">ImgShowComponent</text>
</g>
<!-- ShowsModule -->
<g id="node9" class="node">
<title>ShowsModule</title>
<polygon fill="#8dd3c7" stroke="#000000" points="1033.3837,-187 1030.3837,-191 1009.3837,-191 1006.3837,-187 936.6163,-187 936.6163,-151 1033.3837,-151 1033.3837,-187"/>
<text text-anchor="middle" x="985" y="-164.8" font-family="Times,serif" font-size="14.00" fill="#000000">ShowsModule</text>
</g>
<!-- ImgShowComponent&#45;&gt;ShowsModule -->
<g id="edge1" class="edge">
<title>ImgShowComponent&#45;&gt;ShowsModule</title>
<path fill="none" stroke="#000000" d="M1935,-122.0908C1935,-145.1328 1935,-182 1935,-182 1935,-182 1043.4167,-182 1043.4167,-182"/>
<polygon fill="#000000" stroke="#000000" points="1043.4167,-178.5001 1033.4167,-182 1043.4167,-185.5001 1043.4167,-178.5001"/>
</g>
<!-- ShowAboutComponent -->
<g id="node2" class="node">
<title>ShowAboutComponent</title>
<polygon fill="#ffffb3" stroke="#000000" points="1849.219,-122 1700.781,-122 1700.781,-86 1849.219,-86 1849.219,-122"/>
<text text-anchor="middle" x="1775" y="-99.8" font-family="Times,serif" font-size="14.00" fill="#000000">ShowAboutComponent</text>
</g>
<!-- ShowAboutComponent&#45;&gt;ShowsModule -->
<g id="edge2" class="edge">
<title>ShowAboutComponent&#45;&gt;ShowsModule</title>
<path fill="none" stroke="#000000" d="M1775,-122.2843C1775,-143.3211 1775,-175 1775,-175 1775,-175 1043.5249,-175 1043.5249,-175"/>
<polygon fill="#000000" stroke="#000000" points="1043.525,-171.5001 1033.5249,-175 1043.5249,-178.5001 1043.525,-171.5001"/>
</g>
<!-- ShowDetailsComponent -->
<g id="node3" class="node">
<title>ShowDetailsComponent</title>
<polygon fill="#ffffb3" stroke="#000000" points="1682.3739,-122 1529.6261,-122 1529.6261,-86 1682.3739,-86 1682.3739,-122"/>
<text text-anchor="middle" x="1606" y="-99.8" font-family="Times,serif" font-size="14.00" fill="#000000">ShowDetailsComponent</text>
</g>
<!-- ShowDetailsComponent&#45;&gt;ShowsModule -->
<g id="edge3" class="edge">
<title>ShowDetailsComponent&#45;&gt;ShowsModule</title>
<path fill="none" stroke="#000000" d="M1606,-122.1061C1606,-141.3391 1606,-169 1606,-169 1606,-169 1043.4702,-169 1043.4702,-169"/>
<polygon fill="#000000" stroke="#000000" points="1043.4702,-165.5001 1033.4702,-169 1043.4701,-172.5001 1043.4702,-165.5001"/>
</g>
<!-- ShowExhibitorsComponent -->
<g id="node4" class="node">
<title>ShowExhibitorsComponent</title>
<polygon fill="#ffffb3" stroke="#000000" points="1511.5518,-122 1340.4482,-122 1340.4482,-86 1511.5518,-86 1511.5518,-122"/>
<text text-anchor="middle" x="1426" y="-99.8" font-family="Times,serif" font-size="14.00" fill="#000000">ShowExhibitorsComponent</text>
</g>
<!-- ShowExhibitorsComponent&#45;&gt;ShowsModule -->
<g id="edge4" class="edge">
<title>ShowExhibitorsComponent&#45;&gt;ShowsModule</title>
<path fill="none" stroke="#000000" d="M1426,-122.0225C1426,-139.3734 1426,-163 1426,-163 1426,-163 1043.4562,-163 1043.4562,-163"/>
<polygon fill="#000000" stroke="#000000" points="1043.4563,-159.5001 1033.4562,-163 1043.4562,-166.5001 1043.4563,-159.5001"/>
</g>
<!-- ShowListComponent -->
<g id="node5" class="node">
<title>ShowListComponent</title>
<polygon fill="#ffffb3" stroke="#000000" points="1322.5,-122 1187.5,-122 1187.5,-86 1322.5,-86 1322.5,-122"/>
<text text-anchor="middle" x="1255" y="-99.8" font-family="Times,serif" font-size="14.00" fill="#000000">ShowListComponent</text>
</g>
<!-- ShowListComponent&#45;&gt;ShowsModule -->
<g id="edge5" class="edge">
<title>ShowListComponent&#45;&gt;ShowsModule</title>
<path fill="none" stroke="#000000" d="M1255,-122.2396C1255,-137.5706 1255,-157 1255,-157 1255,-157 1043.5824,-157 1043.5824,-157"/>
<polygon fill="#000000" stroke="#000000" points="1043.5825,-153.5001 1033.5824,-157 1043.5824,-160.5001 1043.5825,-153.5001"/>
</g>
<!-- ShowSummaryComponent -->
<g id="node6" class="node">
<title>ShowSummaryComponent</title>
<polygon fill="#ffffb3" stroke="#000000" points="1169.6609,-122 1002.3391,-122 1002.3391,-86 1169.6609,-86 1169.6609,-122"/>
<text text-anchor="middle" x="1086" y="-99.8" font-family="Times,serif" font-size="14.00" fill="#000000">ShowSummaryComponent</text>
</g>
<!-- ShowSummaryComponent&#45;&gt;ShowsModule -->
<g id="edge6" class="edge">
<title>ShowSummaryComponent&#45;&gt;ShowsModule</title>
<path fill="none" stroke="#000000" d="M1017.8058,-122.1061C1017.8058,-122.1061 1017.8058,-140.991 1017.8058,-140.991"/>
<polygon fill="#000000" stroke="#000000" points="1014.3058,-140.9909 1017.8058,-150.991 1021.3058,-140.991 1014.3058,-140.9909"/>
</g>
<!-- ShowTopPanelDetailComponent -->
<g id="node7" class="node">
<title>ShowTopPanelDetailComponent</title>
<polygon fill="#ffffb3" stroke="#000000" points="984.5842,-122 783.4158,-122 783.4158,-86 984.5842,-86 984.5842,-122"/>
<text text-anchor="middle" x="884" y="-99.8" font-family="Times,serif" font-size="14.00" fill="#000000">ShowTopPanelDetailComponent</text>
</g>
<!-- ShowTopPanelDetailComponent&#45;&gt;ShowsModule -->
<g id="edge7" class="edge">
<title>ShowTopPanelDetailComponent&#45;&gt;ShowsModule</title>
<path fill="none" stroke="#000000" d="M960.5502,-122.1061C960.5502,-122.1061 960.5502,-140.991 960.5502,-140.991"/>
<polygon fill="#000000" stroke="#000000" points="957.0502,-140.9909 960.5502,-150.991 964.0502,-140.991 957.0502,-140.9909"/>
</g>
<!-- ShowsPageComponent -->
<g id="node8" class="node">
<title>ShowsPageComponent</title>
<polygon fill="#ffffb3" stroke="#000000" points="765.8781,-122 620.1219,-122 620.1219,-86 765.8781,-86 765.8781,-122"/>
<text text-anchor="middle" x="693" y="-99.8" font-family="Times,serif" font-size="14.00" fill="#000000">ShowsPageComponent</text>
</g>
<!-- ShowsPageComponent&#45;&gt;ShowsModule -->
<g id="edge8" class="edge">
<title>ShowsPageComponent&#45;&gt;ShowsModule</title>
<path fill="none" stroke="#000000" d="M693,-122.2396C693,-137.5706 693,-157 693,-157 693,-157 926.4544,-157 926.4544,-157"/>
<polygon fill="#000000" stroke="#000000" points="926.4544,-160.5001 936.4544,-157 926.4543,-153.5001 926.4544,-160.5001"/>
</g>
<!-- SearchBarModule -->
<g id="node10" class="node">
<title>SearchBarModule</title>
<polygon fill="#8dd3c7" stroke="#000000" points="595.8487,-122 592.8487,-126 571.8487,-126 568.8487,-122 478.1513,-122 478.1513,-86 595.8487,-86 595.8487,-122"/>
<text text-anchor="middle" x="537" y="-99.8" font-family="Times,serif" font-size="14.00" fill="#000000">SearchBarModule</text>
</g>
<!-- SearchBarModule&#45;&gt;ShowsModule -->
<g id="edge9" class="edge">
<title>SearchBarModule&#45;&gt;ShowsModule</title>
<path fill="none" stroke="#000000" d="M537,-122.0225C537,-139.3734 537,-163 537,-163 537,-163 926.2033,-163 926.2033,-163"/>
<polygon fill="#000000" stroke="#000000" points="926.2034,-166.5001 936.2033,-163 926.2033,-159.5001 926.2034,-166.5001"/>
</g>
<!-- SharedModule -->
<g id="node11" class="node">
<title>SharedModule</title>
<polygon fill="#8dd3c7" stroke="#000000" points="460.4231,-122 457.4231,-126 436.4231,-126 433.4231,-122 361.5769,-122 361.5769,-86 460.4231,-86 460.4231,-122"/>
<text text-anchor="middle" x="411" y="-99.8" font-family="Times,serif" font-size="14.00" fill="#000000">SharedModule</text>
</g>
<!-- SharedModule&#45;&gt;ShowsModule -->
<g id="edge10" class="edge">
<title>SharedModule&#45;&gt;ShowsModule</title>
<path fill="none" stroke="#000000" d="M411,-122.1061C411,-141.3391 411,-169 411,-169 411,-169 926.5558,-169 926.5558,-169"/>
<polygon fill="#000000" stroke="#000000" points="926.5558,-172.5001 936.5558,-169 926.5557,-165.5001 926.5558,-172.5001"/>
</g>
<!-- TopPanelModule -->
<g id="node12" class="node">
<title>TopPanelModule</title>
<polygon fill="#8dd3c7" stroke="#000000" points="343.705,-122 340.705,-126 319.705,-126 316.705,-122 230.295,-122 230.295,-86 343.705,-86 343.705,-122"/>
<text text-anchor="middle" x="287" y="-99.8" font-family="Times,serif" font-size="14.00" fill="#000000">TopPanelModule</text>
</g>
<!-- TopPanelModule&#45;&gt;ShowsModule -->
<g id="edge11" class="edge">
<title>TopPanelModule&#45;&gt;ShowsModule</title>
<path fill="none" stroke="#000000" d="M287,-122.2843C287,-143.3211 287,-175 287,-175 287,-175 926.4722,-175 926.4722,-175"/>
<polygon fill="#000000" stroke="#000000" points="926.4722,-178.5001 936.4722,-175 926.4721,-171.5001 926.4722,-178.5001"/>
</g>
<!-- ShowFeatureService -->
<g id="node13" class="node">
<title>ShowFeatureService</title>
<ellipse fill="#fdb462" stroke="#000000" cx="115" cy="-104" rx="90.8878" ry="18"/>
<text text-anchor="middle" x="115" y="-99.8" font-family="Times,serif" font-size="14.00" fill="#000000">ShowFeatureService</text>
</g>
<!-- ShowFeatureService&#45;&gt;ShowsModule -->
<g id="edge12" class="edge">
<title>ShowFeatureService&#45;&gt;ShowsModule</title>
<path fill="none" stroke="#000000" d="M115,-122.0908C115,-145.1328 115,-182 115,-182 115,-182 926.3608,-182 926.3608,-182"/>
<polygon fill="#000000" stroke="#000000" points="926.3608,-185.5001 936.3608,-182 926.3608,-178.5001 926.3608,-185.5001"/>
</g>
</g>
</svg>
