<?xml version="1.0" encoding="UTF-8" standalone="no"?>
<!DOCTYPE svg PUBLIC "-//W3C//DTD SVG 1.1//EN"
 "http://www.w3.org/Graphics/SVG/1.1/DTD/svg11.dtd">
<!-- Generated by graphviz version 2.40.1 (20161225.0304)
 -->
<!-- Title: dependencies Pages: 1 -->
<svg width="2303pt" height="211pt"
 viewBox="0.00 0.00 2303.00 211.00" xmlns="http://www.w3.org/2000/svg" xmlns:xlink="http://www.w3.org/1999/xlink">
<g id="graph0" class="graph" transform="scale(1 1) rotate(0) translate(4 207)">
<title>dependencies</title>
<polygon fill="#ffffff" stroke="transparent" points="-4,4 -4,-207 2299,-207 2299,4 -4,4"/>
<text text-anchor="start" x="1126.5091" y="-42.4" font-family="sans-serif" font-weight="bold" font-size="14.00" fill="#000000">Legend</text>
<polygon fill="#ffffb3" stroke="transparent" points="913.5,-10 913.5,-30 933.5,-30 933.5,-10 913.5,-10"/>
<text text-anchor="start" x="937.129" y="-15.4" font-family="sans-serif" font-size="14.00" fill="#000000"> &#160;Declarations</text>
<polygon fill="#8dd3c7" stroke="transparent" points="1026.5,-10 1026.5,-30 1046.5,-30 1046.5,-10 1026.5,-10"/>
<text text-anchor="start" x="1050.2251" y="-15.4" font-family="sans-serif" font-size="14.00" fill="#000000"> &#160;Module</text>
<polygon fill="#80b1d3" stroke="transparent" points="1112.5,-10 1112.5,-30 1132.5,-30 1132.5,-10 1112.5,-10"/>
<text text-anchor="start" x="1136.2812" y="-15.4" font-family="sans-serif" font-size="14.00" fill="#000000"> &#160;Bootstrap</text>
<polygon fill="#fdb462" stroke="transparent" points="1209.5,-10 1209.5,-30 1229.5,-30 1229.5,-10 1209.5,-10"/>
<text text-anchor="start" x="1233.1732" y="-15.4" font-family="sans-serif" font-size="14.00" fill="#000000"> &#160;Providers</text>
<polygon fill="#fb8072" stroke="transparent" points="1305.5,-10 1305.5,-30 1325.5,-30 1325.5,-10 1305.5,-10"/>
<text text-anchor="start" x="1329.2258" y="-15.4" font-family="sans-serif" font-size="14.00" fill="#000000"> &#160;Exports</text>
<g id="clust1" class="cluster">
<title>cluster_CustomDialogModule</title>
<polygon fill="none" stroke="#000000" stroke-dasharray="1,5" points="8,-70 8,-195 2287,-195 2287,-70 8,-70"/>
</g>
<g id="clust2" class="cluster">
<title>cluster_CustomDialogModule_declarations</title>
<polygon fill="none" stroke="#000000" points="796,-78 796,-130 2279,-130 2279,-78 796,-78"/>
</g>
<g id="clust10" class="cluster">
<title>cluster_CustomDialogModule_imports</title>
<polygon fill="none" stroke="#000000" points="422,-78 422,-130 788,-130 788,-78 422,-78"/>
</g>
<g id="clust13" class="cluster">
<title>cluster_CustomDialogModule_providers</title>
<polygon fill="none" stroke="#000000" points="16,-78 16,-130 414,-130 414,-78 16,-78"/>
</g>
<!-- CreationDialogComponent -->
<g id="node1" class="node">
<title>CreationDialogComponent</title>
<polygon fill="#ffffb3" stroke="#000000" points="2270.6428,-122 2103.3572,-122 2103.3572,-86 2270.6428,-86 2270.6428,-122"/>
<text text-anchor="middle" x="2187" y="-99.8" font-family="Times,serif" font-size="14.00" fill="#000000">CreationDialogComponent</text>
</g>
<!-- CustomDialogModule -->
<g id="node8" class="node">
<title>CustomDialogModule</title>
<polygon fill="#8dd3c7" stroke="#000000" points="1136.7148,-187 1133.7148,-191 1112.7148,-191 1109.7148,-187 995.2852,-187 995.2852,-151 1136.7148,-151 1136.7148,-187"/>
<text text-anchor="middle" x="1066" y="-164.8" font-family="Times,serif" font-size="14.00" fill="#000000">CustomDialogModule</text>
</g>
<!-- CreationDialogComponent&#45;&gt;CustomDialogModule -->
<g id="edge1" class="edge">
<title>CreationDialogComponent&#45;&gt;CustomDialogModule</title>
<path fill="none" stroke="#000000" d="M2187,-122.0908C2187,-145.1328 2187,-182 2187,-182 2187,-182 1146.974,-182 1146.974,-182"/>
<polygon fill="#000000" stroke="#000000" points="1146.974,-178.5001 1136.974,-182 1146.974,-185.5001 1146.974,-178.5001"/>
</g>
<!-- EditionDialogComponent -->
<g id="node2" class="node">
<title>EditionDialogComponent</title>
<polygon fill="#ffffb3" stroke="#000000" points="2085.1596,-122 1924.8404,-122 1924.8404,-86 2085.1596,-86 2085.1596,-122"/>
<text text-anchor="middle" x="2005" y="-99.8" font-family="Times,serif" font-size="14.00" fill="#000000">EditionDialogComponent</text>
</g>
<!-- EditionDialogComponent&#45;&gt;CustomDialogModule -->
<g id="edge2" class="edge">
<title>EditionDialogComponent&#45;&gt;CustomDialogModule</title>
<path fill="none" stroke="#000000" d="M2005,-122.2843C2005,-143.3211 2005,-175 2005,-175 2005,-175 1146.9625,-175 1146.9625,-175"/>
<polygon fill="#000000" stroke="#000000" points="1146.9626,-171.5001 1136.9625,-175 1146.9625,-178.5001 1146.9626,-171.5001"/>
</g>
<!-- FindProductDialogComponent -->
<g id="node3" class="node">
<title>FindProductDialogComponent</title>
<polygon fill="#ffffb3" stroke="#000000" points="1906.1567,-122 1717.8433,-122 1717.8433,-86 1906.1567,-86 1906.1567,-122"/>
<text text-anchor="middle" x="1812" y="-99.8" font-family="Times,serif" font-size="14.00" fill="#000000">FindProductDialogComponent</text>
</g>
<!-- FindProductDialogComponent&#45;&gt;CustomDialogModule -->
<g id="edge3" class="edge">
<title>FindProductDialogComponent&#45;&gt;CustomDialogModule</title>
<path fill="none" stroke="#000000" d="M1812,-122.1061C1812,-141.3391 1812,-169 1812,-169 1812,-169 1146.8544,-169 1146.8544,-169"/>
<polygon fill="#000000" stroke="#000000" points="1146.8545,-165.5001 1136.8544,-169 1146.8544,-172.5001 1146.8545,-165.5001"/>
</g>
<!-- MergeDialogComponent -->
<g id="node4" class="node">
<title>MergeDialogComponent</title>
<polygon fill="#ffffb3" stroke="#000000" points="1699.9692,-122 1544.0308,-122 1544.0308,-86 1699.9692,-86 1699.9692,-122"/>
<text text-anchor="middle" x="1622" y="-99.8" font-family="Times,serif" font-size="14.00" fill="#000000">MergeDialogComponent</text>
</g>
<!-- MergeDialogComponent&#45;&gt;CustomDialogModule -->
<g id="edge4" class="edge">
<title>MergeDialogComponent&#45;&gt;CustomDialogModule</title>
<path fill="none" stroke="#000000" d="M1622,-122.0225C1622,-139.3734 1622,-163 1622,-163 1622,-163 1146.6999,-163 1146.6999,-163"/>
<polygon fill="#000000" stroke="#000000" points="1146.7,-159.5001 1136.6999,-163 1146.6999,-166.5001 1146.7,-159.5001"/>
</g>
<!-- ProductAddToProjectDlgComponent -->
<g id="node5" class="node">
<title>ProductAddToProjectDlgComponent</title>
<polygon fill="#ffffb3" stroke="#000000" points="1525.6909,-122 1300.3091,-122 1300.3091,-86 1525.6909,-86 1525.6909,-122"/>
<text text-anchor="middle" x="1413" y="-99.8" font-family="Times,serif" font-size="14.00" fill="#000000">ProductAddToProjectDlgComponent</text>
</g>
<!-- ProductAddToProjectDlgComponent&#45;&gt;CustomDialogModule -->
<g id="edge5" class="edge">
<title>ProductAddToProjectDlgComponent&#45;&gt;CustomDialogModule</title>
<path fill="none" stroke="#000000" d="M1413,-122.2396C1413,-137.5706 1413,-157 1413,-157 1413,-157 1146.6389,-157 1146.6389,-157"/>
<polygon fill="#000000" stroke="#000000" points="1146.6389,-153.5001 1136.6389,-157 1146.6388,-160.5001 1146.6389,-153.5001"/>
</g>
<!-- ProductExportDlgComponent -->
<g id="node6" class="node">
<title>ProductExportDlgComponent</title>
<polygon fill="#ffffb3" stroke="#000000" points="1281.9818,-122 1098.0182,-122 1098.0182,-86 1281.9818,-86 1281.9818,-122"/>
<text text-anchor="middle" x="1190" y="-99.8" font-family="Times,serif" font-size="14.00" fill="#000000">ProductExportDlgComponent</text>
</g>
<!-- ProductExportDlgComponent&#45;&gt;CustomDialogModule -->
<g id="edge6" class="edge">
<title>ProductExportDlgComponent&#45;&gt;CustomDialogModule</title>
<path fill="none" stroke="#000000" d="M1117.3082,-122.1061C1117.3082,-122.1061 1117.3082,-140.991 1117.3082,-140.991"/>
<polygon fill="#000000" stroke="#000000" points="1113.8083,-140.9909 1117.3082,-150.991 1120.8083,-140.991 1113.8083,-140.9909"/>
</g>
<!-- ProductRequestTeamFeedbackDlgComponent -->
<g id="node7" class="node">
<title>ProductRequestTeamFeedbackDlgComponent</title>
<polygon fill="#ffffb3" stroke="#000000" points="1080.4928,-122 803.5072,-122 803.5072,-86 1080.4928,-86 1080.4928,-122"/>
<text text-anchor="middle" x="942" y="-99.8" font-family="Times,serif" font-size="14.00" fill="#000000">ProductRequestTeamFeedbackDlgComponent</text>
</g>
<!-- ProductRequestTeamFeedbackDlgComponent&#45;&gt;CustomDialogModule -->
<g id="edge7" class="edge">
<title>ProductRequestTeamFeedbackDlgComponent&#45;&gt;CustomDialogModule</title>
<path fill="none" stroke="#000000" d="M1037.8195,-122.1061C1037.8195,-122.1061 1037.8195,-140.991 1037.8195,-140.991"/>
<polygon fill="#000000" stroke="#000000" points="1034.3195,-140.9909 1037.8195,-150.991 1041.3195,-140.991 1034.3195,-140.9909"/>
</g>
<!-- DialogModule -->
<g id="node9" class="node">
<title>DialogModule</title>
<polygon fill="#8dd3c7" stroke="#000000" points="779.6528,-122 776.6528,-126 755.6528,-126 752.6528,-122 682.3472,-122 682.3472,-86 779.6528,-86 779.6528,-122"/>
<text text-anchor="middle" x="731" y="-99.8" font-family="Times,serif" font-size="14.00" fill="#000000">DialogModule</text>
</g>
<!-- DialogModule&#45;&gt;CustomDialogModule -->
<g id="edge8" class="edge">
<title>DialogModule&#45;&gt;CustomDialogModule</title>
<path fill="none" stroke="#000000" d="M731,-122.2396C731,-137.5706 731,-157 731,-157 731,-157 985.3645,-157 985.3645,-157"/>
<polygon fill="#000000" stroke="#000000" points="985.3645,-160.5001 995.3645,-157 985.3644,-153.5001 985.3645,-160.5001"/>
</g>
<!-- SearchBarModule -->
<g id="node10" class="node">
<title>SearchBarModule</title>
<polygon fill="#8dd3c7" stroke="#000000" points="663.8487,-122 660.8487,-126 639.8487,-126 636.8487,-122 546.1513,-122 546.1513,-86 663.8487,-86 663.8487,-122"/>
<text text-anchor="middle" x="605" y="-99.8" font-family="Times,serif" font-size="14.00" fill="#000000">SearchBarModule</text>
</g>
<!-- SearchBarModule&#45;&gt;CustomDialogModule -->
<g id="edge9" class="edge">
<title>SearchBarModule&#45;&gt;CustomDialogModule</title>
<path fill="none" stroke="#000000" d="M605,-122.0225C605,-139.3734 605,-163 605,-163 605,-163 985.2308,-163 985.2308,-163"/>
<polygon fill="#000000" stroke="#000000" points="985.2308,-166.5001 995.2308,-163 985.2308,-159.5001 985.2308,-166.5001"/>
</g>
<!-- SharedModule -->
<g id="node11" class="node">
<title>SharedModule</title>
<polygon fill="#8dd3c7" stroke="#000000" points="528.4231,-122 525.4231,-126 504.4231,-126 501.4231,-122 429.5769,-122 429.5769,-86 528.4231,-86 528.4231,-122"/>
<text text-anchor="middle" x="479" y="-99.8" font-family="Times,serif" font-size="14.00" fill="#000000">SharedModule</text>
</g>
<!-- SharedModule&#45;&gt;CustomDialogModule -->
<g id="edge10" class="edge">
<title>SharedModule&#45;&gt;CustomDialogModule</title>
<path fill="none" stroke="#000000" d="M479,-122.1061C479,-141.3391 479,-169 479,-169 479,-169 985.1941,-169 985.1941,-169"/>
<polygon fill="#000000" stroke="#000000" points="985.1941,-172.5001 995.1941,-169 985.194,-165.5001 985.1941,-172.5001"/>
</g>
<!-- CrudDialogService -->
<g id="node12" class="node">
<title>CrudDialogService</title>
<ellipse fill="#fdb462" stroke="#000000" cx="320" cy="-104" rx="85.6725" ry="18"/>
<text text-anchor="middle" x="320" y="-99.8" font-family="Times,serif" font-size="14.00" fill="#000000">CrudDialogService</text>
</g>
<!-- CrudDialogService&#45;&gt;CustomDialogModule -->
<g id="edge11" class="edge">
<title>CrudDialogService&#45;&gt;CustomDialogModule</title>
<path fill="none" stroke="#000000" d="M320,-122.2843C320,-143.3211 320,-175 320,-175 320,-175 985.1456,-175 985.1456,-175"/>
<polygon fill="#000000" stroke="#000000" points="985.1456,-178.5001 995.1456,-175 985.1455,-171.5001 985.1456,-178.5001"/>
</g>
<!-- ProductDialogService -->
<g id="node13" class="node">
<title>ProductDialogService</title>
<ellipse fill="#fdb462" stroke="#000000" cx="120" cy="-104" rx="96.1266" ry="18"/>
<text text-anchor="middle" x="120" y="-99.8" font-family="Times,serif" font-size="14.00" fill="#000000">ProductDialogService</text>
</g>
<!-- ProductDialogService&#45;&gt;CustomDialogModule -->
<g id="edge12" class="edge">
<title>ProductDialogService&#45;&gt;CustomDialogModule</title>
<path fill="none" stroke="#000000" d="M120,-122.0908C120,-145.1328 120,-182 120,-182 120,-182 985.2831,-182 985.2831,-182"/>
<polygon fill="#000000" stroke="#000000" points="985.2832,-185.5001 995.2831,-182 985.2831,-178.5001 985.2832,-185.5001"/>
</g>
</g>
</svg>
