<?xml version="1.0" encoding="UTF-8" standalone="no"?>
<!DOCTYPE svg PUBLIC "-//W3C//DTD SVG 1.1//EN"
 "http://www.w3.org/Graphics/SVG/1.1/DTD/svg11.dtd">
<!-- Generated by graphviz version 2.40.1 (20161225.0304)
 -->
<!-- Title: dependencies Pages: 1 -->
<svg width="646pt" height="284pt"
 viewBox="0.00 0.00 646.00 284.00" xmlns="http://www.w3.org/2000/svg" xmlns:xlink="http://www.w3.org/1999/xlink">
<g id="graph0" class="graph" transform="scale(1 1) rotate(0) translate(4 280)">
<title>dependencies</title>
<polygon fill="#ffffff" stroke="transparent" points="-4,4 -4,-280 642,-280 642,4 -4,4"/>
<text text-anchor="start" x="298.0091" y="-42.4" font-family="sans-serif" font-weight="bold" font-size="14.00" fill="#000000">Legend</text>
<polygon fill="#ffffb3" stroke="transparent" points="85,-10 85,-30 105,-30 105,-10 85,-10"/>
<text text-anchor="start" x="108.629" y="-15.4" font-family="sans-serif" font-size="14.00" fill="#000000"> &#160;Declarations</text>
<polygon fill="#8dd3c7" stroke="transparent" points="198,-10 198,-30 218,-30 218,-10 198,-10"/>
<text text-anchor="start" x="221.7251" y="-15.4" font-family="sans-serif" font-size="14.00" fill="#000000"> &#160;Module</text>
<polygon fill="#80b1d3" stroke="transparent" points="284,-10 284,-30 304,-30 304,-10 284,-10"/>
<text text-anchor="start" x="307.7812" y="-15.4" font-family="sans-serif" font-size="14.00" fill="#000000"> &#160;Bootstrap</text>
<polygon fill="#fdb462" stroke="transparent" points="381,-10 381,-30 401,-30 401,-10 381,-10"/>
<text text-anchor="start" x="404.6732" y="-15.4" font-family="sans-serif" font-size="14.00" fill="#000000"> &#160;Providers</text>
<polygon fill="#fb8072" stroke="transparent" points="477,-10 477,-30 497,-30 497,-10 477,-10"/>
<text text-anchor="start" x="500.7258" y="-15.4" font-family="sans-serif" font-size="14.00" fill="#000000"> &#160;Exports</text>
<g id="clust1" class="cluster">
<title>cluster_DndModule</title>
<polygon fill="none" stroke="#000000" stroke-dasharray="1,5" points="8,-70 8,-268 630,-268 630,-70 8,-70"/>
</g>
<g id="clust2" class="cluster">
<title>cluster_DndModule_declarations</title>
<polygon fill="none" stroke="#000000" points="202,-78 202,-130 622,-130 622,-78 202,-78"/>
</g>
<g id="clust7" class="cluster">
<title>cluster_DndModule_exports</title>
<polygon fill="none" stroke="#000000" points="125,-208 125,-260 555,-260 555,-208 125,-208"/>
</g>
<g id="clust9" class="cluster">
<title>cluster_DndModule_providers</title>
<polygon fill="none" stroke="#000000" points="16,-78 16,-130 194,-130 194,-78 16,-78"/>
</g>
<!-- DraggableDirective -->
<g id="node1" class="node">
<title>DraggableDirective</title>
<polygon fill="#ffffb3" stroke="#000000" points="614.385,-122 487.615,-122 487.615,-86 614.385,-86 614.385,-122"/>
<text text-anchor="middle" x="551" y="-99.8" font-family="Times,serif" font-size="14.00" fill="#000000">DraggableDirective</text>
</g>
<!-- DndModule -->
<g id="node4" class="node">
<title>DndModule</title>
<polygon fill="#8dd3c7" stroke="#000000" points="377.6571,-187 374.6571,-191 353.6571,-191 350.6571,-187 294.3429,-187 294.3429,-151 377.6571,-151 377.6571,-187"/>
<text text-anchor="middle" x="336" y="-164.8" font-family="Times,serif" font-size="14.00" fill="#000000">DndModule</text>
</g>
<!-- DraggableDirective&#45;&gt;DndModule -->
<g id="edge1" class="edge">
<title>DraggableDirective&#45;&gt;DndModule</title>
<path fill="none" stroke="#000000" d="M517.375,-122.0225C517.375,-139.3734 517.375,-163 517.375,-163 517.375,-163 388.067,-163 388.067,-163"/>
<polygon fill="#000000" stroke="#000000" points="388.067,-159.5001 378.067,-163 388.0669,-166.5001 388.067,-159.5001"/>
</g>
<!-- DropzoneDirective -->
<g id="node2" class="node">
<title>DropzoneDirective</title>
<polygon fill="#ffffb3" stroke="#000000" points="469.7795,-122 346.2205,-122 346.2205,-86 469.7795,-86 469.7795,-122"/>
<text text-anchor="middle" x="408" y="-99.8" font-family="Times,serif" font-size="14.00" fill="#000000">DropzoneDirective</text>
</g>
<!-- DropzoneDirective&#45;&gt;DndModule -->
<g id="edge2" class="edge">
<title>DropzoneDirective&#45;&gt;DndModule</title>
<path fill="none" stroke="#000000" d="M362.0943,-122.1061C362.0943,-122.1061 362.0943,-140.991 362.0943,-140.991"/>
<polygon fill="#000000" stroke="#000000" points="358.5944,-140.9909 362.0943,-150.991 365.5944,-140.991 358.5944,-140.9909"/>
</g>
<!-- MovableDirective -->
<g id="node3" class="node">
<title>MovableDirective</title>
<polygon fill="#ffffb3" stroke="#000000" points="327.8473,-122 210.1527,-122 210.1527,-86 327.8473,-86 327.8473,-122"/>
<text text-anchor="middle" x="269" y="-99.8" font-family="Times,serif" font-size="14.00" fill="#000000">MovableDirective</text>
</g>
<!-- MovableDirective&#45;&gt;DndModule -->
<g id="edge3" class="edge">
<title>MovableDirective&#45;&gt;DndModule</title>
<path fill="none" stroke="#000000" d="M311.0477,-122.1061C311.0477,-122.1061 311.0477,-140.991 311.0477,-140.991"/>
<polygon fill="#000000" stroke="#000000" points="307.5478,-140.9909 311.0477,-150.991 314.5478,-140.991 307.5478,-140.9909"/>
</g>
<!-- DraggableDirective  -->
<g id="node5" class="node">
<title>DraggableDirective </title>
<polygon fill="#fb8072" stroke="#000000" points="546.8845,-252 417.1155,-252 417.1155,-216 546.8845,-216 546.8845,-252"/>
<text text-anchor="middle" x="482" y="-229.8" font-family="Times,serif" font-size="14.00" fill="#000000">DraggableDirective </text>
</g>
<!-- DndModule&#45;&gt;DraggableDirective  -->
<g id="edge4" class="edge">
<title>DndModule&#45;&gt;DraggableDirective </title>
<path fill="none" stroke="#000000" stroke-dasharray="5,2" d="M377.8112,-175C407.9529,-175 443.3487,-175 443.3487,-175 443.3487,-175 443.3487,-205.9775 443.3487,-205.9775"/>
<polygon fill="#000000" stroke="#000000" points="439.8488,-205.9774 443.3487,-215.9775 446.8488,-205.9775 439.8488,-205.9774"/>
</g>
<!-- DropzoneDirective  -->
<g id="node6" class="node">
<title>DropzoneDirective </title>
<polygon fill="#fb8072" stroke="#000000" points="399.2794,-252 272.7206,-252 272.7206,-216 399.2794,-216 399.2794,-252"/>
<text text-anchor="middle" x="336" y="-229.8" font-family="Times,serif" font-size="14.00" fill="#000000">DropzoneDirective </text>
</g>
<!-- DndModule&#45;&gt;DropzoneDirective  -->
<g id="edge5" class="edge">
<title>DndModule&#45;&gt;DropzoneDirective </title>
<path fill="none" stroke="#000000" stroke-dasharray="5,2" d="M336,-187.1061C336,-187.1061 336,-205.991 336,-205.991"/>
<polygon fill="#000000" stroke="#000000" points="332.5001,-205.9909 336,-215.991 339.5001,-205.991 332.5001,-205.9909"/>
</g>
<!-- MovableDirective  -->
<g id="node7" class="node">
<title>MovableDirective </title>
<polygon fill="#fb8072" stroke="#000000" points="254.8477,-252 133.1523,-252 133.1523,-216 254.8477,-216 254.8477,-252"/>
<text text-anchor="middle" x="194" y="-229.8" font-family="Times,serif" font-size="14.00" fill="#000000">MovableDirective </text>
</g>
<!-- DndModule&#45;&gt;MovableDirective  -->
<g id="edge6" class="edge">
<title>DndModule&#45;&gt;MovableDirective </title>
<path fill="none" stroke="#000000" stroke-dasharray="5,2" d="M294.1504,-175C265.3907,-175 232.375,-175 232.375,-175 232.375,-175 232.375,-205.9775 232.375,-205.9775"/>
<polygon fill="#000000" stroke="#000000" points="228.8751,-205.9774 232.375,-215.9775 235.8751,-205.9775 228.8751,-205.9774"/>
</g>
<!-- DroppableService -->
<g id="node8" class="node">
<title>DroppableService</title>
<ellipse fill="#fdb462" stroke="#000000" cx="105" cy="-104" rx="80.9988" ry="18"/>
<text text-anchor="middle" x="105" y="-99.8" font-family="Times,serif" font-size="14.00" fill="#000000">DroppableService</text>
</g>
<!-- DroppableService&#45;&gt;DndModule -->
<g id="edge7" class="edge">
<title>DroppableService&#45;&gt;DndModule</title>
<path fill="none" stroke="#000000" d="M159.5377,-117.388C159.5377,-134.7955 159.5377,-163 159.5377,-163 159.5377,-163 284.1809,-163 284.1809,-163"/>
<polygon fill="#000000" stroke="#000000" points="284.1809,-166.5001 294.1809,-163 284.1809,-159.5001 284.1809,-166.5001"/>
</g>
</g>
</svg>
