<?xml version="1.0" encoding="UTF-8" standalone="no"?>
<!DOCTYPE svg PUBLIC "-//W3C//DTD SVG 1.1//EN"
 "http://www.w3.org/Graphics/SVG/1.1/DTD/svg11.dtd">
<!-- Generated by graphviz version 2.40.1 (20161225.0304)
 -->
<!-- Title: dependencies Pages: 1 -->
<svg width="504pt" height="284pt"
 viewBox="0.00 0.00 504.00 284.00" xmlns="http://www.w3.org/2000/svg" xmlns:xlink="http://www.w3.org/1999/xlink">
<g id="graph0" class="graph" transform="scale(1 1) rotate(0) translate(4 280)">
<title>dependencies</title>
<polygon fill="#ffffff" stroke="transparent" points="-4,4 -4,-280 500,-280 500,4 -4,4"/>
<text text-anchor="start" x="227.0091" y="-42.4" font-family="sans-serif" font-weight="bold" font-size="14.00" fill="#000000">Legend</text>
<polygon fill="#ffffb3" stroke="transparent" points="14,-10 14,-30 34,-30 34,-10 14,-10"/>
<text text-anchor="start" x="37.629" y="-15.4" font-family="sans-serif" font-size="14.00" fill="#000000"> &#160;Declarations</text>
<polygon fill="#8dd3c7" stroke="transparent" points="127,-10 127,-30 147,-30 147,-10 127,-10"/>
<text text-anchor="start" x="150.7251" y="-15.4" font-family="sans-serif" font-size="14.00" fill="#000000"> &#160;Module</text>
<polygon fill="#80b1d3" stroke="transparent" points="213,-10 213,-30 233,-30 233,-10 213,-10"/>
<text text-anchor="start" x="236.7812" y="-15.4" font-family="sans-serif" font-size="14.00" fill="#000000"> &#160;Bootstrap</text>
<polygon fill="#fdb462" stroke="transparent" points="310,-10 310,-30 330,-30 330,-10 310,-10"/>
<text text-anchor="start" x="333.6732" y="-15.4" font-family="sans-serif" font-size="14.00" fill="#000000"> &#160;Providers</text>
<polygon fill="#fb8072" stroke="transparent" points="406,-10 406,-30 426,-30 426,-10 406,-10"/>
<text text-anchor="start" x="429.7258" y="-15.4" font-family="sans-serif" font-size="14.00" fill="#000000"> &#160;Exports</text>
<g id="clust1" class="cluster">
<title>cluster_WorkflowActionModule</title>
<polygon fill="none" stroke="#000000" stroke-dasharray="1,5" points="83,-70 83,-268 413,-268 413,-70 83,-70"/>
</g>
<g id="clust2" class="cluster">
<title>cluster_WorkflowActionModule_declarations</title>
<polygon fill="none" stroke="#000000" points="213,-78 213,-130 405,-130 405,-78 213,-78"/>
</g>
<g id="clust4" class="cluster">
<title>cluster_WorkflowActionModule_imports</title>
<polygon fill="none" stroke="#000000" points="91,-78 91,-130 205,-130 205,-78 91,-78"/>
</g>
<g id="clust5" class="cluster">
<title>cluster_WorkflowActionModule_exports</title>
<polygon fill="none" stroke="#000000" points="150,-208 150,-260 346,-260 346,-208 150,-208"/>
</g>
<!-- WorkflowActionComponent -->
<g id="node1" class="node">
<title>WorkflowActionComponent</title>
<polygon fill="#ffffb3" stroke="#000000" points="397.4678,-122 220.5322,-122 220.5322,-86 397.4678,-86 397.4678,-122"/>
<text text-anchor="middle" x="309" y="-99.8" font-family="Times,serif" font-size="14.00" fill="#000000">WorkflowActionComponent</text>
</g>
<!-- WorkflowActionModule -->
<g id="node2" class="node">
<title>WorkflowActionModule</title>
<polygon fill="#8dd3c7" stroke="#000000" points="325.6853,-187 322.6853,-191 301.6853,-191 298.6853,-187 170.3147,-187 170.3147,-151 325.6853,-151 325.6853,-187"/>
<text text-anchor="middle" x="248" y="-164.8" font-family="Times,serif" font-size="14.00" fill="#000000">WorkflowActionModule</text>
</g>
<!-- WorkflowActionComponent&#45;&gt;WorkflowActionModule -->
<g id="edge1" class="edge">
<title>WorkflowActionComponent&#45;&gt;WorkflowActionModule</title>
<path fill="none" stroke="#000000" d="M273.0544,-122.1061C273.0544,-122.1061 273.0544,-140.991 273.0544,-140.991"/>
<polygon fill="#000000" stroke="#000000" points="269.5544,-140.9909 273.0544,-150.991 276.5544,-140.991 269.5544,-140.9909"/>
</g>
<!-- WorkflowActionComponent  -->
<g id="node4" class="node">
<title>WorkflowActionComponent </title>
<polygon fill="#fb8072" stroke="#000000" points="338.4684,-252 157.5316,-252 157.5316,-216 338.4684,-216 338.4684,-252"/>
<text text-anchor="middle" x="248" y="-229.8" font-family="Times,serif" font-size="14.00" fill="#000000">WorkflowActionComponent </text>
</g>
<!-- WorkflowActionModule&#45;&gt;WorkflowActionComponent  -->
<g id="edge3" class="edge">
<title>WorkflowActionModule&#45;&gt;WorkflowActionComponent </title>
<path fill="none" stroke="#000000" stroke-dasharray="5,2" d="M248,-187.1061C248,-187.1061 248,-205.991 248,-205.991"/>
<polygon fill="#000000" stroke="#000000" points="244.5001,-205.9909 248,-215.991 251.5001,-205.991 244.5001,-205.9909"/>
</g>
<!-- SharedModule -->
<g id="node3" class="node">
<title>SharedModule</title>
<polygon fill="#8dd3c7" stroke="#000000" points="197.4231,-122 194.4231,-126 173.4231,-126 170.4231,-122 98.5769,-122 98.5769,-86 197.4231,-86 197.4231,-122"/>
<text text-anchor="middle" x="148" y="-99.8" font-family="Times,serif" font-size="14.00" fill="#000000">SharedModule</text>
</g>
<!-- SharedModule&#45;&gt;WorkflowActionModule -->
<g id="edge2" class="edge">
<title>SharedModule&#45;&gt;WorkflowActionModule</title>
<path fill="none" stroke="#000000" d="M183.8093,-122.1061C183.8093,-122.1061 183.8093,-140.991 183.8093,-140.991"/>
<polygon fill="#000000" stroke="#000000" points="180.3093,-140.9909 183.8093,-150.991 187.3093,-140.991 180.3093,-140.9909"/>
</g>
</g>
</svg>
