<?xml version="1.0" encoding="UTF-8" standalone="no"?>
<!DOCTYPE svg PUBLIC "-//W3C//DTD SVG 1.1//EN"
 "http://www.w3.org/Graphics/SVG/1.1/DTD/svg11.dtd">
<!-- Generated by graphviz version 2.40.1 (20161225.0304)
 -->
<!-- Title: dependencies Pages: 1 -->
<svg width="6102pt" height="284pt"
 viewBox="0.00 0.00 6102.00 284.00" xmlns="http://www.w3.org/2000/svg" xmlns:xlink="http://www.w3.org/1999/xlink">
<g id="graph0" class="graph" transform="scale(1 1) rotate(0) translate(4 280)">
<title>dependencies</title>
<polygon fill="#ffffff" stroke="transparent" points="-4,4 -4,-280 6098,-280 6098,4 -4,4"/>
<text text-anchor="start" x="3026.0091" y="-42.4" font-family="sans-serif" font-weight="bold" font-size="14.00" fill="#000000">Legend</text>
<polygon fill="#ffffb3" stroke="transparent" points="2813,-10 2813,-30 2833,-30 2833,-10 2813,-10"/>
<text text-anchor="start" x="2836.629" y="-15.4" font-family="sans-serif" font-size="14.00" fill="#000000"> &#160;Declarations</text>
<polygon fill="#8dd3c7" stroke="transparent" points="2926,-10 2926,-30 2946,-30 2946,-10 2926,-10"/>
<text text-anchor="start" x="2949.7251" y="-15.4" font-family="sans-serif" font-size="14.00" fill="#000000"> &#160;Module</text>
<polygon fill="#80b1d3" stroke="transparent" points="3012,-10 3012,-30 3032,-30 3032,-10 3012,-10"/>
<text text-anchor="start" x="3035.7812" y="-15.4" font-family="sans-serif" font-size="14.00" fill="#000000"> &#160;Bootstrap</text>
<polygon fill="#fdb462" stroke="transparent" points="3109,-10 3109,-30 3129,-30 3129,-10 3109,-10"/>
<text text-anchor="start" x="3132.6732" y="-15.4" font-family="sans-serif" font-size="14.00" fill="#000000"> &#160;Providers</text>
<polygon fill="#fb8072" stroke="transparent" points="3205,-10 3205,-30 3225,-30 3225,-10 3205,-10"/>
<text text-anchor="start" x="3228.7258" y="-15.4" font-family="sans-serif" font-size="14.00" fill="#000000"> &#160;Exports</text>
<g id="clust1" class="cluster">
<title>cluster_SuppliersModule</title>
<polygon fill="none" stroke="#000000" stroke-dasharray="1,5" points="8,-70 8,-268 6086,-268 6086,-70 8,-70"/>
</g>
<g id="clust2" class="cluster">
<title>cluster_SuppliersModule_declarations</title>
<polygon fill="none" stroke="#000000" points="2340,-78 2340,-130 6078,-130 6078,-78 2340,-78"/>
</g>
<g id="clust22" class="cluster">
<title>cluster_SuppliersModule_imports</title>
<polygon fill="none" stroke="#000000" points="244,-78 244,-130 2332,-130 2332,-78 244,-78"/>
</g>
<g id="clust23" class="cluster">
<title>cluster_SuppliersModule_exports</title>
<polygon fill="none" stroke="#000000" points="2339,-208 2339,-260 2519,-260 2519,-208 2339,-208"/>
</g>
<g id="clust25" class="cluster">
<title>cluster_SuppliersModule_providers</title>
<polygon fill="none" stroke="#000000" points="16,-78 16,-130 236,-130 236,-78 16,-78"/>
</g>
<!-- NewContactDlgComponent -->
<g id="node1" class="node">
<title>NewContactDlgComponent</title>
<polygon fill="#ffffb3" stroke="#000000" points="6070.3047,-122 5897.6953,-122 5897.6953,-86 6070.3047,-86 6070.3047,-122"/>
<text text-anchor="middle" x="5984" y="-99.8" font-family="Times,serif" font-size="14.00" fill="#000000">NewContactDlgComponent</text>
</g>
<!-- SuppliersModule -->
<g id="node20" class="node">
<title>SuppliersModule</title>
<polygon fill="#8dd3c7" stroke="#000000" points="2485.4342,-187 2482.4342,-191 2461.4342,-191 2458.4342,-187 2372.5658,-187 2372.5658,-151 2485.4342,-151 2485.4342,-187"/>
<text text-anchor="middle" x="2429" y="-164.8" font-family="Times,serif" font-size="14.00" fill="#000000">SuppliersModule</text>
</g>
<!-- NewContactDlgComponent&#45;&gt;SuppliersModule -->
<g id="edge1" class="edge">
<title>NewContactDlgComponent&#45;&gt;SuppliersModule</title>
<path fill="none" stroke="#000000" d="M5984,-122.1985C5984,-146.3563 5984,-186 5984,-186 5984,-186 2495.5583,-186 2495.5583,-186"/>
<polygon fill="#000000" stroke="#000000" points="2495.5584,-182.5001 2485.5583,-186 2495.5583,-189.5001 2495.5584,-182.5001"/>
</g>
<!-- NewSupplierDlgComponent -->
<g id="node2" class="node">
<title>NewSupplierDlgComponent</title>
<polygon fill="#ffffb3" stroke="#000000" points="5880.1965,-122 5703.8035,-122 5703.8035,-86 5880.1965,-86 5880.1965,-122"/>
<text text-anchor="middle" x="5792" y="-99.8" font-family="Times,serif" font-size="14.00" fill="#000000">NewSupplierDlgComponent</text>
</g>
<!-- NewSupplierDlgComponent&#45;&gt;SuppliersModule -->
<g id="edge2" class="edge">
<title>NewSupplierDlgComponent&#45;&gt;SuppliersModule</title>
<path fill="none" stroke="#000000" d="M5792,-122.1532C5792,-145.7566 5792,-184 5792,-184 5792,-184 2495.2607,-184 2495.2607,-184"/>
<polygon fill="#000000" stroke="#000000" points="2495.2607,-180.5001 2485.2607,-184 2495.2606,-187.5001 2495.2607,-180.5001"/>
</g>
<!-- SupplierActivityComponent -->
<g id="node3" class="node">
<title>SupplierActivityComponent</title>
<polygon fill="#ffffb3" stroke="#000000" points="5686.1553,-122 5511.8447,-122 5511.8447,-86 5686.1553,-86 5686.1553,-122"/>
<text text-anchor="middle" x="5599" y="-99.8" font-family="Times,serif" font-size="14.00" fill="#000000">SupplierActivityComponent</text>
</g>
<!-- SupplierActivityComponent&#45;&gt;SuppliersModule -->
<g id="edge3" class="edge">
<title>SupplierActivityComponent&#45;&gt;SuppliersModule</title>
<path fill="none" stroke="#000000" d="M5599,-122.0908C5599,-145.1328 5599,-182 5599,-182 5599,-182 2495.3667,-182 2495.3667,-182"/>
<polygon fill="#000000" stroke="#000000" points="2495.3667,-178.5001 2485.3667,-182 2495.3666,-185.5001 2495.3667,-178.5001"/>
</g>
<!-- SupplierContactCardComponent -->
<g id="node4" class="node">
<title>SupplierContactCardComponent</title>
<polygon fill="#ffffb3" stroke="#000000" points="5493.5308,-122 5294.4692,-122 5294.4692,-86 5493.5308,-86 5493.5308,-122"/>
<text text-anchor="middle" x="5394" y="-99.8" font-family="Times,serif" font-size="14.00" fill="#000000">SupplierContactCardComponent</text>
</g>
<!-- SupplierContactCardComponent&#45;&gt;SuppliersModule -->
<g id="edge4" class="edge">
<title>SupplierContactCardComponent&#45;&gt;SuppliersModule</title>
<path fill="none" stroke="#000000" d="M5394,-122.0109C5394,-144.4852 5394,-180 5394,-180 5394,-180 2495.2556,-180 2495.2556,-180"/>
<polygon fill="#000000" stroke="#000000" points="2495.2556,-176.5001 2485.2556,-180 2495.2556,-183.5001 2495.2556,-176.5001"/>
</g>
<!-- SupplierContactComponent -->
<g id="node5" class="node">
<title>SupplierContactComponent</title>
<polygon fill="#ffffb3" stroke="#000000" points="5276.3187,-122 5103.6813,-122 5103.6813,-86 5276.3187,-86 5276.3187,-122"/>
<text text-anchor="middle" x="5190" y="-99.8" font-family="Times,serif" font-size="14.00" fill="#000000">SupplierContactComponent</text>
</g>
<!-- SupplierContactComponent&#45;&gt;SuppliersModule -->
<g id="edge5" class="edge">
<title>SupplierContactComponent&#45;&gt;SuppliersModule</title>
<path fill="none" stroke="#000000" d="M5190,-122.2921C5190,-144.2057 5190,-178 5190,-178 5190,-178 2495.4032,-178 2495.4032,-178"/>
<polygon fill="#000000" stroke="#000000" points="2495.4032,-174.5001 2485.4032,-178 2495.4031,-181.5001 2495.4032,-174.5001"/>
</g>
<!-- SupplierDescriptionComponent -->
<g id="node6" class="node">
<title>SupplierDescriptionComponent</title>
<polygon fill="#ffffb3" stroke="#000000" points="5086.0842,-122 4891.9158,-122 4891.9158,-86 5086.0842,-86 5086.0842,-122"/>
<text text-anchor="middle" x="4989" y="-99.8" font-family="Times,serif" font-size="14.00" fill="#000000">SupplierDescriptionComponent</text>
</g>
<!-- SupplierDescriptionComponent&#45;&gt;SuppliersModule -->
<g id="edge6" class="edge">
<title>SupplierDescriptionComponent&#45;&gt;SuppliersModule</title>
<path fill="none" stroke="#000000" d="M4989,-122.1686C4989,-143.498 4989,-176 4989,-176 4989,-176 2495.4528,-176 2495.4528,-176"/>
<polygon fill="#000000" stroke="#000000" points="2495.4528,-172.5001 2485.4528,-176 2495.4527,-179.5001 2495.4528,-172.5001"/>
</g>
<!-- SupplierDetailsComponent -->
<g id="node7" class="node">
<title>SupplierDetailsComponent</title>
<polygon fill="#ffffb3" stroke="#000000" points="4874.4241,-122 4705.5759,-122 4705.5759,-86 4874.4241,-86 4874.4241,-122"/>
<text text-anchor="middle" x="4790" y="-99.8" font-family="Times,serif" font-size="14.00" fill="#000000">SupplierDetailsComponent</text>
</g>
<!-- SupplierDetailsComponent&#45;&gt;SuppliersModule -->
<g id="edge7" class="edge">
<title>SupplierDetailsComponent&#45;&gt;SuppliersModule</title>
<path fill="none" stroke="#000000" d="M4790,-122.0267C4790,-142.7672 4790,-174 4790,-174 4790,-174 2495.3221,-174 2495.3221,-174"/>
<polygon fill="#000000" stroke="#000000" points="2495.3221,-170.5001 2485.3221,-174 2495.3221,-177.5001 2495.3221,-170.5001"/>
</g>
<!-- SupplierImagesComponent -->
<g id="node8" class="node">
<title>SupplierImagesComponent</title>
<polygon fill="#ffffb3" stroke="#000000" points="4687.6965,-122 4518.3035,-122 4518.3035,-86 4687.6965,-86 4687.6965,-122"/>
<text text-anchor="middle" x="4603" y="-99.8" font-family="Times,serif" font-size="14.00" fill="#000000">SupplierImagesComponent</text>
</g>
<!-- SupplierImagesComponent&#45;&gt;SuppliersModule -->
<g id="edge8" class="edge">
<title>SupplierImagesComponent&#45;&gt;SuppliersModule</title>
<path fill="none" stroke="#000000" d="M4603,-122.2228C4603,-142.3652 4603,-172 4603,-172 4603,-172 2495.4768,-172 2495.4768,-172"/>
<polygon fill="#000000" stroke="#000000" points="2495.4768,-168.5001 2485.4768,-172 2495.4768,-175.5001 2495.4768,-168.5001"/>
</g>
<!-- SupplierInfosComponent -->
<g id="node9" class="node">
<title>SupplierInfosComponent</title>
<polygon fill="#ffffb3" stroke="#000000" points="4500.5379,-122 4343.4621,-122 4343.4621,-86 4500.5379,-86 4500.5379,-122"/>
<text text-anchor="middle" x="4422" y="-99.8" font-family="Times,serif" font-size="14.00" fill="#000000">SupplierInfosComponent</text>
</g>
<!-- SupplierInfosComponent&#45;&gt;SuppliersModule -->
<g id="edge9" class="edge">
<title>SupplierInfosComponent&#45;&gt;SuppliersModule</title>
<path fill="none" stroke="#000000" d="M4422,-122.0348C4422,-141.5762 4422,-170 4422,-170 4422,-170 2495.4362,-170 2495.4362,-170"/>
<polygon fill="#000000" stroke="#000000" points="2495.4363,-166.5001 2485.4362,-170 2495.4362,-173.5001 2495.4363,-166.5001"/>
</g>
<!-- SupplierLatestProductsComponent -->
<g id="node10" class="node">
<title>SupplierLatestProductsComponent</title>
<polygon fill="#ffffb3" stroke="#000000" points="4324.972,-122 4113.028,-122 4113.028,-86 4324.972,-86 4324.972,-122"/>
<text text-anchor="middle" x="4219" y="-99.8" font-family="Times,serif" font-size="14.00" fill="#000000">SupplierLatestProductsComponent</text>
</g>
<!-- SupplierLatestProductsComponent&#45;&gt;SuppliersModule -->
<g id="edge10" class="edge">
<title>SupplierLatestProductsComponent&#45;&gt;SuppliersModule</title>
<path fill="none" stroke="#000000" d="M4219,-122.1061C4219,-141.3391 4219,-169 4219,-169 4219,-169 2495.5275,-169 2495.5275,-169"/>
<polygon fill="#000000" stroke="#000000" points="2495.5276,-165.5001 2485.5275,-169 2495.5275,-172.5001 2495.5276,-165.5001"/>
</g>
<!-- SupplierListViewComponent -->
<g id="node11" class="node">
<title>SupplierListViewComponent</title>
<polygon fill="#ffffb3" stroke="#000000" points="4095.3682,-122 3914.6318,-122 3914.6318,-86 4095.3682,-86 4095.3682,-122"/>
<text text-anchor="middle" x="4005" y="-99.8" font-family="Times,serif" font-size="14.00" fill="#000000">SupplierListViewComponent</text>
</g>
<!-- SupplierListViewComponent&#45;&gt;SuppliersModule -->
<g id="edge11" class="edge">
<title>SupplierListViewComponent&#45;&gt;SuppliersModule</title>
<path fill="none" stroke="#000000" d="M4005,-122.2222C4005,-140.8285 4005,-167 4005,-167 4005,-167 2495.5553,-167 2495.5553,-167"/>
<polygon fill="#000000" stroke="#000000" points="2495.5554,-163.5001 2485.5553,-167 2495.5553,-170.5001 2495.5554,-163.5001"/>
</g>
<!-- SupplierMainComponent -->
<g id="node12" class="node">
<title>SupplierMainComponent</title>
<polygon fill="#ffffb3" stroke="#000000" points="3896.3215,-122 3737.6785,-122 3737.6785,-86 3896.3215,-86 3896.3215,-122"/>
<text text-anchor="middle" x="3817" y="-99.8" font-family="Times,serif" font-size="14.00" fill="#000000">SupplierMainComponent</text>
</g>
<!-- SupplierMainComponent&#45;&gt;SuppliersModule -->
<g id="edge12" class="edge">
<title>SupplierMainComponent&#45;&gt;SuppliersModule</title>
<path fill="none" stroke="#000000" d="M3817,-122.302C3817,-140.2699 3817,-165 3817,-165 3817,-165 2495.5639,-165 2495.5639,-165"/>
<polygon fill="#000000" stroke="#000000" points="2495.5639,-161.5001 2485.5639,-165 2495.5638,-168.5001 2495.5639,-161.5001"/>
</g>
<!-- SupplierMainTitleComponent -->
<g id="node13" class="node">
<title>SupplierMainTitleComponent</title>
<polygon fill="#ffffb3" stroke="#000000" points="3719.2604,-122 3534.7396,-122 3534.7396,-86 3719.2604,-86 3719.2604,-122"/>
<text text-anchor="middle" x="3627" y="-99.8" font-family="Times,serif" font-size="14.00" fill="#000000">SupplierMainTitleComponent</text>
</g>
<!-- SupplierMainTitleComponent&#45;&gt;SuppliersModule -->
<g id="edge13" class="edge">
<title>SupplierMainTitleComponent&#45;&gt;SuppliersModule</title>
<path fill="none" stroke="#000000" d="M3627,-122.0225C3627,-139.3734 3627,-163 3627,-163 3627,-163 2495.575,-163 2495.575,-163"/>
<polygon fill="#000000" stroke="#000000" points="2495.575,-159.5001 2485.575,-163 2495.575,-166.5001 2495.575,-159.5001"/>
</g>
<!-- SupplierPreviewComponent -->
<g id="node14" class="node">
<title>SupplierPreviewComponent</title>
<polygon fill="#ffffb3" stroke="#000000" points="3516.1414,-122 3341.8586,-122 3341.8586,-86 3516.1414,-86 3516.1414,-122"/>
<text text-anchor="middle" x="3429" y="-99.8" font-family="Times,serif" font-size="14.00" fill="#000000">SupplierPreviewComponent</text>
</g>
<!-- SupplierPreviewComponent&#45;&gt;SuppliersModule -->
<g id="edge14" class="edge">
<title>SupplierPreviewComponent&#45;&gt;SuppliersModule</title>
<path fill="none" stroke="#000000" d="M3429,-122.0352C3429,-138.7344 3429,-161 3429,-161 3429,-161 2495.2678,-161 2495.2678,-161"/>
<polygon fill="#000000" stroke="#000000" points="2495.2678,-157.5001 2485.2678,-161 2495.2678,-164.5001 2495.2678,-157.5001"/>
</g>
<!-- SupplierProductsComponent -->
<g id="node15" class="node">
<title>SupplierProductsComponent</title>
<polygon fill="#ffffb3" stroke="#000000" points="3323.7646,-122 3146.2354,-122 3146.2354,-86 3323.7646,-86 3323.7646,-122"/>
<text text-anchor="middle" x="3235" y="-99.8" font-family="Times,serif" font-size="14.00" fill="#000000">SupplierProductsComponent</text>
</g>
<!-- SupplierProductsComponent&#45;&gt;SuppliersModule -->
<g id="edge15" class="edge">
<title>SupplierProductsComponent&#45;&gt;SuppliersModule</title>
<path fill="none" stroke="#000000" d="M3235,-122.0091C3235,-138.0494 3235,-159 3235,-159 3235,-159 2495.356,-159 2495.356,-159"/>
<polygon fill="#000000" stroke="#000000" points="2495.356,-155.5001 2485.356,-159 2495.356,-162.5001 2495.356,-155.5001"/>
</g>
<!-- SupplierPublicProfileComponent -->
<g id="node16" class="node">
<title>SupplierPublicProfileComponent</title>
<polygon fill="#ffffb3" stroke="#000000" points="3128.1497,-122 2925.8503,-122 2925.8503,-86 3128.1497,-86 3128.1497,-122"/>
<text text-anchor="middle" x="3027" y="-99.8" font-family="Times,serif" font-size="14.00" fill="#000000">SupplierPublicProfileComponent</text>
</g>
<!-- SupplierPublicProfileComponent&#45;&gt;SuppliersModule -->
<g id="edge16" class="edge">
<title>SupplierPublicProfileComponent&#45;&gt;SuppliersModule</title>
<path fill="none" stroke="#000000" d="M3027,-122.2396C3027,-137.5706 3027,-157 3027,-157 3027,-157 2495.2584,-157 2495.2584,-157"/>
<polygon fill="#000000" stroke="#000000" points="2495.2584,-153.5001 2485.2584,-157 2495.2584,-160.5001 2495.2584,-153.5001"/>
</g>
<!-- SupplierSummaryComponent -->
<g id="node17" class="node">
<title>SupplierSummaryComponent</title>
<polygon fill="#ffffb3" stroke="#000000" points="2907.7105,-122 2724.2895,-122 2724.2895,-86 2907.7105,-86 2907.7105,-122"/>
<text text-anchor="middle" x="2816" y="-99.8" font-family="Times,serif" font-size="14.00" fill="#000000">SupplierSummaryComponent</text>
</g>
<!-- SupplierSummaryComponent&#45;&gt;SuppliersModule -->
<g id="edge17" class="edge">
<title>SupplierSummaryComponent&#45;&gt;SuppliersModule</title>
<path fill="none" stroke="#000000" d="M2816,-122.1243C2816,-136.7832 2816,-155 2816,-155 2816,-155 2495.2731,-155 2495.2731,-155"/>
<polygon fill="#000000" stroke="#000000" points="2495.2732,-151.5001 2485.2731,-155 2495.2731,-158.5001 2495.2732,-151.5001"/>
</g>
<!-- SupplierTopCardComponent -->
<g id="node18" class="node">
<title>SupplierTopCardComponent</title>
<polygon fill="#ffffb3" stroke="#000000" points="2706.0364,-122 2527.9636,-122 2527.9636,-86 2706.0364,-86 2706.0364,-122"/>
<text text-anchor="middle" x="2617" y="-99.8" font-family="Times,serif" font-size="14.00" fill="#000000">SupplierTopCardComponent</text>
</g>
<!-- SupplierTopCardComponent&#45;&gt;SuppliersModule -->
<g id="edge18" class="edge">
<title>SupplierTopCardComponent&#45;&gt;SuppliersModule</title>
<path fill="none" stroke="#000000" d="M2617,-122.2458C2617,-136.1772 2617,-153 2617,-153 2617,-153 2495.4062,-153 2495.4062,-153"/>
<polygon fill="#000000" stroke="#000000" points="2495.4062,-149.5001 2485.4062,-153 2495.4062,-156.5001 2495.4062,-149.5001"/>
</g>
<!-- SuppliersPageComponent -->
<g id="node19" class="node">
<title>SuppliersPageComponent</title>
<polygon fill="#ffffb3" stroke="#000000" points="2509.9284,-122 2348.0716,-122 2348.0716,-86 2509.9284,-86 2509.9284,-122"/>
<text text-anchor="middle" x="2429" y="-99.8" font-family="Times,serif" font-size="14.00" fill="#000000">SuppliersPageComponent</text>
</g>
<!-- SuppliersPageComponent&#45;&gt;SuppliersModule -->
<g id="edge19" class="edge">
<title>SuppliersPageComponent&#45;&gt;SuppliersModule</title>
<path fill="none" stroke="#000000" d="M2429,-122.1061C2429,-122.1061 2429,-140.991 2429,-140.991"/>
<polygon fill="#000000" stroke="#000000" points="2425.5001,-140.9909 2429,-150.991 2432.5001,-140.991 2425.5001,-140.9909"/>
</g>
<!-- SuppliersPageComponent  -->
<g id="node37" class="node">
<title>SuppliersPageComponent </title>
<polygon fill="#fb8072" stroke="#000000" points="2511.4278,-252 2346.5722,-252 2346.5722,-216 2511.4278,-216 2511.4278,-252"/>
<text text-anchor="middle" x="2429" y="-229.8" font-family="Times,serif" font-size="14.00" fill="#000000">SuppliersPageComponent </text>
</g>
<!-- SuppliersModule&#45;&gt;SuppliersPageComponent  -->
<g id="edge37" class="edge">
<title>SuppliersModule&#45;&gt;SuppliersPageComponent </title>
<path fill="none" stroke="#000000" stroke-dasharray="5,2" d="M2429,-187.1061C2429,-187.1061 2429,-205.991 2429,-205.991"/>
<polygon fill="#000000" stroke="#000000" points="2425.5001,-205.9909 2429,-215.991 2432.5001,-205.991 2425.5001,-205.9909"/>
</g>
<!-- ActionBarModule -->
<g id="node21" class="node">
<title>ActionBarModule</title>
<polygon fill="#8dd3c7" stroke="#000000" points="2323.8641,-122 2320.8641,-126 2299.8641,-126 2296.8641,-122 2206.1359,-122 2206.1359,-86 2323.8641,-86 2323.8641,-122"/>
<text text-anchor="middle" x="2265" y="-99.8" font-family="Times,serif" font-size="14.00" fill="#000000">ActionBarModule</text>
</g>
<!-- ActionBarModule&#45;&gt;SuppliersModule -->
<g id="edge20" class="edge">
<title>ActionBarModule&#45;&gt;SuppliersModule</title>
<path fill="none" stroke="#000000" d="M2265,-122.2458C2265,-136.1772 2265,-153 2265,-153 2265,-153 2362.5605,-153 2362.5605,-153"/>
<polygon fill="#000000" stroke="#000000" points="2362.5605,-156.5001 2372.5605,-153 2362.5605,-149.5001 2362.5605,-156.5001"/>
</g>
<!-- ActivityModule -->
<g id="node22" class="node">
<title>ActivityModule</title>
<polygon fill="#8dd3c7" stroke="#000000" points="2187.9343,-122 2184.9343,-126 2163.9343,-126 2160.9343,-122 2082.0657,-122 2082.0657,-86 2187.9343,-86 2187.9343,-122"/>
<text text-anchor="middle" x="2135" y="-99.8" font-family="Times,serif" font-size="14.00" fill="#000000">ActivityModule</text>
</g>
<!-- ActivityModule&#45;&gt;SuppliersModule -->
<g id="edge21" class="edge">
<title>ActivityModule&#45;&gt;SuppliersModule</title>
<path fill="none" stroke="#000000" d="M2135,-122.1243C2135,-136.7832 2135,-155 2135,-155 2135,-155 2362.6617,-155 2362.6617,-155"/>
<polygon fill="#000000" stroke="#000000" points="2362.6617,-158.5001 2372.6617,-155 2362.6617,-151.5001 2362.6617,-158.5001"/>
</g>
<!-- BadgeModule -->
<g id="node23" class="node">
<title>BadgeModule</title>
<polygon fill="#8dd3c7" stroke="#000000" points="2064.8161,-122 2061.8161,-126 2040.8161,-126 2037.8161,-122 1969.1839,-122 1969.1839,-86 2064.8161,-86 2064.8161,-122"/>
<text text-anchor="middle" x="2017" y="-99.8" font-family="Times,serif" font-size="14.00" fill="#000000">BadgeModule</text>
</g>
<!-- BadgeModule&#45;&gt;SuppliersModule -->
<g id="edge22" class="edge">
<title>BadgeModule&#45;&gt;SuppliersModule</title>
<path fill="none" stroke="#000000" d="M2032.8859,-122.2396C2032.8859,-137.5706 2032.8859,-157 2032.8859,-157 2032.8859,-157 2362.6672,-157 2362.6672,-157"/>
<polygon fill="#000000" stroke="#000000" points="2362.6672,-160.5001 2372.6672,-157 2362.6671,-153.5001 2362.6672,-160.5001"/>
</g>
<!-- BadgeModule&#45;&gt;SuppliersModule -->
<g id="edge23" class="edge">
<title>BadgeModule&#45;&gt;SuppliersModule</title>
<path fill="none" stroke="#000000" d="M2001.1141,-122.0091C2001.1141,-138.0494 2001.1141,-159 2001.1141,-159 2001.1141,-159 2362.6214,-159 2362.6214,-159"/>
<polygon fill="#000000" stroke="#000000" points="2362.6214,-162.5001 2372.6214,-159 2362.6214,-155.5001 2362.6214,-162.5001"/>
</g>
<!-- CarouselModule -->
<g id="node24" class="node">
<title>CarouselModule</title>
<polygon fill="#8dd3c7" stroke="#000000" points="1951.8118,-122 1948.8118,-126 1927.8118,-126 1924.8118,-122 1842.1882,-122 1842.1882,-86 1951.8118,-86 1951.8118,-122"/>
<text text-anchor="middle" x="1897" y="-99.8" font-family="Times,serif" font-size="14.00" fill="#000000">CarouselModule</text>
</g>
<!-- CarouselModule&#45;&gt;SuppliersModule -->
<g id="edge24" class="edge">
<title>CarouselModule&#45;&gt;SuppliersModule</title>
<path fill="none" stroke="#000000" d="M1897,-122.0352C1897,-138.7344 1897,-161 1897,-161 1897,-161 2362.5703,-161 2362.5703,-161"/>
<polygon fill="#000000" stroke="#000000" points="2362.5704,-164.5001 2372.5703,-161 2362.5703,-157.5001 2362.5704,-164.5001"/>
</g>
<!-- DialogModule -->
<g id="node25" class="node">
<title>DialogModule</title>
<polygon fill="#8dd3c7" stroke="#000000" points="1824.6528,-122 1821.6528,-126 1800.6528,-126 1797.6528,-122 1727.3472,-122 1727.3472,-86 1824.6528,-86 1824.6528,-122"/>
<text text-anchor="middle" x="1776" y="-99.8" font-family="Times,serif" font-size="14.00" fill="#000000">DialogModule</text>
</g>
<!-- DialogModule&#45;&gt;SuppliersModule -->
<g id="edge25" class="edge">
<title>DialogModule&#45;&gt;SuppliersModule</title>
<path fill="none" stroke="#000000" d="M1776,-122.0225C1776,-139.3734 1776,-163 1776,-163 1776,-163 2362.7604,-163 2362.7604,-163"/>
<polygon fill="#000000" stroke="#000000" points="2362.7604,-166.5001 2372.7604,-163 2362.7604,-159.5001 2362.7604,-166.5001"/>
</g>
<!-- DynamicFormsModule -->
<g id="node26" class="node">
<title>DynamicFormsModule</title>
<polygon fill="#8dd3c7" stroke="#000000" points="1709.1456,-122 1706.1456,-126 1685.1456,-126 1682.1456,-122 1562.8544,-122 1562.8544,-86 1709.1456,-86 1709.1456,-122"/>
<text text-anchor="middle" x="1636" y="-99.8" font-family="Times,serif" font-size="14.00" fill="#000000">DynamicFormsModule</text>
</g>
<!-- DynamicFormsModule&#45;&gt;SuppliersModule -->
<g id="edge26" class="edge">
<title>DynamicFormsModule&#45;&gt;SuppliersModule</title>
<path fill="none" stroke="#000000" d="M1636,-122.302C1636,-140.2699 1636,-165 1636,-165 1636,-165 2362.6051,-165 2362.6051,-165"/>
<polygon fill="#000000" stroke="#000000" points="2362.6052,-168.5001 2372.6051,-165 2362.6051,-161.5001 2362.6052,-168.5001"/>
</g>
<!-- FileModule -->
<g id="node27" class="node">
<title>FileModule</title>
<polygon fill="#8dd3c7" stroke="#000000" points="1544.8289,-122 1541.8289,-126 1520.8289,-126 1517.8289,-122 1463.1711,-122 1463.1711,-86 1544.8289,-86 1544.8289,-122"/>
<text text-anchor="middle" x="1504" y="-99.8" font-family="Times,serif" font-size="14.00" fill="#000000">FileModule</text>
</g>
<!-- FileModule&#45;&gt;SuppliersModule -->
<g id="edge27" class="edge">
<title>FileModule&#45;&gt;SuppliersModule</title>
<path fill="none" stroke="#000000" d="M1504,-122.2222C1504,-140.8285 1504,-167 1504,-167 1504,-167 2362.5295,-167 2362.5295,-167"/>
<polygon fill="#000000" stroke="#000000" points="2362.5296,-170.5001 2372.5295,-167 2362.5295,-163.5001 2362.5296,-170.5001"/>
</g>
<!-- FiltersModule -->
<g id="node28" class="node">
<title>FiltersModule</title>
<polygon fill="#8dd3c7" stroke="#000000" points="1445.8246,-122 1442.8246,-126 1421.8246,-126 1418.8246,-122 1350.1754,-122 1350.1754,-86 1445.8246,-86 1445.8246,-122"/>
<text text-anchor="middle" x="1398" y="-99.8" font-family="Times,serif" font-size="14.00" fill="#000000">FiltersModule</text>
</g>
<!-- FiltersModule&#45;&gt;SuppliersModule -->
<g id="edge28" class="edge">
<title>FiltersModule&#45;&gt;SuppliersModule</title>
<path fill="none" stroke="#000000" d="M1398,-122.1061C1398,-141.3391 1398,-169 1398,-169 1398,-169 2362.4691,-169 2362.4691,-169"/>
<polygon fill="#000000" stroke="#000000" points="2362.4692,-172.5001 2372.4691,-169 2362.4691,-165.5001 2362.4692,-172.5001"/>
</g>
<!-- PanelModule -->
<g id="node29" class="node">
<title>PanelModule</title>
<polygon fill="#8dd3c7" stroke="#000000" points="1332.1529,-122 1329.1529,-126 1308.1529,-126 1305.1529,-122 1241.8471,-122 1241.8471,-86 1332.1529,-86 1332.1529,-122"/>
<text text-anchor="middle" x="1287" y="-99.8" font-family="Times,serif" font-size="14.00" fill="#000000">PanelModule</text>
</g>
<!-- PanelModule&#45;&gt;SuppliersModule -->
<g id="edge29" class="edge">
<title>PanelModule&#45;&gt;SuppliersModule</title>
<path fill="none" stroke="#000000" d="M1287,-122.0348C1287,-141.5762 1287,-170 1287,-170 1287,-170 2362.7576,-170 2362.7576,-170"/>
<polygon fill="#000000" stroke="#000000" points="2362.7576,-173.5001 2372.7576,-170 2362.7575,-166.5001 2362.7576,-173.5001"/>
</g>
<!-- RatingModule -->
<g id="node30" class="node">
<title>RatingModule</title>
<polygon fill="#8dd3c7" stroke="#000000" points="1223.3823,-122 1220.3823,-126 1199.3823,-126 1196.3823,-122 1126.6177,-122 1126.6177,-86 1223.3823,-86 1223.3823,-122"/>
<text text-anchor="middle" x="1175" y="-99.8" font-family="Times,serif" font-size="14.00" fill="#000000">RatingModule</text>
</g>
<!-- RatingModule&#45;&gt;SuppliersModule -->
<g id="edge30" class="edge">
<title>RatingModule&#45;&gt;SuppliersModule</title>
<path fill="none" stroke="#000000" d="M1175,-122.2228C1175,-142.3652 1175,-172 1175,-172 1175,-172 2362.6821,-172 2362.6821,-172"/>
<polygon fill="#000000" stroke="#000000" points="2362.6821,-175.5001 2372.6821,-172 2362.682,-168.5001 2362.6821,-175.5001"/>
</g>
<!-- SearchAutocompleteModule -->
<g id="node31" class="node">
<title>SearchAutocompleteModule</title>
<polygon fill="#8dd3c7" stroke="#000000" points="1108.4496,-122 1105.4496,-126 1084.4496,-126 1081.4496,-122 931.5504,-122 931.5504,-86 1108.4496,-86 1108.4496,-122"/>
<text text-anchor="middle" x="1020" y="-99.8" font-family="Times,serif" font-size="14.00" fill="#000000">SearchAutocompleteModule</text>
</g>
<!-- SearchAutocompleteModule&#45;&gt;SuppliersModule -->
<g id="edge31" class="edge">
<title>SearchAutocompleteModule&#45;&gt;SuppliersModule</title>
<path fill="none" stroke="#000000" d="M1020,-122.0267C1020,-142.7672 1020,-174 1020,-174 1020,-174 2362.459,-174 2362.459,-174"/>
<polygon fill="#000000" stroke="#000000" points="2362.459,-177.5001 2372.459,-174 2362.459,-170.5001 2362.459,-177.5001"/>
</g>
<!-- SelectionBarModule -->
<g id="node32" class="node">
<title>SelectionBarModule</title>
<polygon fill="#8dd3c7" stroke="#000000" points="913.8599,-122 910.8599,-126 889.8599,-126 886.8599,-122 782.1401,-122 782.1401,-86 913.8599,-86 913.8599,-122"/>
<text text-anchor="middle" x="848" y="-99.8" font-family="Times,serif" font-size="14.00" fill="#000000">SelectionBarModule</text>
</g>
<!-- SelectionBarModule&#45;&gt;SuppliersModule -->
<g id="edge32" class="edge">
<title>SelectionBarModule&#45;&gt;SuppliersModule</title>
<path fill="none" stroke="#000000" d="M848,-122.1686C848,-143.498 848,-176 848,-176 848,-176 2362.7314,-176 2362.7314,-176"/>
<polygon fill="#000000" stroke="#000000" points="2362.7314,-179.5001 2372.7314,-176 2362.7313,-172.5001 2362.7314,-179.5001"/>
</g>
<!-- SharedModule -->
<g id="node33" class="node">
<title>SharedModule</title>
<polygon fill="#8dd3c7" stroke="#000000" points="764.4231,-122 761.4231,-126 740.4231,-126 737.4231,-122 665.5769,-122 665.5769,-86 764.4231,-86 764.4231,-122"/>
<text text-anchor="middle" x="715" y="-99.8" font-family="Times,serif" font-size="14.00" fill="#000000">SharedModule</text>
</g>
<!-- SharedModule&#45;&gt;SuppliersModule -->
<g id="edge33" class="edge">
<title>SharedModule&#45;&gt;SuppliersModule</title>
<path fill="none" stroke="#000000" d="M715,-122.2921C715,-144.2057 715,-178 715,-178 715,-178 2362.4603,-178 2362.4603,-178"/>
<polygon fill="#000000" stroke="#000000" points="2362.4604,-181.5001 2372.4603,-178 2362.4603,-174.5001 2362.4604,-181.5001"/>
</g>
<!-- TableModule -->
<g id="node34" class="node">
<title>TableModule</title>
<polygon fill="#8dd3c7" stroke="#000000" points="647.9232,-122 644.9232,-126 623.9232,-126 620.9232,-122 556.0768,-122 556.0768,-86 647.9232,-86 647.9232,-122"/>
<text text-anchor="middle" x="602" y="-99.8" font-family="Times,serif" font-size="14.00" fill="#000000">TableModule</text>
</g>
<!-- TableModule&#45;&gt;SuppliersModule -->
<g id="edge34" class="edge">
<title>TableModule&#45;&gt;SuppliersModule</title>
<path fill="none" stroke="#000000" d="M602,-122.0109C602,-144.4852 602,-180 602,-180 602,-180 2362.5703,-180 2362.5703,-180"/>
<polygon fill="#000000" stroke="#000000" points="2362.5704,-183.5001 2372.5703,-180 2362.5703,-176.5001 2362.5704,-183.5001"/>
</g>
<!-- TopPanelModule -->
<g id="node35" class="node">
<title>TopPanelModule</title>
<polygon fill="#8dd3c7" stroke="#000000" points="538.705,-122 535.705,-126 514.705,-126 511.705,-122 425.295,-122 425.295,-86 538.705,-86 538.705,-122"/>
<text text-anchor="middle" x="482" y="-99.8" font-family="Times,serif" font-size="14.00" fill="#000000">TopPanelModule</text>
</g>
<!-- TopPanelModule&#45;&gt;SuppliersModule -->
<g id="edge35" class="edge">
<title>TopPanelModule&#45;&gt;SuppliersModule</title>
<path fill="none" stroke="#000000" d="M482,-122.0908C482,-145.1328 482,-182 482,-182 482,-182 2362.5693,-182 2362.5693,-182"/>
<polygon fill="#000000" stroke="#000000" points="2362.5693,-185.5001 2372.5693,-182 2362.5693,-178.5001 2362.5693,-185.5001"/>
</g>
<!-- WorkflowActionModule -->
<g id="node36" class="node">
<title>WorkflowActionModule</title>
<polygon fill="#8dd3c7" stroke="#000000" points="407.6853,-122 404.6853,-126 383.6853,-126 380.6853,-122 252.3147,-122 252.3147,-86 407.6853,-86 407.6853,-122"/>
<text text-anchor="middle" x="330" y="-99.8" font-family="Times,serif" font-size="14.00" fill="#000000">WorkflowActionModule</text>
</g>
<!-- WorkflowActionModule&#45;&gt;SuppliersModule -->
<g id="edge36" class="edge">
<title>WorkflowActionModule&#45;&gt;SuppliersModule</title>
<path fill="none" stroke="#000000" d="M330,-122.1532C330,-145.7566 330,-184 330,-184 330,-184 2362.5856,-184 2362.5856,-184"/>
<polygon fill="#000000" stroke="#000000" points="2362.5856,-187.5001 2372.5856,-184 2362.5855,-180.5001 2362.5856,-187.5001"/>
</g>
<!-- SupplierFeatureService -->
<g id="node38" class="node">
<title>SupplierFeatureService</title>
<ellipse fill="#fdb462" stroke="#000000" cx="126" cy="-104" rx="101.8399" ry="18"/>
<text text-anchor="middle" x="126" y="-99.8" font-family="Times,serif" font-size="14.00" fill="#000000">SupplierFeatureService</text>
</g>
<!-- SupplierFeatureService&#45;&gt;SuppliersModule -->
<g id="edge38" class="edge">
<title>SupplierFeatureService&#45;&gt;SuppliersModule</title>
<path fill="none" stroke="#000000" d="M126,-122.1985C126,-146.3563 126,-186 126,-186 126,-186 2362.6435,-186 2362.6435,-186"/>
<polygon fill="#000000" stroke="#000000" points="2362.6435,-189.5001 2372.6435,-186 2362.6435,-182.5001 2362.6435,-189.5001"/>
</g>
</g>
</svg>
