<?xml version="1.0" encoding="UTF-8" standalone="no"?>
<!DOCTYPE svg PUBLIC "-//W3C//DTD SVG 1.1//EN"
 "http://www.w3.org/Graphics/SVG/1.1/DTD/svg11.dtd">
<!-- Generated by graphviz version 2.40.1 (20161225.0304)
 -->
<!-- Title: dependencies Pages: 1 -->
<svg width="731pt" height="284pt"
 viewBox="0.00 0.00 731.00 284.00" xmlns="http://www.w3.org/2000/svg" xmlns:xlink="http://www.w3.org/1999/xlink">
<g id="graph0" class="graph" transform="scale(1 1) rotate(0) translate(4 280)">
<title>dependencies</title>
<polygon fill="#ffffff" stroke="transparent" points="-4,4 -4,-280 727,-280 727,4 -4,4"/>
<text text-anchor="start" x="340.5091" y="-42.4" font-family="sans-serif" font-weight="bold" font-size="14.00" fill="#000000">Legend</text>
<polygon fill="#ffffb3" stroke="transparent" points="127.5,-10 127.5,-30 147.5,-30 147.5,-10 127.5,-10"/>
<text text-anchor="start" x="151.129" y="-15.4" font-family="sans-serif" font-size="14.00" fill="#000000"> &#160;Declarations</text>
<polygon fill="#8dd3c7" stroke="transparent" points="240.5,-10 240.5,-30 260.5,-30 260.5,-10 240.5,-10"/>
<text text-anchor="start" x="264.2251" y="-15.4" font-family="sans-serif" font-size="14.00" fill="#000000"> &#160;Module</text>
<polygon fill="#80b1d3" stroke="transparent" points="326.5,-10 326.5,-30 346.5,-30 346.5,-10 326.5,-10"/>
<text text-anchor="start" x="350.2812" y="-15.4" font-family="sans-serif" font-size="14.00" fill="#000000"> &#160;Bootstrap</text>
<polygon fill="#fdb462" stroke="transparent" points="423.5,-10 423.5,-30 443.5,-30 443.5,-10 423.5,-10"/>
<text text-anchor="start" x="447.1732" y="-15.4" font-family="sans-serif" font-size="14.00" fill="#000000"> &#160;Providers</text>
<polygon fill="#fb8072" stroke="transparent" points="519.5,-10 519.5,-30 539.5,-30 539.5,-10 519.5,-10"/>
<text text-anchor="start" x="543.2258" y="-15.4" font-family="sans-serif" font-size="14.00" fill="#000000"> &#160;Exports</text>
<g id="clust1" class="cluster">
<title>cluster_UtilsModule</title>
<polygon fill="none" stroke="#000000" stroke-dasharray="1,5" points="8,-70 8,-268 715,-268 715,-70 8,-70"/>
</g>
<g id="clust2" class="cluster">
<title>cluster_UtilsModule_declarations</title>
<polygon fill="none" stroke="#000000" points="24,-78 24,-130 698,-130 698,-78 24,-78"/>
</g>
<g id="clust9" class="cluster">
<title>cluster_UtilsModule_exports</title>
<polygon fill="none" stroke="#000000" points="16,-208 16,-260 707,-260 707,-208 16,-208"/>
</g>
<!-- ClickOutsideDirective -->
<g id="node1" class="node">
<title>ClickOutsideDirective</title>
<polygon fill="#ffffb3" stroke="#000000" points="689.9622,-122 548.0378,-122 548.0378,-86 689.9622,-86 689.9622,-122"/>
<text text-anchor="middle" x="619" y="-99.8" font-family="Times,serif" font-size="14.00" fill="#000000">ClickOutsideDirective</text>
</g>
<!-- UtilsModule -->
<g id="node6" class="node">
<title>UtilsModule</title>
<polygon fill="#8dd3c7" stroke="#000000" points="413.2731,-187 410.2731,-191 389.2731,-191 386.2731,-187 326.7269,-187 326.7269,-151 413.2731,-151 413.2731,-187"/>
<text text-anchor="middle" x="370" y="-164.8" font-family="Times,serif" font-size="14.00" fill="#000000">UtilsModule</text>
</g>
<!-- ClickOutsideDirective&#45;&gt;UtilsModule -->
<g id="edge1" class="edge">
<title>ClickOutsideDirective&#45;&gt;UtilsModule</title>
<path fill="none" stroke="#000000" d="M644.4104,-122.2667C644.4104,-140.5552 644.4104,-166 644.4104,-166 644.4104,-166 423.4811,-166 423.4811,-166"/>
<polygon fill="#000000" stroke="#000000" points="423.4812,-162.5001 413.4811,-166 423.4811,-169.5001 423.4812,-162.5001"/>
</g>
<!-- ConstPipe -->
<g id="node2" class="node">
<title>ConstPipe</title>
<polygon fill="#ffffb3" stroke="#000000" points="529.5609,-122 456.4391,-122 456.4391,-86 529.5609,-86 529.5609,-122"/>
<text text-anchor="middle" x="493" y="-99.8" font-family="Times,serif" font-size="14.00" fill="#000000">ConstPipe</text>
</g>
<!-- ConstPipe&#45;&gt;UtilsModule -->
<g id="edge2" class="edge">
<title>ConstPipe&#45;&gt;UtilsModule</title>
<path fill="none" stroke="#000000" d="M506.0099,-122.0091C506.0099,-138.0494 506.0099,-159 506.0099,-159 506.0099,-159 423.4083,-159 423.4083,-159"/>
<polygon fill="#000000" stroke="#000000" points="423.4084,-155.5001 413.4083,-159 423.4083,-162.5001 423.4084,-155.5001"/>
</g>
<!-- DateToTimeAgoPipe -->
<g id="node3" class="node">
<title>DateToTimeAgoPipe</title>
<polygon fill="#ffffb3" stroke="#000000" points="438.0226,-122 301.9774,-122 301.9774,-86 438.0226,-86 438.0226,-122"/>
<text text-anchor="middle" x="370" y="-99.8" font-family="Times,serif" font-size="14.00" fill="#000000">DateToTimeAgoPipe</text>
</g>
<!-- DateToTimeAgoPipe&#45;&gt;UtilsModule -->
<g id="edge3" class="edge">
<title>DateToTimeAgoPipe&#45;&gt;UtilsModule</title>
<path fill="none" stroke="#000000" d="M370,-122.1061C370,-122.1061 370,-140.991 370,-140.991"/>
<polygon fill="#000000" stroke="#000000" points="366.5001,-140.9909 370,-150.991 373.5001,-140.991 366.5001,-140.9909"/>
</g>
<!-- InfiniScrollDirective -->
<g id="node4" class="node">
<title>InfiniScrollDirective</title>
<polygon fill="#ffffb3" stroke="#000000" points="283.1247,-122 150.8753,-122 150.8753,-86 283.1247,-86 283.1247,-122"/>
<text text-anchor="middle" x="217" y="-99.8" font-family="Times,serif" font-size="14.00" fill="#000000">InfiniScrollDirective</text>
</g>
<!-- InfiniScrollDirective&#45;&gt;UtilsModule -->
<g id="edge4" class="edge">
<title>InfiniScrollDirective&#45;&gt;UtilsModule</title>
<path fill="none" stroke="#000000" d="M238.2707,-122.0091C238.2707,-138.0494 238.2707,-159 238.2707,-159 238.2707,-159 316.5018,-159 316.5018,-159"/>
<polygon fill="#000000" stroke="#000000" points="316.5019,-162.5001 326.5018,-159 316.5018,-155.5001 316.5019,-162.5001"/>
</g>
<!-- UserNamePipe -->
<g id="node5" class="node">
<title>UserNamePipe</title>
<polygon fill="#ffffb3" stroke="#000000" points="132.2409,-122 31.7591,-122 31.7591,-86 132.2409,-86 132.2409,-122"/>
<text text-anchor="middle" x="82" y="-99.8" font-family="Times,serif" font-size="14.00" fill="#000000">UserNamePipe</text>
</g>
<!-- UserNamePipe&#45;&gt;UtilsModule -->
<g id="edge5" class="edge">
<title>UserNamePipe&#45;&gt;UtilsModule</title>
<path fill="none" stroke="#000000" d="M95.9568,-122.2667C95.9568,-140.5552 95.9568,-166 95.9568,-166 95.9568,-166 316.577,-166 316.577,-166"/>
<polygon fill="#000000" stroke="#000000" points="316.5771,-169.5001 326.577,-166 316.577,-162.5001 316.5771,-169.5001"/>
</g>
<!-- ClickOutsideDirective  -->
<g id="node7" class="node">
<title>ClickOutsideDirective </title>
<polygon fill="#fb8072" stroke="#000000" points="698.9629,-252 553.0371,-252 553.0371,-216 698.9629,-216 698.9629,-252"/>
<text text-anchor="middle" x="626" y="-229.8" font-family="Times,serif" font-size="14.00" fill="#000000">ClickOutsideDirective </text>
</g>
<!-- UtilsModule&#45;&gt;ClickOutsideDirective  -->
<g id="edge6" class="edge">
<title>UtilsModule&#45;&gt;ClickOutsideDirective </title>
<path fill="none" stroke="#000000" stroke-dasharray="5,2" d="M413.312,-173C479.655,-173 598.8396,-173 598.8396,-173 598.8396,-173 598.8396,-205.698 598.8396,-205.698"/>
<polygon fill="#000000" stroke="#000000" points="595.3397,-205.698 598.8396,-215.698 602.3397,-205.698 595.3397,-205.698"/>
</g>
<!-- ConstPipe  -->
<g id="node8" class="node">
<title>ConstPipe </title>
<polygon fill="#fb8072" stroke="#000000" points="535.5596,-252 458.4404,-252 458.4404,-216 535.5596,-216 535.5596,-252"/>
<text text-anchor="middle" x="497" y="-229.8" font-family="Times,serif" font-size="14.00" fill="#000000">ConstPipe </text>
</g>
<!-- UtilsModule&#45;&gt;ConstPipe  -->
<g id="edge7" class="edge">
<title>UtilsModule&#45;&gt;ConstPipe </title>
<path fill="none" stroke="#000000" stroke-dasharray="5,2" d="M413.3949,-180C444.9793,-180 482.2401,-180 482.2401,-180 482.2401,-180 482.2401,-205.7181 482.2401,-205.7181"/>
<polygon fill="#000000" stroke="#000000" points="478.7402,-205.718 482.2401,-215.7181 485.7402,-205.7181 478.7402,-205.718"/>
</g>
<!-- DateToTimeAgoPipe  -->
<g id="node9" class="node">
<title>DateToTimeAgoPipe </title>
<polygon fill="#fb8072" stroke="#000000" points="440.0218,-252 299.9782,-252 299.9782,-216 440.0218,-216 440.0218,-252"/>
<text text-anchor="middle" x="370" y="-229.8" font-family="Times,serif" font-size="14.00" fill="#000000">DateToTimeAgoPipe </text>
</g>
<!-- UtilsModule&#45;&gt;DateToTimeAgoPipe  -->
<g id="edge8" class="edge">
<title>UtilsModule&#45;&gt;DateToTimeAgoPipe </title>
<path fill="none" stroke="#000000" stroke-dasharray="5,2" d="M370,-187.1061C370,-187.1061 370,-205.991 370,-205.991"/>
<polygon fill="#000000" stroke="#000000" points="366.5001,-205.9909 370,-215.991 373.5001,-205.991 366.5001,-205.9909"/>
</g>
<!-- InfiniScrollDirective  -->
<g id="node10" class="node">
<title>InfiniScrollDirective </title>
<polygon fill="#fb8072" stroke="#000000" points="282.1243,-252 145.8757,-252 145.8757,-216 282.1243,-216 282.1243,-252"/>
<text text-anchor="middle" x="214" y="-229.8" font-family="Times,serif" font-size="14.00" fill="#000000">InfiniScrollDirective </text>
</g>
<!-- UtilsModule&#45;&gt;InfiniScrollDirective  -->
<g id="edge9" class="edge">
<title>UtilsModule&#45;&gt;InfiniScrollDirective </title>
<path fill="none" stroke="#000000" stroke-dasharray="5,2" d="M326.6129,-180C274.6361,-180 194.4793,-180 194.4793,-180 194.4793,-180 194.4793,-205.7181 194.4793,-205.7181"/>
<polygon fill="#000000" stroke="#000000" points="190.9794,-205.718 194.4793,-215.7181 197.9794,-205.7181 190.9794,-205.718"/>
</g>
<!-- UserNamePipe  -->
<g id="node11" class="node">
<title>UserNamePipe </title>
<polygon fill="#fb8072" stroke="#000000" points="128.2409,-252 23.7591,-252 23.7591,-216 128.2409,-216 128.2409,-252"/>
<text text-anchor="middle" x="76" y="-229.8" font-family="Times,serif" font-size="14.00" fill="#000000">UserNamePipe </text>
</g>
<!-- UtilsModule&#45;&gt;UserNamePipe  -->
<g id="edge10" class="edge">
<title>UtilsModule&#45;&gt;UserNamePipe </title>
<path fill="none" stroke="#000000" stroke-dasharray="5,2" d="M326.4532,-173C241.915,-173 63.7932,-173 63.7932,-173 63.7932,-173 63.7932,-205.698 63.7932,-205.698"/>
<polygon fill="#000000" stroke="#000000" points="60.2931,-205.698 63.7932,-215.698 67.2931,-205.698 60.2931,-205.698"/>
</g>
</g>
</svg>
