<?xml version="1.0" encoding="UTF-8" standalone="no"?>
<!DOCTYPE svg PUBLIC "-//W3C//DTD SVG 1.1//EN"
 "http://www.w3.org/Graphics/SVG/1.1/DTD/svg11.dtd">
<!-- Generated by graphviz version 2.40.1 (20161225.0304)
 -->
<!-- Title: dependencies Pages: 1 -->
<svg width="690pt" height="284pt"
 viewBox="0.00 0.00 690.00 284.00" xmlns="http://www.w3.org/2000/svg" xmlns:xlink="http://www.w3.org/1999/xlink">
<g id="graph0" class="graph" transform="scale(1 1) rotate(0) translate(4 280)">
<title>dependencies</title>
<polygon fill="#ffffff" stroke="transparent" points="-4,4 -4,-280 686,-280 686,4 -4,4"/>
<text text-anchor="start" x="320.0091" y="-42.4" font-family="sans-serif" font-weight="bold" font-size="14.00" fill="#000000">Legend</text>
<polygon fill="#ffffb3" stroke="transparent" points="107,-10 107,-30 127,-30 127,-10 107,-10"/>
<text text-anchor="start" x="130.629" y="-15.4" font-family="sans-serif" font-size="14.00" fill="#000000"> &#160;Declarations</text>
<polygon fill="#8dd3c7" stroke="transparent" points="220,-10 220,-30 240,-30 240,-10 220,-10"/>
<text text-anchor="start" x="243.7251" y="-15.4" font-family="sans-serif" font-size="14.00" fill="#000000"> &#160;Module</text>
<polygon fill="#80b1d3" stroke="transparent" points="306,-10 306,-30 326,-30 326,-10 306,-10"/>
<text text-anchor="start" x="329.7812" y="-15.4" font-family="sans-serif" font-size="14.00" fill="#000000"> &#160;Bootstrap</text>
<polygon fill="#fdb462" stroke="transparent" points="403,-10 403,-30 423,-30 423,-10 403,-10"/>
<text text-anchor="start" x="426.6732" y="-15.4" font-family="sans-serif" font-size="14.00" fill="#000000"> &#160;Providers</text>
<polygon fill="#fb8072" stroke="transparent" points="499,-10 499,-30 519,-30 519,-10 499,-10"/>
<text text-anchor="start" x="522.7258" y="-15.4" font-family="sans-serif" font-size="14.00" fill="#000000"> &#160;Exports</text>
<g id="clust1" class="cluster">
<title>cluster_RatingModule</title>
<polygon fill="none" stroke="#000000" stroke-dasharray="1,5" points="8,-70 8,-268 674,-268 674,-70 8,-70"/>
</g>
<g id="clust2" class="cluster">
<title>cluster_RatingModule_declarations</title>
<polygon fill="none" stroke="#000000" points="130,-78 130,-130 666,-130 666,-78 130,-78"/>
</g>
<g id="clust6" class="cluster">
<title>cluster_RatingModule_imports</title>
<polygon fill="none" stroke="#000000" points="16,-78 16,-130 122,-130 122,-78 16,-78"/>
</g>
<g id="clust7" class="cluster">
<title>cluster_RatingModule_exports</title>
<polygon fill="none" stroke="#000000" points="68,-208 68,-260 613,-260 613,-208 68,-208"/>
</g>
<!-- RatingCylinderComponent -->
<g id="node1" class="node">
<title>RatingCylinderComponent</title>
<polygon fill="#ffffb3" stroke="#000000" points="657.6581,-122 490.3419,-122 490.3419,-86 657.6581,-86 657.6581,-122"/>
<text text-anchor="middle" x="574" y="-99.8" font-family="Times,serif" font-size="14.00" fill="#000000">RatingCylinderComponent</text>
</g>
<!-- RatingModule -->
<g id="node4" class="node">
<title>RatingModule</title>
<polygon fill="#8dd3c7" stroke="#000000" points="387.3823,-187 384.3823,-191 363.3823,-191 360.3823,-187 290.6177,-187 290.6177,-151 387.3823,-151 387.3823,-187"/>
<text text-anchor="middle" x="339" y="-164.8" font-family="Times,serif" font-size="14.00" fill="#000000">RatingModule</text>
</g>
<!-- RatingCylinderComponent&#45;&gt;RatingModule -->
<g id="edge1" class="edge">
<title>RatingCylinderComponent&#45;&gt;RatingModule</title>
<path fill="none" stroke="#000000" d="M547.375,-122.0225C547.375,-139.3734 547.375,-163 547.375,-163 547.375,-163 397.5917,-163 397.5917,-163"/>
<polygon fill="#000000" stroke="#000000" points="397.5917,-159.5001 387.5917,-163 397.5917,-166.5001 397.5917,-159.5001"/>
</g>
<!-- RatingHeartComponent -->
<g id="node2" class="node">
<title>RatingHeartComponent</title>
<polygon fill="#ffffb3" stroke="#000000" points="471.752,-122 322.248,-122 322.248,-86 471.752,-86 471.752,-122"/>
<text text-anchor="middle" x="397" y="-99.8" font-family="Times,serif" font-size="14.00" fill="#000000">RatingHeartComponent</text>
</g>
<!-- RatingHeartComponent&#45;&gt;RatingModule -->
<g id="edge2" class="edge">
<title>RatingHeartComponent&#45;&gt;RatingModule</title>
<path fill="none" stroke="#000000" d="M354.7826,-122.1061C354.7826,-122.1061 354.7826,-140.991 354.7826,-140.991"/>
<polygon fill="#000000" stroke="#000000" points="351.2827,-140.9909 354.7826,-150.991 358.2827,-140.991 351.2827,-140.9909"/>
</g>
<!-- ThumbButtonsComponent -->
<g id="node3" class="node">
<title>ThumbButtonsComponent</title>
<polygon fill="#ffffb3" stroke="#000000" points="303.8383,-122 138.1617,-122 138.1617,-86 303.8383,-86 303.8383,-122"/>
<text text-anchor="middle" x="221" y="-99.8" font-family="Times,serif" font-size="14.00" fill="#000000">ThumbButtonsComponent</text>
</g>
<!-- ThumbButtonsComponent&#45;&gt;RatingModule -->
<g id="edge3" class="edge">
<title>ThumbButtonsComponent&#45;&gt;RatingModule</title>
<path fill="none" stroke="#000000" d="M297.114,-122.1061C297.114,-122.1061 297.114,-140.991 297.114,-140.991"/>
<polygon fill="#000000" stroke="#000000" points="293.614,-140.9909 297.114,-150.991 300.614,-140.991 293.614,-140.9909"/>
</g>
<!-- RatingCylinderComponent  -->
<g id="node6" class="node">
<title>RatingCylinderComponent </title>
<polygon fill="#fb8072" stroke="#000000" points="604.6579,-252 433.3421,-252 433.3421,-216 604.6579,-216 604.6579,-252"/>
<text text-anchor="middle" x="519" y="-229.8" font-family="Times,serif" font-size="14.00" fill="#000000">RatingCylinderComponent </text>
</g>
<!-- RatingModule&#45;&gt;RatingCylinderComponent  -->
<g id="edge5" class="edge">
<title>RatingModule&#45;&gt;RatingCylinderComponent </title>
<path fill="none" stroke="#000000" stroke-dasharray="5,2" d="M387.5268,-175C418.4162,-175 452.6485,-175 452.6485,-175 452.6485,-175 452.6485,-205.9775 452.6485,-205.9775"/>
<polygon fill="#000000" stroke="#000000" points="449.1486,-205.9774 452.6485,-215.9775 456.1486,-205.9775 449.1486,-205.9774"/>
</g>
<!-- RatingHeartComponent  -->
<g id="node7" class="node">
<title>RatingHeartComponent </title>
<polygon fill="#fb8072" stroke="#000000" points="415.752,-252 262.248,-252 262.248,-216 415.752,-216 415.752,-252"/>
<text text-anchor="middle" x="339" y="-229.8" font-family="Times,serif" font-size="14.00" fill="#000000">RatingHeartComponent </text>
</g>
<!-- RatingModule&#45;&gt;RatingHeartComponent  -->
<g id="edge6" class="edge">
<title>RatingModule&#45;&gt;RatingHeartComponent </title>
<path fill="none" stroke="#000000" stroke-dasharray="5,2" d="M339,-187.1061C339,-187.1061 339,-205.991 339,-205.991"/>
<polygon fill="#000000" stroke="#000000" points="335.5001,-205.9909 339,-215.991 342.5001,-205.991 335.5001,-205.9909"/>
</g>
<!-- ThumbButtonsComponent  -->
<g id="node8" class="node">
<title>ThumbButtonsComponent </title>
<polygon fill="#fb8072" stroke="#000000" points="244.3381,-252 75.6619,-252 75.6619,-216 244.3381,-216 244.3381,-252"/>
<text text-anchor="middle" x="160" y="-229.8" font-family="Times,serif" font-size="14.00" fill="#000000">ThumbButtonsComponent </text>
</g>
<!-- RatingModule&#45;&gt;ThumbButtonsComponent  -->
<g id="edge7" class="edge">
<title>RatingModule&#45;&gt;ThumbButtonsComponent </title>
<path fill="none" stroke="#000000" stroke-dasharray="5,2" d="M290.2529,-175C247.253,-175 191.375,-175 191.375,-175 191.375,-175 191.375,-205.9775 191.375,-205.9775"/>
<polygon fill="#000000" stroke="#000000" points="187.8751,-205.9774 191.375,-215.9775 194.8751,-205.9775 187.8751,-205.9774"/>
</g>
<!-- IconsModule -->
<g id="node5" class="node">
<title>IconsModule</title>
<polygon fill="#8dd3c7" stroke="#000000" points="113.8697,-122 110.8697,-126 89.8697,-126 86.8697,-122 24.1303,-122 24.1303,-86 113.8697,-86 113.8697,-122"/>
<text text-anchor="middle" x="69" y="-99.8" font-family="Times,serif" font-size="14.00" fill="#000000">IconsModule</text>
</g>
<!-- IconsModule&#45;&gt;RatingModule -->
<g id="edge4" class="edge">
<title>IconsModule&#45;&gt;RatingModule</title>
<path fill="none" stroke="#000000" d="M94.7579,-122.0225C94.7579,-139.3734 94.7579,-163 94.7579,-163 94.7579,-163 280.4536,-163 280.4536,-163"/>
<polygon fill="#000000" stroke="#000000" points="280.4536,-166.5001 290.4536,-163 280.4536,-159.5001 280.4536,-166.5001"/>
</g>
</g>
</svg>
